M48
; DRILL file {KiCad 6.0.7} date Thu 31 Aug 2023 11:58:32
; FORMAT={-:-/ absolute / metric / decimal}
; #@! TF.CreationDate,2023-08-31T11:58:32+12:00
; #@! TF.GenerationSoftware,Kicad,Pcbnew,6.0.7
; #@! TF.FileFunction,Plated,1,2,PTH
FMAT,2
METRIC
; #@! TA.AperFunction,Plated,PTH,ViaDrill
T1C0.400
; #@! TA.AperFunction,Plated,PTH,ComponentDrill
T2C0.800
; #@! TA.AperFunction,Plated,PTH,ComponentDrill
T3C1.000
; #@! TA.AperFunction,Plated,PTH,ComponentDrill
T4C1.220
; #@! TA.AperFunction,Plated,PTH,ComponentDrill
T5C1.300
; #@! TA.AperFunction,Plated,PTH,ComponentDrill
T6C1.420
; #@! TA.AperFunction,Plated,PTH,ComponentDrill
T7C1.430
; #@! TA.AperFunction,Plated,PTH,ComponentDrill
T8C1.700
; #@! TA.AperFunction,Plated,PTH,ComponentDrill
T9C2.000
%
G90
G05
T1
X123.3Y-66.4
X129.3Y-91.0
X146.5Y-90.4
X147.5Y-94.7
T2
X108.7Y-43.9
X108.7Y-48.98
X113.28Y-53.8
X120.9Y-53.8
X122.8Y-58.35
X122.8Y-63.43
X126.5Y-44.05
X126.5Y-49.13
X143.5Y-37.5
X143.5Y-42.58
X143.83Y-49.3
X149.081Y-91.38
X149.081Y-99.0
X151.45Y-49.3
X151.621Y-91.38
X151.621Y-99.0
X154.161Y-91.38
X154.161Y-99.0
X156.701Y-91.38
X156.701Y-99.0
X158.35Y-49.2
X159.241Y-91.38
X159.241Y-99.0
X161.781Y-91.38
X161.781Y-99.0
X164.321Y-91.38
X164.321Y-99.0
X165.9Y-37.6
X165.9Y-42.68
X165.97Y-49.2
X166.861Y-91.38
X166.861Y-99.0
X183.15Y-44.2
X183.15Y-49.28
X187.2Y-58.95
X187.2Y-64.03
X188.6Y-54.0
X196.22Y-54.0
X201.3Y-44.5
X201.3Y-49.58
T3
X110.8Y-69.55
X111.1Y-86.45
X113.3Y-69.55
X113.6Y-86.45
X115.8Y-69.55
X116.1Y-86.45
X128.6Y-61.5
X128.6Y-64.04
X128.6Y-66.58
X128.6Y-69.12
X128.6Y-71.66
X128.6Y-74.2
X128.6Y-76.74
X128.6Y-79.28
X133.74Y-60.5
X133.74Y-63.04
X133.8Y-55.4
X136.28Y-60.5
X136.28Y-63.04
X136.34Y-55.4
X138.82Y-60.5
X138.82Y-63.04
X141.36Y-60.5
X141.36Y-63.04
X143.9Y-60.5
X143.9Y-63.04
X146.44Y-60.5
X146.44Y-63.04
X148.98Y-60.5
X148.98Y-63.04
X151.52Y-60.5
X151.52Y-63.04
X154.06Y-60.5
X154.06Y-63.04
X156.6Y-60.5
X156.6Y-63.04
X159.14Y-60.5
X159.14Y-63.04
X161.68Y-60.5
X161.68Y-63.04
X164.22Y-60.5
X164.22Y-63.04
X166.76Y-60.5
X166.76Y-63.04
X169.3Y-60.5
X169.3Y-63.04
X171.84Y-60.5
X171.84Y-63.04
X171.9Y-104.05
X171.9Y-106.85
X171.9Y-110.55
X174.38Y-60.5
X174.38Y-63.04
X176.92Y-60.5
X176.92Y-63.04
X179.46Y-60.5
X179.46Y-63.04
X182.0Y-60.5
X182.0Y-63.04
X182.27Y-104.05
X182.3Y-106.85
X182.3Y-110.55
X194.7Y-69.85
X194.8Y-86.4
X196.1Y-97.95
X196.1Y-100.49
X196.1Y-103.03
X196.1Y-105.57
X196.1Y-108.11
X196.1Y-110.65
X196.1Y-113.19
X196.1Y-115.73
X197.2Y-69.85
X197.3Y-86.4
X198.64Y-97.95
X198.64Y-100.49
X198.64Y-103.03
X198.64Y-105.57
X198.64Y-108.11
X198.64Y-110.65
X198.64Y-113.19
X198.64Y-115.73
X199.7Y-69.85
X199.8Y-86.4
T4
X115.6Y-38.0
X136.9Y-37.9
X172.9Y-38.0
X194.2Y-37.9
T5
X108.54Y-106.2
X108.54Y-111.2
X121.04Y-106.2
X121.04Y-111.2
X122.14Y-120.7
X122.14Y-125.7
X134.64Y-120.7
X134.64Y-125.7
X135.64Y-106.2
X135.64Y-111.2
X148.14Y-106.2
X148.14Y-111.2
X149.34Y-120.7
X149.34Y-125.7
X161.84Y-120.7
X161.84Y-125.7
X179.4Y-120.7
X179.4Y-125.7
X191.9Y-120.7
X191.9Y-125.7
T6
X115.6Y-41.1
X136.9Y-41.0
X172.9Y-41.1
X194.2Y-41.0
T7
X115.6Y-49.4
X136.9Y-49.3
X172.9Y-49.4
X194.2Y-49.3
T8
X154.9Y-39.5
T9
X149.75Y-41.1
X160.05Y-41.1
T0
M30
