%TF.GenerationSoftware,KiCad,Pcbnew,6.0.7*%
%TF.CreationDate,2022-12-24T13:09:46+13:00*%
%TF.ProjectId,default_panel,64656661-756c-4745-9f70-616e656c2e6b,rev?*%
%TF.SameCoordinates,Original*%
%TF.FileFunction,Legend,Bot*%
%TF.FilePolarity,Positive*%
%FSLAX46Y46*%
G04 Gerber Fmt 4.6, Leading zero omitted, Abs format (unit mm)*
G04 Created by KiCad (PCBNEW 6.0.7) date 2022-12-24 13:09:46*
%MOMM*%
%LPD*%
G01*
G04 APERTURE LIST*
%ADD10C,0.150000*%
%ADD11C,0.300000*%
%ADD12C,0.500000*%
G04 APERTURE END LIST*
D10*
X176569047Y-143002380D02*
X176569047Y-143716666D01*
X176616666Y-143859523D01*
X176711904Y-143954761D01*
X176854761Y-144002380D01*
X176950000Y-144002380D01*
X175616666Y-144002380D02*
X176092857Y-144002380D01*
X176092857Y-143002380D01*
X174711904Y-143907142D02*
X174759523Y-143954761D01*
X174902380Y-144002380D01*
X174997619Y-144002380D01*
X175140476Y-143954761D01*
X175235714Y-143859523D01*
X175283333Y-143764285D01*
X175330952Y-143573809D01*
X175330952Y-143430952D01*
X175283333Y-143240476D01*
X175235714Y-143145238D01*
X175140476Y-143050000D01*
X174997619Y-143002380D01*
X174902380Y-143002380D01*
X174759523Y-143050000D01*
X174711904Y-143097619D01*
X173997619Y-143002380D02*
X173997619Y-143716666D01*
X174045238Y-143859523D01*
X174140476Y-143954761D01*
X174283333Y-144002380D01*
X174378571Y-144002380D01*
X173045238Y-144002380D02*
X173521428Y-144002380D01*
X173521428Y-143002380D01*
X172140476Y-143907142D02*
X172188095Y-143954761D01*
X172330952Y-144002380D01*
X172426190Y-144002380D01*
X172569047Y-143954761D01*
X172664285Y-143859523D01*
X172711904Y-143764285D01*
X172759523Y-143573809D01*
X172759523Y-143430952D01*
X172711904Y-143240476D01*
X172664285Y-143145238D01*
X172569047Y-143050000D01*
X172426190Y-143002380D01*
X172330952Y-143002380D01*
X172188095Y-143050000D01*
X172140476Y-143097619D01*
X171426190Y-143002380D02*
X171426190Y-143716666D01*
X171473809Y-143859523D01*
X171569047Y-143954761D01*
X171711904Y-144002380D01*
X171807142Y-144002380D01*
X170473809Y-144002380D02*
X170950000Y-144002380D01*
X170950000Y-143002380D01*
X169569047Y-143907142D02*
X169616666Y-143954761D01*
X169759523Y-144002380D01*
X169854761Y-144002380D01*
X169997619Y-143954761D01*
X170092857Y-143859523D01*
X170140476Y-143764285D01*
X170188095Y-143573809D01*
X170188095Y-143430952D01*
X170140476Y-143240476D01*
X170092857Y-143145238D01*
X169997619Y-143050000D01*
X169854761Y-143002380D01*
X169759523Y-143002380D01*
X169616666Y-143050000D01*
X169569047Y-143097619D01*
X168854761Y-143002380D02*
X168854761Y-143716666D01*
X168902380Y-143859523D01*
X168997619Y-143954761D01*
X169140476Y-144002380D01*
X169235714Y-144002380D01*
X167902380Y-144002380D02*
X168378571Y-144002380D01*
X168378571Y-143002380D01*
X166997619Y-143907142D02*
X167045238Y-143954761D01*
X167188095Y-144002380D01*
X167283333Y-144002380D01*
X167426190Y-143954761D01*
X167521428Y-143859523D01*
X167569047Y-143764285D01*
X167616666Y-143573809D01*
X167616666Y-143430952D01*
X167569047Y-143240476D01*
X167521428Y-143145238D01*
X167426190Y-143050000D01*
X167283333Y-143002380D01*
X167188095Y-143002380D01*
X167045238Y-143050000D01*
X166997619Y-143097619D01*
D11*
X103535714Y-106828571D02*
X103535714Y-107828571D01*
X104178571Y-106828571D02*
X104178571Y-107614285D01*
X104107142Y-107757142D01*
X103964285Y-107828571D01*
X103750000Y-107828571D01*
X103607142Y-107757142D01*
X103535714Y-107685714D01*
X102821428Y-106828571D02*
X102821428Y-107828571D01*
X102821428Y-106971428D02*
X102750000Y-106900000D01*
X102607142Y-106828571D01*
X102392857Y-106828571D01*
X102250000Y-106900000D01*
X102178571Y-107042857D01*
X102178571Y-107828571D01*
X100821428Y-107828571D02*
X100821428Y-106328571D01*
X100821428Y-107757142D02*
X100964285Y-107828571D01*
X101250000Y-107828571D01*
X101392857Y-107757142D01*
X101464285Y-107685714D01*
X101535714Y-107542857D01*
X101535714Y-107114285D01*
X101464285Y-106971428D01*
X101392857Y-106900000D01*
X101250000Y-106828571D01*
X100964285Y-106828571D01*
X100821428Y-106900000D01*
X99535714Y-107757142D02*
X99678571Y-107828571D01*
X99964285Y-107828571D01*
X100107142Y-107757142D01*
X100178571Y-107614285D01*
X100178571Y-107042857D01*
X100107142Y-106900000D01*
X99964285Y-106828571D01*
X99678571Y-106828571D01*
X99535714Y-106900000D01*
X99464285Y-107042857D01*
X99464285Y-107185714D01*
X100178571Y-107328571D01*
X98821428Y-107828571D02*
X98821428Y-106828571D01*
X98821428Y-107114285D02*
X98750000Y-106971428D01*
X98678571Y-106900000D01*
X98535714Y-106828571D01*
X98392857Y-106828571D01*
X97964285Y-107757142D02*
X97821428Y-107828571D01*
X97535714Y-107828571D01*
X97392857Y-107757142D01*
X97321428Y-107614285D01*
X97321428Y-107542857D01*
X97392857Y-107400000D01*
X97535714Y-107328571D01*
X97750000Y-107328571D01*
X97892857Y-107257142D01*
X97964285Y-107114285D01*
X97964285Y-107042857D01*
X97892857Y-106900000D01*
X97750000Y-106828571D01*
X97535714Y-106828571D01*
X97392857Y-106900000D01*
X96035714Y-107757142D02*
X96178571Y-107828571D01*
X96464285Y-107828571D01*
X96607142Y-107757142D01*
X96678571Y-107685714D01*
X96750000Y-107542857D01*
X96750000Y-107114285D01*
X96678571Y-106971428D01*
X96607142Y-106900000D01*
X96464285Y-106828571D01*
X96178571Y-106828571D01*
X96035714Y-106900000D01*
X95178571Y-107828571D02*
X95321428Y-107757142D01*
X95392857Y-107685714D01*
X95464285Y-107542857D01*
X95464285Y-107114285D01*
X95392857Y-106971428D01*
X95321428Y-106900000D01*
X95178571Y-106828571D01*
X94964285Y-106828571D01*
X94821428Y-106900000D01*
X94750000Y-106971428D01*
X94678571Y-107114285D01*
X94678571Y-107542857D01*
X94750000Y-107685714D01*
X94821428Y-107757142D01*
X94964285Y-107828571D01*
X95178571Y-107828571D01*
X94035714Y-107828571D02*
X94035714Y-106828571D01*
X94035714Y-107114285D02*
X93964285Y-106971428D01*
X93892857Y-106900000D01*
X93750000Y-106828571D01*
X93607142Y-106828571D01*
X92535714Y-107757142D02*
X92678571Y-107828571D01*
X92964285Y-107828571D01*
X93107142Y-107757142D01*
X93178571Y-107614285D01*
X93178571Y-107042857D01*
X93107142Y-106900000D01*
X92964285Y-106828571D01*
X92678571Y-106828571D01*
X92535714Y-106900000D01*
X92464285Y-107042857D01*
X92464285Y-107185714D01*
X93178571Y-107328571D01*
X91892857Y-107757142D02*
X91750000Y-107828571D01*
X91464285Y-107828571D01*
X91321428Y-107757142D01*
X91250000Y-107614285D01*
X91250000Y-107542857D01*
X91321428Y-107400000D01*
X91464285Y-107328571D01*
X91678571Y-107328571D01*
X91821428Y-107257142D01*
X91892857Y-107114285D01*
X91892857Y-107042857D01*
X91821428Y-106900000D01*
X91678571Y-106828571D01*
X91464285Y-106828571D01*
X91321428Y-106900000D01*
X90607142Y-107685714D02*
X90535714Y-107757142D01*
X90607142Y-107828571D01*
X90678571Y-107757142D01*
X90607142Y-107685714D01*
X90607142Y-107828571D01*
X89964285Y-107757142D02*
X89821428Y-107828571D01*
X89535714Y-107828571D01*
X89392857Y-107757142D01*
X89321428Y-107614285D01*
X89321428Y-107542857D01*
X89392857Y-107400000D01*
X89535714Y-107328571D01*
X89750000Y-107328571D01*
X89892857Y-107257142D01*
X89964285Y-107114285D01*
X89964285Y-107042857D01*
X89892857Y-106900000D01*
X89750000Y-106828571D01*
X89535714Y-106828571D01*
X89392857Y-106900000D01*
X88678571Y-107828571D02*
X88678571Y-106328571D01*
X88035714Y-107828571D02*
X88035714Y-107042857D01*
X88107142Y-106900000D01*
X88250000Y-106828571D01*
X88464285Y-106828571D01*
X88607142Y-106900000D01*
X88678571Y-106971428D01*
X87107142Y-107828571D02*
X87250000Y-107757142D01*
X87321428Y-107685714D01*
X87392857Y-107542857D01*
X87392857Y-107114285D01*
X87321428Y-106971428D01*
X87250000Y-106900000D01*
X87107142Y-106828571D01*
X86892857Y-106828571D01*
X86750000Y-106900000D01*
X86678571Y-106971428D01*
X86607142Y-107114285D01*
X86607142Y-107542857D01*
X86678571Y-107685714D01*
X86750000Y-107757142D01*
X86892857Y-107828571D01*
X87107142Y-107828571D01*
X85964285Y-106828571D02*
X85964285Y-108328571D01*
X85964285Y-106900000D02*
X85821428Y-106828571D01*
X85535714Y-106828571D01*
X85392857Y-106900000D01*
X85321428Y-106971428D01*
X85250000Y-107114285D01*
X85250000Y-107542857D01*
X85321428Y-107685714D01*
X85392857Y-107757142D01*
X85535714Y-107828571D01*
X85821428Y-107828571D01*
X85964285Y-107757142D01*
D12*
X104250000Y-104488095D02*
X100440476Y-104488095D01*
X99964285Y-99488095D02*
X99011904Y-98773809D01*
X98059523Y-99488095D01*
X89964285Y-104011904D02*
X92821428Y-104011904D01*
X91392857Y-104011904D02*
X91392857Y-99011904D01*
X91869047Y-99726190D01*
X92345238Y-100202380D01*
X92821428Y-100440476D01*
X86869047Y-99011904D02*
X86392857Y-99011904D01*
X85916666Y-99250000D01*
X85678571Y-99488095D01*
X85440476Y-99964285D01*
X85202380Y-100916666D01*
X85202380Y-102107142D01*
X85440476Y-103059523D01*
X85678571Y-103535714D01*
X85916666Y-103773809D01*
X86392857Y-104011904D01*
X86869047Y-104011904D01*
X87345238Y-103773809D01*
X87583333Y-103535714D01*
X87821428Y-103059523D01*
X88059523Y-102107142D01*
X88059523Y-100916666D01*
X87821428Y-99964285D01*
X87583333Y-99488095D01*
X87345238Y-99250000D01*
X86869047Y-99011904D01*
D11*
X179480285Y-130705000D02*
X179423142Y-130819285D01*
X179423142Y-131047857D01*
X179480285Y-131162142D01*
X179537428Y-131219285D01*
X179651714Y-131276428D01*
X179994571Y-131276428D01*
X180108857Y-131219285D01*
X180166000Y-131162142D01*
X180223142Y-131047857D01*
X180223142Y-130819285D01*
X180166000Y-130705000D01*
X180223142Y-130305000D02*
X179423142Y-130019285D01*
X180223142Y-129733571D02*
X179423142Y-130019285D01*
X179137428Y-130133571D01*
X179080285Y-130190714D01*
X179023142Y-130305000D01*
X179423142Y-129276428D02*
X180623142Y-129276428D01*
X180166000Y-129276428D02*
X180223142Y-129162142D01*
X180223142Y-128933571D01*
X180166000Y-128819285D01*
X180108857Y-128762142D01*
X179994571Y-128705000D01*
X179651714Y-128705000D01*
X179537428Y-128762142D01*
X179480285Y-128819285D01*
X179423142Y-128933571D01*
X179423142Y-129162142D01*
X179480285Y-129276428D01*
X179480285Y-127733571D02*
X179423142Y-127847857D01*
X179423142Y-128076428D01*
X179480285Y-128190714D01*
X179594571Y-128247857D01*
X180051714Y-128247857D01*
X180166000Y-128190714D01*
X180223142Y-128076428D01*
X180223142Y-127847857D01*
X180166000Y-127733571D01*
X180051714Y-127676428D01*
X179937428Y-127676428D01*
X179823142Y-128247857D01*
X179423142Y-127162142D02*
X180223142Y-127162142D01*
X179994571Y-127162142D02*
X180108857Y-127105000D01*
X180166000Y-127047857D01*
X180223142Y-126933571D01*
X180223142Y-126819285D01*
X179423142Y-126419285D02*
X180623142Y-126419285D01*
X180166000Y-126419285D02*
X180223142Y-126305000D01*
X180223142Y-126076428D01*
X180166000Y-125962142D01*
X180108857Y-125905000D01*
X179994571Y-125847857D01*
X179651714Y-125847857D01*
X179537428Y-125905000D01*
X179480285Y-125962142D01*
X179423142Y-126076428D01*
X179423142Y-126305000D01*
X179480285Y-126419285D01*
X179423142Y-125162142D02*
X179480285Y-125276428D01*
X179537428Y-125333571D01*
X179651714Y-125390714D01*
X179994571Y-125390714D01*
X180108857Y-125333571D01*
X180166000Y-125276428D01*
X180223142Y-125162142D01*
X180223142Y-124990714D01*
X180166000Y-124876428D01*
X180108857Y-124819285D01*
X179994571Y-124762142D01*
X179651714Y-124762142D01*
X179537428Y-124819285D01*
X179480285Y-124876428D01*
X179423142Y-124990714D01*
X179423142Y-125162142D01*
X180223142Y-124362142D02*
X179423142Y-124076428D01*
X180223142Y-123790714D02*
X179423142Y-124076428D01*
X179137428Y-124190714D01*
X179080285Y-124247857D01*
X179023142Y-124362142D01*
X180623142Y-122819285D02*
X180623142Y-123047857D01*
X180566000Y-123162142D01*
X180508857Y-123219285D01*
X180337428Y-123333571D01*
X180108857Y-123390714D01*
X179651714Y-123390714D01*
X179537428Y-123333571D01*
X179480285Y-123276428D01*
X179423142Y-123162142D01*
X179423142Y-122933571D01*
X179480285Y-122819285D01*
X179537428Y-122762142D01*
X179651714Y-122705000D01*
X179937428Y-122705000D01*
X180051714Y-122762142D01*
X180108857Y-122819285D01*
X180166000Y-122933571D01*
X180166000Y-123162142D01*
X180108857Y-123276428D01*
X180051714Y-123333571D01*
X179937428Y-123390714D01*
X180623142Y-121676428D02*
X180623142Y-121905000D01*
X180566000Y-122019285D01*
X180508857Y-122076428D01*
X180337428Y-122190714D01*
X180108857Y-122247857D01*
X179651714Y-122247857D01*
X179537428Y-122190714D01*
X179480285Y-122133571D01*
X179423142Y-122019285D01*
X179423142Y-121790714D01*
X179480285Y-121676428D01*
X179537428Y-121619285D01*
X179651714Y-121562142D01*
X179937428Y-121562142D01*
X180051714Y-121619285D01*
X180108857Y-121676428D01*
X180166000Y-121790714D01*
X180166000Y-122019285D01*
X180108857Y-122133571D01*
X180051714Y-122190714D01*
X179937428Y-122247857D01*
X180623142Y-120533571D02*
X180623142Y-120762142D01*
X180566000Y-120876428D01*
X180508857Y-120933571D01*
X180337428Y-121047857D01*
X180108857Y-121105000D01*
X179651714Y-121105000D01*
X179537428Y-121047857D01*
X179480285Y-120990714D01*
X179423142Y-120876428D01*
X179423142Y-120647857D01*
X179480285Y-120533571D01*
X179537428Y-120476428D01*
X179651714Y-120419285D01*
X179937428Y-120419285D01*
X180051714Y-120476428D01*
X180108857Y-120533571D01*
X180166000Y-120647857D01*
X180166000Y-120876428D01*
X180108857Y-120990714D01*
X180051714Y-121047857D01*
X179937428Y-121105000D01*
X179423142Y-118019285D02*
X179423142Y-118076428D01*
X179480285Y-118190714D01*
X179651714Y-118362142D01*
X179994571Y-118647857D01*
X180166000Y-118762142D01*
X180337428Y-118819285D01*
X180451714Y-118819285D01*
X180566000Y-118762142D01*
X180623142Y-118647857D01*
X180623142Y-118590714D01*
X180566000Y-118476428D01*
X180451714Y-118419285D01*
X180394571Y-118419285D01*
X180280285Y-118476428D01*
X180223142Y-118533571D01*
X179994571Y-118876428D01*
X179937428Y-118933571D01*
X179823142Y-118990714D01*
X179651714Y-118990714D01*
X179537428Y-118933571D01*
X179480285Y-118876428D01*
X179423142Y-118762142D01*
X179423142Y-118590714D01*
X179480285Y-118476428D01*
X179537428Y-118419285D01*
X179766000Y-118247857D01*
X179937428Y-118190714D01*
X180051714Y-118190714D01*
X179423142Y-116590714D02*
X180223142Y-116590714D01*
X180623142Y-116590714D02*
X180566000Y-116647857D01*
X180508857Y-116590714D01*
X180566000Y-116533571D01*
X180623142Y-116590714D01*
X180508857Y-116590714D01*
X179480285Y-115505000D02*
X179423142Y-115619285D01*
X179423142Y-115847857D01*
X179480285Y-115962142D01*
X179537428Y-116019285D01*
X179651714Y-116076428D01*
X179994571Y-116076428D01*
X180108857Y-116019285D01*
X180166000Y-115962142D01*
X180223142Y-115847857D01*
X180223142Y-115619285D01*
X180166000Y-115505000D01*
X179423142Y-114990714D02*
X180623142Y-114990714D01*
X179423142Y-114476428D02*
X180051714Y-114476428D01*
X180166000Y-114533571D01*
X180223142Y-114647857D01*
X180223142Y-114819285D01*
X180166000Y-114933571D01*
X180108857Y-114990714D01*
X179423142Y-113905000D02*
X180223142Y-113905000D01*
X180623142Y-113905000D02*
X180566000Y-113962142D01*
X180508857Y-113905000D01*
X180566000Y-113847857D01*
X180623142Y-113905000D01*
X180508857Y-113905000D01*
X179423142Y-112419285D02*
X180223142Y-112419285D01*
X179994571Y-112419285D02*
X180108857Y-112362142D01*
X180166000Y-112305000D01*
X180223142Y-112190714D01*
X180223142Y-112076428D01*
X179423142Y-111162142D02*
X180051714Y-111162142D01*
X180166000Y-111219285D01*
X180223142Y-111333571D01*
X180223142Y-111562142D01*
X180166000Y-111676428D01*
X179480285Y-111162142D02*
X179423142Y-111276428D01*
X179423142Y-111562142D01*
X179480285Y-111676428D01*
X179594571Y-111733571D01*
X179708857Y-111733571D01*
X179823142Y-111676428D01*
X179880285Y-111562142D01*
X179880285Y-111276428D01*
X179937428Y-111162142D01*
X179423142Y-110590714D02*
X180223142Y-110590714D01*
X179994571Y-110590714D02*
X180108857Y-110533571D01*
X180166000Y-110476428D01*
X180223142Y-110362142D01*
X180223142Y-110247857D01*
X179423142Y-109333571D02*
X180051714Y-109333571D01*
X180166000Y-109390714D01*
X180223142Y-109505000D01*
X180223142Y-109733571D01*
X180166000Y-109847857D01*
X179480285Y-109333571D02*
X179423142Y-109447857D01*
X179423142Y-109733571D01*
X179480285Y-109847857D01*
X179594571Y-109905000D01*
X179708857Y-109905000D01*
X179823142Y-109847857D01*
X179880285Y-109733571D01*
X179880285Y-109447857D01*
X179937428Y-109333571D01*
X179423142Y-108762142D02*
X180223142Y-108762142D01*
X180108857Y-108762142D02*
X180166000Y-108705000D01*
X180223142Y-108590714D01*
X180223142Y-108419285D01*
X180166000Y-108305000D01*
X180051714Y-108247857D01*
X179423142Y-108247857D01*
X180051714Y-108247857D02*
X180166000Y-108190714D01*
X180223142Y-108076428D01*
X180223142Y-107905000D01*
X180166000Y-107790714D01*
X180051714Y-107733571D01*
X179423142Y-107733571D01*
X180223142Y-106647857D02*
X179423142Y-106647857D01*
X180223142Y-107162142D02*
X179594571Y-107162142D01*
X179480285Y-107105000D01*
X179423142Y-106990714D01*
X179423142Y-106819285D01*
X179480285Y-106705000D01*
X179537428Y-106647857D01*
X179423142Y-106076428D02*
X180223142Y-106076428D01*
X179994571Y-106076428D02*
X180108857Y-106019285D01*
X180166000Y-105962142D01*
X180223142Y-105847857D01*
X180223142Y-105733571D01*
X179423142Y-105333571D02*
X180223142Y-105333571D01*
X180623142Y-105333571D02*
X180566000Y-105390714D01*
X180508857Y-105333571D01*
X180566000Y-105276428D01*
X180623142Y-105333571D01*
X180508857Y-105333571D01*
X177491142Y-131219285D02*
X178291142Y-131219285D01*
X178062571Y-131219285D02*
X178176857Y-131162142D01*
X178234000Y-131105000D01*
X178291142Y-130990714D01*
X178291142Y-130876428D01*
X177548285Y-130019285D02*
X177491142Y-130133571D01*
X177491142Y-130362142D01*
X177548285Y-130476428D01*
X177662571Y-130533571D01*
X178119714Y-130533571D01*
X178234000Y-130476428D01*
X178291142Y-130362142D01*
X178291142Y-130133571D01*
X178234000Y-130019285D01*
X178119714Y-129962142D01*
X178005428Y-129962142D01*
X177891142Y-130533571D01*
X177548285Y-128933571D02*
X177491142Y-129047857D01*
X177491142Y-129276428D01*
X177548285Y-129390714D01*
X177605428Y-129447857D01*
X177719714Y-129505000D01*
X178062571Y-129505000D01*
X178176857Y-129447857D01*
X178234000Y-129390714D01*
X178291142Y-129276428D01*
X178291142Y-129047857D01*
X178234000Y-128933571D01*
X178291142Y-127905000D02*
X177491142Y-127905000D01*
X178291142Y-128419285D02*
X177662571Y-128419285D01*
X177548285Y-128362142D01*
X177491142Y-128247857D01*
X177491142Y-128076428D01*
X177548285Y-127962142D01*
X177605428Y-127905000D01*
X177491142Y-127333571D02*
X178291142Y-127333571D01*
X178062571Y-127333571D02*
X178176857Y-127276428D01*
X178234000Y-127219285D01*
X178291142Y-127105000D01*
X178291142Y-126990714D01*
X178119714Y-126190714D02*
X178062571Y-126019285D01*
X178005428Y-125962142D01*
X177891142Y-125905000D01*
X177719714Y-125905000D01*
X177605428Y-125962142D01*
X177548285Y-126019285D01*
X177491142Y-126133571D01*
X177491142Y-126590714D01*
X178691142Y-126590714D01*
X178691142Y-126190714D01*
X178634000Y-126076428D01*
X178576857Y-126019285D01*
X178462571Y-125962142D01*
X178348285Y-125962142D01*
X178234000Y-126019285D01*
X178176857Y-126076428D01*
X178119714Y-126190714D01*
X178119714Y-126590714D01*
X178691142Y-125162142D02*
X178691142Y-124933571D01*
X178634000Y-124819285D01*
X178519714Y-124705000D01*
X178291142Y-124647857D01*
X177891142Y-124647857D01*
X177662571Y-124705000D01*
X177548285Y-124819285D01*
X177491142Y-124933571D01*
X177491142Y-125162142D01*
X177548285Y-125276428D01*
X177662571Y-125390714D01*
X177891142Y-125447857D01*
X178291142Y-125447857D01*
X178519714Y-125390714D01*
X178634000Y-125276428D01*
X178691142Y-125162142D01*
X178062571Y-123905000D02*
X177491142Y-123905000D01*
X178691142Y-124305000D02*
X178062571Y-123905000D01*
X178691142Y-123505000D01*
X178291142Y-122190714D02*
X177091142Y-122190714D01*
X178234000Y-122190714D02*
X178291142Y-122076428D01*
X178291142Y-121847857D01*
X178234000Y-121733571D01*
X178176857Y-121676428D01*
X178062571Y-121619285D01*
X177719714Y-121619285D01*
X177605428Y-121676428D01*
X177548285Y-121733571D01*
X177491142Y-121847857D01*
X177491142Y-122076428D01*
X177548285Y-122190714D01*
X177491142Y-120590714D02*
X178119714Y-120590714D01*
X178234000Y-120647857D01*
X178291142Y-120762142D01*
X178291142Y-120990714D01*
X178234000Y-121105000D01*
X177548285Y-120590714D02*
X177491142Y-120705000D01*
X177491142Y-120990714D01*
X177548285Y-121105000D01*
X177662571Y-121162142D01*
X177776857Y-121162142D01*
X177891142Y-121105000D01*
X177948285Y-120990714D01*
X177948285Y-120705000D01*
X178005428Y-120590714D01*
X178291142Y-120019285D02*
X177491142Y-120019285D01*
X178176857Y-120019285D02*
X178234000Y-119962142D01*
X178291142Y-119847857D01*
X178291142Y-119676428D01*
X178234000Y-119562142D01*
X178119714Y-119505000D01*
X177491142Y-119505000D01*
X177548285Y-118476428D02*
X177491142Y-118590714D01*
X177491142Y-118819285D01*
X177548285Y-118933571D01*
X177662571Y-118990714D01*
X178119714Y-118990714D01*
X178234000Y-118933571D01*
X178291142Y-118819285D01*
X178291142Y-118590714D01*
X178234000Y-118476428D01*
X178119714Y-118419285D01*
X178005428Y-118419285D01*
X177891142Y-118990714D01*
X177491142Y-117733571D02*
X177548285Y-117847857D01*
X177662571Y-117905000D01*
X178691142Y-117905000D01*
X178291142Y-116476428D02*
X177491142Y-116190714D01*
X178291142Y-115905000D01*
X178691142Y-115219285D02*
X178691142Y-115105000D01*
X178634000Y-114990714D01*
X178576857Y-114933571D01*
X178462571Y-114876428D01*
X178234000Y-114819285D01*
X177948285Y-114819285D01*
X177719714Y-114876428D01*
X177605428Y-114933571D01*
X177548285Y-114990714D01*
X177491142Y-115105000D01*
X177491142Y-115219285D01*
X177548285Y-115333571D01*
X177605428Y-115390714D01*
X177719714Y-115447857D01*
X177948285Y-115505000D01*
X178234000Y-115505000D01*
X178462571Y-115447857D01*
X178576857Y-115390714D01*
X178634000Y-115333571D01*
X178691142Y-115219285D01*
X177376857Y-114590714D02*
X177376857Y-113676428D01*
X178691142Y-113505000D02*
X178691142Y-112705000D01*
X177491142Y-113219285D01*
X177376857Y-112533571D02*
X177376857Y-111619285D01*
X177491142Y-110705000D02*
X177491142Y-111390714D01*
X177491142Y-111047857D02*
X178691142Y-111047857D01*
X178519714Y-111162142D01*
X178405428Y-111276428D01*
X178348285Y-111390714D01*
M02*
