G04 #@! TF.FileFunction,Copper,L2,Bot,Signal*
%FSLAX46Y46*%
G04 Gerber Fmt 4.6, Leading zero omitted, Abs format (unit mm)*
G04 Created by KiCad (PCBNEW 4.0.7) date 08/19/19 23:06:34*
%MOMM*%
%LPD*%
G01*
G04 APERTURE LIST*
%ADD10C,0.100000*%
%ADD11R,1.600000X1.600000*%
%ADD12O,1.600000X1.600000*%
%ADD13O,2.800000X2.350000*%
%ADD14R,2.600000X2.150000*%
%ADD15C,2.700000*%
%ADD16R,1.700000X1.700000*%
%ADD17O,1.700000X1.700000*%
%ADD18C,3.000000*%
%ADD19C,2.550000*%
%ADD20R,2.400000X1.600000*%
%ADD21O,2.400000X1.600000*%
%ADD22C,1.600000*%
%ADD23C,1.800000*%
%ADD24C,4.000000*%
%ADD25R,1.600000X2.400000*%
%ADD26O,1.600000X2.400000*%
%ADD27C,2.000000*%
%ADD28R,2.000000X2.000000*%
%ADD29C,0.600000*%
%ADD30C,0.250000*%
%ADD31C,0.254000*%
G04 APERTURE END LIST*
D10*
D11*
X108700000Y-43900000D03*
D12*
X108700000Y-48980000D03*
D11*
X107400000Y-56500000D03*
D12*
X107400000Y-61580000D03*
D11*
X143500000Y-37500000D03*
D12*
X143500000Y-42580000D03*
D11*
X142500000Y-50700000D03*
D12*
X147580000Y-50700000D03*
D11*
X165900000Y-37600000D03*
D12*
X165900000Y-42680000D03*
D11*
X161700000Y-50700000D03*
D12*
X166780000Y-50700000D03*
D11*
X201300000Y-44500000D03*
D12*
X201300000Y-49580000D03*
D11*
X202000000Y-58100000D03*
D12*
X202000000Y-63180000D03*
D13*
X117500000Y-41100000D03*
D14*
X117500000Y-38000000D03*
D15*
X117500000Y-49400000D03*
D13*
X135700000Y-41100000D03*
D14*
X135700000Y-38000000D03*
D15*
X135700000Y-49400000D03*
D13*
X173500000Y-41100000D03*
D14*
X173500000Y-38000000D03*
D15*
X173500000Y-49400000D03*
D13*
X192650000Y-41050000D03*
D14*
X192650000Y-37950000D03*
D15*
X192650000Y-49350000D03*
D16*
X128600000Y-61500000D03*
D17*
X128600000Y-64040000D03*
X128600000Y-66580000D03*
X128600000Y-69120000D03*
X128600000Y-71660000D03*
X128600000Y-74200000D03*
X128600000Y-76740000D03*
X128600000Y-79280000D03*
D16*
X133750000Y-55350000D03*
D18*
X149750000Y-41100000D03*
X160050000Y-41100000D03*
D19*
X154900000Y-39500000D03*
D16*
X182000000Y-60500000D03*
D17*
X182000000Y-63040000D03*
X179460000Y-60500000D03*
X179460000Y-63040000D03*
X176920000Y-60500000D03*
X176920000Y-63040000D03*
X174380000Y-60500000D03*
X174380000Y-63040000D03*
X171840000Y-60500000D03*
X171840000Y-63040000D03*
X169300000Y-60500000D03*
X169300000Y-63040000D03*
X166760000Y-60500000D03*
X166760000Y-63040000D03*
X164220000Y-60500000D03*
X164220000Y-63040000D03*
X161680000Y-60500000D03*
X161680000Y-63040000D03*
X159140000Y-60500000D03*
X159140000Y-63040000D03*
X156600000Y-60500000D03*
X156600000Y-63040000D03*
X154060000Y-60500000D03*
X154060000Y-63040000D03*
X151520000Y-60500000D03*
X151520000Y-63040000D03*
X148980000Y-60500000D03*
X148980000Y-63040000D03*
X146440000Y-60500000D03*
X146440000Y-63040000D03*
X143900000Y-60500000D03*
X143900000Y-63040000D03*
X141360000Y-60500000D03*
X141360000Y-63040000D03*
X138820000Y-60500000D03*
X138820000Y-63040000D03*
X136280000Y-60500000D03*
X136280000Y-63040000D03*
X133740000Y-60500000D03*
X133740000Y-63040000D03*
D20*
X171900000Y-104050000D03*
D21*
X182300000Y-110550000D03*
X171900000Y-106850000D03*
X182300000Y-106850000D03*
X171900000Y-110550000D03*
X182270000Y-104050000D03*
D22*
X120900000Y-53800000D03*
D12*
X113280000Y-53800000D03*
D22*
X150100000Y-47000000D03*
D12*
X142480000Y-47000000D03*
D22*
X159500000Y-46800000D03*
D12*
X167120000Y-46800000D03*
D22*
X188600000Y-54000000D03*
D12*
X196220000Y-54000000D03*
D23*
X114400000Y-69500000D03*
X116900000Y-69500000D03*
X119400000Y-69500000D03*
D24*
X112500000Y-62500000D03*
X121300000Y-62500000D03*
D23*
X114400000Y-86900000D03*
X116900000Y-86900000D03*
X119400000Y-86900000D03*
D24*
X112500000Y-79900000D03*
X121300000Y-79900000D03*
D23*
X189900000Y-70000000D03*
X192400000Y-70000000D03*
X194900000Y-70000000D03*
D24*
X188000000Y-63000000D03*
X196800000Y-63000000D03*
D23*
X189900000Y-86900000D03*
X192400000Y-86900000D03*
X194900000Y-86900000D03*
D24*
X188000000Y-79900000D03*
X196800000Y-79900000D03*
D25*
X144700000Y-98000000D03*
D26*
X162480000Y-90380000D03*
X147240000Y-98000000D03*
X159940000Y-90380000D03*
X149780000Y-98000000D03*
X157400000Y-90380000D03*
X152320000Y-98000000D03*
X154860000Y-90380000D03*
X154860000Y-98000000D03*
X152320000Y-90380000D03*
X157400000Y-98000000D03*
X149780000Y-90380000D03*
X159940000Y-98000000D03*
X147240000Y-90380000D03*
X162480000Y-98000000D03*
X144700000Y-90380000D03*
D16*
X201700000Y-98050000D03*
D17*
X199160000Y-98050000D03*
X201700000Y-100590000D03*
X199160000Y-100590000D03*
X201700000Y-103130000D03*
X199160000Y-103130000D03*
X201700000Y-105670000D03*
X199160000Y-105670000D03*
X201700000Y-108210000D03*
X199160000Y-108210000D03*
X201700000Y-110750000D03*
X199160000Y-110750000D03*
X201700000Y-113290000D03*
X199160000Y-113290000D03*
D27*
X122950000Y-109800000D03*
X109450000Y-109700000D03*
D28*
X122950000Y-103700000D03*
D27*
X109450000Y-103700000D03*
X120700000Y-123250000D03*
X134200000Y-123350000D03*
D28*
X120700000Y-129350000D03*
D27*
X134200000Y-129350000D03*
X133700000Y-103750000D03*
X147200000Y-103850000D03*
D28*
X133700000Y-109850000D03*
D27*
X147200000Y-109850000D03*
X146300000Y-123250000D03*
X159800000Y-123350000D03*
D28*
X146300000Y-129350000D03*
D27*
X159800000Y-129350000D03*
X180850000Y-123450000D03*
X194350000Y-123550000D03*
D28*
X180850000Y-129550000D03*
D27*
X194350000Y-129550000D03*
D29*
X142350000Y-96000000D03*
D30*
X114000000Y-63000000D02*
X114000000Y-63750000D01*
X142350000Y-96000000D02*
X147240000Y-91110000D01*
X147240000Y-91110000D02*
X147240000Y-90380000D01*
X171900000Y-104050000D02*
X175300000Y-104050000D01*
X178200000Y-126900000D02*
X180850000Y-129550000D01*
X178200000Y-106950000D02*
X178200000Y-126900000D01*
X175300000Y-104050000D02*
X178200000Y-106950000D01*
X154060000Y-63040000D02*
X154010000Y-63040000D01*
X154010000Y-63040000D02*
X152600000Y-64450000D01*
X152600000Y-64450000D02*
X129010000Y-64450000D01*
X129010000Y-64450000D02*
X128600000Y-64040000D01*
X161680000Y-63040000D02*
X161680000Y-63070000D01*
X161680000Y-63070000D02*
X158170000Y-66580000D01*
X158170000Y-66580000D02*
X128600000Y-66580000D01*
X156600000Y-63040000D02*
X156600000Y-63750000D01*
X156600000Y-63750000D02*
X155050000Y-65300000D01*
X155050000Y-65300000D02*
X127950000Y-65300000D01*
X127950000Y-65300000D02*
X126600000Y-66650000D01*
X126600000Y-66650000D02*
X126600000Y-67120000D01*
X126600000Y-67120000D02*
X128600000Y-69120000D01*
X159140000Y-60500000D02*
X159200000Y-60500000D01*
X159200000Y-60500000D02*
X160550000Y-61850000D01*
X160550000Y-61850000D02*
X162500000Y-61850000D01*
X162500000Y-61850000D02*
X162950000Y-62300000D01*
X162950000Y-62300000D02*
X162950000Y-64100000D01*
X162950000Y-64100000D02*
X158900000Y-68150000D01*
X158900000Y-68150000D02*
X132110000Y-68150000D01*
X132110000Y-68150000D02*
X128600000Y-71660000D01*
X154060000Y-60500000D02*
X154450000Y-60500000D01*
X154450000Y-60500000D02*
X156450000Y-58500000D01*
X156450000Y-58500000D02*
X164400000Y-58500000D01*
X164400000Y-58500000D02*
X165550000Y-59650000D01*
X165550000Y-59650000D02*
X165550000Y-64700000D01*
X165550000Y-64700000D02*
X160500000Y-69750000D01*
X160500000Y-69750000D02*
X133050000Y-69750000D01*
X133050000Y-69750000D02*
X128600000Y-74200000D01*
X128600000Y-74200000D02*
X128600000Y-73750000D01*
X156699000Y-91000000D02*
X159699000Y-88000000D01*
X144700000Y-98000000D02*
X144700000Y-103850000D01*
X117950000Y-56750000D02*
X120900000Y-53800000D01*
X117950000Y-64200000D02*
X117950000Y-56750000D01*
X121450000Y-67700000D02*
X117950000Y-64200000D01*
X121450000Y-70650000D02*
X121450000Y-67700000D01*
X118200000Y-73900000D02*
X121450000Y-70650000D01*
X118200000Y-81850000D02*
X118200000Y-73900000D01*
X121950000Y-85600000D02*
X118200000Y-81850000D01*
X121950000Y-91500000D02*
X121950000Y-85600000D01*
X117100000Y-96350000D02*
X121950000Y-91500000D01*
X117100000Y-124250000D02*
X117100000Y-96350000D01*
X119450000Y-126600000D02*
X117100000Y-124250000D01*
X121950000Y-126600000D02*
X119450000Y-126600000D01*
X144700000Y-103850000D02*
X121950000Y-126600000D01*
X144700000Y-98000000D02*
X144700000Y-100000000D01*
X144700000Y-100000000D02*
X138400000Y-106300000D01*
X150100000Y-47000000D02*
X145600000Y-47000000D01*
X149600000Y-100360000D02*
X147240000Y-98000000D01*
X149600000Y-104800000D02*
X149600000Y-100360000D01*
X148100000Y-106300000D02*
X149600000Y-104800000D01*
X144600000Y-106300000D02*
X148100000Y-106300000D01*
X123450000Y-127450000D02*
X144600000Y-106300000D01*
X118650000Y-127450000D02*
X123450000Y-127450000D01*
X115700000Y-124500000D02*
X118650000Y-127450000D01*
X115700000Y-106850000D02*
X115700000Y-124500000D01*
X109150000Y-100300000D02*
X115700000Y-106850000D01*
X109150000Y-71000000D02*
X109150000Y-100300000D01*
X116300000Y-63850000D02*
X109150000Y-71000000D01*
X116300000Y-55300000D02*
X116300000Y-63850000D01*
X126600000Y-45000000D02*
X116300000Y-55300000D01*
X143600000Y-45000000D02*
X126600000Y-45000000D01*
X145600000Y-47000000D02*
X143600000Y-45000000D01*
X149780000Y-98000000D02*
X149780000Y-96870000D01*
X149780000Y-96870000D02*
X153500000Y-93150000D01*
X153500000Y-93150000D02*
X163600000Y-93150000D01*
X163600000Y-93150000D02*
X185200000Y-71550000D01*
X185200000Y-71550000D02*
X185200000Y-58200000D01*
X185200000Y-58200000D02*
X181200000Y-54200000D01*
X181200000Y-54200000D02*
X160600000Y-54200000D01*
X160600000Y-54200000D02*
X159500000Y-53100000D01*
X159500000Y-53100000D02*
X159500000Y-46800000D01*
X152320000Y-98000000D02*
X152320000Y-97780000D01*
X152320000Y-97780000D02*
X155750000Y-94350000D01*
X155750000Y-94350000D02*
X163450000Y-94350000D01*
X163450000Y-94350000D02*
X193550000Y-64250000D01*
X193550000Y-64250000D02*
X193550000Y-58950000D01*
X193550000Y-58950000D02*
X188600000Y-54000000D01*
X120700000Y-123250000D02*
X120700000Y-121200000D01*
X155400000Y-61700000D02*
X156600000Y-60500000D01*
X153400000Y-61700000D02*
X155400000Y-61700000D01*
X152800000Y-61100000D02*
X153400000Y-61700000D01*
X152800000Y-60000000D02*
X152800000Y-61100000D01*
X155050000Y-57750000D02*
X152800000Y-60000000D01*
X165650000Y-57750000D02*
X155050000Y-57750000D01*
X166350000Y-58450000D02*
X165650000Y-57750000D01*
X173900000Y-58450000D02*
X166350000Y-58450000D01*
X176050000Y-56300000D02*
X173900000Y-58450000D01*
X176400000Y-56300000D02*
X176050000Y-56300000D01*
X178200000Y-58100000D02*
X176400000Y-56300000D01*
X178200000Y-70450000D02*
X178200000Y-58100000D01*
X166950000Y-81700000D02*
X178200000Y-70450000D01*
X148700000Y-81700000D02*
X166950000Y-81700000D01*
X131200000Y-99200000D02*
X148700000Y-81700000D01*
X131200000Y-110700000D02*
X131200000Y-99200000D01*
X120700000Y-121200000D02*
X131200000Y-110700000D01*
X122950000Y-109800000D02*
X122950000Y-108750000D01*
X150250000Y-62100000D02*
X151190000Y-63040000D01*
X150250000Y-58950000D02*
X150250000Y-62100000D01*
X149450000Y-58150000D02*
X150250000Y-58950000D01*
X131200000Y-58150000D02*
X149450000Y-58150000D01*
X129800000Y-56750000D02*
X131200000Y-58150000D01*
X127550000Y-56750000D02*
X129800000Y-56750000D01*
X124400000Y-59900000D02*
X127550000Y-56750000D01*
X124400000Y-86900000D02*
X124400000Y-59900000D01*
X128150000Y-90650000D02*
X124400000Y-86900000D01*
X128150000Y-103550000D02*
X128150000Y-90650000D01*
X122950000Y-108750000D02*
X128150000Y-103550000D01*
X151190000Y-63040000D02*
X151520000Y-63040000D01*
X143900000Y-63040000D02*
X143900000Y-62500000D01*
X143900000Y-62500000D02*
X143250000Y-61850000D01*
X143250000Y-61850000D02*
X132700000Y-61850000D01*
X132700000Y-61850000D02*
X129500000Y-58650000D01*
X129500000Y-58650000D02*
X127650000Y-58650000D01*
X127650000Y-58650000D02*
X126000000Y-60300000D01*
X126000000Y-60300000D02*
X126000000Y-85850000D01*
X126000000Y-85850000D02*
X129950000Y-89800000D01*
X129950000Y-89800000D02*
X129950000Y-110100000D01*
X129950000Y-110100000D02*
X118350000Y-121700000D01*
X118350000Y-121700000D02*
X118350000Y-124050000D01*
X118350000Y-124050000D02*
X119850000Y-125550000D01*
X119850000Y-125550000D02*
X120850000Y-125550000D01*
X120850000Y-125550000D02*
X122250000Y-124150000D01*
X122250000Y-124150000D02*
X122250000Y-122150000D01*
X122250000Y-122150000D02*
X132050000Y-112350000D01*
X132050000Y-112350000D02*
X132050000Y-105400000D01*
X132050000Y-105400000D02*
X133700000Y-103750000D01*
D31*
G36*
X204290000Y-134290000D02*
X105710000Y-134290000D01*
X105710000Y-131942619D01*
X106264613Y-131942619D01*
X106604155Y-132764372D01*
X107232321Y-133393636D01*
X108053481Y-133734611D01*
X108942619Y-133735387D01*
X109764372Y-133395845D01*
X110393636Y-132767679D01*
X110734611Y-131946519D01*
X110734614Y-131942619D01*
X199264613Y-131942619D01*
X199604155Y-132764372D01*
X200232321Y-133393636D01*
X201053481Y-133734611D01*
X201942619Y-133735387D01*
X202764372Y-133395845D01*
X203393636Y-132767679D01*
X203734611Y-131946519D01*
X203735387Y-131057381D01*
X203395845Y-130235628D01*
X202767679Y-129606364D01*
X201946519Y-129265389D01*
X201057381Y-129264613D01*
X200235628Y-129604155D01*
X199606364Y-130232321D01*
X199265389Y-131053481D01*
X199264613Y-131942619D01*
X110734614Y-131942619D01*
X110735387Y-131057381D01*
X110395845Y-130235628D01*
X109767679Y-129606364D01*
X108946519Y-129265389D01*
X108057381Y-129264613D01*
X107235628Y-129604155D01*
X106606364Y-130232321D01*
X106265389Y-131053481D01*
X106264613Y-131942619D01*
X105710000Y-131942619D01*
X105710000Y-110023795D01*
X107814716Y-110023795D01*
X108063106Y-110624943D01*
X108522637Y-111085278D01*
X109123352Y-111334716D01*
X109773795Y-111335284D01*
X110374943Y-111086894D01*
X110835278Y-110627363D01*
X111084716Y-110026648D01*
X111085284Y-109376205D01*
X110836894Y-108775057D01*
X110377363Y-108314722D01*
X109776648Y-108065284D01*
X109126205Y-108064716D01*
X108525057Y-108313106D01*
X108064722Y-108772637D01*
X107815284Y-109373352D01*
X107814716Y-110023795D01*
X105710000Y-110023795D01*
X105710000Y-104023795D01*
X107814716Y-104023795D01*
X108063106Y-104624943D01*
X108522637Y-105085278D01*
X109123352Y-105334716D01*
X109773795Y-105335284D01*
X110374943Y-105086894D01*
X110835278Y-104627363D01*
X111084716Y-104026648D01*
X111085284Y-103376205D01*
X111038727Y-103263529D01*
X114940000Y-107164802D01*
X114940000Y-124500000D01*
X114997852Y-124790839D01*
X115162599Y-125037401D01*
X118112599Y-127987401D01*
X118359161Y-128152148D01*
X118650000Y-128210000D01*
X119080911Y-128210000D01*
X119052560Y-128350000D01*
X119052560Y-130350000D01*
X119096838Y-130585317D01*
X119235910Y-130801441D01*
X119448110Y-130946431D01*
X119700000Y-130997440D01*
X121700000Y-130997440D01*
X121935317Y-130953162D01*
X122151441Y-130814090D01*
X122296431Y-130601890D01*
X122347440Y-130350000D01*
X122347440Y-129673795D01*
X132564716Y-129673795D01*
X132813106Y-130274943D01*
X133272637Y-130735278D01*
X133873352Y-130984716D01*
X134523795Y-130985284D01*
X135124943Y-130736894D01*
X135585278Y-130277363D01*
X135834716Y-129676648D01*
X135835284Y-129026205D01*
X135586894Y-128425057D01*
X135511969Y-128350000D01*
X144652560Y-128350000D01*
X144652560Y-130350000D01*
X144696838Y-130585317D01*
X144835910Y-130801441D01*
X145048110Y-130946431D01*
X145300000Y-130997440D01*
X147300000Y-130997440D01*
X147535317Y-130953162D01*
X147751441Y-130814090D01*
X147896431Y-130601890D01*
X147947440Y-130350000D01*
X147947440Y-129673795D01*
X158164716Y-129673795D01*
X158413106Y-130274943D01*
X158872637Y-130735278D01*
X159473352Y-130984716D01*
X160123795Y-130985284D01*
X160724943Y-130736894D01*
X161185278Y-130277363D01*
X161434716Y-129676648D01*
X161435284Y-129026205D01*
X161186894Y-128425057D01*
X160727363Y-127964722D01*
X160126648Y-127715284D01*
X159476205Y-127714716D01*
X158875057Y-127963106D01*
X158414722Y-128422637D01*
X158165284Y-129023352D01*
X158164716Y-129673795D01*
X147947440Y-129673795D01*
X147947440Y-128350000D01*
X147903162Y-128114683D01*
X147764090Y-127898559D01*
X147551890Y-127753569D01*
X147300000Y-127702560D01*
X145300000Y-127702560D01*
X145064683Y-127746838D01*
X144848559Y-127885910D01*
X144703569Y-128098110D01*
X144652560Y-128350000D01*
X135511969Y-128350000D01*
X135127363Y-127964722D01*
X134526648Y-127715284D01*
X133876205Y-127714716D01*
X133275057Y-127963106D01*
X132814722Y-128422637D01*
X132565284Y-129023352D01*
X132564716Y-129673795D01*
X122347440Y-129673795D01*
X122347440Y-128350000D01*
X122321097Y-128210000D01*
X123450000Y-128210000D01*
X123740839Y-128152148D01*
X123987401Y-127987401D01*
X128301007Y-123673795D01*
X132564716Y-123673795D01*
X132813106Y-124274943D01*
X133272637Y-124735278D01*
X133873352Y-124984716D01*
X134523795Y-124985284D01*
X135124943Y-124736894D01*
X135585278Y-124277363D01*
X135834716Y-123676648D01*
X135834805Y-123573795D01*
X144664716Y-123573795D01*
X144913106Y-124174943D01*
X145372637Y-124635278D01*
X145973352Y-124884716D01*
X146623795Y-124885284D01*
X147224943Y-124636894D01*
X147685278Y-124177363D01*
X147894377Y-123673795D01*
X158164716Y-123673795D01*
X158413106Y-124274943D01*
X158872637Y-124735278D01*
X159473352Y-124984716D01*
X160123795Y-124985284D01*
X160724943Y-124736894D01*
X161185278Y-124277363D01*
X161434716Y-123676648D01*
X161435284Y-123026205D01*
X161186894Y-122425057D01*
X160727363Y-121964722D01*
X160126648Y-121715284D01*
X159476205Y-121714716D01*
X158875057Y-121963106D01*
X158414722Y-122422637D01*
X158165284Y-123023352D01*
X158164716Y-123673795D01*
X147894377Y-123673795D01*
X147934716Y-123576648D01*
X147935284Y-122926205D01*
X147686894Y-122325057D01*
X147227363Y-121864722D01*
X146626648Y-121615284D01*
X145976205Y-121614716D01*
X145375057Y-121863106D01*
X144914722Y-122322637D01*
X144665284Y-122923352D01*
X144664716Y-123573795D01*
X135834805Y-123573795D01*
X135835284Y-123026205D01*
X135586894Y-122425057D01*
X135127363Y-121964722D01*
X134526648Y-121715284D01*
X133876205Y-121714716D01*
X133275057Y-121963106D01*
X132814722Y-122422637D01*
X132565284Y-123023352D01*
X132564716Y-123673795D01*
X128301007Y-123673795D01*
X141801007Y-110173795D01*
X145564716Y-110173795D01*
X145813106Y-110774943D01*
X146272637Y-111235278D01*
X146873352Y-111484716D01*
X147523795Y-111485284D01*
X148124943Y-111236894D01*
X148585278Y-110777363D01*
X148679687Y-110550000D01*
X170029050Y-110550000D01*
X170138283Y-111099151D01*
X170449352Y-111564698D01*
X170914899Y-111875767D01*
X171464050Y-111985000D01*
X172335950Y-111985000D01*
X172885101Y-111875767D01*
X173350648Y-111564698D01*
X173661717Y-111099151D01*
X173770950Y-110550000D01*
X173661717Y-110000849D01*
X173350648Y-109535302D01*
X172885101Y-109224233D01*
X172335950Y-109115000D01*
X171464050Y-109115000D01*
X170914899Y-109224233D01*
X170449352Y-109535302D01*
X170138283Y-110000849D01*
X170029050Y-110550000D01*
X148679687Y-110550000D01*
X148834716Y-110176648D01*
X148835284Y-109526205D01*
X148586894Y-108925057D01*
X148127363Y-108464722D01*
X147526648Y-108215284D01*
X146876205Y-108214716D01*
X146275057Y-108463106D01*
X145814722Y-108922637D01*
X145565284Y-109523352D01*
X145564716Y-110173795D01*
X141801007Y-110173795D01*
X144914802Y-107060000D01*
X148100000Y-107060000D01*
X148390839Y-107002148D01*
X148618545Y-106850000D01*
X170029050Y-106850000D01*
X170138283Y-107399151D01*
X170449352Y-107864698D01*
X170914899Y-108175767D01*
X171464050Y-108285000D01*
X172335950Y-108285000D01*
X172885101Y-108175767D01*
X173350648Y-107864698D01*
X173661717Y-107399151D01*
X173770950Y-106850000D01*
X173661717Y-106300849D01*
X173350648Y-105835302D01*
X172885101Y-105524233D01*
X172750404Y-105497440D01*
X173100000Y-105497440D01*
X173335317Y-105453162D01*
X173551441Y-105314090D01*
X173696431Y-105101890D01*
X173747440Y-104850000D01*
X173747440Y-104810000D01*
X174985198Y-104810000D01*
X177440000Y-107264802D01*
X177440000Y-126900000D01*
X177497852Y-127190839D01*
X177662599Y-127437401D01*
X179202560Y-128977362D01*
X179202560Y-130550000D01*
X179246838Y-130785317D01*
X179385910Y-131001441D01*
X179598110Y-131146431D01*
X179850000Y-131197440D01*
X181850000Y-131197440D01*
X182085317Y-131153162D01*
X182301441Y-131014090D01*
X182446431Y-130801890D01*
X182497440Y-130550000D01*
X182497440Y-129873795D01*
X192714716Y-129873795D01*
X192963106Y-130474943D01*
X193422637Y-130935278D01*
X194023352Y-131184716D01*
X194673795Y-131185284D01*
X195274943Y-130936894D01*
X195735278Y-130477363D01*
X195984716Y-129876648D01*
X195985284Y-129226205D01*
X195736894Y-128625057D01*
X195277363Y-128164722D01*
X194676648Y-127915284D01*
X194026205Y-127914716D01*
X193425057Y-128163106D01*
X192964722Y-128622637D01*
X192715284Y-129223352D01*
X192714716Y-129873795D01*
X182497440Y-129873795D01*
X182497440Y-128550000D01*
X182453162Y-128314683D01*
X182314090Y-128098559D01*
X182101890Y-127953569D01*
X181850000Y-127902560D01*
X180277362Y-127902560D01*
X178960000Y-126585198D01*
X178960000Y-123773795D01*
X179214716Y-123773795D01*
X179463106Y-124374943D01*
X179922637Y-124835278D01*
X180523352Y-125084716D01*
X181173795Y-125085284D01*
X181774943Y-124836894D01*
X182235278Y-124377363D01*
X182444377Y-123873795D01*
X192714716Y-123873795D01*
X192963106Y-124474943D01*
X193422637Y-124935278D01*
X194023352Y-125184716D01*
X194673795Y-125185284D01*
X195274943Y-124936894D01*
X195735278Y-124477363D01*
X195984716Y-123876648D01*
X195985284Y-123226205D01*
X195736894Y-122625057D01*
X195277363Y-122164722D01*
X194676648Y-121915284D01*
X194026205Y-121914716D01*
X193425057Y-122163106D01*
X192964722Y-122622637D01*
X192715284Y-123223352D01*
X192714716Y-123873795D01*
X182444377Y-123873795D01*
X182484716Y-123776648D01*
X182485284Y-123126205D01*
X182236894Y-122525057D01*
X181777363Y-122064722D01*
X181176648Y-121815284D01*
X180526205Y-121814716D01*
X179925057Y-122063106D01*
X179464722Y-122522637D01*
X179215284Y-123123352D01*
X179214716Y-123773795D01*
X178960000Y-123773795D01*
X178960000Y-113290000D01*
X197645907Y-113290000D01*
X197758946Y-113858285D01*
X198080853Y-114340054D01*
X198562622Y-114661961D01*
X199130907Y-114775000D01*
X199189093Y-114775000D01*
X199757378Y-114661961D01*
X200239147Y-114340054D01*
X200430000Y-114054422D01*
X200620853Y-114340054D01*
X201102622Y-114661961D01*
X201670907Y-114775000D01*
X201729093Y-114775000D01*
X202297378Y-114661961D01*
X202779147Y-114340054D01*
X203101054Y-113858285D01*
X203214093Y-113290000D01*
X203101054Y-112721715D01*
X202779147Y-112239946D01*
X202438447Y-112012298D01*
X202581358Y-111945183D01*
X202971645Y-111516924D01*
X203141476Y-111106890D01*
X203020155Y-110877000D01*
X201827000Y-110877000D01*
X201827000Y-110897000D01*
X201573000Y-110897000D01*
X201573000Y-110877000D01*
X199287000Y-110877000D01*
X199287000Y-110897000D01*
X199033000Y-110897000D01*
X199033000Y-110877000D01*
X197839845Y-110877000D01*
X197718524Y-111106890D01*
X197888355Y-111516924D01*
X198278642Y-111945183D01*
X198421553Y-112012298D01*
X198080853Y-112239946D01*
X197758946Y-112721715D01*
X197645907Y-113290000D01*
X178960000Y-113290000D01*
X178960000Y-110550000D01*
X180429050Y-110550000D01*
X180538283Y-111099151D01*
X180849352Y-111564698D01*
X181314899Y-111875767D01*
X181864050Y-111985000D01*
X182735950Y-111985000D01*
X183285101Y-111875767D01*
X183750648Y-111564698D01*
X184061717Y-111099151D01*
X184170950Y-110550000D01*
X184061717Y-110000849D01*
X183750648Y-109535302D01*
X183285101Y-109224233D01*
X182735950Y-109115000D01*
X181864050Y-109115000D01*
X181314899Y-109224233D01*
X180849352Y-109535302D01*
X180538283Y-110000849D01*
X180429050Y-110550000D01*
X178960000Y-110550000D01*
X178960000Y-106950000D01*
X178937729Y-106838039D01*
X178902148Y-106659160D01*
X178737401Y-106412599D01*
X176374802Y-104050000D01*
X180399050Y-104050000D01*
X180508283Y-104599151D01*
X180819352Y-105064698D01*
X181284899Y-105375767D01*
X181673093Y-105452984D01*
X181314899Y-105524233D01*
X180849352Y-105835302D01*
X180538283Y-106300849D01*
X180429050Y-106850000D01*
X180538283Y-107399151D01*
X180849352Y-107864698D01*
X181314899Y-108175767D01*
X181864050Y-108285000D01*
X182735950Y-108285000D01*
X183285101Y-108175767D01*
X183750648Y-107864698D01*
X184061717Y-107399151D01*
X184170950Y-106850000D01*
X184061717Y-106300849D01*
X183750648Y-105835302D01*
X183285101Y-105524233D01*
X182896907Y-105447016D01*
X183255101Y-105375767D01*
X183720648Y-105064698D01*
X184031717Y-104599151D01*
X184140950Y-104050000D01*
X184031717Y-103500849D01*
X183720648Y-103035302D01*
X183255101Y-102724233D01*
X182705950Y-102615000D01*
X181834050Y-102615000D01*
X181284899Y-102724233D01*
X180819352Y-103035302D01*
X180508283Y-103500849D01*
X180399050Y-104050000D01*
X176374802Y-104050000D01*
X175837401Y-103512599D01*
X175590839Y-103347852D01*
X175300000Y-103290000D01*
X173747440Y-103290000D01*
X173747440Y-103250000D01*
X173703162Y-103014683D01*
X173564090Y-102798559D01*
X173351890Y-102653569D01*
X173100000Y-102602560D01*
X170700000Y-102602560D01*
X170464683Y-102646838D01*
X170248559Y-102785910D01*
X170103569Y-102998110D01*
X170052560Y-103250000D01*
X170052560Y-104850000D01*
X170096838Y-105085317D01*
X170235910Y-105301441D01*
X170448110Y-105446431D01*
X170700000Y-105497440D01*
X171049596Y-105497440D01*
X170914899Y-105524233D01*
X170449352Y-105835302D01*
X170138283Y-106300849D01*
X170029050Y-106850000D01*
X148618545Y-106850000D01*
X148637401Y-106837401D01*
X150137401Y-105337401D01*
X150302148Y-105090840D01*
X150360000Y-104800000D01*
X150360000Y-100360000D01*
X150302148Y-100069161D01*
X150137401Y-99822599D01*
X150118433Y-99803631D01*
X150329151Y-99761717D01*
X150794698Y-99450648D01*
X151050000Y-99068562D01*
X151305302Y-99450648D01*
X151770849Y-99761717D01*
X152320000Y-99870950D01*
X152869151Y-99761717D01*
X153334698Y-99450648D01*
X153590000Y-99068562D01*
X153845302Y-99450648D01*
X154310849Y-99761717D01*
X154860000Y-99870950D01*
X155409151Y-99761717D01*
X155874698Y-99450648D01*
X156130000Y-99068562D01*
X156385302Y-99450648D01*
X156850849Y-99761717D01*
X157400000Y-99870950D01*
X157949151Y-99761717D01*
X158414698Y-99450648D01*
X158670000Y-99068562D01*
X158925302Y-99450648D01*
X159390849Y-99761717D01*
X159940000Y-99870950D01*
X160489151Y-99761717D01*
X160954698Y-99450648D01*
X161210000Y-99068562D01*
X161465302Y-99450648D01*
X161930849Y-99761717D01*
X162480000Y-99870950D01*
X163029151Y-99761717D01*
X163494698Y-99450648D01*
X163805767Y-98985101D01*
X163915000Y-98435950D01*
X163915000Y-98050000D01*
X197645907Y-98050000D01*
X197758946Y-98618285D01*
X198080853Y-99100054D01*
X198410026Y-99320000D01*
X198080853Y-99539946D01*
X197758946Y-100021715D01*
X197645907Y-100590000D01*
X197758946Y-101158285D01*
X198080853Y-101640054D01*
X198410026Y-101860000D01*
X198080853Y-102079946D01*
X197758946Y-102561715D01*
X197645907Y-103130000D01*
X197758946Y-103698285D01*
X198080853Y-104180054D01*
X198410026Y-104400000D01*
X198080853Y-104619946D01*
X197758946Y-105101715D01*
X197645907Y-105670000D01*
X197758946Y-106238285D01*
X198080853Y-106720054D01*
X198410026Y-106940000D01*
X198080853Y-107159946D01*
X197758946Y-107641715D01*
X197645907Y-108210000D01*
X197758946Y-108778285D01*
X198080853Y-109260054D01*
X198421553Y-109487702D01*
X198278642Y-109554817D01*
X197888355Y-109983076D01*
X197718524Y-110393110D01*
X197839845Y-110623000D01*
X199033000Y-110623000D01*
X199033000Y-110603000D01*
X199287000Y-110603000D01*
X199287000Y-110623000D01*
X201573000Y-110623000D01*
X201573000Y-110603000D01*
X201827000Y-110603000D01*
X201827000Y-110623000D01*
X203020155Y-110623000D01*
X203141476Y-110393110D01*
X202971645Y-109983076D01*
X202581358Y-109554817D01*
X202438447Y-109487702D01*
X202779147Y-109260054D01*
X203101054Y-108778285D01*
X203214093Y-108210000D01*
X203101054Y-107641715D01*
X202779147Y-107159946D01*
X202449974Y-106940000D01*
X202779147Y-106720054D01*
X203101054Y-106238285D01*
X203214093Y-105670000D01*
X203101054Y-105101715D01*
X202779147Y-104619946D01*
X202449974Y-104400000D01*
X202779147Y-104180054D01*
X203101054Y-103698285D01*
X203214093Y-103130000D01*
X203101054Y-102561715D01*
X202779147Y-102079946D01*
X202449974Y-101860000D01*
X202779147Y-101640054D01*
X203101054Y-101158285D01*
X203214093Y-100590000D01*
X203101054Y-100021715D01*
X202779147Y-99539946D01*
X202737548Y-99512150D01*
X202785317Y-99503162D01*
X203001441Y-99364090D01*
X203146431Y-99151890D01*
X203197440Y-98900000D01*
X203197440Y-97200000D01*
X203153162Y-96964683D01*
X203014090Y-96748559D01*
X202801890Y-96603569D01*
X202550000Y-96552560D01*
X200850000Y-96552560D01*
X200614683Y-96596838D01*
X200398559Y-96735910D01*
X200253569Y-96948110D01*
X200242159Y-97004454D01*
X200239147Y-96999946D01*
X199757378Y-96678039D01*
X199189093Y-96565000D01*
X199130907Y-96565000D01*
X198562622Y-96678039D01*
X198080853Y-96999946D01*
X197758946Y-97481715D01*
X197645907Y-98050000D01*
X163915000Y-98050000D01*
X163915000Y-97564050D01*
X163805767Y-97014899D01*
X163494698Y-96549352D01*
X163029151Y-96238283D01*
X162480000Y-96129050D01*
X161930849Y-96238283D01*
X161465302Y-96549352D01*
X161210000Y-96931438D01*
X160954698Y-96549352D01*
X160489151Y-96238283D01*
X159940000Y-96129050D01*
X159390849Y-96238283D01*
X158925302Y-96549352D01*
X158670000Y-96931438D01*
X158414698Y-96549352D01*
X157949151Y-96238283D01*
X157400000Y-96129050D01*
X156850849Y-96238283D01*
X156385302Y-96549352D01*
X156130000Y-96931438D01*
X155874698Y-96549352D01*
X155409151Y-96238283D01*
X155014934Y-96159868D01*
X156064802Y-95110000D01*
X163450000Y-95110000D01*
X163740839Y-95052148D01*
X163987401Y-94887401D01*
X172781203Y-86093599D01*
X179014699Y-86093599D01*
X179278281Y-86731515D01*
X179765918Y-87220004D01*
X180403373Y-87484699D01*
X181093599Y-87485301D01*
X181731515Y-87221719D01*
X181749273Y-87203991D01*
X188364735Y-87203991D01*
X188597932Y-87768371D01*
X189029357Y-88200551D01*
X189593330Y-88434733D01*
X190203991Y-88435265D01*
X190768371Y-88202068D01*
X191150288Y-87820818D01*
X191529357Y-88200551D01*
X192093330Y-88434733D01*
X192703991Y-88435265D01*
X193268371Y-88202068D01*
X193490668Y-87980159D01*
X193999446Y-87980159D01*
X194085852Y-88236643D01*
X194659336Y-88446458D01*
X195269460Y-88420839D01*
X195714148Y-88236643D01*
X195800554Y-87980159D01*
X194900000Y-87079605D01*
X193999446Y-87980159D01*
X193490668Y-87980159D01*
X193700551Y-87770643D01*
X193704294Y-87761628D01*
X193819841Y-87800554D01*
X194720395Y-86900000D01*
X195079605Y-86900000D01*
X195980159Y-87800554D01*
X196236643Y-87714148D01*
X196446458Y-87140664D01*
X196420839Y-86530540D01*
X196236643Y-86085852D01*
X195980159Y-85999446D01*
X195079605Y-86900000D01*
X194720395Y-86900000D01*
X193819841Y-85999446D01*
X193704786Y-86038207D01*
X193702068Y-86031629D01*
X193490650Y-85819841D01*
X193999446Y-85819841D01*
X194900000Y-86720395D01*
X195800554Y-85819841D01*
X195714148Y-85563357D01*
X195140664Y-85353542D01*
X194530540Y-85379161D01*
X194085852Y-85563357D01*
X193999446Y-85819841D01*
X193490650Y-85819841D01*
X193270643Y-85599449D01*
X192706670Y-85365267D01*
X192096009Y-85364735D01*
X191531629Y-85597932D01*
X191149712Y-85979182D01*
X190770643Y-85599449D01*
X190206670Y-85365267D01*
X189596009Y-85364735D01*
X189031629Y-85597932D01*
X188599449Y-86029357D01*
X188365267Y-86593330D01*
X188364735Y-87203991D01*
X181749273Y-87203991D01*
X182220004Y-86734082D01*
X182484699Y-86096627D01*
X182485301Y-85406401D01*
X182221719Y-84768485D01*
X181734082Y-84279996D01*
X181096627Y-84015301D01*
X180406401Y-84014699D01*
X179768485Y-84278281D01*
X179279996Y-84765918D01*
X179015301Y-85403373D01*
X179014699Y-86093599D01*
X172781203Y-86093599D01*
X178452968Y-80421834D01*
X185364543Y-80421834D01*
X185764853Y-81390658D01*
X186505443Y-82132542D01*
X187473567Y-82534542D01*
X188521834Y-82535457D01*
X189490658Y-82135147D01*
X190232542Y-81394557D01*
X190634542Y-80426433D01*
X190634546Y-80421834D01*
X194164543Y-80421834D01*
X194564853Y-81390658D01*
X195305443Y-82132542D01*
X196273567Y-82534542D01*
X197321834Y-82535457D01*
X198290658Y-82135147D01*
X199032542Y-81394557D01*
X199434542Y-80426433D01*
X199435457Y-79378166D01*
X199035147Y-78409342D01*
X198294557Y-77667458D01*
X197326433Y-77265458D01*
X196278166Y-77264543D01*
X195309342Y-77664853D01*
X194567458Y-78405443D01*
X194165458Y-79373567D01*
X194164543Y-80421834D01*
X190634546Y-80421834D01*
X190635457Y-79378166D01*
X190235147Y-78409342D01*
X189494557Y-77667458D01*
X188526433Y-77265458D01*
X187478166Y-77264543D01*
X186509342Y-77664853D01*
X185767458Y-78405443D01*
X185365458Y-79373567D01*
X185364543Y-80421834D01*
X178452968Y-80421834D01*
X188424988Y-70449814D01*
X188597932Y-70868371D01*
X189029357Y-71300551D01*
X189593330Y-71534733D01*
X190203991Y-71535265D01*
X190768371Y-71302068D01*
X191150288Y-70920818D01*
X191529357Y-71300551D01*
X192093330Y-71534733D01*
X192703991Y-71535265D01*
X193268371Y-71302068D01*
X193490668Y-71080159D01*
X193999446Y-71080159D01*
X194085852Y-71336643D01*
X194659336Y-71546458D01*
X195269460Y-71520839D01*
X195714148Y-71336643D01*
X195800554Y-71080159D01*
X194900000Y-70179605D01*
X193999446Y-71080159D01*
X193490668Y-71080159D01*
X193700551Y-70870643D01*
X193704294Y-70861628D01*
X193819841Y-70900554D01*
X194720395Y-70000000D01*
X195079605Y-70000000D01*
X195980159Y-70900554D01*
X196236643Y-70814148D01*
X196446458Y-70240664D01*
X196420839Y-69630540D01*
X196236643Y-69185852D01*
X195980159Y-69099446D01*
X195079605Y-70000000D01*
X194720395Y-70000000D01*
X193819841Y-69099446D01*
X193704786Y-69138207D01*
X193702068Y-69131629D01*
X193490650Y-68919841D01*
X193999446Y-68919841D01*
X194900000Y-69820395D01*
X195800554Y-68919841D01*
X195714148Y-68663357D01*
X195140664Y-68453542D01*
X194530540Y-68479161D01*
X194085852Y-68663357D01*
X193999446Y-68919841D01*
X193490650Y-68919841D01*
X193270643Y-68699449D01*
X192706670Y-68465267D01*
X192096009Y-68464735D01*
X191531629Y-68697932D01*
X191149712Y-69079182D01*
X190770643Y-68699449D01*
X190350014Y-68524788D01*
X194087401Y-64787401D01*
X194252148Y-64540840D01*
X194310000Y-64250000D01*
X194310000Y-63873867D01*
X194564853Y-64490658D01*
X195305443Y-65232542D01*
X196273567Y-65634542D01*
X197321834Y-65635457D01*
X198290658Y-65235147D01*
X199032542Y-64494557D01*
X199434542Y-63526433D01*
X199434868Y-63151887D01*
X200565000Y-63151887D01*
X200565000Y-63208113D01*
X200674233Y-63757264D01*
X200985302Y-64222811D01*
X201450849Y-64533880D01*
X202000000Y-64643113D01*
X202549151Y-64533880D01*
X203014698Y-64222811D01*
X203325767Y-63757264D01*
X203435000Y-63208113D01*
X203435000Y-63151887D01*
X203325767Y-62602736D01*
X203014698Y-62137189D01*
X202549151Y-61826120D01*
X202000000Y-61716887D01*
X201450849Y-61826120D01*
X200985302Y-62137189D01*
X200674233Y-62602736D01*
X200565000Y-63151887D01*
X199434868Y-63151887D01*
X199435457Y-62478166D01*
X199035147Y-61509342D01*
X198294557Y-60767458D01*
X197326433Y-60365458D01*
X196278166Y-60364543D01*
X195309342Y-60764853D01*
X194567458Y-61505443D01*
X194310000Y-62125471D01*
X194310000Y-58950000D01*
X194252148Y-58659161D01*
X194087401Y-58412599D01*
X192974802Y-57300000D01*
X200552560Y-57300000D01*
X200552560Y-58900000D01*
X200596838Y-59135317D01*
X200735910Y-59351441D01*
X200948110Y-59496431D01*
X201200000Y-59547440D01*
X202800000Y-59547440D01*
X203035317Y-59503162D01*
X203251441Y-59364090D01*
X203396431Y-59151890D01*
X203447440Y-58900000D01*
X203447440Y-57300000D01*
X203403162Y-57064683D01*
X203264090Y-56848559D01*
X203051890Y-56703569D01*
X202800000Y-56652560D01*
X201200000Y-56652560D01*
X200964683Y-56696838D01*
X200748559Y-56835910D01*
X200603569Y-57048110D01*
X200552560Y-57300000D01*
X192974802Y-57300000D01*
X190013256Y-54338454D01*
X190034750Y-54286691D01*
X190035000Y-54000000D01*
X194756887Y-54000000D01*
X194866120Y-54549151D01*
X195177189Y-55014698D01*
X195642736Y-55325767D01*
X196191887Y-55435000D01*
X196248113Y-55435000D01*
X196797264Y-55325767D01*
X197262811Y-55014698D01*
X197573880Y-54549151D01*
X197683113Y-54000000D01*
X197573880Y-53450849D01*
X197262811Y-52985302D01*
X196797264Y-52674233D01*
X196248113Y-52565000D01*
X196191887Y-52565000D01*
X195642736Y-52674233D01*
X195177189Y-52985302D01*
X194866120Y-53450849D01*
X194756887Y-54000000D01*
X190035000Y-54000000D01*
X190035248Y-53715813D01*
X189817243Y-53188200D01*
X189413923Y-52784176D01*
X188886691Y-52565250D01*
X188315813Y-52564752D01*
X187788200Y-52782757D01*
X187384176Y-53186077D01*
X187165250Y-53713309D01*
X187164752Y-54284187D01*
X187382757Y-54811800D01*
X187786077Y-55215824D01*
X188313309Y-55434750D01*
X188884187Y-55435248D01*
X188938149Y-55412951D01*
X192790000Y-59264802D01*
X192790000Y-63935198D01*
X185960000Y-70765198D01*
X185960000Y-64686146D01*
X186505443Y-65232542D01*
X187473567Y-65634542D01*
X188521834Y-65635457D01*
X189490658Y-65235147D01*
X190232542Y-64494557D01*
X190634542Y-63526433D01*
X190635457Y-62478166D01*
X190235147Y-61509342D01*
X189494557Y-60767458D01*
X188526433Y-60365458D01*
X187478166Y-60364543D01*
X186509342Y-60764853D01*
X185960000Y-61313237D01*
X185960000Y-58200000D01*
X185902148Y-57909161D01*
X185902148Y-57909160D01*
X185737401Y-57662599D01*
X181737401Y-53662599D01*
X181490839Y-53497852D01*
X181200000Y-53440000D01*
X160914802Y-53440000D01*
X160260000Y-52785198D01*
X160260000Y-51539540D01*
X160296838Y-51735317D01*
X160435910Y-51951441D01*
X160648110Y-52096431D01*
X160900000Y-52147440D01*
X162500000Y-52147440D01*
X162735317Y-52103162D01*
X162951441Y-51964090D01*
X163096431Y-51751890D01*
X163147440Y-51500000D01*
X163147440Y-50700000D01*
X165316887Y-50700000D01*
X165426120Y-51249151D01*
X165737189Y-51714698D01*
X166202736Y-52025767D01*
X166751887Y-52135000D01*
X166808113Y-52135000D01*
X167357264Y-52025767D01*
X167822811Y-51714698D01*
X168133880Y-51249151D01*
X168243113Y-50700000D01*
X168133880Y-50150849D01*
X167894846Y-49793109D01*
X171514657Y-49793109D01*
X171816218Y-50522943D01*
X172374120Y-51081819D01*
X173103427Y-51384654D01*
X173893109Y-51385343D01*
X174622943Y-51083782D01*
X175181819Y-50525880D01*
X175484654Y-49796573D01*
X175484700Y-49743109D01*
X190664657Y-49743109D01*
X190966218Y-50472943D01*
X191524120Y-51031819D01*
X192253427Y-51334654D01*
X193043109Y-51335343D01*
X193772943Y-51033782D01*
X194331819Y-50475880D01*
X194634654Y-49746573D01*
X194634823Y-49551887D01*
X199865000Y-49551887D01*
X199865000Y-49608113D01*
X199974233Y-50157264D01*
X200285302Y-50622811D01*
X200750849Y-50933880D01*
X201300000Y-51043113D01*
X201849151Y-50933880D01*
X202314698Y-50622811D01*
X202625767Y-50157264D01*
X202735000Y-49608113D01*
X202735000Y-49551887D01*
X202625767Y-49002736D01*
X202314698Y-48537189D01*
X201849151Y-48226120D01*
X201300000Y-48116887D01*
X200750849Y-48226120D01*
X200285302Y-48537189D01*
X199974233Y-49002736D01*
X199865000Y-49551887D01*
X194634823Y-49551887D01*
X194635343Y-48956891D01*
X194333782Y-48227057D01*
X193775880Y-47668181D01*
X193046573Y-47365346D01*
X192256891Y-47364657D01*
X191527057Y-47666218D01*
X190968181Y-48224120D01*
X190665346Y-48953427D01*
X190664657Y-49743109D01*
X175484700Y-49743109D01*
X175485343Y-49006891D01*
X175183782Y-48277057D01*
X174625880Y-47718181D01*
X173896573Y-47415346D01*
X173106891Y-47414657D01*
X172377057Y-47716218D01*
X171818181Y-48274120D01*
X171515346Y-49003427D01*
X171514657Y-49793109D01*
X167894846Y-49793109D01*
X167822811Y-49685302D01*
X167357264Y-49374233D01*
X166808113Y-49265000D01*
X166751887Y-49265000D01*
X166202736Y-49374233D01*
X165737189Y-49685302D01*
X165426120Y-50150849D01*
X165316887Y-50700000D01*
X163147440Y-50700000D01*
X163147440Y-49900000D01*
X163103162Y-49664683D01*
X162964090Y-49448559D01*
X162751890Y-49303569D01*
X162500000Y-49252560D01*
X160900000Y-49252560D01*
X160664683Y-49296838D01*
X160448559Y-49435910D01*
X160303569Y-49648110D01*
X160260000Y-49863260D01*
X160260000Y-48038646D01*
X160311800Y-48017243D01*
X160715824Y-47613923D01*
X160934750Y-47086691D01*
X160935000Y-46800000D01*
X165656887Y-46800000D01*
X165766120Y-47349151D01*
X166077189Y-47814698D01*
X166542736Y-48125767D01*
X167091887Y-48235000D01*
X167148113Y-48235000D01*
X167697264Y-48125767D01*
X168162811Y-47814698D01*
X168473880Y-47349151D01*
X168583113Y-46800000D01*
X168473880Y-46250849D01*
X168162811Y-45785302D01*
X167697264Y-45474233D01*
X167148113Y-45365000D01*
X167091887Y-45365000D01*
X166542736Y-45474233D01*
X166077189Y-45785302D01*
X165766120Y-46250849D01*
X165656887Y-46800000D01*
X160935000Y-46800000D01*
X160935248Y-46515813D01*
X160717243Y-45988200D01*
X160313923Y-45584176D01*
X159786691Y-45365250D01*
X159215813Y-45364752D01*
X158688200Y-45582757D01*
X158284176Y-45986077D01*
X158065250Y-46513309D01*
X158064752Y-47084187D01*
X158282757Y-47611800D01*
X158686077Y-48015824D01*
X158740000Y-48038215D01*
X158740000Y-53100000D01*
X158797852Y-53390839D01*
X158962599Y-53637401D01*
X160062599Y-54737401D01*
X160309161Y-54902148D01*
X160600000Y-54960000D01*
X180885198Y-54960000D01*
X184440000Y-58514802D01*
X184440000Y-71235198D01*
X163285198Y-92390000D01*
X153500000Y-92390000D01*
X153257414Y-92438254D01*
X153209160Y-92447852D01*
X152962599Y-92612599D01*
X149363252Y-96211946D01*
X149230849Y-96238283D01*
X148765302Y-96549352D01*
X148510000Y-96931438D01*
X148254698Y-96549352D01*
X147789151Y-96238283D01*
X147240000Y-96129050D01*
X146690849Y-96238283D01*
X146225302Y-96549352D01*
X146127749Y-96695350D01*
X146103162Y-96564683D01*
X145964090Y-96348559D01*
X145751890Y-96203569D01*
X145500000Y-96152560D01*
X143900000Y-96152560D01*
X143664683Y-96196838D01*
X143448559Y-96335910D01*
X143303569Y-96548110D01*
X143252560Y-96800000D01*
X143252560Y-99200000D01*
X143296838Y-99435317D01*
X143435910Y-99651441D01*
X143648110Y-99796431D01*
X143798344Y-99826854D01*
X137862599Y-105762599D01*
X137697852Y-106009161D01*
X137640000Y-106300000D01*
X137697852Y-106590839D01*
X137862599Y-106837401D01*
X138109161Y-107002148D01*
X138400000Y-107060000D01*
X138690839Y-107002148D01*
X138937401Y-106837401D01*
X143940000Y-101834802D01*
X143940000Y-103535198D01*
X121635198Y-125840000D01*
X121634802Y-125840000D01*
X122787401Y-124687401D01*
X122952148Y-124440839D01*
X123010000Y-124150000D01*
X123010000Y-122464802D01*
X132587401Y-112887401D01*
X132752148Y-112640839D01*
X132810000Y-112350000D01*
X132810000Y-111497440D01*
X134700000Y-111497440D01*
X134935317Y-111453162D01*
X135151441Y-111314090D01*
X135296431Y-111101890D01*
X135347440Y-110850000D01*
X135347440Y-108850000D01*
X135303162Y-108614683D01*
X135164090Y-108398559D01*
X134951890Y-108253569D01*
X134700000Y-108202560D01*
X132810000Y-108202560D01*
X132810000Y-105714802D01*
X133208527Y-105316275D01*
X133373352Y-105384716D01*
X134023795Y-105385284D01*
X134624943Y-105136894D01*
X135085278Y-104677363D01*
X135334716Y-104076648D01*
X135335284Y-103426205D01*
X135086894Y-102825057D01*
X134627363Y-102364722D01*
X134026648Y-102115284D01*
X133376205Y-102114716D01*
X132775057Y-102363106D01*
X132314722Y-102822637D01*
X132065284Y-103423352D01*
X132064716Y-104073795D01*
X132133919Y-104241279D01*
X131960000Y-104415198D01*
X131960000Y-99514802D01*
X140967802Y-90507000D01*
X143265000Y-90507000D01*
X143265000Y-90907000D01*
X143422834Y-91446483D01*
X143775104Y-91884500D01*
X144268181Y-92154367D01*
X144350961Y-92171904D01*
X144573000Y-92049915D01*
X144573000Y-90507000D01*
X144827000Y-90507000D01*
X144827000Y-92049915D01*
X145049039Y-92171904D01*
X145131819Y-92154367D01*
X145624896Y-91884500D01*
X145970000Y-91455393D01*
X146315104Y-91884500D01*
X146808181Y-92154367D01*
X146890961Y-92171904D01*
X147113000Y-92049915D01*
X147113000Y-90507000D01*
X144827000Y-90507000D01*
X144573000Y-90507000D01*
X143265000Y-90507000D01*
X140967802Y-90507000D01*
X141621802Y-89853000D01*
X143265000Y-89853000D01*
X143265000Y-90253000D01*
X144573000Y-90253000D01*
X144573000Y-88710085D01*
X144827000Y-88710085D01*
X144827000Y-90253000D01*
X147113000Y-90253000D01*
X147113000Y-88710085D01*
X147367000Y-88710085D01*
X147367000Y-90253000D01*
X147387000Y-90253000D01*
X147387000Y-90507000D01*
X147367000Y-90507000D01*
X147367000Y-92049915D01*
X147589039Y-92171904D01*
X147671819Y-92154367D01*
X148164896Y-91884500D01*
X148512493Y-91452293D01*
X148765302Y-91830648D01*
X149230849Y-92141717D01*
X149780000Y-92250950D01*
X150329151Y-92141717D01*
X150794698Y-91830648D01*
X151050000Y-91448562D01*
X151305302Y-91830648D01*
X151770849Y-92141717D01*
X152320000Y-92250950D01*
X152869151Y-92141717D01*
X153334698Y-91830648D01*
X153590000Y-91448562D01*
X153845302Y-91830648D01*
X154310849Y-92141717D01*
X154860000Y-92250950D01*
X155409151Y-92141717D01*
X155874698Y-91830648D01*
X156116119Y-91469336D01*
X156161599Y-91537401D01*
X156211752Y-91570912D01*
X156385302Y-91830648D01*
X156850849Y-92141717D01*
X157400000Y-92250950D01*
X157949151Y-92141717D01*
X158414698Y-91830648D01*
X158670000Y-91448562D01*
X158925302Y-91830648D01*
X159390849Y-92141717D01*
X159940000Y-92250950D01*
X160489151Y-92141717D01*
X160954698Y-91830648D01*
X161210000Y-91448562D01*
X161465302Y-91830648D01*
X161930849Y-92141717D01*
X162480000Y-92250950D01*
X163029151Y-92141717D01*
X163494698Y-91830648D01*
X163805767Y-91365101D01*
X163915000Y-90815950D01*
X163915000Y-89944050D01*
X163805767Y-89394899D01*
X163494698Y-88929352D01*
X163029151Y-88618283D01*
X162480000Y-88509050D01*
X161930849Y-88618283D01*
X161465302Y-88929352D01*
X161210000Y-89311438D01*
X160954698Y-88929352D01*
X160489151Y-88618283D01*
X160210872Y-88562930D01*
X160236401Y-88537401D01*
X160401148Y-88290839D01*
X160459000Y-88000000D01*
X160401148Y-87709160D01*
X160236401Y-87462599D01*
X159989840Y-87297852D01*
X159699000Y-87240000D01*
X159408161Y-87297852D01*
X159161599Y-87462599D01*
X157983179Y-88641019D01*
X157949151Y-88618283D01*
X157400000Y-88509050D01*
X156850849Y-88618283D01*
X156385302Y-88929352D01*
X156130000Y-89311438D01*
X155874698Y-88929352D01*
X155409151Y-88618283D01*
X154860000Y-88509050D01*
X154310849Y-88618283D01*
X153845302Y-88929352D01*
X153590000Y-89311438D01*
X153334698Y-88929352D01*
X152869151Y-88618283D01*
X152320000Y-88509050D01*
X151770849Y-88618283D01*
X151305302Y-88929352D01*
X151050000Y-89311438D01*
X150794698Y-88929352D01*
X150329151Y-88618283D01*
X149780000Y-88509050D01*
X149230849Y-88618283D01*
X148765302Y-88929352D01*
X148512493Y-89307707D01*
X148164896Y-88875500D01*
X147671819Y-88605633D01*
X147589039Y-88588096D01*
X147367000Y-88710085D01*
X147113000Y-88710085D01*
X146890961Y-88588096D01*
X146808181Y-88605633D01*
X146315104Y-88875500D01*
X145970000Y-89304607D01*
X145624896Y-88875500D01*
X145131819Y-88605633D01*
X145049039Y-88588096D01*
X144827000Y-88710085D01*
X144573000Y-88710085D01*
X144350961Y-88588096D01*
X144268181Y-88605633D01*
X143775104Y-88875500D01*
X143422834Y-89313517D01*
X143265000Y-89853000D01*
X141621802Y-89853000D01*
X149014802Y-82460000D01*
X166950000Y-82460000D01*
X167240839Y-82402148D01*
X167487401Y-82237401D01*
X178737401Y-70987401D01*
X178902148Y-70740839D01*
X178960000Y-70450000D01*
X178960000Y-64454637D01*
X179460000Y-64554093D01*
X180028285Y-64441054D01*
X180510054Y-64119147D01*
X180737702Y-63778447D01*
X180804817Y-63921358D01*
X181233076Y-64311645D01*
X181643110Y-64481476D01*
X181873000Y-64360155D01*
X181873000Y-63167000D01*
X182127000Y-63167000D01*
X182127000Y-64360155D01*
X182356890Y-64481476D01*
X182766924Y-64311645D01*
X183195183Y-63921358D01*
X183441486Y-63396892D01*
X183320819Y-63167000D01*
X182127000Y-63167000D01*
X181873000Y-63167000D01*
X181853000Y-63167000D01*
X181853000Y-62913000D01*
X181873000Y-62913000D01*
X181873000Y-62893000D01*
X182127000Y-62893000D01*
X182127000Y-62913000D01*
X183320819Y-62913000D01*
X183441486Y-62683108D01*
X183195183Y-62158642D01*
X182989496Y-61971192D01*
X183085317Y-61953162D01*
X183301441Y-61814090D01*
X183446431Y-61601890D01*
X183497440Y-61350000D01*
X183497440Y-59650000D01*
X183453162Y-59414683D01*
X183314090Y-59198559D01*
X183101890Y-59053569D01*
X182850000Y-59002560D01*
X181150000Y-59002560D01*
X180914683Y-59046838D01*
X180698559Y-59185910D01*
X180553569Y-59398110D01*
X180539914Y-59465541D01*
X180510054Y-59420853D01*
X180028285Y-59098946D01*
X179460000Y-58985907D01*
X178960000Y-59085363D01*
X178960000Y-58100000D01*
X178902148Y-57809161D01*
X178902148Y-57809160D01*
X178737401Y-57562599D01*
X176937401Y-55762599D01*
X176690839Y-55597852D01*
X176400000Y-55540000D01*
X176050000Y-55540000D01*
X175759161Y-55597852D01*
X175512599Y-55762599D01*
X173585198Y-57690000D01*
X166664803Y-57690000D01*
X166187401Y-57212599D01*
X165940839Y-57047852D01*
X165650000Y-56990000D01*
X155050000Y-56990000D01*
X154759161Y-57047852D01*
X154512599Y-57212599D01*
X152410773Y-59314425D01*
X152088285Y-59098946D01*
X151520000Y-58985907D01*
X151010000Y-59087352D01*
X151010000Y-58950000D01*
X150952148Y-58659161D01*
X150787401Y-58412599D01*
X149987401Y-57612599D01*
X149740839Y-57447852D01*
X149450000Y-57390000D01*
X131514802Y-57390000D01*
X130337401Y-56212599D01*
X130090839Y-56047852D01*
X129800000Y-55990000D01*
X127550000Y-55990000D01*
X127259161Y-56047852D01*
X127012599Y-56212599D01*
X123862599Y-59362599D01*
X123697852Y-59609161D01*
X123640000Y-59900000D01*
X123640000Y-61263106D01*
X123535147Y-61009342D01*
X122794557Y-60267458D01*
X121826433Y-59865458D01*
X120778166Y-59864543D01*
X119809342Y-60264853D01*
X119067458Y-61005443D01*
X118710000Y-61866298D01*
X118710000Y-57064802D01*
X120561546Y-55213256D01*
X120613309Y-55234750D01*
X121184187Y-55235248D01*
X121711800Y-55017243D01*
X122115824Y-54613923D01*
X122163128Y-54500000D01*
X132252560Y-54500000D01*
X132252560Y-56200000D01*
X132296838Y-56435317D01*
X132435910Y-56651441D01*
X132648110Y-56796431D01*
X132900000Y-56847440D01*
X134600000Y-56847440D01*
X134835317Y-56803162D01*
X135051441Y-56664090D01*
X135196431Y-56451890D01*
X135247440Y-56200000D01*
X135247440Y-54500000D01*
X135203162Y-54264683D01*
X135064090Y-54048559D01*
X134851890Y-53903569D01*
X134600000Y-53852560D01*
X132900000Y-53852560D01*
X132664683Y-53896838D01*
X132448559Y-54035910D01*
X132303569Y-54248110D01*
X132252560Y-54500000D01*
X122163128Y-54500000D01*
X122334750Y-54086691D01*
X122335248Y-53515813D01*
X122117243Y-52988200D01*
X121713923Y-52584176D01*
X121186691Y-52365250D01*
X120615813Y-52364752D01*
X120094752Y-52580050D01*
X122881693Y-49793109D01*
X133714657Y-49793109D01*
X134016218Y-50522943D01*
X134574120Y-51081819D01*
X135303427Y-51384654D01*
X136093109Y-51385343D01*
X136822943Y-51083782D01*
X137381819Y-50525880D01*
X137641707Y-49900000D01*
X141052560Y-49900000D01*
X141052560Y-51500000D01*
X141096838Y-51735317D01*
X141235910Y-51951441D01*
X141448110Y-52096431D01*
X141700000Y-52147440D01*
X143300000Y-52147440D01*
X143535317Y-52103162D01*
X143751441Y-51964090D01*
X143896431Y-51751890D01*
X143947440Y-51500000D01*
X143947440Y-50700000D01*
X146116887Y-50700000D01*
X146226120Y-51249151D01*
X146537189Y-51714698D01*
X147002736Y-52025767D01*
X147551887Y-52135000D01*
X147608113Y-52135000D01*
X148157264Y-52025767D01*
X148622811Y-51714698D01*
X148933880Y-51249151D01*
X149043113Y-50700000D01*
X148933880Y-50150849D01*
X148622811Y-49685302D01*
X148157264Y-49374233D01*
X147608113Y-49265000D01*
X147551887Y-49265000D01*
X147002736Y-49374233D01*
X146537189Y-49685302D01*
X146226120Y-50150849D01*
X146116887Y-50700000D01*
X143947440Y-50700000D01*
X143947440Y-49900000D01*
X143903162Y-49664683D01*
X143764090Y-49448559D01*
X143551890Y-49303569D01*
X143300000Y-49252560D01*
X141700000Y-49252560D01*
X141464683Y-49296838D01*
X141248559Y-49435910D01*
X141103569Y-49648110D01*
X141052560Y-49900000D01*
X137641707Y-49900000D01*
X137684654Y-49796573D01*
X137685343Y-49006891D01*
X137383782Y-48277057D01*
X136825880Y-47718181D01*
X136096573Y-47415346D01*
X135306891Y-47414657D01*
X134577057Y-47716218D01*
X134018181Y-48274120D01*
X133715346Y-49003427D01*
X133714657Y-49793109D01*
X122881693Y-49793109D01*
X126914802Y-45760000D01*
X141774377Y-45760000D01*
X141437189Y-45985302D01*
X141126120Y-46450849D01*
X141016887Y-47000000D01*
X141126120Y-47549151D01*
X141437189Y-48014698D01*
X141902736Y-48325767D01*
X142451887Y-48435000D01*
X142508113Y-48435000D01*
X143057264Y-48325767D01*
X143522811Y-48014698D01*
X143833880Y-47549151D01*
X143943113Y-47000000D01*
X143833880Y-46450849D01*
X143547601Y-46022403D01*
X145062599Y-47537401D01*
X145309161Y-47702148D01*
X145600000Y-47760000D01*
X148861354Y-47760000D01*
X148882757Y-47811800D01*
X149286077Y-48215824D01*
X149813309Y-48434750D01*
X150384187Y-48435248D01*
X150911800Y-48217243D01*
X151315824Y-47813923D01*
X151534750Y-47286691D01*
X151535248Y-46715813D01*
X151317243Y-46188200D01*
X150913923Y-45784176D01*
X150386691Y-45565250D01*
X149815813Y-45564752D01*
X149288200Y-45782757D01*
X148884176Y-46186077D01*
X148861785Y-46240000D01*
X145914802Y-46240000D01*
X144460552Y-44785750D01*
X199865000Y-44785750D01*
X199865000Y-45426309D01*
X199961673Y-45659698D01*
X200140301Y-45838327D01*
X200373690Y-45935000D01*
X201014250Y-45935000D01*
X201173000Y-45776250D01*
X201173000Y-44627000D01*
X201427000Y-44627000D01*
X201427000Y-45776250D01*
X201585750Y-45935000D01*
X202226310Y-45935000D01*
X202459699Y-45838327D01*
X202638327Y-45659698D01*
X202735000Y-45426309D01*
X202735000Y-44785750D01*
X202576250Y-44627000D01*
X201427000Y-44627000D01*
X201173000Y-44627000D01*
X200023750Y-44627000D01*
X199865000Y-44785750D01*
X144460552Y-44785750D01*
X144137401Y-44462599D01*
X143890839Y-44297852D01*
X143600000Y-44240000D01*
X126600000Y-44240000D01*
X126309161Y-44297852D01*
X126062599Y-44462599D01*
X115762599Y-54762599D01*
X115597852Y-55009161D01*
X115540000Y-55300000D01*
X115540000Y-63535198D01*
X108612599Y-70462599D01*
X108447852Y-70709161D01*
X108390000Y-71000000D01*
X108390000Y-100300000D01*
X108447852Y-100590839D01*
X108612599Y-100837401D01*
X109885810Y-102110612D01*
X109776648Y-102065284D01*
X109126205Y-102064716D01*
X108525057Y-102313106D01*
X108064722Y-102772637D01*
X107815284Y-103373352D01*
X107814716Y-104023795D01*
X105710000Y-104023795D01*
X105710000Y-61551887D01*
X105965000Y-61551887D01*
X105965000Y-61608113D01*
X106074233Y-62157264D01*
X106385302Y-62622811D01*
X106850849Y-62933880D01*
X107400000Y-63043113D01*
X107506976Y-63021834D01*
X109864543Y-63021834D01*
X110264853Y-63990658D01*
X111005443Y-64732542D01*
X111973567Y-65134542D01*
X113021834Y-65135457D01*
X113990658Y-64735147D01*
X114269999Y-64456293D01*
X114290839Y-64452148D01*
X114537401Y-64287401D01*
X114702148Y-64040839D01*
X114706105Y-64020948D01*
X114732542Y-63994557D01*
X115134542Y-63026433D01*
X115135457Y-61978166D01*
X114735147Y-61009342D01*
X113994557Y-60267458D01*
X113026433Y-59865458D01*
X111978166Y-59864543D01*
X111009342Y-60264853D01*
X110267458Y-61005443D01*
X109865458Y-61973567D01*
X109864543Y-63021834D01*
X107506976Y-63021834D01*
X107949151Y-62933880D01*
X108414698Y-62622811D01*
X108725767Y-62157264D01*
X108835000Y-61608113D01*
X108835000Y-61551887D01*
X108725767Y-61002736D01*
X108414698Y-60537189D01*
X107949151Y-60226120D01*
X107400000Y-60116887D01*
X106850849Y-60226120D01*
X106385302Y-60537189D01*
X106074233Y-61002736D01*
X105965000Y-61551887D01*
X105710000Y-61551887D01*
X105710000Y-55700000D01*
X105952560Y-55700000D01*
X105952560Y-57300000D01*
X105996838Y-57535317D01*
X106135910Y-57751441D01*
X106348110Y-57896431D01*
X106600000Y-57947440D01*
X108200000Y-57947440D01*
X108435317Y-57903162D01*
X108651441Y-57764090D01*
X108796431Y-57551890D01*
X108847440Y-57300000D01*
X108847440Y-55700000D01*
X108803162Y-55464683D01*
X108664090Y-55248559D01*
X108451890Y-55103569D01*
X108200000Y-55052560D01*
X106600000Y-55052560D01*
X106364683Y-55096838D01*
X106148559Y-55235910D01*
X106003569Y-55448110D01*
X105952560Y-55700000D01*
X105710000Y-55700000D01*
X105710000Y-53800000D01*
X111816887Y-53800000D01*
X111926120Y-54349151D01*
X112237189Y-54814698D01*
X112702736Y-55125767D01*
X113251887Y-55235000D01*
X113308113Y-55235000D01*
X113857264Y-55125767D01*
X114322811Y-54814698D01*
X114633880Y-54349151D01*
X114743113Y-53800000D01*
X114633880Y-53250849D01*
X114322811Y-52785302D01*
X113857264Y-52474233D01*
X113308113Y-52365000D01*
X113251887Y-52365000D01*
X112702736Y-52474233D01*
X112237189Y-52785302D01*
X111926120Y-53250849D01*
X111816887Y-53800000D01*
X105710000Y-53800000D01*
X105710000Y-48951887D01*
X107265000Y-48951887D01*
X107265000Y-49008113D01*
X107374233Y-49557264D01*
X107685302Y-50022811D01*
X108150849Y-50333880D01*
X108700000Y-50443113D01*
X109249151Y-50333880D01*
X109714698Y-50022811D01*
X109868180Y-49793109D01*
X115514657Y-49793109D01*
X115816218Y-50522943D01*
X116374120Y-51081819D01*
X117103427Y-51384654D01*
X117893109Y-51385343D01*
X118622943Y-51083782D01*
X119181819Y-50525880D01*
X119484654Y-49796573D01*
X119485343Y-49006891D01*
X119183782Y-48277057D01*
X118625880Y-47718181D01*
X117896573Y-47415346D01*
X117106891Y-47414657D01*
X116377057Y-47716218D01*
X115818181Y-48274120D01*
X115515346Y-49003427D01*
X115514657Y-49793109D01*
X109868180Y-49793109D01*
X110025767Y-49557264D01*
X110135000Y-49008113D01*
X110135000Y-48951887D01*
X110025767Y-48402736D01*
X109714698Y-47937189D01*
X109249151Y-47626120D01*
X108700000Y-47516887D01*
X108150849Y-47626120D01*
X107685302Y-47937189D01*
X107374233Y-48402736D01*
X107265000Y-48951887D01*
X105710000Y-48951887D01*
X105710000Y-44185750D01*
X107265000Y-44185750D01*
X107265000Y-44826309D01*
X107361673Y-45059698D01*
X107540301Y-45238327D01*
X107773690Y-45335000D01*
X108414250Y-45335000D01*
X108573000Y-45176250D01*
X108573000Y-44027000D01*
X108827000Y-44027000D01*
X108827000Y-45176250D01*
X108985750Y-45335000D01*
X109626310Y-45335000D01*
X109859699Y-45238327D01*
X110038327Y-45059698D01*
X110135000Y-44826309D01*
X110135000Y-44185750D01*
X109976250Y-44027000D01*
X108827000Y-44027000D01*
X108573000Y-44027000D01*
X107423750Y-44027000D01*
X107265000Y-44185750D01*
X105710000Y-44185750D01*
X105710000Y-42973691D01*
X107265000Y-42973691D01*
X107265000Y-43614250D01*
X107423750Y-43773000D01*
X108573000Y-43773000D01*
X108573000Y-42623750D01*
X108827000Y-42623750D01*
X108827000Y-43773000D01*
X109976250Y-43773000D01*
X110135000Y-43614250D01*
X110135000Y-42973691D01*
X110038327Y-42740302D01*
X109859699Y-42561673D01*
X109626310Y-42465000D01*
X108985750Y-42465000D01*
X108827000Y-42623750D01*
X108573000Y-42623750D01*
X108414250Y-42465000D01*
X107773690Y-42465000D01*
X107540301Y-42561673D01*
X107361673Y-42740302D01*
X107265000Y-42973691D01*
X105710000Y-42973691D01*
X105710000Y-41100000D01*
X115425132Y-41100000D01*
X115562910Y-41792657D01*
X115955269Y-42379863D01*
X116542475Y-42772222D01*
X117235132Y-42910000D01*
X117764868Y-42910000D01*
X118457525Y-42772222D01*
X119044731Y-42379863D01*
X119437090Y-41792657D01*
X119574868Y-41100000D01*
X133625132Y-41100000D01*
X133762910Y-41792657D01*
X134155269Y-42379863D01*
X134742475Y-42772222D01*
X135435132Y-42910000D01*
X135964868Y-42910000D01*
X136657525Y-42772222D01*
X136987279Y-42551887D01*
X142065000Y-42551887D01*
X142065000Y-42608113D01*
X142174233Y-43157264D01*
X142485302Y-43622811D01*
X142950849Y-43933880D01*
X143500000Y-44043113D01*
X144049151Y-43933880D01*
X144514698Y-43622811D01*
X144825767Y-43157264D01*
X144935000Y-42608113D01*
X144935000Y-42551887D01*
X144825767Y-42002736D01*
X144514698Y-41537189D01*
X144493186Y-41522815D01*
X147614630Y-41522815D01*
X147938980Y-42307800D01*
X148539041Y-42908909D01*
X149323459Y-43234628D01*
X150172815Y-43235370D01*
X150957800Y-42911020D01*
X151558909Y-42310959D01*
X151884628Y-41526541D01*
X151884631Y-41522815D01*
X157914630Y-41522815D01*
X158238980Y-42307800D01*
X158839041Y-42908909D01*
X159623459Y-43234628D01*
X160472815Y-43235370D01*
X161257800Y-42911020D01*
X161517385Y-42651887D01*
X164465000Y-42651887D01*
X164465000Y-42708113D01*
X164574233Y-43257264D01*
X164885302Y-43722811D01*
X165350849Y-44033880D01*
X165900000Y-44143113D01*
X166449151Y-44033880D01*
X166914698Y-43722811D01*
X167014336Y-43573691D01*
X199865000Y-43573691D01*
X199865000Y-44214250D01*
X200023750Y-44373000D01*
X201173000Y-44373000D01*
X201173000Y-43223750D01*
X201427000Y-43223750D01*
X201427000Y-44373000D01*
X202576250Y-44373000D01*
X202735000Y-44214250D01*
X202735000Y-43573691D01*
X202638327Y-43340302D01*
X202459699Y-43161673D01*
X202226310Y-43065000D01*
X201585750Y-43065000D01*
X201427000Y-43223750D01*
X201173000Y-43223750D01*
X201014250Y-43065000D01*
X200373690Y-43065000D01*
X200140301Y-43161673D01*
X199961673Y-43340302D01*
X199865000Y-43573691D01*
X167014336Y-43573691D01*
X167225767Y-43257264D01*
X167335000Y-42708113D01*
X167335000Y-42651887D01*
X167225767Y-42102736D01*
X166914698Y-41637189D01*
X166449151Y-41326120D01*
X165900000Y-41216887D01*
X165350849Y-41326120D01*
X164885302Y-41637189D01*
X164574233Y-42102736D01*
X164465000Y-42651887D01*
X161517385Y-42651887D01*
X161858909Y-42310959D01*
X162184628Y-41526541D01*
X162185000Y-41100000D01*
X171425132Y-41100000D01*
X171562910Y-41792657D01*
X171955269Y-42379863D01*
X172542475Y-42772222D01*
X173235132Y-42910000D01*
X173764868Y-42910000D01*
X174457525Y-42772222D01*
X175044731Y-42379863D01*
X175437090Y-41792657D01*
X175574868Y-41100000D01*
X175564923Y-41050000D01*
X190575132Y-41050000D01*
X190712910Y-41742657D01*
X191105269Y-42329863D01*
X191692475Y-42722222D01*
X192385132Y-42860000D01*
X192914868Y-42860000D01*
X193607525Y-42722222D01*
X194194731Y-42329863D01*
X194587090Y-41742657D01*
X194724868Y-41050000D01*
X194587090Y-40357343D01*
X194194731Y-39770137D01*
X194026870Y-39657976D01*
X194185317Y-39628162D01*
X194401441Y-39489090D01*
X194546431Y-39276890D01*
X194597440Y-39025000D01*
X194597440Y-38942619D01*
X199264613Y-38942619D01*
X199604155Y-39764372D01*
X200232321Y-40393636D01*
X201053481Y-40734611D01*
X201942619Y-40735387D01*
X202764372Y-40395845D01*
X203393636Y-39767679D01*
X203734611Y-38946519D01*
X203735387Y-38057381D01*
X203395845Y-37235628D01*
X202767679Y-36606364D01*
X201946519Y-36265389D01*
X201057381Y-36264613D01*
X200235628Y-36604155D01*
X199606364Y-37232321D01*
X199265389Y-38053481D01*
X199264613Y-38942619D01*
X194597440Y-38942619D01*
X194597440Y-36875000D01*
X194553162Y-36639683D01*
X194414090Y-36423559D01*
X194201890Y-36278569D01*
X193950000Y-36227560D01*
X191350000Y-36227560D01*
X191114683Y-36271838D01*
X190898559Y-36410910D01*
X190753569Y-36623110D01*
X190702560Y-36875000D01*
X190702560Y-39025000D01*
X190746838Y-39260317D01*
X190885910Y-39476441D01*
X191098110Y-39621431D01*
X191274396Y-39657130D01*
X191105269Y-39770137D01*
X190712910Y-40357343D01*
X190575132Y-41050000D01*
X175564923Y-41050000D01*
X175437090Y-40407343D01*
X175044731Y-39820137D01*
X174876870Y-39707976D01*
X175035317Y-39678162D01*
X175251441Y-39539090D01*
X175396431Y-39326890D01*
X175443872Y-39092619D01*
X184764613Y-39092619D01*
X185104155Y-39914372D01*
X185732321Y-40543636D01*
X186553481Y-40884611D01*
X187442619Y-40885387D01*
X188264372Y-40545845D01*
X188893636Y-39917679D01*
X189234611Y-39096519D01*
X189235387Y-38207381D01*
X188895845Y-37385628D01*
X188267679Y-36756364D01*
X187446519Y-36415389D01*
X186557381Y-36414613D01*
X185735628Y-36754155D01*
X185106364Y-37382321D01*
X184765389Y-38203481D01*
X184764613Y-39092619D01*
X175443872Y-39092619D01*
X175447440Y-39075000D01*
X175447440Y-36925000D01*
X175403162Y-36689683D01*
X175264090Y-36473559D01*
X175051890Y-36328569D01*
X174800000Y-36277560D01*
X172200000Y-36277560D01*
X171964683Y-36321838D01*
X171748559Y-36460910D01*
X171603569Y-36673110D01*
X171552560Y-36925000D01*
X171552560Y-39075000D01*
X171596838Y-39310317D01*
X171735910Y-39526441D01*
X171948110Y-39671431D01*
X172124396Y-39707130D01*
X171955269Y-39820137D01*
X171562910Y-40407343D01*
X171425132Y-41100000D01*
X162185000Y-41100000D01*
X162185370Y-40677185D01*
X161861020Y-39892200D01*
X161260959Y-39291091D01*
X160476541Y-38965372D01*
X159627185Y-38964630D01*
X158842200Y-39288980D01*
X158241091Y-39889041D01*
X157915372Y-40673459D01*
X157914630Y-41522815D01*
X151884631Y-41522815D01*
X151885370Y-40677185D01*
X151561020Y-39892200D01*
X151547101Y-39878256D01*
X152989669Y-39878256D01*
X153279837Y-40580515D01*
X153816659Y-41118275D01*
X154518411Y-41409668D01*
X155278256Y-41410331D01*
X155980515Y-41120163D01*
X156518275Y-40583341D01*
X156809668Y-39881589D01*
X156810331Y-39121744D01*
X156520163Y-38419485D01*
X155987359Y-37885750D01*
X164465000Y-37885750D01*
X164465000Y-38526309D01*
X164561673Y-38759698D01*
X164740301Y-38938327D01*
X164973690Y-39035000D01*
X165614250Y-39035000D01*
X165773000Y-38876250D01*
X165773000Y-37727000D01*
X166027000Y-37727000D01*
X166027000Y-38876250D01*
X166185750Y-39035000D01*
X166826310Y-39035000D01*
X167059699Y-38938327D01*
X167238327Y-38759698D01*
X167335000Y-38526309D01*
X167335000Y-37885750D01*
X167176250Y-37727000D01*
X166027000Y-37727000D01*
X165773000Y-37727000D01*
X164623750Y-37727000D01*
X164465000Y-37885750D01*
X155987359Y-37885750D01*
X155983341Y-37881725D01*
X155281589Y-37590332D01*
X154521744Y-37589669D01*
X153819485Y-37879837D01*
X153281725Y-38416659D01*
X152990332Y-39118411D01*
X152989669Y-39878256D01*
X151547101Y-39878256D01*
X150960959Y-39291091D01*
X150176541Y-38965372D01*
X149327185Y-38964630D01*
X148542200Y-39288980D01*
X147941091Y-39889041D01*
X147615372Y-40673459D01*
X147614630Y-41522815D01*
X144493186Y-41522815D01*
X144049151Y-41226120D01*
X143500000Y-41116887D01*
X142950849Y-41226120D01*
X142485302Y-41537189D01*
X142174233Y-42002736D01*
X142065000Y-42551887D01*
X136987279Y-42551887D01*
X137244731Y-42379863D01*
X137637090Y-41792657D01*
X137774868Y-41100000D01*
X137637090Y-40407343D01*
X137244731Y-39820137D01*
X137076870Y-39707976D01*
X137235317Y-39678162D01*
X137451441Y-39539090D01*
X137596431Y-39326890D01*
X137647440Y-39075000D01*
X137647440Y-37785750D01*
X142065000Y-37785750D01*
X142065000Y-38426309D01*
X142161673Y-38659698D01*
X142340301Y-38838327D01*
X142573690Y-38935000D01*
X143214250Y-38935000D01*
X143373000Y-38776250D01*
X143373000Y-37627000D01*
X143627000Y-37627000D01*
X143627000Y-38776250D01*
X143785750Y-38935000D01*
X144426310Y-38935000D01*
X144659699Y-38838327D01*
X144838327Y-38659698D01*
X144935000Y-38426309D01*
X144935000Y-37785750D01*
X144776250Y-37627000D01*
X143627000Y-37627000D01*
X143373000Y-37627000D01*
X142223750Y-37627000D01*
X142065000Y-37785750D01*
X137647440Y-37785750D01*
X137647440Y-36925000D01*
X137603162Y-36689683D01*
X137528524Y-36573691D01*
X142065000Y-36573691D01*
X142065000Y-37214250D01*
X142223750Y-37373000D01*
X143373000Y-37373000D01*
X143373000Y-36223750D01*
X143627000Y-36223750D01*
X143627000Y-37373000D01*
X144776250Y-37373000D01*
X144935000Y-37214250D01*
X144935000Y-36673691D01*
X164465000Y-36673691D01*
X164465000Y-37314250D01*
X164623750Y-37473000D01*
X165773000Y-37473000D01*
X165773000Y-36323750D01*
X166027000Y-36323750D01*
X166027000Y-37473000D01*
X167176250Y-37473000D01*
X167335000Y-37314250D01*
X167335000Y-36673691D01*
X167238327Y-36440302D01*
X167059699Y-36261673D01*
X166826310Y-36165000D01*
X166185750Y-36165000D01*
X166027000Y-36323750D01*
X165773000Y-36323750D01*
X165614250Y-36165000D01*
X164973690Y-36165000D01*
X164740301Y-36261673D01*
X164561673Y-36440302D01*
X164465000Y-36673691D01*
X144935000Y-36673691D01*
X144935000Y-36573691D01*
X144838327Y-36340302D01*
X144659699Y-36161673D01*
X144426310Y-36065000D01*
X143785750Y-36065000D01*
X143627000Y-36223750D01*
X143373000Y-36223750D01*
X143214250Y-36065000D01*
X142573690Y-36065000D01*
X142340301Y-36161673D01*
X142161673Y-36340302D01*
X142065000Y-36573691D01*
X137528524Y-36573691D01*
X137464090Y-36473559D01*
X137251890Y-36328569D01*
X137000000Y-36277560D01*
X134400000Y-36277560D01*
X134164683Y-36321838D01*
X133948559Y-36460910D01*
X133803569Y-36673110D01*
X133752560Y-36925000D01*
X133752560Y-39075000D01*
X133796838Y-39310317D01*
X133935910Y-39526441D01*
X134148110Y-39671431D01*
X134324396Y-39707130D01*
X134155269Y-39820137D01*
X133762910Y-40407343D01*
X133625132Y-41100000D01*
X119574868Y-41100000D01*
X119437090Y-40407343D01*
X119044731Y-39820137D01*
X118876870Y-39707976D01*
X119035317Y-39678162D01*
X119251441Y-39539090D01*
X119396431Y-39326890D01*
X119447440Y-39075000D01*
X119447440Y-38792619D01*
X126714613Y-38792619D01*
X127054155Y-39614372D01*
X127682321Y-40243636D01*
X128503481Y-40584611D01*
X129392619Y-40585387D01*
X130214372Y-40245845D01*
X130843636Y-39617679D01*
X131184611Y-38796519D01*
X131185387Y-37907381D01*
X130845845Y-37085628D01*
X130217679Y-36456364D01*
X129396519Y-36115389D01*
X128507381Y-36114613D01*
X127685628Y-36454155D01*
X127056364Y-37082321D01*
X126715389Y-37903481D01*
X126714613Y-38792619D01*
X119447440Y-38792619D01*
X119447440Y-36925000D01*
X119403162Y-36689683D01*
X119264090Y-36473559D01*
X119051890Y-36328569D01*
X118800000Y-36277560D01*
X116200000Y-36277560D01*
X115964683Y-36321838D01*
X115748559Y-36460910D01*
X115603569Y-36673110D01*
X115552560Y-36925000D01*
X115552560Y-39075000D01*
X115596838Y-39310317D01*
X115735910Y-39526441D01*
X115948110Y-39671431D01*
X116124396Y-39707130D01*
X115955269Y-39820137D01*
X115562910Y-40407343D01*
X115425132Y-41100000D01*
X105710000Y-41100000D01*
X105710000Y-38942619D01*
X106264613Y-38942619D01*
X106604155Y-39764372D01*
X107232321Y-40393636D01*
X108053481Y-40734611D01*
X108942619Y-40735387D01*
X109764372Y-40395845D01*
X110393636Y-39767679D01*
X110734611Y-38946519D01*
X110735387Y-38057381D01*
X110395845Y-37235628D01*
X109767679Y-36606364D01*
X108946519Y-36265389D01*
X108057381Y-36264613D01*
X107235628Y-36604155D01*
X106606364Y-37232321D01*
X106265389Y-38053481D01*
X106264613Y-38942619D01*
X105710000Y-38942619D01*
X105710000Y-35710000D01*
X204290000Y-35710000D01*
X204290000Y-134290000D01*
X204290000Y-134290000D01*
G37*
X204290000Y-134290000D02*
X105710000Y-134290000D01*
X105710000Y-131942619D01*
X106264613Y-131942619D01*
X106604155Y-132764372D01*
X107232321Y-133393636D01*
X108053481Y-133734611D01*
X108942619Y-133735387D01*
X109764372Y-133395845D01*
X110393636Y-132767679D01*
X110734611Y-131946519D01*
X110734614Y-131942619D01*
X199264613Y-131942619D01*
X199604155Y-132764372D01*
X200232321Y-133393636D01*
X201053481Y-133734611D01*
X201942619Y-133735387D01*
X202764372Y-133395845D01*
X203393636Y-132767679D01*
X203734611Y-131946519D01*
X203735387Y-131057381D01*
X203395845Y-130235628D01*
X202767679Y-129606364D01*
X201946519Y-129265389D01*
X201057381Y-129264613D01*
X200235628Y-129604155D01*
X199606364Y-130232321D01*
X199265389Y-131053481D01*
X199264613Y-131942619D01*
X110734614Y-131942619D01*
X110735387Y-131057381D01*
X110395845Y-130235628D01*
X109767679Y-129606364D01*
X108946519Y-129265389D01*
X108057381Y-129264613D01*
X107235628Y-129604155D01*
X106606364Y-130232321D01*
X106265389Y-131053481D01*
X106264613Y-131942619D01*
X105710000Y-131942619D01*
X105710000Y-110023795D01*
X107814716Y-110023795D01*
X108063106Y-110624943D01*
X108522637Y-111085278D01*
X109123352Y-111334716D01*
X109773795Y-111335284D01*
X110374943Y-111086894D01*
X110835278Y-110627363D01*
X111084716Y-110026648D01*
X111085284Y-109376205D01*
X110836894Y-108775057D01*
X110377363Y-108314722D01*
X109776648Y-108065284D01*
X109126205Y-108064716D01*
X108525057Y-108313106D01*
X108064722Y-108772637D01*
X107815284Y-109373352D01*
X107814716Y-110023795D01*
X105710000Y-110023795D01*
X105710000Y-104023795D01*
X107814716Y-104023795D01*
X108063106Y-104624943D01*
X108522637Y-105085278D01*
X109123352Y-105334716D01*
X109773795Y-105335284D01*
X110374943Y-105086894D01*
X110835278Y-104627363D01*
X111084716Y-104026648D01*
X111085284Y-103376205D01*
X111038727Y-103263529D01*
X114940000Y-107164802D01*
X114940000Y-124500000D01*
X114997852Y-124790839D01*
X115162599Y-125037401D01*
X118112599Y-127987401D01*
X118359161Y-128152148D01*
X118650000Y-128210000D01*
X119080911Y-128210000D01*
X119052560Y-128350000D01*
X119052560Y-130350000D01*
X119096838Y-130585317D01*
X119235910Y-130801441D01*
X119448110Y-130946431D01*
X119700000Y-130997440D01*
X121700000Y-130997440D01*
X121935317Y-130953162D01*
X122151441Y-130814090D01*
X122296431Y-130601890D01*
X122347440Y-130350000D01*
X122347440Y-129673795D01*
X132564716Y-129673795D01*
X132813106Y-130274943D01*
X133272637Y-130735278D01*
X133873352Y-130984716D01*
X134523795Y-130985284D01*
X135124943Y-130736894D01*
X135585278Y-130277363D01*
X135834716Y-129676648D01*
X135835284Y-129026205D01*
X135586894Y-128425057D01*
X135511969Y-128350000D01*
X144652560Y-128350000D01*
X144652560Y-130350000D01*
X144696838Y-130585317D01*
X144835910Y-130801441D01*
X145048110Y-130946431D01*
X145300000Y-130997440D01*
X147300000Y-130997440D01*
X147535317Y-130953162D01*
X147751441Y-130814090D01*
X147896431Y-130601890D01*
X147947440Y-130350000D01*
X147947440Y-129673795D01*
X158164716Y-129673795D01*
X158413106Y-130274943D01*
X158872637Y-130735278D01*
X159473352Y-130984716D01*
X160123795Y-130985284D01*
X160724943Y-130736894D01*
X161185278Y-130277363D01*
X161434716Y-129676648D01*
X161435284Y-129026205D01*
X161186894Y-128425057D01*
X160727363Y-127964722D01*
X160126648Y-127715284D01*
X159476205Y-127714716D01*
X158875057Y-127963106D01*
X158414722Y-128422637D01*
X158165284Y-129023352D01*
X158164716Y-129673795D01*
X147947440Y-129673795D01*
X147947440Y-128350000D01*
X147903162Y-128114683D01*
X147764090Y-127898559D01*
X147551890Y-127753569D01*
X147300000Y-127702560D01*
X145300000Y-127702560D01*
X145064683Y-127746838D01*
X144848559Y-127885910D01*
X144703569Y-128098110D01*
X144652560Y-128350000D01*
X135511969Y-128350000D01*
X135127363Y-127964722D01*
X134526648Y-127715284D01*
X133876205Y-127714716D01*
X133275057Y-127963106D01*
X132814722Y-128422637D01*
X132565284Y-129023352D01*
X132564716Y-129673795D01*
X122347440Y-129673795D01*
X122347440Y-128350000D01*
X122321097Y-128210000D01*
X123450000Y-128210000D01*
X123740839Y-128152148D01*
X123987401Y-127987401D01*
X128301007Y-123673795D01*
X132564716Y-123673795D01*
X132813106Y-124274943D01*
X133272637Y-124735278D01*
X133873352Y-124984716D01*
X134523795Y-124985284D01*
X135124943Y-124736894D01*
X135585278Y-124277363D01*
X135834716Y-123676648D01*
X135834805Y-123573795D01*
X144664716Y-123573795D01*
X144913106Y-124174943D01*
X145372637Y-124635278D01*
X145973352Y-124884716D01*
X146623795Y-124885284D01*
X147224943Y-124636894D01*
X147685278Y-124177363D01*
X147894377Y-123673795D01*
X158164716Y-123673795D01*
X158413106Y-124274943D01*
X158872637Y-124735278D01*
X159473352Y-124984716D01*
X160123795Y-124985284D01*
X160724943Y-124736894D01*
X161185278Y-124277363D01*
X161434716Y-123676648D01*
X161435284Y-123026205D01*
X161186894Y-122425057D01*
X160727363Y-121964722D01*
X160126648Y-121715284D01*
X159476205Y-121714716D01*
X158875057Y-121963106D01*
X158414722Y-122422637D01*
X158165284Y-123023352D01*
X158164716Y-123673795D01*
X147894377Y-123673795D01*
X147934716Y-123576648D01*
X147935284Y-122926205D01*
X147686894Y-122325057D01*
X147227363Y-121864722D01*
X146626648Y-121615284D01*
X145976205Y-121614716D01*
X145375057Y-121863106D01*
X144914722Y-122322637D01*
X144665284Y-122923352D01*
X144664716Y-123573795D01*
X135834805Y-123573795D01*
X135835284Y-123026205D01*
X135586894Y-122425057D01*
X135127363Y-121964722D01*
X134526648Y-121715284D01*
X133876205Y-121714716D01*
X133275057Y-121963106D01*
X132814722Y-122422637D01*
X132565284Y-123023352D01*
X132564716Y-123673795D01*
X128301007Y-123673795D01*
X141801007Y-110173795D01*
X145564716Y-110173795D01*
X145813106Y-110774943D01*
X146272637Y-111235278D01*
X146873352Y-111484716D01*
X147523795Y-111485284D01*
X148124943Y-111236894D01*
X148585278Y-110777363D01*
X148679687Y-110550000D01*
X170029050Y-110550000D01*
X170138283Y-111099151D01*
X170449352Y-111564698D01*
X170914899Y-111875767D01*
X171464050Y-111985000D01*
X172335950Y-111985000D01*
X172885101Y-111875767D01*
X173350648Y-111564698D01*
X173661717Y-111099151D01*
X173770950Y-110550000D01*
X173661717Y-110000849D01*
X173350648Y-109535302D01*
X172885101Y-109224233D01*
X172335950Y-109115000D01*
X171464050Y-109115000D01*
X170914899Y-109224233D01*
X170449352Y-109535302D01*
X170138283Y-110000849D01*
X170029050Y-110550000D01*
X148679687Y-110550000D01*
X148834716Y-110176648D01*
X148835284Y-109526205D01*
X148586894Y-108925057D01*
X148127363Y-108464722D01*
X147526648Y-108215284D01*
X146876205Y-108214716D01*
X146275057Y-108463106D01*
X145814722Y-108922637D01*
X145565284Y-109523352D01*
X145564716Y-110173795D01*
X141801007Y-110173795D01*
X144914802Y-107060000D01*
X148100000Y-107060000D01*
X148390839Y-107002148D01*
X148618545Y-106850000D01*
X170029050Y-106850000D01*
X170138283Y-107399151D01*
X170449352Y-107864698D01*
X170914899Y-108175767D01*
X171464050Y-108285000D01*
X172335950Y-108285000D01*
X172885101Y-108175767D01*
X173350648Y-107864698D01*
X173661717Y-107399151D01*
X173770950Y-106850000D01*
X173661717Y-106300849D01*
X173350648Y-105835302D01*
X172885101Y-105524233D01*
X172750404Y-105497440D01*
X173100000Y-105497440D01*
X173335317Y-105453162D01*
X173551441Y-105314090D01*
X173696431Y-105101890D01*
X173747440Y-104850000D01*
X173747440Y-104810000D01*
X174985198Y-104810000D01*
X177440000Y-107264802D01*
X177440000Y-126900000D01*
X177497852Y-127190839D01*
X177662599Y-127437401D01*
X179202560Y-128977362D01*
X179202560Y-130550000D01*
X179246838Y-130785317D01*
X179385910Y-131001441D01*
X179598110Y-131146431D01*
X179850000Y-131197440D01*
X181850000Y-131197440D01*
X182085317Y-131153162D01*
X182301441Y-131014090D01*
X182446431Y-130801890D01*
X182497440Y-130550000D01*
X182497440Y-129873795D01*
X192714716Y-129873795D01*
X192963106Y-130474943D01*
X193422637Y-130935278D01*
X194023352Y-131184716D01*
X194673795Y-131185284D01*
X195274943Y-130936894D01*
X195735278Y-130477363D01*
X195984716Y-129876648D01*
X195985284Y-129226205D01*
X195736894Y-128625057D01*
X195277363Y-128164722D01*
X194676648Y-127915284D01*
X194026205Y-127914716D01*
X193425057Y-128163106D01*
X192964722Y-128622637D01*
X192715284Y-129223352D01*
X192714716Y-129873795D01*
X182497440Y-129873795D01*
X182497440Y-128550000D01*
X182453162Y-128314683D01*
X182314090Y-128098559D01*
X182101890Y-127953569D01*
X181850000Y-127902560D01*
X180277362Y-127902560D01*
X178960000Y-126585198D01*
X178960000Y-123773795D01*
X179214716Y-123773795D01*
X179463106Y-124374943D01*
X179922637Y-124835278D01*
X180523352Y-125084716D01*
X181173795Y-125085284D01*
X181774943Y-124836894D01*
X182235278Y-124377363D01*
X182444377Y-123873795D01*
X192714716Y-123873795D01*
X192963106Y-124474943D01*
X193422637Y-124935278D01*
X194023352Y-125184716D01*
X194673795Y-125185284D01*
X195274943Y-124936894D01*
X195735278Y-124477363D01*
X195984716Y-123876648D01*
X195985284Y-123226205D01*
X195736894Y-122625057D01*
X195277363Y-122164722D01*
X194676648Y-121915284D01*
X194026205Y-121914716D01*
X193425057Y-122163106D01*
X192964722Y-122622637D01*
X192715284Y-123223352D01*
X192714716Y-123873795D01*
X182444377Y-123873795D01*
X182484716Y-123776648D01*
X182485284Y-123126205D01*
X182236894Y-122525057D01*
X181777363Y-122064722D01*
X181176648Y-121815284D01*
X180526205Y-121814716D01*
X179925057Y-122063106D01*
X179464722Y-122522637D01*
X179215284Y-123123352D01*
X179214716Y-123773795D01*
X178960000Y-123773795D01*
X178960000Y-113290000D01*
X197645907Y-113290000D01*
X197758946Y-113858285D01*
X198080853Y-114340054D01*
X198562622Y-114661961D01*
X199130907Y-114775000D01*
X199189093Y-114775000D01*
X199757378Y-114661961D01*
X200239147Y-114340054D01*
X200430000Y-114054422D01*
X200620853Y-114340054D01*
X201102622Y-114661961D01*
X201670907Y-114775000D01*
X201729093Y-114775000D01*
X202297378Y-114661961D01*
X202779147Y-114340054D01*
X203101054Y-113858285D01*
X203214093Y-113290000D01*
X203101054Y-112721715D01*
X202779147Y-112239946D01*
X202438447Y-112012298D01*
X202581358Y-111945183D01*
X202971645Y-111516924D01*
X203141476Y-111106890D01*
X203020155Y-110877000D01*
X201827000Y-110877000D01*
X201827000Y-110897000D01*
X201573000Y-110897000D01*
X201573000Y-110877000D01*
X199287000Y-110877000D01*
X199287000Y-110897000D01*
X199033000Y-110897000D01*
X199033000Y-110877000D01*
X197839845Y-110877000D01*
X197718524Y-111106890D01*
X197888355Y-111516924D01*
X198278642Y-111945183D01*
X198421553Y-112012298D01*
X198080853Y-112239946D01*
X197758946Y-112721715D01*
X197645907Y-113290000D01*
X178960000Y-113290000D01*
X178960000Y-110550000D01*
X180429050Y-110550000D01*
X180538283Y-111099151D01*
X180849352Y-111564698D01*
X181314899Y-111875767D01*
X181864050Y-111985000D01*
X182735950Y-111985000D01*
X183285101Y-111875767D01*
X183750648Y-111564698D01*
X184061717Y-111099151D01*
X184170950Y-110550000D01*
X184061717Y-110000849D01*
X183750648Y-109535302D01*
X183285101Y-109224233D01*
X182735950Y-109115000D01*
X181864050Y-109115000D01*
X181314899Y-109224233D01*
X180849352Y-109535302D01*
X180538283Y-110000849D01*
X180429050Y-110550000D01*
X178960000Y-110550000D01*
X178960000Y-106950000D01*
X178937729Y-106838039D01*
X178902148Y-106659160D01*
X178737401Y-106412599D01*
X176374802Y-104050000D01*
X180399050Y-104050000D01*
X180508283Y-104599151D01*
X180819352Y-105064698D01*
X181284899Y-105375767D01*
X181673093Y-105452984D01*
X181314899Y-105524233D01*
X180849352Y-105835302D01*
X180538283Y-106300849D01*
X180429050Y-106850000D01*
X180538283Y-107399151D01*
X180849352Y-107864698D01*
X181314899Y-108175767D01*
X181864050Y-108285000D01*
X182735950Y-108285000D01*
X183285101Y-108175767D01*
X183750648Y-107864698D01*
X184061717Y-107399151D01*
X184170950Y-106850000D01*
X184061717Y-106300849D01*
X183750648Y-105835302D01*
X183285101Y-105524233D01*
X182896907Y-105447016D01*
X183255101Y-105375767D01*
X183720648Y-105064698D01*
X184031717Y-104599151D01*
X184140950Y-104050000D01*
X184031717Y-103500849D01*
X183720648Y-103035302D01*
X183255101Y-102724233D01*
X182705950Y-102615000D01*
X181834050Y-102615000D01*
X181284899Y-102724233D01*
X180819352Y-103035302D01*
X180508283Y-103500849D01*
X180399050Y-104050000D01*
X176374802Y-104050000D01*
X175837401Y-103512599D01*
X175590839Y-103347852D01*
X175300000Y-103290000D01*
X173747440Y-103290000D01*
X173747440Y-103250000D01*
X173703162Y-103014683D01*
X173564090Y-102798559D01*
X173351890Y-102653569D01*
X173100000Y-102602560D01*
X170700000Y-102602560D01*
X170464683Y-102646838D01*
X170248559Y-102785910D01*
X170103569Y-102998110D01*
X170052560Y-103250000D01*
X170052560Y-104850000D01*
X170096838Y-105085317D01*
X170235910Y-105301441D01*
X170448110Y-105446431D01*
X170700000Y-105497440D01*
X171049596Y-105497440D01*
X170914899Y-105524233D01*
X170449352Y-105835302D01*
X170138283Y-106300849D01*
X170029050Y-106850000D01*
X148618545Y-106850000D01*
X148637401Y-106837401D01*
X150137401Y-105337401D01*
X150302148Y-105090840D01*
X150360000Y-104800000D01*
X150360000Y-100360000D01*
X150302148Y-100069161D01*
X150137401Y-99822599D01*
X150118433Y-99803631D01*
X150329151Y-99761717D01*
X150794698Y-99450648D01*
X151050000Y-99068562D01*
X151305302Y-99450648D01*
X151770849Y-99761717D01*
X152320000Y-99870950D01*
X152869151Y-99761717D01*
X153334698Y-99450648D01*
X153590000Y-99068562D01*
X153845302Y-99450648D01*
X154310849Y-99761717D01*
X154860000Y-99870950D01*
X155409151Y-99761717D01*
X155874698Y-99450648D01*
X156130000Y-99068562D01*
X156385302Y-99450648D01*
X156850849Y-99761717D01*
X157400000Y-99870950D01*
X157949151Y-99761717D01*
X158414698Y-99450648D01*
X158670000Y-99068562D01*
X158925302Y-99450648D01*
X159390849Y-99761717D01*
X159940000Y-99870950D01*
X160489151Y-99761717D01*
X160954698Y-99450648D01*
X161210000Y-99068562D01*
X161465302Y-99450648D01*
X161930849Y-99761717D01*
X162480000Y-99870950D01*
X163029151Y-99761717D01*
X163494698Y-99450648D01*
X163805767Y-98985101D01*
X163915000Y-98435950D01*
X163915000Y-98050000D01*
X197645907Y-98050000D01*
X197758946Y-98618285D01*
X198080853Y-99100054D01*
X198410026Y-99320000D01*
X198080853Y-99539946D01*
X197758946Y-100021715D01*
X197645907Y-100590000D01*
X197758946Y-101158285D01*
X198080853Y-101640054D01*
X198410026Y-101860000D01*
X198080853Y-102079946D01*
X197758946Y-102561715D01*
X197645907Y-103130000D01*
X197758946Y-103698285D01*
X198080853Y-104180054D01*
X198410026Y-104400000D01*
X198080853Y-104619946D01*
X197758946Y-105101715D01*
X197645907Y-105670000D01*
X197758946Y-106238285D01*
X198080853Y-106720054D01*
X198410026Y-106940000D01*
X198080853Y-107159946D01*
X197758946Y-107641715D01*
X197645907Y-108210000D01*
X197758946Y-108778285D01*
X198080853Y-109260054D01*
X198421553Y-109487702D01*
X198278642Y-109554817D01*
X197888355Y-109983076D01*
X197718524Y-110393110D01*
X197839845Y-110623000D01*
X199033000Y-110623000D01*
X199033000Y-110603000D01*
X199287000Y-110603000D01*
X199287000Y-110623000D01*
X201573000Y-110623000D01*
X201573000Y-110603000D01*
X201827000Y-110603000D01*
X201827000Y-110623000D01*
X203020155Y-110623000D01*
X203141476Y-110393110D01*
X202971645Y-109983076D01*
X202581358Y-109554817D01*
X202438447Y-109487702D01*
X202779147Y-109260054D01*
X203101054Y-108778285D01*
X203214093Y-108210000D01*
X203101054Y-107641715D01*
X202779147Y-107159946D01*
X202449974Y-106940000D01*
X202779147Y-106720054D01*
X203101054Y-106238285D01*
X203214093Y-105670000D01*
X203101054Y-105101715D01*
X202779147Y-104619946D01*
X202449974Y-104400000D01*
X202779147Y-104180054D01*
X203101054Y-103698285D01*
X203214093Y-103130000D01*
X203101054Y-102561715D01*
X202779147Y-102079946D01*
X202449974Y-101860000D01*
X202779147Y-101640054D01*
X203101054Y-101158285D01*
X203214093Y-100590000D01*
X203101054Y-100021715D01*
X202779147Y-99539946D01*
X202737548Y-99512150D01*
X202785317Y-99503162D01*
X203001441Y-99364090D01*
X203146431Y-99151890D01*
X203197440Y-98900000D01*
X203197440Y-97200000D01*
X203153162Y-96964683D01*
X203014090Y-96748559D01*
X202801890Y-96603569D01*
X202550000Y-96552560D01*
X200850000Y-96552560D01*
X200614683Y-96596838D01*
X200398559Y-96735910D01*
X200253569Y-96948110D01*
X200242159Y-97004454D01*
X200239147Y-96999946D01*
X199757378Y-96678039D01*
X199189093Y-96565000D01*
X199130907Y-96565000D01*
X198562622Y-96678039D01*
X198080853Y-96999946D01*
X197758946Y-97481715D01*
X197645907Y-98050000D01*
X163915000Y-98050000D01*
X163915000Y-97564050D01*
X163805767Y-97014899D01*
X163494698Y-96549352D01*
X163029151Y-96238283D01*
X162480000Y-96129050D01*
X161930849Y-96238283D01*
X161465302Y-96549352D01*
X161210000Y-96931438D01*
X160954698Y-96549352D01*
X160489151Y-96238283D01*
X159940000Y-96129050D01*
X159390849Y-96238283D01*
X158925302Y-96549352D01*
X158670000Y-96931438D01*
X158414698Y-96549352D01*
X157949151Y-96238283D01*
X157400000Y-96129050D01*
X156850849Y-96238283D01*
X156385302Y-96549352D01*
X156130000Y-96931438D01*
X155874698Y-96549352D01*
X155409151Y-96238283D01*
X155014934Y-96159868D01*
X156064802Y-95110000D01*
X163450000Y-95110000D01*
X163740839Y-95052148D01*
X163987401Y-94887401D01*
X172781203Y-86093599D01*
X179014699Y-86093599D01*
X179278281Y-86731515D01*
X179765918Y-87220004D01*
X180403373Y-87484699D01*
X181093599Y-87485301D01*
X181731515Y-87221719D01*
X181749273Y-87203991D01*
X188364735Y-87203991D01*
X188597932Y-87768371D01*
X189029357Y-88200551D01*
X189593330Y-88434733D01*
X190203991Y-88435265D01*
X190768371Y-88202068D01*
X191150288Y-87820818D01*
X191529357Y-88200551D01*
X192093330Y-88434733D01*
X192703991Y-88435265D01*
X193268371Y-88202068D01*
X193490668Y-87980159D01*
X193999446Y-87980159D01*
X194085852Y-88236643D01*
X194659336Y-88446458D01*
X195269460Y-88420839D01*
X195714148Y-88236643D01*
X195800554Y-87980159D01*
X194900000Y-87079605D01*
X193999446Y-87980159D01*
X193490668Y-87980159D01*
X193700551Y-87770643D01*
X193704294Y-87761628D01*
X193819841Y-87800554D01*
X194720395Y-86900000D01*
X195079605Y-86900000D01*
X195980159Y-87800554D01*
X196236643Y-87714148D01*
X196446458Y-87140664D01*
X196420839Y-86530540D01*
X196236643Y-86085852D01*
X195980159Y-85999446D01*
X195079605Y-86900000D01*
X194720395Y-86900000D01*
X193819841Y-85999446D01*
X193704786Y-86038207D01*
X193702068Y-86031629D01*
X193490650Y-85819841D01*
X193999446Y-85819841D01*
X194900000Y-86720395D01*
X195800554Y-85819841D01*
X195714148Y-85563357D01*
X195140664Y-85353542D01*
X194530540Y-85379161D01*
X194085852Y-85563357D01*
X193999446Y-85819841D01*
X193490650Y-85819841D01*
X193270643Y-85599449D01*
X192706670Y-85365267D01*
X192096009Y-85364735D01*
X191531629Y-85597932D01*
X191149712Y-85979182D01*
X190770643Y-85599449D01*
X190206670Y-85365267D01*
X189596009Y-85364735D01*
X189031629Y-85597932D01*
X188599449Y-86029357D01*
X188365267Y-86593330D01*
X188364735Y-87203991D01*
X181749273Y-87203991D01*
X182220004Y-86734082D01*
X182484699Y-86096627D01*
X182485301Y-85406401D01*
X182221719Y-84768485D01*
X181734082Y-84279996D01*
X181096627Y-84015301D01*
X180406401Y-84014699D01*
X179768485Y-84278281D01*
X179279996Y-84765918D01*
X179015301Y-85403373D01*
X179014699Y-86093599D01*
X172781203Y-86093599D01*
X178452968Y-80421834D01*
X185364543Y-80421834D01*
X185764853Y-81390658D01*
X186505443Y-82132542D01*
X187473567Y-82534542D01*
X188521834Y-82535457D01*
X189490658Y-82135147D01*
X190232542Y-81394557D01*
X190634542Y-80426433D01*
X190634546Y-80421834D01*
X194164543Y-80421834D01*
X194564853Y-81390658D01*
X195305443Y-82132542D01*
X196273567Y-82534542D01*
X197321834Y-82535457D01*
X198290658Y-82135147D01*
X199032542Y-81394557D01*
X199434542Y-80426433D01*
X199435457Y-79378166D01*
X199035147Y-78409342D01*
X198294557Y-77667458D01*
X197326433Y-77265458D01*
X196278166Y-77264543D01*
X195309342Y-77664853D01*
X194567458Y-78405443D01*
X194165458Y-79373567D01*
X194164543Y-80421834D01*
X190634546Y-80421834D01*
X190635457Y-79378166D01*
X190235147Y-78409342D01*
X189494557Y-77667458D01*
X188526433Y-77265458D01*
X187478166Y-77264543D01*
X186509342Y-77664853D01*
X185767458Y-78405443D01*
X185365458Y-79373567D01*
X185364543Y-80421834D01*
X178452968Y-80421834D01*
X188424988Y-70449814D01*
X188597932Y-70868371D01*
X189029357Y-71300551D01*
X189593330Y-71534733D01*
X190203991Y-71535265D01*
X190768371Y-71302068D01*
X191150288Y-70920818D01*
X191529357Y-71300551D01*
X192093330Y-71534733D01*
X192703991Y-71535265D01*
X193268371Y-71302068D01*
X193490668Y-71080159D01*
X193999446Y-71080159D01*
X194085852Y-71336643D01*
X194659336Y-71546458D01*
X195269460Y-71520839D01*
X195714148Y-71336643D01*
X195800554Y-71080159D01*
X194900000Y-70179605D01*
X193999446Y-71080159D01*
X193490668Y-71080159D01*
X193700551Y-70870643D01*
X193704294Y-70861628D01*
X193819841Y-70900554D01*
X194720395Y-70000000D01*
X195079605Y-70000000D01*
X195980159Y-70900554D01*
X196236643Y-70814148D01*
X196446458Y-70240664D01*
X196420839Y-69630540D01*
X196236643Y-69185852D01*
X195980159Y-69099446D01*
X195079605Y-70000000D01*
X194720395Y-70000000D01*
X193819841Y-69099446D01*
X193704786Y-69138207D01*
X193702068Y-69131629D01*
X193490650Y-68919841D01*
X193999446Y-68919841D01*
X194900000Y-69820395D01*
X195800554Y-68919841D01*
X195714148Y-68663357D01*
X195140664Y-68453542D01*
X194530540Y-68479161D01*
X194085852Y-68663357D01*
X193999446Y-68919841D01*
X193490650Y-68919841D01*
X193270643Y-68699449D01*
X192706670Y-68465267D01*
X192096009Y-68464735D01*
X191531629Y-68697932D01*
X191149712Y-69079182D01*
X190770643Y-68699449D01*
X190350014Y-68524788D01*
X194087401Y-64787401D01*
X194252148Y-64540840D01*
X194310000Y-64250000D01*
X194310000Y-63873867D01*
X194564853Y-64490658D01*
X195305443Y-65232542D01*
X196273567Y-65634542D01*
X197321834Y-65635457D01*
X198290658Y-65235147D01*
X199032542Y-64494557D01*
X199434542Y-63526433D01*
X199434868Y-63151887D01*
X200565000Y-63151887D01*
X200565000Y-63208113D01*
X200674233Y-63757264D01*
X200985302Y-64222811D01*
X201450849Y-64533880D01*
X202000000Y-64643113D01*
X202549151Y-64533880D01*
X203014698Y-64222811D01*
X203325767Y-63757264D01*
X203435000Y-63208113D01*
X203435000Y-63151887D01*
X203325767Y-62602736D01*
X203014698Y-62137189D01*
X202549151Y-61826120D01*
X202000000Y-61716887D01*
X201450849Y-61826120D01*
X200985302Y-62137189D01*
X200674233Y-62602736D01*
X200565000Y-63151887D01*
X199434868Y-63151887D01*
X199435457Y-62478166D01*
X199035147Y-61509342D01*
X198294557Y-60767458D01*
X197326433Y-60365458D01*
X196278166Y-60364543D01*
X195309342Y-60764853D01*
X194567458Y-61505443D01*
X194310000Y-62125471D01*
X194310000Y-58950000D01*
X194252148Y-58659161D01*
X194087401Y-58412599D01*
X192974802Y-57300000D01*
X200552560Y-57300000D01*
X200552560Y-58900000D01*
X200596838Y-59135317D01*
X200735910Y-59351441D01*
X200948110Y-59496431D01*
X201200000Y-59547440D01*
X202800000Y-59547440D01*
X203035317Y-59503162D01*
X203251441Y-59364090D01*
X203396431Y-59151890D01*
X203447440Y-58900000D01*
X203447440Y-57300000D01*
X203403162Y-57064683D01*
X203264090Y-56848559D01*
X203051890Y-56703569D01*
X202800000Y-56652560D01*
X201200000Y-56652560D01*
X200964683Y-56696838D01*
X200748559Y-56835910D01*
X200603569Y-57048110D01*
X200552560Y-57300000D01*
X192974802Y-57300000D01*
X190013256Y-54338454D01*
X190034750Y-54286691D01*
X190035000Y-54000000D01*
X194756887Y-54000000D01*
X194866120Y-54549151D01*
X195177189Y-55014698D01*
X195642736Y-55325767D01*
X196191887Y-55435000D01*
X196248113Y-55435000D01*
X196797264Y-55325767D01*
X197262811Y-55014698D01*
X197573880Y-54549151D01*
X197683113Y-54000000D01*
X197573880Y-53450849D01*
X197262811Y-52985302D01*
X196797264Y-52674233D01*
X196248113Y-52565000D01*
X196191887Y-52565000D01*
X195642736Y-52674233D01*
X195177189Y-52985302D01*
X194866120Y-53450849D01*
X194756887Y-54000000D01*
X190035000Y-54000000D01*
X190035248Y-53715813D01*
X189817243Y-53188200D01*
X189413923Y-52784176D01*
X188886691Y-52565250D01*
X188315813Y-52564752D01*
X187788200Y-52782757D01*
X187384176Y-53186077D01*
X187165250Y-53713309D01*
X187164752Y-54284187D01*
X187382757Y-54811800D01*
X187786077Y-55215824D01*
X188313309Y-55434750D01*
X188884187Y-55435248D01*
X188938149Y-55412951D01*
X192790000Y-59264802D01*
X192790000Y-63935198D01*
X185960000Y-70765198D01*
X185960000Y-64686146D01*
X186505443Y-65232542D01*
X187473567Y-65634542D01*
X188521834Y-65635457D01*
X189490658Y-65235147D01*
X190232542Y-64494557D01*
X190634542Y-63526433D01*
X190635457Y-62478166D01*
X190235147Y-61509342D01*
X189494557Y-60767458D01*
X188526433Y-60365458D01*
X187478166Y-60364543D01*
X186509342Y-60764853D01*
X185960000Y-61313237D01*
X185960000Y-58200000D01*
X185902148Y-57909161D01*
X185902148Y-57909160D01*
X185737401Y-57662599D01*
X181737401Y-53662599D01*
X181490839Y-53497852D01*
X181200000Y-53440000D01*
X160914802Y-53440000D01*
X160260000Y-52785198D01*
X160260000Y-51539540D01*
X160296838Y-51735317D01*
X160435910Y-51951441D01*
X160648110Y-52096431D01*
X160900000Y-52147440D01*
X162500000Y-52147440D01*
X162735317Y-52103162D01*
X162951441Y-51964090D01*
X163096431Y-51751890D01*
X163147440Y-51500000D01*
X163147440Y-50700000D01*
X165316887Y-50700000D01*
X165426120Y-51249151D01*
X165737189Y-51714698D01*
X166202736Y-52025767D01*
X166751887Y-52135000D01*
X166808113Y-52135000D01*
X167357264Y-52025767D01*
X167822811Y-51714698D01*
X168133880Y-51249151D01*
X168243113Y-50700000D01*
X168133880Y-50150849D01*
X167894846Y-49793109D01*
X171514657Y-49793109D01*
X171816218Y-50522943D01*
X172374120Y-51081819D01*
X173103427Y-51384654D01*
X173893109Y-51385343D01*
X174622943Y-51083782D01*
X175181819Y-50525880D01*
X175484654Y-49796573D01*
X175484700Y-49743109D01*
X190664657Y-49743109D01*
X190966218Y-50472943D01*
X191524120Y-51031819D01*
X192253427Y-51334654D01*
X193043109Y-51335343D01*
X193772943Y-51033782D01*
X194331819Y-50475880D01*
X194634654Y-49746573D01*
X194634823Y-49551887D01*
X199865000Y-49551887D01*
X199865000Y-49608113D01*
X199974233Y-50157264D01*
X200285302Y-50622811D01*
X200750849Y-50933880D01*
X201300000Y-51043113D01*
X201849151Y-50933880D01*
X202314698Y-50622811D01*
X202625767Y-50157264D01*
X202735000Y-49608113D01*
X202735000Y-49551887D01*
X202625767Y-49002736D01*
X202314698Y-48537189D01*
X201849151Y-48226120D01*
X201300000Y-48116887D01*
X200750849Y-48226120D01*
X200285302Y-48537189D01*
X199974233Y-49002736D01*
X199865000Y-49551887D01*
X194634823Y-49551887D01*
X194635343Y-48956891D01*
X194333782Y-48227057D01*
X193775880Y-47668181D01*
X193046573Y-47365346D01*
X192256891Y-47364657D01*
X191527057Y-47666218D01*
X190968181Y-48224120D01*
X190665346Y-48953427D01*
X190664657Y-49743109D01*
X175484700Y-49743109D01*
X175485343Y-49006891D01*
X175183782Y-48277057D01*
X174625880Y-47718181D01*
X173896573Y-47415346D01*
X173106891Y-47414657D01*
X172377057Y-47716218D01*
X171818181Y-48274120D01*
X171515346Y-49003427D01*
X171514657Y-49793109D01*
X167894846Y-49793109D01*
X167822811Y-49685302D01*
X167357264Y-49374233D01*
X166808113Y-49265000D01*
X166751887Y-49265000D01*
X166202736Y-49374233D01*
X165737189Y-49685302D01*
X165426120Y-50150849D01*
X165316887Y-50700000D01*
X163147440Y-50700000D01*
X163147440Y-49900000D01*
X163103162Y-49664683D01*
X162964090Y-49448559D01*
X162751890Y-49303569D01*
X162500000Y-49252560D01*
X160900000Y-49252560D01*
X160664683Y-49296838D01*
X160448559Y-49435910D01*
X160303569Y-49648110D01*
X160260000Y-49863260D01*
X160260000Y-48038646D01*
X160311800Y-48017243D01*
X160715824Y-47613923D01*
X160934750Y-47086691D01*
X160935000Y-46800000D01*
X165656887Y-46800000D01*
X165766120Y-47349151D01*
X166077189Y-47814698D01*
X166542736Y-48125767D01*
X167091887Y-48235000D01*
X167148113Y-48235000D01*
X167697264Y-48125767D01*
X168162811Y-47814698D01*
X168473880Y-47349151D01*
X168583113Y-46800000D01*
X168473880Y-46250849D01*
X168162811Y-45785302D01*
X167697264Y-45474233D01*
X167148113Y-45365000D01*
X167091887Y-45365000D01*
X166542736Y-45474233D01*
X166077189Y-45785302D01*
X165766120Y-46250849D01*
X165656887Y-46800000D01*
X160935000Y-46800000D01*
X160935248Y-46515813D01*
X160717243Y-45988200D01*
X160313923Y-45584176D01*
X159786691Y-45365250D01*
X159215813Y-45364752D01*
X158688200Y-45582757D01*
X158284176Y-45986077D01*
X158065250Y-46513309D01*
X158064752Y-47084187D01*
X158282757Y-47611800D01*
X158686077Y-48015824D01*
X158740000Y-48038215D01*
X158740000Y-53100000D01*
X158797852Y-53390839D01*
X158962599Y-53637401D01*
X160062599Y-54737401D01*
X160309161Y-54902148D01*
X160600000Y-54960000D01*
X180885198Y-54960000D01*
X184440000Y-58514802D01*
X184440000Y-71235198D01*
X163285198Y-92390000D01*
X153500000Y-92390000D01*
X153257414Y-92438254D01*
X153209160Y-92447852D01*
X152962599Y-92612599D01*
X149363252Y-96211946D01*
X149230849Y-96238283D01*
X148765302Y-96549352D01*
X148510000Y-96931438D01*
X148254698Y-96549352D01*
X147789151Y-96238283D01*
X147240000Y-96129050D01*
X146690849Y-96238283D01*
X146225302Y-96549352D01*
X146127749Y-96695350D01*
X146103162Y-96564683D01*
X145964090Y-96348559D01*
X145751890Y-96203569D01*
X145500000Y-96152560D01*
X143900000Y-96152560D01*
X143664683Y-96196838D01*
X143448559Y-96335910D01*
X143303569Y-96548110D01*
X143252560Y-96800000D01*
X143252560Y-99200000D01*
X143296838Y-99435317D01*
X143435910Y-99651441D01*
X143648110Y-99796431D01*
X143798344Y-99826854D01*
X137862599Y-105762599D01*
X137697852Y-106009161D01*
X137640000Y-106300000D01*
X137697852Y-106590839D01*
X137862599Y-106837401D01*
X138109161Y-107002148D01*
X138400000Y-107060000D01*
X138690839Y-107002148D01*
X138937401Y-106837401D01*
X143940000Y-101834802D01*
X143940000Y-103535198D01*
X121635198Y-125840000D01*
X121634802Y-125840000D01*
X122787401Y-124687401D01*
X122952148Y-124440839D01*
X123010000Y-124150000D01*
X123010000Y-122464802D01*
X132587401Y-112887401D01*
X132752148Y-112640839D01*
X132810000Y-112350000D01*
X132810000Y-111497440D01*
X134700000Y-111497440D01*
X134935317Y-111453162D01*
X135151441Y-111314090D01*
X135296431Y-111101890D01*
X135347440Y-110850000D01*
X135347440Y-108850000D01*
X135303162Y-108614683D01*
X135164090Y-108398559D01*
X134951890Y-108253569D01*
X134700000Y-108202560D01*
X132810000Y-108202560D01*
X132810000Y-105714802D01*
X133208527Y-105316275D01*
X133373352Y-105384716D01*
X134023795Y-105385284D01*
X134624943Y-105136894D01*
X135085278Y-104677363D01*
X135334716Y-104076648D01*
X135335284Y-103426205D01*
X135086894Y-102825057D01*
X134627363Y-102364722D01*
X134026648Y-102115284D01*
X133376205Y-102114716D01*
X132775057Y-102363106D01*
X132314722Y-102822637D01*
X132065284Y-103423352D01*
X132064716Y-104073795D01*
X132133919Y-104241279D01*
X131960000Y-104415198D01*
X131960000Y-99514802D01*
X140967802Y-90507000D01*
X143265000Y-90507000D01*
X143265000Y-90907000D01*
X143422834Y-91446483D01*
X143775104Y-91884500D01*
X144268181Y-92154367D01*
X144350961Y-92171904D01*
X144573000Y-92049915D01*
X144573000Y-90507000D01*
X144827000Y-90507000D01*
X144827000Y-92049915D01*
X145049039Y-92171904D01*
X145131819Y-92154367D01*
X145624896Y-91884500D01*
X145970000Y-91455393D01*
X146315104Y-91884500D01*
X146808181Y-92154367D01*
X146890961Y-92171904D01*
X147113000Y-92049915D01*
X147113000Y-90507000D01*
X144827000Y-90507000D01*
X144573000Y-90507000D01*
X143265000Y-90507000D01*
X140967802Y-90507000D01*
X141621802Y-89853000D01*
X143265000Y-89853000D01*
X143265000Y-90253000D01*
X144573000Y-90253000D01*
X144573000Y-88710085D01*
X144827000Y-88710085D01*
X144827000Y-90253000D01*
X147113000Y-90253000D01*
X147113000Y-88710085D01*
X147367000Y-88710085D01*
X147367000Y-90253000D01*
X147387000Y-90253000D01*
X147387000Y-90507000D01*
X147367000Y-90507000D01*
X147367000Y-92049915D01*
X147589039Y-92171904D01*
X147671819Y-92154367D01*
X148164896Y-91884500D01*
X148512493Y-91452293D01*
X148765302Y-91830648D01*
X149230849Y-92141717D01*
X149780000Y-92250950D01*
X150329151Y-92141717D01*
X150794698Y-91830648D01*
X151050000Y-91448562D01*
X151305302Y-91830648D01*
X151770849Y-92141717D01*
X152320000Y-92250950D01*
X152869151Y-92141717D01*
X153334698Y-91830648D01*
X153590000Y-91448562D01*
X153845302Y-91830648D01*
X154310849Y-92141717D01*
X154860000Y-92250950D01*
X155409151Y-92141717D01*
X155874698Y-91830648D01*
X156116119Y-91469336D01*
X156161599Y-91537401D01*
X156211752Y-91570912D01*
X156385302Y-91830648D01*
X156850849Y-92141717D01*
X157400000Y-92250950D01*
X157949151Y-92141717D01*
X158414698Y-91830648D01*
X158670000Y-91448562D01*
X158925302Y-91830648D01*
X159390849Y-92141717D01*
X159940000Y-92250950D01*
X160489151Y-92141717D01*
X160954698Y-91830648D01*
X161210000Y-91448562D01*
X161465302Y-91830648D01*
X161930849Y-92141717D01*
X162480000Y-92250950D01*
X163029151Y-92141717D01*
X163494698Y-91830648D01*
X163805767Y-91365101D01*
X163915000Y-90815950D01*
X163915000Y-89944050D01*
X163805767Y-89394899D01*
X163494698Y-88929352D01*
X163029151Y-88618283D01*
X162480000Y-88509050D01*
X161930849Y-88618283D01*
X161465302Y-88929352D01*
X161210000Y-89311438D01*
X160954698Y-88929352D01*
X160489151Y-88618283D01*
X160210872Y-88562930D01*
X160236401Y-88537401D01*
X160401148Y-88290839D01*
X160459000Y-88000000D01*
X160401148Y-87709160D01*
X160236401Y-87462599D01*
X159989840Y-87297852D01*
X159699000Y-87240000D01*
X159408161Y-87297852D01*
X159161599Y-87462599D01*
X157983179Y-88641019D01*
X157949151Y-88618283D01*
X157400000Y-88509050D01*
X156850849Y-88618283D01*
X156385302Y-88929352D01*
X156130000Y-89311438D01*
X155874698Y-88929352D01*
X155409151Y-88618283D01*
X154860000Y-88509050D01*
X154310849Y-88618283D01*
X153845302Y-88929352D01*
X153590000Y-89311438D01*
X153334698Y-88929352D01*
X152869151Y-88618283D01*
X152320000Y-88509050D01*
X151770849Y-88618283D01*
X151305302Y-88929352D01*
X151050000Y-89311438D01*
X150794698Y-88929352D01*
X150329151Y-88618283D01*
X149780000Y-88509050D01*
X149230849Y-88618283D01*
X148765302Y-88929352D01*
X148512493Y-89307707D01*
X148164896Y-88875500D01*
X147671819Y-88605633D01*
X147589039Y-88588096D01*
X147367000Y-88710085D01*
X147113000Y-88710085D01*
X146890961Y-88588096D01*
X146808181Y-88605633D01*
X146315104Y-88875500D01*
X145970000Y-89304607D01*
X145624896Y-88875500D01*
X145131819Y-88605633D01*
X145049039Y-88588096D01*
X144827000Y-88710085D01*
X144573000Y-88710085D01*
X144350961Y-88588096D01*
X144268181Y-88605633D01*
X143775104Y-88875500D01*
X143422834Y-89313517D01*
X143265000Y-89853000D01*
X141621802Y-89853000D01*
X149014802Y-82460000D01*
X166950000Y-82460000D01*
X167240839Y-82402148D01*
X167487401Y-82237401D01*
X178737401Y-70987401D01*
X178902148Y-70740839D01*
X178960000Y-70450000D01*
X178960000Y-64454637D01*
X179460000Y-64554093D01*
X180028285Y-64441054D01*
X180510054Y-64119147D01*
X180737702Y-63778447D01*
X180804817Y-63921358D01*
X181233076Y-64311645D01*
X181643110Y-64481476D01*
X181873000Y-64360155D01*
X181873000Y-63167000D01*
X182127000Y-63167000D01*
X182127000Y-64360155D01*
X182356890Y-64481476D01*
X182766924Y-64311645D01*
X183195183Y-63921358D01*
X183441486Y-63396892D01*
X183320819Y-63167000D01*
X182127000Y-63167000D01*
X181873000Y-63167000D01*
X181853000Y-63167000D01*
X181853000Y-62913000D01*
X181873000Y-62913000D01*
X181873000Y-62893000D01*
X182127000Y-62893000D01*
X182127000Y-62913000D01*
X183320819Y-62913000D01*
X183441486Y-62683108D01*
X183195183Y-62158642D01*
X182989496Y-61971192D01*
X183085317Y-61953162D01*
X183301441Y-61814090D01*
X183446431Y-61601890D01*
X183497440Y-61350000D01*
X183497440Y-59650000D01*
X183453162Y-59414683D01*
X183314090Y-59198559D01*
X183101890Y-59053569D01*
X182850000Y-59002560D01*
X181150000Y-59002560D01*
X180914683Y-59046838D01*
X180698559Y-59185910D01*
X180553569Y-59398110D01*
X180539914Y-59465541D01*
X180510054Y-59420853D01*
X180028285Y-59098946D01*
X179460000Y-58985907D01*
X178960000Y-59085363D01*
X178960000Y-58100000D01*
X178902148Y-57809161D01*
X178902148Y-57809160D01*
X178737401Y-57562599D01*
X176937401Y-55762599D01*
X176690839Y-55597852D01*
X176400000Y-55540000D01*
X176050000Y-55540000D01*
X175759161Y-55597852D01*
X175512599Y-55762599D01*
X173585198Y-57690000D01*
X166664803Y-57690000D01*
X166187401Y-57212599D01*
X165940839Y-57047852D01*
X165650000Y-56990000D01*
X155050000Y-56990000D01*
X154759161Y-57047852D01*
X154512599Y-57212599D01*
X152410773Y-59314425D01*
X152088285Y-59098946D01*
X151520000Y-58985907D01*
X151010000Y-59087352D01*
X151010000Y-58950000D01*
X150952148Y-58659161D01*
X150787401Y-58412599D01*
X149987401Y-57612599D01*
X149740839Y-57447852D01*
X149450000Y-57390000D01*
X131514802Y-57390000D01*
X130337401Y-56212599D01*
X130090839Y-56047852D01*
X129800000Y-55990000D01*
X127550000Y-55990000D01*
X127259161Y-56047852D01*
X127012599Y-56212599D01*
X123862599Y-59362599D01*
X123697852Y-59609161D01*
X123640000Y-59900000D01*
X123640000Y-61263106D01*
X123535147Y-61009342D01*
X122794557Y-60267458D01*
X121826433Y-59865458D01*
X120778166Y-59864543D01*
X119809342Y-60264853D01*
X119067458Y-61005443D01*
X118710000Y-61866298D01*
X118710000Y-57064802D01*
X120561546Y-55213256D01*
X120613309Y-55234750D01*
X121184187Y-55235248D01*
X121711800Y-55017243D01*
X122115824Y-54613923D01*
X122163128Y-54500000D01*
X132252560Y-54500000D01*
X132252560Y-56200000D01*
X132296838Y-56435317D01*
X132435910Y-56651441D01*
X132648110Y-56796431D01*
X132900000Y-56847440D01*
X134600000Y-56847440D01*
X134835317Y-56803162D01*
X135051441Y-56664090D01*
X135196431Y-56451890D01*
X135247440Y-56200000D01*
X135247440Y-54500000D01*
X135203162Y-54264683D01*
X135064090Y-54048559D01*
X134851890Y-53903569D01*
X134600000Y-53852560D01*
X132900000Y-53852560D01*
X132664683Y-53896838D01*
X132448559Y-54035910D01*
X132303569Y-54248110D01*
X132252560Y-54500000D01*
X122163128Y-54500000D01*
X122334750Y-54086691D01*
X122335248Y-53515813D01*
X122117243Y-52988200D01*
X121713923Y-52584176D01*
X121186691Y-52365250D01*
X120615813Y-52364752D01*
X120094752Y-52580050D01*
X122881693Y-49793109D01*
X133714657Y-49793109D01*
X134016218Y-50522943D01*
X134574120Y-51081819D01*
X135303427Y-51384654D01*
X136093109Y-51385343D01*
X136822943Y-51083782D01*
X137381819Y-50525880D01*
X137641707Y-49900000D01*
X141052560Y-49900000D01*
X141052560Y-51500000D01*
X141096838Y-51735317D01*
X141235910Y-51951441D01*
X141448110Y-52096431D01*
X141700000Y-52147440D01*
X143300000Y-52147440D01*
X143535317Y-52103162D01*
X143751441Y-51964090D01*
X143896431Y-51751890D01*
X143947440Y-51500000D01*
X143947440Y-50700000D01*
X146116887Y-50700000D01*
X146226120Y-51249151D01*
X146537189Y-51714698D01*
X147002736Y-52025767D01*
X147551887Y-52135000D01*
X147608113Y-52135000D01*
X148157264Y-52025767D01*
X148622811Y-51714698D01*
X148933880Y-51249151D01*
X149043113Y-50700000D01*
X148933880Y-50150849D01*
X148622811Y-49685302D01*
X148157264Y-49374233D01*
X147608113Y-49265000D01*
X147551887Y-49265000D01*
X147002736Y-49374233D01*
X146537189Y-49685302D01*
X146226120Y-50150849D01*
X146116887Y-50700000D01*
X143947440Y-50700000D01*
X143947440Y-49900000D01*
X143903162Y-49664683D01*
X143764090Y-49448559D01*
X143551890Y-49303569D01*
X143300000Y-49252560D01*
X141700000Y-49252560D01*
X141464683Y-49296838D01*
X141248559Y-49435910D01*
X141103569Y-49648110D01*
X141052560Y-49900000D01*
X137641707Y-49900000D01*
X137684654Y-49796573D01*
X137685343Y-49006891D01*
X137383782Y-48277057D01*
X136825880Y-47718181D01*
X136096573Y-47415346D01*
X135306891Y-47414657D01*
X134577057Y-47716218D01*
X134018181Y-48274120D01*
X133715346Y-49003427D01*
X133714657Y-49793109D01*
X122881693Y-49793109D01*
X126914802Y-45760000D01*
X141774377Y-45760000D01*
X141437189Y-45985302D01*
X141126120Y-46450849D01*
X141016887Y-47000000D01*
X141126120Y-47549151D01*
X141437189Y-48014698D01*
X141902736Y-48325767D01*
X142451887Y-48435000D01*
X142508113Y-48435000D01*
X143057264Y-48325767D01*
X143522811Y-48014698D01*
X143833880Y-47549151D01*
X143943113Y-47000000D01*
X143833880Y-46450849D01*
X143547601Y-46022403D01*
X145062599Y-47537401D01*
X145309161Y-47702148D01*
X145600000Y-47760000D01*
X148861354Y-47760000D01*
X148882757Y-47811800D01*
X149286077Y-48215824D01*
X149813309Y-48434750D01*
X150384187Y-48435248D01*
X150911800Y-48217243D01*
X151315824Y-47813923D01*
X151534750Y-47286691D01*
X151535248Y-46715813D01*
X151317243Y-46188200D01*
X150913923Y-45784176D01*
X150386691Y-45565250D01*
X149815813Y-45564752D01*
X149288200Y-45782757D01*
X148884176Y-46186077D01*
X148861785Y-46240000D01*
X145914802Y-46240000D01*
X144460552Y-44785750D01*
X199865000Y-44785750D01*
X199865000Y-45426309D01*
X199961673Y-45659698D01*
X200140301Y-45838327D01*
X200373690Y-45935000D01*
X201014250Y-45935000D01*
X201173000Y-45776250D01*
X201173000Y-44627000D01*
X201427000Y-44627000D01*
X201427000Y-45776250D01*
X201585750Y-45935000D01*
X202226310Y-45935000D01*
X202459699Y-45838327D01*
X202638327Y-45659698D01*
X202735000Y-45426309D01*
X202735000Y-44785750D01*
X202576250Y-44627000D01*
X201427000Y-44627000D01*
X201173000Y-44627000D01*
X200023750Y-44627000D01*
X199865000Y-44785750D01*
X144460552Y-44785750D01*
X144137401Y-44462599D01*
X143890839Y-44297852D01*
X143600000Y-44240000D01*
X126600000Y-44240000D01*
X126309161Y-44297852D01*
X126062599Y-44462599D01*
X115762599Y-54762599D01*
X115597852Y-55009161D01*
X115540000Y-55300000D01*
X115540000Y-63535198D01*
X108612599Y-70462599D01*
X108447852Y-70709161D01*
X108390000Y-71000000D01*
X108390000Y-100300000D01*
X108447852Y-100590839D01*
X108612599Y-100837401D01*
X109885810Y-102110612D01*
X109776648Y-102065284D01*
X109126205Y-102064716D01*
X108525057Y-102313106D01*
X108064722Y-102772637D01*
X107815284Y-103373352D01*
X107814716Y-104023795D01*
X105710000Y-104023795D01*
X105710000Y-61551887D01*
X105965000Y-61551887D01*
X105965000Y-61608113D01*
X106074233Y-62157264D01*
X106385302Y-62622811D01*
X106850849Y-62933880D01*
X107400000Y-63043113D01*
X107506976Y-63021834D01*
X109864543Y-63021834D01*
X110264853Y-63990658D01*
X111005443Y-64732542D01*
X111973567Y-65134542D01*
X113021834Y-65135457D01*
X113990658Y-64735147D01*
X114269999Y-64456293D01*
X114290839Y-64452148D01*
X114537401Y-64287401D01*
X114702148Y-64040839D01*
X114706105Y-64020948D01*
X114732542Y-63994557D01*
X115134542Y-63026433D01*
X115135457Y-61978166D01*
X114735147Y-61009342D01*
X113994557Y-60267458D01*
X113026433Y-59865458D01*
X111978166Y-59864543D01*
X111009342Y-60264853D01*
X110267458Y-61005443D01*
X109865458Y-61973567D01*
X109864543Y-63021834D01*
X107506976Y-63021834D01*
X107949151Y-62933880D01*
X108414698Y-62622811D01*
X108725767Y-62157264D01*
X108835000Y-61608113D01*
X108835000Y-61551887D01*
X108725767Y-61002736D01*
X108414698Y-60537189D01*
X107949151Y-60226120D01*
X107400000Y-60116887D01*
X106850849Y-60226120D01*
X106385302Y-60537189D01*
X106074233Y-61002736D01*
X105965000Y-61551887D01*
X105710000Y-61551887D01*
X105710000Y-55700000D01*
X105952560Y-55700000D01*
X105952560Y-57300000D01*
X105996838Y-57535317D01*
X106135910Y-57751441D01*
X106348110Y-57896431D01*
X106600000Y-57947440D01*
X108200000Y-57947440D01*
X108435317Y-57903162D01*
X108651441Y-57764090D01*
X108796431Y-57551890D01*
X108847440Y-57300000D01*
X108847440Y-55700000D01*
X108803162Y-55464683D01*
X108664090Y-55248559D01*
X108451890Y-55103569D01*
X108200000Y-55052560D01*
X106600000Y-55052560D01*
X106364683Y-55096838D01*
X106148559Y-55235910D01*
X106003569Y-55448110D01*
X105952560Y-55700000D01*
X105710000Y-55700000D01*
X105710000Y-53800000D01*
X111816887Y-53800000D01*
X111926120Y-54349151D01*
X112237189Y-54814698D01*
X112702736Y-55125767D01*
X113251887Y-55235000D01*
X113308113Y-55235000D01*
X113857264Y-55125767D01*
X114322811Y-54814698D01*
X114633880Y-54349151D01*
X114743113Y-53800000D01*
X114633880Y-53250849D01*
X114322811Y-52785302D01*
X113857264Y-52474233D01*
X113308113Y-52365000D01*
X113251887Y-52365000D01*
X112702736Y-52474233D01*
X112237189Y-52785302D01*
X111926120Y-53250849D01*
X111816887Y-53800000D01*
X105710000Y-53800000D01*
X105710000Y-48951887D01*
X107265000Y-48951887D01*
X107265000Y-49008113D01*
X107374233Y-49557264D01*
X107685302Y-50022811D01*
X108150849Y-50333880D01*
X108700000Y-50443113D01*
X109249151Y-50333880D01*
X109714698Y-50022811D01*
X109868180Y-49793109D01*
X115514657Y-49793109D01*
X115816218Y-50522943D01*
X116374120Y-51081819D01*
X117103427Y-51384654D01*
X117893109Y-51385343D01*
X118622943Y-51083782D01*
X119181819Y-50525880D01*
X119484654Y-49796573D01*
X119485343Y-49006891D01*
X119183782Y-48277057D01*
X118625880Y-47718181D01*
X117896573Y-47415346D01*
X117106891Y-47414657D01*
X116377057Y-47716218D01*
X115818181Y-48274120D01*
X115515346Y-49003427D01*
X115514657Y-49793109D01*
X109868180Y-49793109D01*
X110025767Y-49557264D01*
X110135000Y-49008113D01*
X110135000Y-48951887D01*
X110025767Y-48402736D01*
X109714698Y-47937189D01*
X109249151Y-47626120D01*
X108700000Y-47516887D01*
X108150849Y-47626120D01*
X107685302Y-47937189D01*
X107374233Y-48402736D01*
X107265000Y-48951887D01*
X105710000Y-48951887D01*
X105710000Y-44185750D01*
X107265000Y-44185750D01*
X107265000Y-44826309D01*
X107361673Y-45059698D01*
X107540301Y-45238327D01*
X107773690Y-45335000D01*
X108414250Y-45335000D01*
X108573000Y-45176250D01*
X108573000Y-44027000D01*
X108827000Y-44027000D01*
X108827000Y-45176250D01*
X108985750Y-45335000D01*
X109626310Y-45335000D01*
X109859699Y-45238327D01*
X110038327Y-45059698D01*
X110135000Y-44826309D01*
X110135000Y-44185750D01*
X109976250Y-44027000D01*
X108827000Y-44027000D01*
X108573000Y-44027000D01*
X107423750Y-44027000D01*
X107265000Y-44185750D01*
X105710000Y-44185750D01*
X105710000Y-42973691D01*
X107265000Y-42973691D01*
X107265000Y-43614250D01*
X107423750Y-43773000D01*
X108573000Y-43773000D01*
X108573000Y-42623750D01*
X108827000Y-42623750D01*
X108827000Y-43773000D01*
X109976250Y-43773000D01*
X110135000Y-43614250D01*
X110135000Y-42973691D01*
X110038327Y-42740302D01*
X109859699Y-42561673D01*
X109626310Y-42465000D01*
X108985750Y-42465000D01*
X108827000Y-42623750D01*
X108573000Y-42623750D01*
X108414250Y-42465000D01*
X107773690Y-42465000D01*
X107540301Y-42561673D01*
X107361673Y-42740302D01*
X107265000Y-42973691D01*
X105710000Y-42973691D01*
X105710000Y-41100000D01*
X115425132Y-41100000D01*
X115562910Y-41792657D01*
X115955269Y-42379863D01*
X116542475Y-42772222D01*
X117235132Y-42910000D01*
X117764868Y-42910000D01*
X118457525Y-42772222D01*
X119044731Y-42379863D01*
X119437090Y-41792657D01*
X119574868Y-41100000D01*
X133625132Y-41100000D01*
X133762910Y-41792657D01*
X134155269Y-42379863D01*
X134742475Y-42772222D01*
X135435132Y-42910000D01*
X135964868Y-42910000D01*
X136657525Y-42772222D01*
X136987279Y-42551887D01*
X142065000Y-42551887D01*
X142065000Y-42608113D01*
X142174233Y-43157264D01*
X142485302Y-43622811D01*
X142950849Y-43933880D01*
X143500000Y-44043113D01*
X144049151Y-43933880D01*
X144514698Y-43622811D01*
X144825767Y-43157264D01*
X144935000Y-42608113D01*
X144935000Y-42551887D01*
X144825767Y-42002736D01*
X144514698Y-41537189D01*
X144493186Y-41522815D01*
X147614630Y-41522815D01*
X147938980Y-42307800D01*
X148539041Y-42908909D01*
X149323459Y-43234628D01*
X150172815Y-43235370D01*
X150957800Y-42911020D01*
X151558909Y-42310959D01*
X151884628Y-41526541D01*
X151884631Y-41522815D01*
X157914630Y-41522815D01*
X158238980Y-42307800D01*
X158839041Y-42908909D01*
X159623459Y-43234628D01*
X160472815Y-43235370D01*
X161257800Y-42911020D01*
X161517385Y-42651887D01*
X164465000Y-42651887D01*
X164465000Y-42708113D01*
X164574233Y-43257264D01*
X164885302Y-43722811D01*
X165350849Y-44033880D01*
X165900000Y-44143113D01*
X166449151Y-44033880D01*
X166914698Y-43722811D01*
X167014336Y-43573691D01*
X199865000Y-43573691D01*
X199865000Y-44214250D01*
X200023750Y-44373000D01*
X201173000Y-44373000D01*
X201173000Y-43223750D01*
X201427000Y-43223750D01*
X201427000Y-44373000D01*
X202576250Y-44373000D01*
X202735000Y-44214250D01*
X202735000Y-43573691D01*
X202638327Y-43340302D01*
X202459699Y-43161673D01*
X202226310Y-43065000D01*
X201585750Y-43065000D01*
X201427000Y-43223750D01*
X201173000Y-43223750D01*
X201014250Y-43065000D01*
X200373690Y-43065000D01*
X200140301Y-43161673D01*
X199961673Y-43340302D01*
X199865000Y-43573691D01*
X167014336Y-43573691D01*
X167225767Y-43257264D01*
X167335000Y-42708113D01*
X167335000Y-42651887D01*
X167225767Y-42102736D01*
X166914698Y-41637189D01*
X166449151Y-41326120D01*
X165900000Y-41216887D01*
X165350849Y-41326120D01*
X164885302Y-41637189D01*
X164574233Y-42102736D01*
X164465000Y-42651887D01*
X161517385Y-42651887D01*
X161858909Y-42310959D01*
X162184628Y-41526541D01*
X162185000Y-41100000D01*
X171425132Y-41100000D01*
X171562910Y-41792657D01*
X171955269Y-42379863D01*
X172542475Y-42772222D01*
X173235132Y-42910000D01*
X173764868Y-42910000D01*
X174457525Y-42772222D01*
X175044731Y-42379863D01*
X175437090Y-41792657D01*
X175574868Y-41100000D01*
X175564923Y-41050000D01*
X190575132Y-41050000D01*
X190712910Y-41742657D01*
X191105269Y-42329863D01*
X191692475Y-42722222D01*
X192385132Y-42860000D01*
X192914868Y-42860000D01*
X193607525Y-42722222D01*
X194194731Y-42329863D01*
X194587090Y-41742657D01*
X194724868Y-41050000D01*
X194587090Y-40357343D01*
X194194731Y-39770137D01*
X194026870Y-39657976D01*
X194185317Y-39628162D01*
X194401441Y-39489090D01*
X194546431Y-39276890D01*
X194597440Y-39025000D01*
X194597440Y-38942619D01*
X199264613Y-38942619D01*
X199604155Y-39764372D01*
X200232321Y-40393636D01*
X201053481Y-40734611D01*
X201942619Y-40735387D01*
X202764372Y-40395845D01*
X203393636Y-39767679D01*
X203734611Y-38946519D01*
X203735387Y-38057381D01*
X203395845Y-37235628D01*
X202767679Y-36606364D01*
X201946519Y-36265389D01*
X201057381Y-36264613D01*
X200235628Y-36604155D01*
X199606364Y-37232321D01*
X199265389Y-38053481D01*
X199264613Y-38942619D01*
X194597440Y-38942619D01*
X194597440Y-36875000D01*
X194553162Y-36639683D01*
X194414090Y-36423559D01*
X194201890Y-36278569D01*
X193950000Y-36227560D01*
X191350000Y-36227560D01*
X191114683Y-36271838D01*
X190898559Y-36410910D01*
X190753569Y-36623110D01*
X190702560Y-36875000D01*
X190702560Y-39025000D01*
X190746838Y-39260317D01*
X190885910Y-39476441D01*
X191098110Y-39621431D01*
X191274396Y-39657130D01*
X191105269Y-39770137D01*
X190712910Y-40357343D01*
X190575132Y-41050000D01*
X175564923Y-41050000D01*
X175437090Y-40407343D01*
X175044731Y-39820137D01*
X174876870Y-39707976D01*
X175035317Y-39678162D01*
X175251441Y-39539090D01*
X175396431Y-39326890D01*
X175443872Y-39092619D01*
X184764613Y-39092619D01*
X185104155Y-39914372D01*
X185732321Y-40543636D01*
X186553481Y-40884611D01*
X187442619Y-40885387D01*
X188264372Y-40545845D01*
X188893636Y-39917679D01*
X189234611Y-39096519D01*
X189235387Y-38207381D01*
X188895845Y-37385628D01*
X188267679Y-36756364D01*
X187446519Y-36415389D01*
X186557381Y-36414613D01*
X185735628Y-36754155D01*
X185106364Y-37382321D01*
X184765389Y-38203481D01*
X184764613Y-39092619D01*
X175443872Y-39092619D01*
X175447440Y-39075000D01*
X175447440Y-36925000D01*
X175403162Y-36689683D01*
X175264090Y-36473559D01*
X175051890Y-36328569D01*
X174800000Y-36277560D01*
X172200000Y-36277560D01*
X171964683Y-36321838D01*
X171748559Y-36460910D01*
X171603569Y-36673110D01*
X171552560Y-36925000D01*
X171552560Y-39075000D01*
X171596838Y-39310317D01*
X171735910Y-39526441D01*
X171948110Y-39671431D01*
X172124396Y-39707130D01*
X171955269Y-39820137D01*
X171562910Y-40407343D01*
X171425132Y-41100000D01*
X162185000Y-41100000D01*
X162185370Y-40677185D01*
X161861020Y-39892200D01*
X161260959Y-39291091D01*
X160476541Y-38965372D01*
X159627185Y-38964630D01*
X158842200Y-39288980D01*
X158241091Y-39889041D01*
X157915372Y-40673459D01*
X157914630Y-41522815D01*
X151884631Y-41522815D01*
X151885370Y-40677185D01*
X151561020Y-39892200D01*
X151547101Y-39878256D01*
X152989669Y-39878256D01*
X153279837Y-40580515D01*
X153816659Y-41118275D01*
X154518411Y-41409668D01*
X155278256Y-41410331D01*
X155980515Y-41120163D01*
X156518275Y-40583341D01*
X156809668Y-39881589D01*
X156810331Y-39121744D01*
X156520163Y-38419485D01*
X155987359Y-37885750D01*
X164465000Y-37885750D01*
X164465000Y-38526309D01*
X164561673Y-38759698D01*
X164740301Y-38938327D01*
X164973690Y-39035000D01*
X165614250Y-39035000D01*
X165773000Y-38876250D01*
X165773000Y-37727000D01*
X166027000Y-37727000D01*
X166027000Y-38876250D01*
X166185750Y-39035000D01*
X166826310Y-39035000D01*
X167059699Y-38938327D01*
X167238327Y-38759698D01*
X167335000Y-38526309D01*
X167335000Y-37885750D01*
X167176250Y-37727000D01*
X166027000Y-37727000D01*
X165773000Y-37727000D01*
X164623750Y-37727000D01*
X164465000Y-37885750D01*
X155987359Y-37885750D01*
X155983341Y-37881725D01*
X155281589Y-37590332D01*
X154521744Y-37589669D01*
X153819485Y-37879837D01*
X153281725Y-38416659D01*
X152990332Y-39118411D01*
X152989669Y-39878256D01*
X151547101Y-39878256D01*
X150960959Y-39291091D01*
X150176541Y-38965372D01*
X149327185Y-38964630D01*
X148542200Y-39288980D01*
X147941091Y-39889041D01*
X147615372Y-40673459D01*
X147614630Y-41522815D01*
X144493186Y-41522815D01*
X144049151Y-41226120D01*
X143500000Y-41116887D01*
X142950849Y-41226120D01*
X142485302Y-41537189D01*
X142174233Y-42002736D01*
X142065000Y-42551887D01*
X136987279Y-42551887D01*
X137244731Y-42379863D01*
X137637090Y-41792657D01*
X137774868Y-41100000D01*
X137637090Y-40407343D01*
X137244731Y-39820137D01*
X137076870Y-39707976D01*
X137235317Y-39678162D01*
X137451441Y-39539090D01*
X137596431Y-39326890D01*
X137647440Y-39075000D01*
X137647440Y-37785750D01*
X142065000Y-37785750D01*
X142065000Y-38426309D01*
X142161673Y-38659698D01*
X142340301Y-38838327D01*
X142573690Y-38935000D01*
X143214250Y-38935000D01*
X143373000Y-38776250D01*
X143373000Y-37627000D01*
X143627000Y-37627000D01*
X143627000Y-38776250D01*
X143785750Y-38935000D01*
X144426310Y-38935000D01*
X144659699Y-38838327D01*
X144838327Y-38659698D01*
X144935000Y-38426309D01*
X144935000Y-37785750D01*
X144776250Y-37627000D01*
X143627000Y-37627000D01*
X143373000Y-37627000D01*
X142223750Y-37627000D01*
X142065000Y-37785750D01*
X137647440Y-37785750D01*
X137647440Y-36925000D01*
X137603162Y-36689683D01*
X137528524Y-36573691D01*
X142065000Y-36573691D01*
X142065000Y-37214250D01*
X142223750Y-37373000D01*
X143373000Y-37373000D01*
X143373000Y-36223750D01*
X143627000Y-36223750D01*
X143627000Y-37373000D01*
X144776250Y-37373000D01*
X144935000Y-37214250D01*
X144935000Y-36673691D01*
X164465000Y-36673691D01*
X164465000Y-37314250D01*
X164623750Y-37473000D01*
X165773000Y-37473000D01*
X165773000Y-36323750D01*
X166027000Y-36323750D01*
X166027000Y-37473000D01*
X167176250Y-37473000D01*
X167335000Y-37314250D01*
X167335000Y-36673691D01*
X167238327Y-36440302D01*
X167059699Y-36261673D01*
X166826310Y-36165000D01*
X166185750Y-36165000D01*
X166027000Y-36323750D01*
X165773000Y-36323750D01*
X165614250Y-36165000D01*
X164973690Y-36165000D01*
X164740301Y-36261673D01*
X164561673Y-36440302D01*
X164465000Y-36673691D01*
X144935000Y-36673691D01*
X144935000Y-36573691D01*
X144838327Y-36340302D01*
X144659699Y-36161673D01*
X144426310Y-36065000D01*
X143785750Y-36065000D01*
X143627000Y-36223750D01*
X143373000Y-36223750D01*
X143214250Y-36065000D01*
X142573690Y-36065000D01*
X142340301Y-36161673D01*
X142161673Y-36340302D01*
X142065000Y-36573691D01*
X137528524Y-36573691D01*
X137464090Y-36473559D01*
X137251890Y-36328569D01*
X137000000Y-36277560D01*
X134400000Y-36277560D01*
X134164683Y-36321838D01*
X133948559Y-36460910D01*
X133803569Y-36673110D01*
X133752560Y-36925000D01*
X133752560Y-39075000D01*
X133796838Y-39310317D01*
X133935910Y-39526441D01*
X134148110Y-39671431D01*
X134324396Y-39707130D01*
X134155269Y-39820137D01*
X133762910Y-40407343D01*
X133625132Y-41100000D01*
X119574868Y-41100000D01*
X119437090Y-40407343D01*
X119044731Y-39820137D01*
X118876870Y-39707976D01*
X119035317Y-39678162D01*
X119251441Y-39539090D01*
X119396431Y-39326890D01*
X119447440Y-39075000D01*
X119447440Y-38792619D01*
X126714613Y-38792619D01*
X127054155Y-39614372D01*
X127682321Y-40243636D01*
X128503481Y-40584611D01*
X129392619Y-40585387D01*
X130214372Y-40245845D01*
X130843636Y-39617679D01*
X131184611Y-38796519D01*
X131185387Y-37907381D01*
X130845845Y-37085628D01*
X130217679Y-36456364D01*
X129396519Y-36115389D01*
X128507381Y-36114613D01*
X127685628Y-36454155D01*
X127056364Y-37082321D01*
X126715389Y-37903481D01*
X126714613Y-38792619D01*
X119447440Y-38792619D01*
X119447440Y-36925000D01*
X119403162Y-36689683D01*
X119264090Y-36473559D01*
X119051890Y-36328569D01*
X118800000Y-36277560D01*
X116200000Y-36277560D01*
X115964683Y-36321838D01*
X115748559Y-36460910D01*
X115603569Y-36673110D01*
X115552560Y-36925000D01*
X115552560Y-39075000D01*
X115596838Y-39310317D01*
X115735910Y-39526441D01*
X115948110Y-39671431D01*
X116124396Y-39707130D01*
X115955269Y-39820137D01*
X115562910Y-40407343D01*
X115425132Y-41100000D01*
X105710000Y-41100000D01*
X105710000Y-38942619D01*
X106264613Y-38942619D01*
X106604155Y-39764372D01*
X107232321Y-40393636D01*
X108053481Y-40734611D01*
X108942619Y-40735387D01*
X109764372Y-40395845D01*
X110393636Y-39767679D01*
X110734611Y-38946519D01*
X110735387Y-38057381D01*
X110395845Y-37235628D01*
X109767679Y-36606364D01*
X108946519Y-36265389D01*
X108057381Y-36264613D01*
X107235628Y-36604155D01*
X106606364Y-37232321D01*
X106265389Y-38053481D01*
X106264613Y-38942619D01*
X105710000Y-38942619D01*
X105710000Y-35710000D01*
X204290000Y-35710000D01*
X204290000Y-134290000D01*
G36*
X119465250Y-53513309D02*
X119464752Y-54084187D01*
X119487049Y-54138149D01*
X117412599Y-56212599D01*
X117247852Y-56459161D01*
X117190000Y-56750000D01*
X117190000Y-64200000D01*
X117247852Y-64490839D01*
X117412599Y-64737401D01*
X120690000Y-68014802D01*
X120690000Y-68670139D01*
X120480159Y-68599446D01*
X119579605Y-69500000D01*
X119593748Y-69514143D01*
X119414143Y-69693748D01*
X119400000Y-69679605D01*
X118499446Y-70580159D01*
X118585852Y-70836643D01*
X119159336Y-71046458D01*
X119769460Y-71020839D01*
X120170458Y-70854740D01*
X117662599Y-73362599D01*
X117497852Y-73609161D01*
X117440000Y-73900000D01*
X117440000Y-81850000D01*
X117497852Y-82140839D01*
X117662599Y-82387401D01*
X121190000Y-85914802D01*
X121190000Y-91185198D01*
X116562599Y-95812599D01*
X116397852Y-96059161D01*
X116340000Y-96350000D01*
X116340000Y-106466150D01*
X116237401Y-106312599D01*
X109910000Y-99985198D01*
X109910000Y-87203991D01*
X112864735Y-87203991D01*
X113097932Y-87768371D01*
X113529357Y-88200551D01*
X114093330Y-88434733D01*
X114703991Y-88435265D01*
X115268371Y-88202068D01*
X115650288Y-87820818D01*
X116029357Y-88200551D01*
X116593330Y-88434733D01*
X117203991Y-88435265D01*
X117768371Y-88202068D01*
X117990668Y-87980159D01*
X118499446Y-87980159D01*
X118585852Y-88236643D01*
X119159336Y-88446458D01*
X119769460Y-88420839D01*
X120214148Y-88236643D01*
X120300554Y-87980159D01*
X119400000Y-87079605D01*
X118499446Y-87980159D01*
X117990668Y-87980159D01*
X118200551Y-87770643D01*
X118204294Y-87761628D01*
X118319841Y-87800554D01*
X119220395Y-86900000D01*
X119579605Y-86900000D01*
X120480159Y-87800554D01*
X120736643Y-87714148D01*
X120946458Y-87140664D01*
X120920839Y-86530540D01*
X120736643Y-86085852D01*
X120480159Y-85999446D01*
X119579605Y-86900000D01*
X119220395Y-86900000D01*
X118319841Y-85999446D01*
X118204786Y-86038207D01*
X118202068Y-86031629D01*
X117990650Y-85819841D01*
X118499446Y-85819841D01*
X119400000Y-86720395D01*
X120300554Y-85819841D01*
X120214148Y-85563357D01*
X119640664Y-85353542D01*
X119030540Y-85379161D01*
X118585852Y-85563357D01*
X118499446Y-85819841D01*
X117990650Y-85819841D01*
X117770643Y-85599449D01*
X117206670Y-85365267D01*
X116596009Y-85364735D01*
X116031629Y-85597932D01*
X115649712Y-85979182D01*
X115270643Y-85599449D01*
X114706670Y-85365267D01*
X114096009Y-85364735D01*
X113531629Y-85597932D01*
X113099449Y-86029357D01*
X112865267Y-86593330D01*
X112864735Y-87203991D01*
X109910000Y-87203991D01*
X109910000Y-80531848D01*
X110264853Y-81390658D01*
X111005443Y-82132542D01*
X111973567Y-82534542D01*
X113021834Y-82535457D01*
X113990658Y-82135147D01*
X114732542Y-81394557D01*
X115134542Y-80426433D01*
X115135457Y-79378166D01*
X114735147Y-78409342D01*
X113994557Y-77667458D01*
X113026433Y-77265458D01*
X111978166Y-77264543D01*
X111009342Y-77664853D01*
X110267458Y-78405443D01*
X109910000Y-79266298D01*
X109910000Y-71314802D01*
X111420811Y-69803991D01*
X112864735Y-69803991D01*
X113097932Y-70368371D01*
X113529357Y-70800551D01*
X114093330Y-71034733D01*
X114703991Y-71035265D01*
X115268371Y-70802068D01*
X115650288Y-70420818D01*
X116029357Y-70800551D01*
X116593330Y-71034733D01*
X117203991Y-71035265D01*
X117768371Y-70802068D01*
X118200551Y-70370643D01*
X118204294Y-70361628D01*
X118319841Y-70400554D01*
X119220395Y-69500000D01*
X118319841Y-68599446D01*
X118204786Y-68638207D01*
X118202068Y-68631629D01*
X117990650Y-68419841D01*
X118499446Y-68419841D01*
X119400000Y-69320395D01*
X120300554Y-68419841D01*
X120214148Y-68163357D01*
X119640664Y-67953542D01*
X119030540Y-67979161D01*
X118585852Y-68163357D01*
X118499446Y-68419841D01*
X117990650Y-68419841D01*
X117770643Y-68199449D01*
X117206670Y-67965267D01*
X116596009Y-67964735D01*
X116031629Y-68197932D01*
X115649712Y-68579182D01*
X115270643Y-68199449D01*
X114706670Y-67965267D01*
X114096009Y-67964735D01*
X113531629Y-68197932D01*
X113099449Y-68629357D01*
X112865267Y-69193330D01*
X112864735Y-69803991D01*
X111420811Y-69803991D01*
X116837401Y-64387401D01*
X117002148Y-64140839D01*
X117060000Y-63850000D01*
X117060000Y-55614802D01*
X119680946Y-52993856D01*
X119465250Y-53513309D01*
X119465250Y-53513309D01*
G37*
X119465250Y-53513309D02*
X119464752Y-54084187D01*
X119487049Y-54138149D01*
X117412599Y-56212599D01*
X117247852Y-56459161D01*
X117190000Y-56750000D01*
X117190000Y-64200000D01*
X117247852Y-64490839D01*
X117412599Y-64737401D01*
X120690000Y-68014802D01*
X120690000Y-68670139D01*
X120480159Y-68599446D01*
X119579605Y-69500000D01*
X119593748Y-69514143D01*
X119414143Y-69693748D01*
X119400000Y-69679605D01*
X118499446Y-70580159D01*
X118585852Y-70836643D01*
X119159336Y-71046458D01*
X119769460Y-71020839D01*
X120170458Y-70854740D01*
X117662599Y-73362599D01*
X117497852Y-73609161D01*
X117440000Y-73900000D01*
X117440000Y-81850000D01*
X117497852Y-82140839D01*
X117662599Y-82387401D01*
X121190000Y-85914802D01*
X121190000Y-91185198D01*
X116562599Y-95812599D01*
X116397852Y-96059161D01*
X116340000Y-96350000D01*
X116340000Y-106466150D01*
X116237401Y-106312599D01*
X109910000Y-99985198D01*
X109910000Y-87203991D01*
X112864735Y-87203991D01*
X113097932Y-87768371D01*
X113529357Y-88200551D01*
X114093330Y-88434733D01*
X114703991Y-88435265D01*
X115268371Y-88202068D01*
X115650288Y-87820818D01*
X116029357Y-88200551D01*
X116593330Y-88434733D01*
X117203991Y-88435265D01*
X117768371Y-88202068D01*
X117990668Y-87980159D01*
X118499446Y-87980159D01*
X118585852Y-88236643D01*
X119159336Y-88446458D01*
X119769460Y-88420839D01*
X120214148Y-88236643D01*
X120300554Y-87980159D01*
X119400000Y-87079605D01*
X118499446Y-87980159D01*
X117990668Y-87980159D01*
X118200551Y-87770643D01*
X118204294Y-87761628D01*
X118319841Y-87800554D01*
X119220395Y-86900000D01*
X119579605Y-86900000D01*
X120480159Y-87800554D01*
X120736643Y-87714148D01*
X120946458Y-87140664D01*
X120920839Y-86530540D01*
X120736643Y-86085852D01*
X120480159Y-85999446D01*
X119579605Y-86900000D01*
X119220395Y-86900000D01*
X118319841Y-85999446D01*
X118204786Y-86038207D01*
X118202068Y-86031629D01*
X117990650Y-85819841D01*
X118499446Y-85819841D01*
X119400000Y-86720395D01*
X120300554Y-85819841D01*
X120214148Y-85563357D01*
X119640664Y-85353542D01*
X119030540Y-85379161D01*
X118585852Y-85563357D01*
X118499446Y-85819841D01*
X117990650Y-85819841D01*
X117770643Y-85599449D01*
X117206670Y-85365267D01*
X116596009Y-85364735D01*
X116031629Y-85597932D01*
X115649712Y-85979182D01*
X115270643Y-85599449D01*
X114706670Y-85365267D01*
X114096009Y-85364735D01*
X113531629Y-85597932D01*
X113099449Y-86029357D01*
X112865267Y-86593330D01*
X112864735Y-87203991D01*
X109910000Y-87203991D01*
X109910000Y-80531848D01*
X110264853Y-81390658D01*
X111005443Y-82132542D01*
X111973567Y-82534542D01*
X113021834Y-82535457D01*
X113990658Y-82135147D01*
X114732542Y-81394557D01*
X115134542Y-80426433D01*
X115135457Y-79378166D01*
X114735147Y-78409342D01*
X113994557Y-77667458D01*
X113026433Y-77265458D01*
X111978166Y-77264543D01*
X111009342Y-77664853D01*
X110267458Y-78405443D01*
X109910000Y-79266298D01*
X109910000Y-71314802D01*
X111420811Y-69803991D01*
X112864735Y-69803991D01*
X113097932Y-70368371D01*
X113529357Y-70800551D01*
X114093330Y-71034733D01*
X114703991Y-71035265D01*
X115268371Y-70802068D01*
X115650288Y-70420818D01*
X116029357Y-70800551D01*
X116593330Y-71034733D01*
X117203991Y-71035265D01*
X117768371Y-70802068D01*
X118200551Y-70370643D01*
X118204294Y-70361628D01*
X118319841Y-70400554D01*
X119220395Y-69500000D01*
X118319841Y-68599446D01*
X118204786Y-68638207D01*
X118202068Y-68631629D01*
X117990650Y-68419841D01*
X118499446Y-68419841D01*
X119400000Y-69320395D01*
X120300554Y-68419841D01*
X120214148Y-68163357D01*
X119640664Y-67953542D01*
X119030540Y-67979161D01*
X118585852Y-68163357D01*
X118499446Y-68419841D01*
X117990650Y-68419841D01*
X117770643Y-68199449D01*
X117206670Y-67965267D01*
X116596009Y-67964735D01*
X116031629Y-68197932D01*
X115649712Y-68579182D01*
X115270643Y-68199449D01*
X114706670Y-67965267D01*
X114096009Y-67964735D01*
X113531629Y-68197932D01*
X113099449Y-68629357D01*
X112865267Y-69193330D01*
X112864735Y-69803991D01*
X111420811Y-69803991D01*
X116837401Y-64387401D01*
X117002148Y-64140839D01*
X117060000Y-63850000D01*
X117060000Y-55614802D01*
X119680946Y-52993856D01*
X119465250Y-53513309D01*
G36*
X175869946Y-64119147D02*
X176351715Y-64441054D01*
X176920000Y-64554093D01*
X177440000Y-64450658D01*
X177440000Y-70135198D01*
X166635198Y-80940000D01*
X148700000Y-80940000D01*
X148409160Y-80997852D01*
X148162599Y-81162599D01*
X130710000Y-98615198D01*
X130710000Y-89800000D01*
X130652148Y-89509161D01*
X130487401Y-89262599D01*
X126760000Y-85535198D01*
X126760000Y-79280000D01*
X127085907Y-79280000D01*
X127198946Y-79848285D01*
X127520853Y-80330054D01*
X128002622Y-80651961D01*
X128570907Y-80765000D01*
X128629093Y-80765000D01*
X129197378Y-80651961D01*
X129679147Y-80330054D01*
X130001054Y-79848285D01*
X130114093Y-79280000D01*
X130001054Y-78711715D01*
X129679147Y-78229946D01*
X129338447Y-78002298D01*
X129481358Y-77935183D01*
X129871645Y-77506924D01*
X130041476Y-77096890D01*
X129920155Y-76867000D01*
X128727000Y-76867000D01*
X128727000Y-76887000D01*
X128473000Y-76887000D01*
X128473000Y-76867000D01*
X127279845Y-76867000D01*
X127158524Y-77096890D01*
X127328355Y-77506924D01*
X127718642Y-77935183D01*
X127861553Y-78002298D01*
X127520853Y-78229946D01*
X127198946Y-78711715D01*
X127085907Y-79280000D01*
X126760000Y-79280000D01*
X126760000Y-68354802D01*
X127158790Y-68753592D01*
X127085907Y-69120000D01*
X127198946Y-69688285D01*
X127520853Y-70170054D01*
X127850026Y-70390000D01*
X127520853Y-70609946D01*
X127198946Y-71091715D01*
X127085907Y-71660000D01*
X127198946Y-72228285D01*
X127520853Y-72710054D01*
X127850026Y-72930000D01*
X127520853Y-73149946D01*
X127198946Y-73631715D01*
X127085907Y-74200000D01*
X127198946Y-74768285D01*
X127520853Y-75250054D01*
X127861553Y-75477702D01*
X127718642Y-75544817D01*
X127328355Y-75973076D01*
X127158524Y-76383110D01*
X127279845Y-76613000D01*
X128473000Y-76613000D01*
X128473000Y-76593000D01*
X128727000Y-76593000D01*
X128727000Y-76613000D01*
X129920155Y-76613000D01*
X130041476Y-76383110D01*
X129871645Y-75973076D01*
X129481358Y-75544817D01*
X129338447Y-75477702D01*
X129679147Y-75250054D01*
X130001054Y-74768285D01*
X130114093Y-74200000D01*
X130041210Y-73833592D01*
X133364802Y-70510000D01*
X160500000Y-70510000D01*
X160790839Y-70452148D01*
X161037401Y-70287401D01*
X166087401Y-65237402D01*
X166239345Y-65010000D01*
X166252148Y-64990839D01*
X166310000Y-64700000D01*
X166310000Y-64464582D01*
X166760000Y-64554093D01*
X167328285Y-64441054D01*
X167810054Y-64119147D01*
X168030000Y-63789974D01*
X168249946Y-64119147D01*
X168731715Y-64441054D01*
X169300000Y-64554093D01*
X169868285Y-64441054D01*
X170350054Y-64119147D01*
X170570000Y-63789974D01*
X170789946Y-64119147D01*
X171271715Y-64441054D01*
X171840000Y-64554093D01*
X172408285Y-64441054D01*
X172890054Y-64119147D01*
X173110000Y-63789974D01*
X173329946Y-64119147D01*
X173811715Y-64441054D01*
X174380000Y-64554093D01*
X174948285Y-64441054D01*
X175430054Y-64119147D01*
X175650000Y-63789974D01*
X175869946Y-64119147D01*
X175869946Y-64119147D01*
G37*
X175869946Y-64119147D02*
X176351715Y-64441054D01*
X176920000Y-64554093D01*
X177440000Y-64450658D01*
X177440000Y-70135198D01*
X166635198Y-80940000D01*
X148700000Y-80940000D01*
X148409160Y-80997852D01*
X148162599Y-81162599D01*
X130710000Y-98615198D01*
X130710000Y-89800000D01*
X130652148Y-89509161D01*
X130487401Y-89262599D01*
X126760000Y-85535198D01*
X126760000Y-79280000D01*
X127085907Y-79280000D01*
X127198946Y-79848285D01*
X127520853Y-80330054D01*
X128002622Y-80651961D01*
X128570907Y-80765000D01*
X128629093Y-80765000D01*
X129197378Y-80651961D01*
X129679147Y-80330054D01*
X130001054Y-79848285D01*
X130114093Y-79280000D01*
X130001054Y-78711715D01*
X129679147Y-78229946D01*
X129338447Y-78002298D01*
X129481358Y-77935183D01*
X129871645Y-77506924D01*
X130041476Y-77096890D01*
X129920155Y-76867000D01*
X128727000Y-76867000D01*
X128727000Y-76887000D01*
X128473000Y-76887000D01*
X128473000Y-76867000D01*
X127279845Y-76867000D01*
X127158524Y-77096890D01*
X127328355Y-77506924D01*
X127718642Y-77935183D01*
X127861553Y-78002298D01*
X127520853Y-78229946D01*
X127198946Y-78711715D01*
X127085907Y-79280000D01*
X126760000Y-79280000D01*
X126760000Y-68354802D01*
X127158790Y-68753592D01*
X127085907Y-69120000D01*
X127198946Y-69688285D01*
X127520853Y-70170054D01*
X127850026Y-70390000D01*
X127520853Y-70609946D01*
X127198946Y-71091715D01*
X127085907Y-71660000D01*
X127198946Y-72228285D01*
X127520853Y-72710054D01*
X127850026Y-72930000D01*
X127520853Y-73149946D01*
X127198946Y-73631715D01*
X127085907Y-74200000D01*
X127198946Y-74768285D01*
X127520853Y-75250054D01*
X127861553Y-75477702D01*
X127718642Y-75544817D01*
X127328355Y-75973076D01*
X127158524Y-76383110D01*
X127279845Y-76613000D01*
X128473000Y-76613000D01*
X128473000Y-76593000D01*
X128727000Y-76593000D01*
X128727000Y-76613000D01*
X129920155Y-76613000D01*
X130041476Y-76383110D01*
X129871645Y-75973076D01*
X129481358Y-75544817D01*
X129338447Y-75477702D01*
X129679147Y-75250054D01*
X130001054Y-74768285D01*
X130114093Y-74200000D01*
X130041210Y-73833592D01*
X133364802Y-70510000D01*
X160500000Y-70510000D01*
X160790839Y-70452148D01*
X161037401Y-70287401D01*
X166087401Y-65237402D01*
X166239345Y-65010000D01*
X166252148Y-64990839D01*
X166310000Y-64700000D01*
X166310000Y-64464582D01*
X166760000Y-64554093D01*
X167328285Y-64441054D01*
X167810054Y-64119147D01*
X168030000Y-63789974D01*
X168249946Y-64119147D01*
X168731715Y-64441054D01*
X169300000Y-64554093D01*
X169868285Y-64441054D01*
X170350054Y-64119147D01*
X170570000Y-63789974D01*
X170789946Y-64119147D01*
X171271715Y-64441054D01*
X171840000Y-64554093D01*
X172408285Y-64441054D01*
X172890054Y-64119147D01*
X173110000Y-63789974D01*
X173329946Y-64119147D01*
X173811715Y-64441054D01*
X174380000Y-64554093D01*
X174948285Y-64441054D01*
X175430054Y-64119147D01*
X175650000Y-63789974D01*
X175869946Y-64119147D01*
M02*
