M48
;DRILL file {KiCad 4.0.7} date 08/19/19 23:06:38
;FORMAT={-:-/ absolute / metric / decimal}
FMAT,2
METRIC,TZ
T1C0.400
T2C0.800
T3C1.000
T4C1.200
T5C1.600
T6C1.700
T7C1.800
T8C2.000
T9C2.000
T10C2.200
T11C3.200
%
G90
G05
M71
T1
X142.35Y-96.
T2
X107.4Y-56.5
X107.4Y-61.58
X108.7Y-43.9
X108.7Y-48.98
X113.28Y-53.8
X120.9Y-53.8
X142.48Y-47.
X142.5Y-50.7
X143.5Y-37.5
X143.5Y-42.58
X144.7Y-90.38
X144.7Y-98.
X147.24Y-90.38
X147.24Y-98.
X147.58Y-50.7
X149.78Y-90.38
X149.78Y-98.
X150.1Y-47.
X152.32Y-90.38
X152.32Y-98.
X154.86Y-90.38
X154.86Y-98.
X157.4Y-90.38
X157.4Y-98.
X159.5Y-46.8
X159.94Y-90.38
X159.94Y-98.
X161.7Y-50.7
X162.48Y-90.38
X162.48Y-98.
X165.9Y-37.6
X165.9Y-42.68
X166.78Y-50.7
X167.12Y-46.8
X188.6Y-54.
X196.22Y-54.
X201.3Y-44.5
X201.3Y-49.58
X202.Y-58.1
X202.Y-63.18
T3
X114.4Y-69.5
X114.4Y-86.9
X116.9Y-69.5
X116.9Y-86.9
X119.4Y-69.5
X119.4Y-86.9
X128.6Y-61.5
X128.6Y-64.04
X128.6Y-66.58
X128.6Y-69.12
X128.6Y-71.66
X128.6Y-74.2
X128.6Y-76.74
X128.6Y-79.28
X133.74Y-60.5
X133.74Y-63.04
X133.75Y-55.35
X136.28Y-60.5
X136.28Y-63.04
X138.82Y-60.5
X138.82Y-63.04
X141.36Y-60.5
X141.36Y-63.04
X143.9Y-60.5
X143.9Y-63.04
X146.44Y-60.5
X146.44Y-63.04
X148.98Y-60.5
X148.98Y-63.04
X151.52Y-60.5
X151.52Y-63.04
X154.06Y-60.5
X154.06Y-63.04
X156.6Y-60.5
X156.6Y-63.04
X159.14Y-60.5
X159.14Y-63.04
X161.68Y-60.5
X161.68Y-63.04
X164.22Y-60.5
X164.22Y-63.04
X166.76Y-60.5
X166.76Y-63.04
X169.3Y-60.5
X169.3Y-63.04
X171.84Y-60.5
X171.84Y-63.04
X171.9Y-104.05
X171.9Y-106.85
X171.9Y-110.55
X174.38Y-60.5
X174.38Y-63.04
X176.92Y-60.5
X176.92Y-63.04
X179.46Y-60.5
X179.46Y-63.04
X182.Y-60.5
X182.Y-63.04
X182.27Y-104.05
X182.3Y-106.85
X182.3Y-110.55
X189.9Y-70.
X189.9Y-86.9
X192.4Y-70.
X192.4Y-86.9
X194.9Y-70.
X194.9Y-86.9
X199.16Y-98.05
X199.16Y-100.59
X199.16Y-103.13
X199.16Y-105.67
X199.16Y-108.21
X199.16Y-110.75
X199.16Y-113.29
X201.7Y-98.05
X201.7Y-100.59
X201.7Y-103.13
X201.7Y-105.67
X201.7Y-108.21
X201.7Y-110.75
X201.7Y-113.29
T4
X109.45Y-103.7
X109.45Y-109.7
X120.7Y-123.25
X120.7Y-129.35
X122.95Y-103.7
X122.95Y-109.8
X133.7Y-103.75
X133.7Y-109.85
X134.2Y-123.35
X134.2Y-129.35
X146.3Y-123.25
X146.3Y-129.35
X147.2Y-103.85
X147.2Y-109.85
X159.8Y-123.35
X159.8Y-129.35
X180.85Y-123.45
X180.85Y-129.55
X194.35Y-123.55
X194.35Y-129.55
T5
X117.5Y-38.
X135.7Y-38.
X173.5Y-38.
X192.65Y-37.95
T6
X154.9Y-39.5
T7
X117.5Y-41.1
X117.5Y-49.4
X135.7Y-41.1
X135.7Y-49.4
X173.5Y-41.1
X173.5Y-49.4
X192.65Y-41.05
X192.65Y-49.35
T8
X149.75Y-41.1
X160.05Y-41.1
T9
X112.5Y-62.5
X112.5Y-79.9
X121.3Y-62.5
X121.3Y-79.9
X188.Y-63.
X188.Y-79.9
X196.8Y-63.
X196.8Y-79.9
T10
X180.75Y-85.75
T11
X108.5Y-38.5
X108.5Y-131.5
X128.95Y-38.35
X187.Y-38.65
X201.5Y-38.5
X201.5Y-131.5
T0
M30
