%TF.GenerationSoftware,KiCad,Pcbnew,6.0.7*%
%TF.CreationDate,2022-12-24T13:07:11+13:00*%
%TF.ProjectId,back_panel,6261636b-5f70-4616-9e65-6c2e6b696361,rev?*%
%TF.SameCoordinates,Original*%
%TF.FileFunction,Legend,Bot*%
%TF.FilePolarity,Positive*%
%FSLAX46Y46*%
G04 Gerber Fmt 4.6, Leading zero omitted, Abs format (unit mm)*
G04 Created by KiCad (PCBNEW 6.0.7) date 2022-12-24 13:07:11*
%MOMM*%
%LPD*%
G01*
G04 APERTURE LIST*
%ADD10C,0.150000*%
G04 APERTURE END LIST*
D10*
X176569047Y-143002380D02*
X176569047Y-143716666D01*
X176616666Y-143859523D01*
X176711904Y-143954761D01*
X176854761Y-144002380D01*
X176950000Y-144002380D01*
X175616666Y-144002380D02*
X176092857Y-144002380D01*
X176092857Y-143002380D01*
X174711904Y-143907142D02*
X174759523Y-143954761D01*
X174902380Y-144002380D01*
X174997619Y-144002380D01*
X175140476Y-143954761D01*
X175235714Y-143859523D01*
X175283333Y-143764285D01*
X175330952Y-143573809D01*
X175330952Y-143430952D01*
X175283333Y-143240476D01*
X175235714Y-143145238D01*
X175140476Y-143050000D01*
X174997619Y-143002380D01*
X174902380Y-143002380D01*
X174759523Y-143050000D01*
X174711904Y-143097619D01*
X173997619Y-143002380D02*
X173997619Y-143716666D01*
X174045238Y-143859523D01*
X174140476Y-143954761D01*
X174283333Y-144002380D01*
X174378571Y-144002380D01*
X173045238Y-144002380D02*
X173521428Y-144002380D01*
X173521428Y-143002380D01*
X172140476Y-143907142D02*
X172188095Y-143954761D01*
X172330952Y-144002380D01*
X172426190Y-144002380D01*
X172569047Y-143954761D01*
X172664285Y-143859523D01*
X172711904Y-143764285D01*
X172759523Y-143573809D01*
X172759523Y-143430952D01*
X172711904Y-143240476D01*
X172664285Y-143145238D01*
X172569047Y-143050000D01*
X172426190Y-143002380D01*
X172330952Y-143002380D01*
X172188095Y-143050000D01*
X172140476Y-143097619D01*
X171426190Y-143002380D02*
X171426190Y-143716666D01*
X171473809Y-143859523D01*
X171569047Y-143954761D01*
X171711904Y-144002380D01*
X171807142Y-144002380D01*
X170473809Y-144002380D02*
X170950000Y-144002380D01*
X170950000Y-143002380D01*
X169569047Y-143907142D02*
X169616666Y-143954761D01*
X169759523Y-144002380D01*
X169854761Y-144002380D01*
X169997619Y-143954761D01*
X170092857Y-143859523D01*
X170140476Y-143764285D01*
X170188095Y-143573809D01*
X170188095Y-143430952D01*
X170140476Y-143240476D01*
X170092857Y-143145238D01*
X169997619Y-143050000D01*
X169854761Y-143002380D01*
X169759523Y-143002380D01*
X169616666Y-143050000D01*
X169569047Y-143097619D01*
X168854761Y-143002380D02*
X168854761Y-143716666D01*
X168902380Y-143859523D01*
X168997619Y-143954761D01*
X169140476Y-144002380D01*
X169235714Y-144002380D01*
X167902380Y-144002380D02*
X168378571Y-144002380D01*
X168378571Y-143002380D01*
X166997619Y-143907142D02*
X167045238Y-143954761D01*
X167188095Y-144002380D01*
X167283333Y-144002380D01*
X167426190Y-143954761D01*
X167521428Y-143859523D01*
X167569047Y-143764285D01*
X167616666Y-143573809D01*
X167616666Y-143430952D01*
X167569047Y-143240476D01*
X167521428Y-143145238D01*
X167426190Y-143050000D01*
X167283333Y-143002380D01*
X167188095Y-143002380D01*
X167045238Y-143050000D01*
X166997619Y-143097619D01*
M02*
