%TF.GenerationSoftware,KiCad,Pcbnew,7.0.9*%
%TF.CreationDate,2024-07-10T14:31:19+10:00*%
%TF.ProjectId,default_panel,64656661-756c-4745-9f70-616e656c2e6b,rev?*%
%TF.SameCoordinates,Original*%
%TF.FileFunction,Legend,Top*%
%TF.FilePolarity,Positive*%
%FSLAX46Y46*%
G04 Gerber Fmt 4.6, Leading zero omitted, Abs format (unit mm)*
G04 Created by KiCad (PCBNEW 7.0.9) date 2024-07-10 14:31:19*
%MOMM*%
%LPD*%
G01*
G04 APERTURE LIST*
%ADD10C,0.600000*%
%ADD11C,0.800000*%
%ADD12C,0.500000*%
%ADD13C,0.010000*%
G04 APERTURE END LIST*
D10*
X94750000Y-126250000D02*
X94750000Y-128950000D01*
X92950000Y-126250000D02*
X92950000Y-128950000D01*
D11*
X161376190Y-115492209D02*
X164423810Y-116635066D01*
X164423810Y-116635066D02*
X161376190Y-117777923D01*
D12*
X88049999Y-126526142D02*
X88049999Y-128811857D01*
X88192857Y-126669000D02*
X88192857Y-128669000D01*
X88335714Y-126669000D02*
X88335714Y-128669000D01*
X88478571Y-126811857D02*
X88478571Y-128526142D01*
X88621428Y-126811857D02*
X88621428Y-128526142D01*
X88764285Y-126954714D02*
X88764285Y-128383285D01*
X88907142Y-126954714D02*
X88907142Y-128383285D01*
X89049999Y-127097571D02*
X89049999Y-128240428D01*
X89192857Y-127240428D02*
X89192857Y-128097571D01*
X89335714Y-127240428D02*
X89335714Y-128097571D01*
X89478571Y-127383285D02*
X89478571Y-127954714D01*
X89621428Y-127383285D02*
X89621428Y-127954714D01*
X89764285Y-127669000D02*
X89907142Y-127669000D01*
X89764285Y-127526142D02*
X89764285Y-127811857D01*
X87907142Y-126526142D02*
X90049999Y-127669000D01*
X90049999Y-127669000D02*
X87907142Y-128811857D01*
X90192857Y-127669000D02*
X87907142Y-128954714D01*
X87907142Y-128954714D02*
X87907142Y-126383285D01*
X87907142Y-126383285D02*
X90192857Y-127669000D01*
X98871428Y-143061857D02*
X98871428Y-140061857D01*
X98871428Y-140061857D02*
X99871428Y-142204714D01*
X99871428Y-142204714D02*
X100871428Y-140061857D01*
X100871428Y-140061857D02*
X100871428Y-143061857D01*
X102871428Y-140061857D02*
X103442856Y-140061857D01*
X103442856Y-140061857D02*
X103728571Y-140204714D01*
X103728571Y-140204714D02*
X104014285Y-140490428D01*
X104014285Y-140490428D02*
X104157142Y-141061857D01*
X104157142Y-141061857D02*
X104157142Y-142061857D01*
X104157142Y-142061857D02*
X104014285Y-142633285D01*
X104014285Y-142633285D02*
X103728571Y-142919000D01*
X103728571Y-142919000D02*
X103442856Y-143061857D01*
X103442856Y-143061857D02*
X102871428Y-143061857D01*
X102871428Y-143061857D02*
X102585714Y-142919000D01*
X102585714Y-142919000D02*
X102299999Y-142633285D01*
X102299999Y-142633285D02*
X102157142Y-142061857D01*
X102157142Y-142061857D02*
X102157142Y-141061857D01*
X102157142Y-141061857D02*
X102299999Y-140490428D01*
X102299999Y-140490428D02*
X102585714Y-140204714D01*
X102585714Y-140204714D02*
X102871428Y-140061857D01*
X105442856Y-143061857D02*
X105442856Y-140061857D01*
X105442856Y-140061857D02*
X106157142Y-140061857D01*
X106157142Y-140061857D02*
X106585713Y-140204714D01*
X106585713Y-140204714D02*
X106871428Y-140490428D01*
X106871428Y-140490428D02*
X107014285Y-140776142D01*
X107014285Y-140776142D02*
X107157142Y-141347571D01*
X107157142Y-141347571D02*
X107157142Y-141776142D01*
X107157142Y-141776142D02*
X107014285Y-142347571D01*
X107014285Y-142347571D02*
X106871428Y-142633285D01*
X106871428Y-142633285D02*
X106585713Y-142919000D01*
X106585713Y-142919000D02*
X106157142Y-143061857D01*
X106157142Y-143061857D02*
X105442856Y-143061857D01*
X108442856Y-141490428D02*
X109442856Y-141490428D01*
X109871428Y-143061857D02*
X108442856Y-143061857D01*
X108442856Y-143061857D02*
X108442856Y-140061857D01*
X108442856Y-140061857D02*
X109871428Y-140061857D01*
D11*
X152542209Y-110473809D02*
X153685066Y-107426190D01*
X153685066Y-107426190D02*
X154827923Y-110473809D01*
D12*
X154671428Y-143519000D02*
X155100000Y-143661857D01*
X155100000Y-143661857D02*
X155814285Y-143661857D01*
X155814285Y-143661857D02*
X156100000Y-143519000D01*
X156100000Y-143519000D02*
X156242857Y-143376142D01*
X156242857Y-143376142D02*
X156385714Y-143090428D01*
X156385714Y-143090428D02*
X156385714Y-142804714D01*
X156385714Y-142804714D02*
X156242857Y-142519000D01*
X156242857Y-142519000D02*
X156100000Y-142376142D01*
X156100000Y-142376142D02*
X155814285Y-142233285D01*
X155814285Y-142233285D02*
X155242857Y-142090428D01*
X155242857Y-142090428D02*
X154957142Y-141947571D01*
X154957142Y-141947571D02*
X154814285Y-141804714D01*
X154814285Y-141804714D02*
X154671428Y-141519000D01*
X154671428Y-141519000D02*
X154671428Y-141233285D01*
X154671428Y-141233285D02*
X154814285Y-140947571D01*
X154814285Y-140947571D02*
X154957142Y-140804714D01*
X154957142Y-140804714D02*
X155242857Y-140661857D01*
X155242857Y-140661857D02*
X155957142Y-140661857D01*
X155957142Y-140661857D02*
X156385714Y-140804714D01*
X157671428Y-142090428D02*
X158671428Y-142090428D01*
X159100000Y-143661857D02*
X157671428Y-143661857D01*
X157671428Y-143661857D02*
X157671428Y-140661857D01*
X157671428Y-140661857D02*
X159100000Y-140661857D01*
X161814286Y-143661857D02*
X160385714Y-143661857D01*
X160385714Y-143661857D02*
X160385714Y-140661857D01*
X162814285Y-142090428D02*
X163814285Y-142090428D01*
X164242857Y-143661857D02*
X162814285Y-143661857D01*
X162814285Y-143661857D02*
X162814285Y-140661857D01*
X162814285Y-140661857D02*
X164242857Y-140661857D01*
X167242857Y-143376142D02*
X167100000Y-143519000D01*
X167100000Y-143519000D02*
X166671428Y-143661857D01*
X166671428Y-143661857D02*
X166385714Y-143661857D01*
X166385714Y-143661857D02*
X165957143Y-143519000D01*
X165957143Y-143519000D02*
X165671428Y-143233285D01*
X165671428Y-143233285D02*
X165528571Y-142947571D01*
X165528571Y-142947571D02*
X165385714Y-142376142D01*
X165385714Y-142376142D02*
X165385714Y-141947571D01*
X165385714Y-141947571D02*
X165528571Y-141376142D01*
X165528571Y-141376142D02*
X165671428Y-141090428D01*
X165671428Y-141090428D02*
X165957143Y-140804714D01*
X165957143Y-140804714D02*
X166385714Y-140661857D01*
X166385714Y-140661857D02*
X166671428Y-140661857D01*
X166671428Y-140661857D02*
X167100000Y-140804714D01*
X167100000Y-140804714D02*
X167242857Y-140947571D01*
X168100000Y-140661857D02*
X169814286Y-140661857D01*
X168957143Y-143661857D02*
X168957143Y-140661857D01*
X129949999Y-141640428D02*
X128949999Y-141640428D01*
X128949999Y-143211857D02*
X128949999Y-140211857D01*
X128949999Y-140211857D02*
X130378571Y-140211857D01*
X131235714Y-140211857D02*
X133235714Y-143211857D01*
X133235714Y-140211857D02*
X131235714Y-143211857D01*
D11*
X154957790Y-123226190D02*
X153814933Y-126273810D01*
X153814933Y-126273810D02*
X152672076Y-123226190D01*
X146223809Y-117807790D02*
X143176190Y-116664933D01*
X143176190Y-116664933D02*
X146223809Y-115522076D01*
%TO.C,G\u002A\u002A\u002A*%
D13*
X85661909Y-106480744D02*
X85868296Y-106615257D01*
X85794853Y-106756906D01*
X85440549Y-106779358D01*
X84987988Y-106688968D01*
X84781437Y-106569101D01*
X84880922Y-106447547D01*
X85209183Y-106405000D01*
X85661909Y-106480744D01*
G36*
X85661909Y-106480744D02*
G01*
X85868296Y-106615257D01*
X85794853Y-106756906D01*
X85440549Y-106779358D01*
X84987988Y-106688968D01*
X84781437Y-106569101D01*
X84880922Y-106447547D01*
X85209183Y-106405000D01*
X85661909Y-106480744D01*
G37*
X87935827Y-105197667D02*
X88021000Y-105247243D01*
X87743676Y-105279196D01*
X87350834Y-105286127D01*
X86870577Y-105270287D01*
X86730105Y-105232358D01*
X86877494Y-105194778D01*
X87503475Y-105159958D01*
X87935827Y-105197667D01*
G36*
X87935827Y-105197667D02*
G01*
X88021000Y-105247243D01*
X87743676Y-105279196D01*
X87350834Y-105286127D01*
X86870577Y-105270287D01*
X86730105Y-105232358D01*
X86877494Y-105194778D01*
X87503475Y-105159958D01*
X87935827Y-105197667D01*
G37*
X88146786Y-105837190D02*
X88197500Y-105981666D01*
X87898951Y-106159480D01*
X87655842Y-106193333D01*
X87318731Y-106102285D01*
X87245000Y-105981666D01*
X87426515Y-105823901D01*
X87786659Y-105770000D01*
X88146786Y-105837190D01*
G36*
X88146786Y-105837190D02*
G01*
X88197500Y-105981666D01*
X87898951Y-106159480D01*
X87655842Y-106193333D01*
X87318731Y-106102285D01*
X87245000Y-105981666D01*
X87426515Y-105823901D01*
X87786659Y-105770000D01*
X88146786Y-105837190D01*
G37*
X88252885Y-106471234D02*
X88302364Y-106528449D01*
X87998398Y-106560553D01*
X87774167Y-106563287D01*
X87364257Y-106542447D01*
X87302067Y-106494640D01*
X87406218Y-106466963D01*
X87957743Y-106432884D01*
X88252885Y-106471234D01*
G36*
X88252885Y-106471234D02*
G01*
X88302364Y-106528449D01*
X87998398Y-106560553D01*
X87774167Y-106563287D01*
X87364257Y-106542447D01*
X87302067Y-106494640D01*
X87406218Y-106466963D01*
X87957743Y-106432884D01*
X88252885Y-106471234D01*
G37*
X102565288Y-104995789D02*
X102696667Y-105135000D01*
X102515527Y-105294114D01*
X102167500Y-105346666D01*
X101769713Y-105274210D01*
X101638334Y-105135000D01*
X101819474Y-104975885D01*
X102167500Y-104923333D01*
X102565288Y-104995789D01*
G36*
X102565288Y-104995789D02*
G01*
X102696667Y-105135000D01*
X102515527Y-105294114D01*
X102167500Y-105346666D01*
X101769713Y-105274210D01*
X101638334Y-105135000D01*
X101819474Y-104975885D01*
X102167500Y-104923333D01*
X102565288Y-104995789D01*
G37*
X104946222Y-105804143D02*
X105025000Y-105851146D01*
X104850475Y-105962333D01*
X104601667Y-106042996D01*
X104264147Y-106054867D01*
X104178334Y-105961850D01*
X104355790Y-105805918D01*
X104601667Y-105770000D01*
X104946222Y-105804143D01*
G36*
X104946222Y-105804143D02*
G01*
X105025000Y-105851146D01*
X104850475Y-105962333D01*
X104601667Y-106042996D01*
X104264147Y-106054867D01*
X104178334Y-105961850D01*
X104355790Y-105805918D01*
X104601667Y-105770000D01*
X104946222Y-105804143D01*
G37*
X105186218Y-106471234D02*
X105235697Y-106528449D01*
X104931732Y-106560553D01*
X104707500Y-106563287D01*
X104297590Y-106542447D01*
X104235400Y-106494640D01*
X104339551Y-106466963D01*
X104891077Y-106432884D01*
X105186218Y-106471234D01*
G36*
X105186218Y-106471234D02*
G01*
X105235697Y-106528449D01*
X104931732Y-106560553D01*
X104707500Y-106563287D01*
X104297590Y-106542447D01*
X104235400Y-106494640D01*
X104339551Y-106466963D01*
X104891077Y-106432884D01*
X105186218Y-106471234D01*
G37*
X87639198Y-103062306D02*
X88197500Y-103230000D01*
X88396221Y-103348215D01*
X88245140Y-103407367D01*
X87827084Y-103426789D01*
X87317056Y-103386549D01*
X87046490Y-103268120D01*
X87033334Y-103230000D01*
X87205979Y-103061095D01*
X87639198Y-103062306D01*
G36*
X87639198Y-103062306D02*
G01*
X88197500Y-103230000D01*
X88396221Y-103348215D01*
X88245140Y-103407367D01*
X87827084Y-103426789D01*
X87317056Y-103386549D01*
X87046490Y-103268120D01*
X87033334Y-103230000D01*
X87205979Y-103061095D01*
X87639198Y-103062306D01*
G37*
X117266534Y-105935940D02*
X117290837Y-106292666D01*
X117187354Y-106628532D01*
X117104626Y-106713460D01*
X116831129Y-106691733D01*
X116786439Y-106639220D01*
X116747837Y-106297744D01*
X116888245Y-105932120D01*
X117112646Y-105770000D01*
X117266534Y-105935940D01*
G36*
X117266534Y-105935940D02*
G01*
X117290837Y-106292666D01*
X117187354Y-106628532D01*
X117104626Y-106713460D01*
X116831129Y-106691733D01*
X116786439Y-106639220D01*
X116747837Y-106297744D01*
X116888245Y-105932120D01*
X117112646Y-105770000D01*
X117266534Y-105935940D01*
G37*
X85851341Y-103128432D02*
X85975000Y-103225860D01*
X85790313Y-103374240D01*
X85342009Y-103441334D01*
X85304722Y-103441666D01*
X84880964Y-103410972D01*
X84742317Y-103336114D01*
X84749585Y-103326525D01*
X85054014Y-103179846D01*
X85483741Y-103108683D01*
X85851341Y-103128432D01*
G36*
X85851341Y-103128432D02*
G01*
X85975000Y-103225860D01*
X85790313Y-103374240D01*
X85342009Y-103441334D01*
X85304722Y-103441666D01*
X84880964Y-103410972D01*
X84742317Y-103336114D01*
X84749585Y-103326525D01*
X85054014Y-103179846D01*
X85483741Y-103108683D01*
X85851341Y-103128432D01*
G37*
X90008967Y-103075658D02*
X90106675Y-103222738D01*
X90102500Y-103230000D01*
X89810732Y-103393847D01*
X89455008Y-103441666D01*
X89063237Y-103367617D01*
X88938334Y-103230000D01*
X89122546Y-103082493D01*
X89567594Y-103018416D01*
X89585825Y-103018333D01*
X90008967Y-103075658D01*
G36*
X90008967Y-103075658D02*
G01*
X90106675Y-103222738D01*
X90102500Y-103230000D01*
X89810732Y-103393847D01*
X89455008Y-103441666D01*
X89063237Y-103367617D01*
X88938334Y-103230000D01*
X89122546Y-103082493D01*
X89567594Y-103018416D01*
X89585825Y-103018333D01*
X90008967Y-103075658D01*
G37*
X91848750Y-106462474D02*
X92034920Y-106500333D01*
X91841950Y-106529145D01*
X91314013Y-106544287D01*
X91055000Y-106545503D01*
X90419012Y-106536310D01*
X90102347Y-106511811D01*
X90149176Y-106476628D01*
X90261250Y-106462474D01*
X91056044Y-106428224D01*
X91848750Y-106462474D01*
G36*
X91848750Y-106462474D02*
G01*
X92034920Y-106500333D01*
X91841950Y-106529145D01*
X91314013Y-106544287D01*
X91055000Y-106545503D01*
X90419012Y-106536310D01*
X90102347Y-106511811D01*
X90149176Y-106476628D01*
X90261250Y-106462474D01*
X91056044Y-106428224D01*
X91848750Y-106462474D01*
G37*
X94136524Y-105001377D02*
X94335834Y-105135000D01*
X94253122Y-105284907D01*
X93841310Y-105346564D01*
X93819159Y-105346666D01*
X93367934Y-105286447D01*
X93171922Y-105140960D01*
X93171667Y-105135000D01*
X93352418Y-104974502D01*
X93688342Y-104923333D01*
X94136524Y-105001377D01*
G36*
X94136524Y-105001377D02*
G01*
X94335834Y-105135000D01*
X94253122Y-105284907D01*
X93841310Y-105346564D01*
X93819159Y-105346666D01*
X93367934Y-105286447D01*
X93171922Y-105140960D01*
X93171667Y-105135000D01*
X93352418Y-104974502D01*
X93688342Y-104923333D01*
X94136524Y-105001377D01*
G37*
X94151142Y-104456904D02*
X94536947Y-104532530D01*
X94653334Y-104630508D01*
X94464695Y-104676970D01*
X93990329Y-104697836D01*
X93753750Y-104696789D01*
X93240290Y-104666303D01*
X93129308Y-104594082D01*
X93262954Y-104521810D01*
X93666425Y-104448635D01*
X94151142Y-104456904D01*
G36*
X94151142Y-104456904D02*
G01*
X94536947Y-104532530D01*
X94653334Y-104630508D01*
X94464695Y-104676970D01*
X93990329Y-104697836D01*
X93753750Y-104696789D01*
X93240290Y-104666303D01*
X93129308Y-104594082D01*
X93262954Y-104521810D01*
X93666425Y-104448635D01*
X94151142Y-104456904D01*
G37*
X96399663Y-104988580D02*
X96664167Y-105135000D01*
X96574742Y-105279030D01*
X96143525Y-105345104D01*
X96041659Y-105346666D01*
X95547051Y-105294322D01*
X95296109Y-105165346D01*
X95288334Y-105135000D01*
X95471975Y-104985245D01*
X95910842Y-104923333D01*
X96399663Y-104988580D01*
G36*
X96399663Y-104988580D02*
G01*
X96664167Y-105135000D01*
X96574742Y-105279030D01*
X96143525Y-105345104D01*
X96041659Y-105346666D01*
X95547051Y-105294322D01*
X95296109Y-105165346D01*
X95288334Y-105135000D01*
X95471975Y-104985245D01*
X95910842Y-104923333D01*
X96399663Y-104988580D01*
G37*
X98258592Y-104979696D02*
X98363116Y-105124925D01*
X98357500Y-105135000D01*
X98058073Y-105314663D01*
X97828334Y-105346666D01*
X97428347Y-105246564D01*
X97299167Y-105135000D01*
X97382722Y-104985837D01*
X97797042Y-104923529D01*
X97828334Y-104923333D01*
X98258592Y-104979696D01*
G36*
X98258592Y-104979696D02*
G01*
X98363116Y-105124925D01*
X98357500Y-105135000D01*
X98058073Y-105314663D01*
X97828334Y-105346666D01*
X97428347Y-105246564D01*
X97299167Y-105135000D01*
X97382722Y-104985837D01*
X97797042Y-104923529D01*
X97828334Y-104923333D01*
X98258592Y-104979696D01*
G37*
X98369857Y-104366377D02*
X98569167Y-104500000D01*
X98486455Y-104649907D01*
X98074643Y-104711564D01*
X98052492Y-104711666D01*
X97601267Y-104651447D01*
X97405255Y-104505960D01*
X97405000Y-104500000D01*
X97585752Y-104339502D01*
X97921675Y-104288333D01*
X98369857Y-104366377D01*
G36*
X98369857Y-104366377D02*
G01*
X98569167Y-104500000D01*
X98486455Y-104649907D01*
X98074643Y-104711564D01*
X98052492Y-104711666D01*
X97601267Y-104651447D01*
X97405255Y-104505960D01*
X97405000Y-104500000D01*
X97585752Y-104339502D01*
X97921675Y-104288333D01*
X98369857Y-104366377D01*
G37*
X100698190Y-101826377D02*
X100897500Y-101960000D01*
X100814789Y-102109907D01*
X100402977Y-102171564D01*
X100380825Y-102171666D01*
X99929601Y-102111447D01*
X99733589Y-101965960D01*
X99733334Y-101960000D01*
X99914085Y-101799502D01*
X100250008Y-101748333D01*
X100698190Y-101826377D01*
G36*
X100698190Y-101826377D02*
G01*
X100897500Y-101960000D01*
X100814789Y-102109907D01*
X100402977Y-102171564D01*
X100380825Y-102171666D01*
X99929601Y-102111447D01*
X99733589Y-101965960D01*
X99733334Y-101960000D01*
X99914085Y-101799502D01*
X100250008Y-101748333D01*
X100698190Y-101826377D01*
G37*
X100844663Y-102448580D02*
X101109167Y-102595000D01*
X101019742Y-102739030D01*
X100588525Y-102805104D01*
X100486659Y-102806666D01*
X99992051Y-102754322D01*
X99741109Y-102625346D01*
X99733334Y-102595000D01*
X99916975Y-102445245D01*
X100355842Y-102383333D01*
X100844663Y-102448580D01*
G36*
X100844663Y-102448580D02*
G01*
X101109167Y-102595000D01*
X101019742Y-102739030D01*
X100588525Y-102805104D01*
X100486659Y-102806666D01*
X99992051Y-102754322D01*
X99741109Y-102625346D01*
X99733334Y-102595000D01*
X99916975Y-102445245D01*
X100355842Y-102383333D01*
X100844663Y-102448580D01*
G37*
X101032917Y-104350775D02*
X101215000Y-104500000D01*
X101028707Y-104638973D01*
X100569679Y-104709481D01*
X100461675Y-104711666D01*
X99980054Y-104661529D01*
X99826868Y-104528893D01*
X99839167Y-104500000D01*
X100125307Y-104347501D01*
X100592492Y-104288333D01*
X101032917Y-104350775D01*
G36*
X101032917Y-104350775D02*
G01*
X101215000Y-104500000D01*
X101028707Y-104638973D01*
X100569679Y-104709481D01*
X100461675Y-104711666D01*
X99980054Y-104661529D01*
X99826868Y-104528893D01*
X99839167Y-104500000D01*
X100125307Y-104347501D01*
X100592492Y-104288333D01*
X101032917Y-104350775D01*
G37*
X85574188Y-105831310D02*
X85763285Y-105979033D01*
X85763334Y-105981666D01*
X85579402Y-106130284D01*
X85136234Y-106193317D01*
X85128334Y-106193333D01*
X84682479Y-106132022D01*
X84493382Y-105984300D01*
X84493334Y-105981666D01*
X84677265Y-105833048D01*
X85120433Y-105770016D01*
X85128334Y-105770000D01*
X85574188Y-105831310D01*
G36*
X85574188Y-105831310D02*
G01*
X85763285Y-105979033D01*
X85763334Y-105981666D01*
X85579402Y-106130284D01*
X85136234Y-106193317D01*
X85128334Y-106193333D01*
X84682479Y-106132022D01*
X84493382Y-105984300D01*
X84493334Y-105981666D01*
X84677265Y-105833048D01*
X85120433Y-105770016D01*
X85128334Y-105770000D01*
X85574188Y-105831310D01*
G37*
X90914882Y-103678410D02*
X91287937Y-103742324D01*
X91284824Y-103852535D01*
X91266667Y-103865000D01*
X90859567Y-103996562D01*
X90254439Y-104060876D01*
X89608714Y-104057941D01*
X89079824Y-103987758D01*
X88832500Y-103865000D01*
X88949894Y-103746176D01*
X89450713Y-103675049D01*
X90142925Y-103656574D01*
X90914882Y-103678410D01*
G36*
X90914882Y-103678410D02*
G01*
X91287937Y-103742324D01*
X91284824Y-103852535D01*
X91266667Y-103865000D01*
X90859567Y-103996562D01*
X90254439Y-104060876D01*
X89608714Y-104057941D01*
X89079824Y-103987758D01*
X88832500Y-103865000D01*
X88949894Y-103746176D01*
X89450713Y-103675049D01*
X90142925Y-103656574D01*
X90914882Y-103678410D01*
G37*
X95608371Y-101783129D02*
X96031225Y-101872889D01*
X96135000Y-101960000D01*
X95943620Y-102075915D01*
X95449939Y-102152798D01*
X94970834Y-102171666D01*
X94333296Y-102136870D01*
X93910442Y-102047110D01*
X93806667Y-101960000D01*
X93998047Y-101844084D01*
X94491728Y-101767201D01*
X94970834Y-101748333D01*
X95608371Y-101783129D01*
G36*
X95608371Y-101783129D02*
G01*
X96031225Y-101872889D01*
X96135000Y-101960000D01*
X95943620Y-102075915D01*
X95449939Y-102152798D01*
X94970834Y-102171666D01*
X94333296Y-102136870D01*
X93910442Y-102047110D01*
X93806667Y-101960000D01*
X93998047Y-101844084D01*
X94491728Y-101767201D01*
X94970834Y-101748333D01*
X95608371Y-101783129D01*
G37*
X96501677Y-103285190D02*
X96677784Y-103404375D01*
X96664167Y-103441666D01*
X96513195Y-103624886D01*
X96492925Y-103628290D01*
X96282980Y-103564559D01*
X95832196Y-103445409D01*
X95817500Y-103441666D01*
X95428763Y-103336137D01*
X95401482Y-103285888D01*
X95761847Y-103262374D01*
X95988742Y-103255043D01*
X96501677Y-103285190D01*
G36*
X96501677Y-103285190D02*
G01*
X96677784Y-103404375D01*
X96664167Y-103441666D01*
X96513195Y-103624886D01*
X96492925Y-103628290D01*
X96282980Y-103564559D01*
X95832196Y-103445409D01*
X95817500Y-103441666D01*
X95428763Y-103336137D01*
X95401482Y-103285888D01*
X95761847Y-103262374D01*
X95988742Y-103255043D01*
X96501677Y-103285190D01*
G37*
X100814188Y-104984643D02*
X101003285Y-105132366D01*
X101003334Y-105135000D01*
X100819402Y-105283618D01*
X100376234Y-105346650D01*
X100368334Y-105346666D01*
X99922479Y-105285356D01*
X99733382Y-105137633D01*
X99733334Y-105135000D01*
X99917265Y-104986381D01*
X100360433Y-104923349D01*
X100368334Y-104923333D01*
X100814188Y-104984643D01*
G36*
X100814188Y-104984643D02*
G01*
X101003285Y-105132366D01*
X101003334Y-105135000D01*
X100819402Y-105283618D01*
X100376234Y-105346650D01*
X100368334Y-105346666D01*
X99922479Y-105285356D01*
X99733382Y-105137633D01*
X99733334Y-105135000D01*
X99917265Y-104986381D01*
X100360433Y-104923349D01*
X100368334Y-104923333D01*
X100814188Y-104984643D01*
G37*
X87650695Y-101880768D02*
X87680665Y-101997246D01*
X87440896Y-102097142D01*
X86872787Y-102197762D01*
X86345417Y-102266230D01*
X85637174Y-102320057D01*
X85213678Y-102283917D01*
X85128334Y-102213108D01*
X85316233Y-102106218D01*
X85785921Y-101996717D01*
X86396387Y-101903185D01*
X87006616Y-101844199D01*
X87475595Y-101838341D01*
X87650695Y-101880768D01*
G36*
X87650695Y-101880768D02*
G01*
X87680665Y-101997246D01*
X87440896Y-102097142D01*
X86872787Y-102197762D01*
X86345417Y-102266230D01*
X85637174Y-102320057D01*
X85213678Y-102283917D01*
X85128334Y-102213108D01*
X85316233Y-102106218D01*
X85785921Y-101996717D01*
X86396387Y-101903185D01*
X87006616Y-101844199D01*
X87475595Y-101838341D01*
X87650695Y-101880768D01*
G37*
X102437431Y-105952735D02*
X102682814Y-106387827D01*
X102696667Y-106528145D01*
X102511804Y-106589395D01*
X102064060Y-106616585D01*
X102035749Y-106616666D01*
X101605069Y-106582709D01*
X101530322Y-106452337D01*
X101610580Y-106332608D01*
X101744853Y-106023963D01*
X101707053Y-105909274D01*
X101765094Y-105799707D01*
X102003743Y-105770000D01*
X102437431Y-105952735D01*
G36*
X102437431Y-105952735D02*
G01*
X102682814Y-106387827D01*
X102696667Y-106528145D01*
X102511804Y-106589395D01*
X102064060Y-106616585D01*
X102035749Y-106616666D01*
X101605069Y-106582709D01*
X101530322Y-106452337D01*
X101610580Y-106332608D01*
X101744853Y-106023963D01*
X101707053Y-105909274D01*
X101765094Y-105799707D01*
X102003743Y-105770000D01*
X102437431Y-105952735D01*
G37*
X103977538Y-101898682D02*
X104273584Y-101991648D01*
X104229556Y-102108912D01*
X103848342Y-102168826D01*
X103708812Y-102171666D01*
X103098521Y-102206113D01*
X102636790Y-102290057D01*
X102608145Y-102300145D01*
X102325336Y-102309758D01*
X102273334Y-102216545D01*
X102458562Y-102065238D01*
X102909293Y-101950025D01*
X103468095Y-101888606D01*
X103977538Y-101898682D01*
G36*
X103977538Y-101898682D02*
G01*
X104273584Y-101991648D01*
X104229556Y-102108912D01*
X103848342Y-102168826D01*
X103708812Y-102171666D01*
X103098521Y-102206113D01*
X102636790Y-102290057D01*
X102608145Y-102300145D01*
X102325336Y-102309758D01*
X102273334Y-102216545D01*
X102458562Y-102065238D01*
X102909293Y-101950025D01*
X103468095Y-101888606D01*
X103977538Y-101898682D01*
G37*
X94864479Y-102434743D02*
X95831565Y-102491513D01*
X96379341Y-102574129D01*
X96507780Y-102664547D01*
X96216858Y-102744723D01*
X95506549Y-102796612D01*
X94865000Y-102806666D01*
X94018811Y-102781672D01*
X93430228Y-102713145D01*
X93176171Y-102610768D01*
X93171667Y-102593493D01*
X93372156Y-102489107D01*
X93933338Y-102433597D01*
X94794782Y-102432631D01*
X94864479Y-102434743D01*
G36*
X94864479Y-102434743D02*
G01*
X95831565Y-102491513D01*
X96379341Y-102574129D01*
X96507780Y-102664547D01*
X96216858Y-102744723D01*
X95506549Y-102796612D01*
X94865000Y-102806666D01*
X94018811Y-102781672D01*
X93430228Y-102713145D01*
X93176171Y-102610768D01*
X93171667Y-102593493D01*
X93372156Y-102489107D01*
X93933338Y-102433597D01*
X94794782Y-102432631D01*
X94864479Y-102434743D01*
G37*
X86891676Y-103752351D02*
X87586641Y-103802134D01*
X88081619Y-103878073D01*
X88240721Y-103943498D01*
X88105033Y-104001094D01*
X87631041Y-104046151D01*
X86903726Y-104072450D01*
X86421119Y-104076666D01*
X85451242Y-104055650D01*
X84831180Y-103995047D01*
X84592834Y-103898526D01*
X84597935Y-103866992D01*
X84849851Y-103786045D01*
X85398980Y-103741696D01*
X86121022Y-103731335D01*
X86891676Y-103752351D01*
G36*
X86891676Y-103752351D02*
G01*
X87586641Y-103802134D01*
X88081619Y-103878073D01*
X88240721Y-103943498D01*
X88105033Y-104001094D01*
X87631041Y-104046151D01*
X86903726Y-104072450D01*
X86421119Y-104076666D01*
X85451242Y-104055650D01*
X84831180Y-103995047D01*
X84592834Y-103898526D01*
X84597935Y-103866992D01*
X84849851Y-103786045D01*
X85398980Y-103741696D01*
X86121022Y-103731335D01*
X86891676Y-103752351D01*
G37*
X91919807Y-101804727D02*
X92481024Y-101866382D01*
X92741396Y-101956086D01*
X92748334Y-101974502D01*
X92558735Y-102074883D01*
X92075142Y-102138983D01*
X91425358Y-102166539D01*
X90737187Y-102157294D01*
X90138432Y-102110985D01*
X89756896Y-102027353D01*
X89691977Y-101980727D01*
X89826599Y-101887872D01*
X90296150Y-101818666D01*
X91012392Y-101784951D01*
X91161152Y-101783563D01*
X91919807Y-101804727D01*
G36*
X91919807Y-101804727D02*
G01*
X92481024Y-101866382D01*
X92741396Y-101956086D01*
X92748334Y-101974502D01*
X92558735Y-102074883D01*
X92075142Y-102138983D01*
X91425358Y-102166539D01*
X90737187Y-102157294D01*
X90138432Y-102110985D01*
X89756896Y-102027353D01*
X89691977Y-101980727D01*
X89826599Y-101887872D01*
X90296150Y-101818666D01*
X91012392Y-101784951D01*
X91161152Y-101783563D01*
X91919807Y-101804727D01*
G37*
X90873162Y-105701644D02*
X91598682Y-105728347D01*
X92168414Y-105776027D01*
X92466689Y-105843768D01*
X92478178Y-105852621D01*
X92340858Y-105908606D01*
X91865707Y-105952337D01*
X91138183Y-105977726D01*
X90666945Y-105981666D01*
X89819565Y-105965627D01*
X89159810Y-105922613D01*
X88781257Y-105860280D01*
X88726605Y-105822916D01*
X88918577Y-105756553D01*
X89417440Y-105714831D01*
X90107525Y-105696833D01*
X90873162Y-105701644D01*
G36*
X90873162Y-105701644D02*
G01*
X91598682Y-105728347D01*
X92168414Y-105776027D01*
X92466689Y-105843768D01*
X92478178Y-105852621D01*
X92340858Y-105908606D01*
X91865707Y-105952337D01*
X91138183Y-105977726D01*
X90666945Y-105981666D01*
X89819565Y-105965627D01*
X89159810Y-105922613D01*
X88781257Y-105860280D01*
X88726605Y-105822916D01*
X88918577Y-105756553D01*
X89417440Y-105714831D01*
X90107525Y-105696833D01*
X90873162Y-105701644D01*
G37*
X103766963Y-102565611D02*
X104475776Y-102608307D01*
X105020750Y-102671579D01*
X105025000Y-102672315D01*
X105139007Y-102727962D01*
X104923049Y-102782190D01*
X104470454Y-102827772D01*
X103874551Y-102857480D01*
X103228668Y-102864089D01*
X102749584Y-102848521D01*
X102128598Y-102786197D01*
X101725265Y-102694724D01*
X101638334Y-102629935D01*
X101829998Y-102575653D01*
X102326824Y-102547817D01*
X103011563Y-102544958D01*
X103766963Y-102565611D01*
G36*
X103766963Y-102565611D02*
G01*
X104475776Y-102608307D01*
X105020750Y-102671579D01*
X105025000Y-102672315D01*
X105139007Y-102727962D01*
X104923049Y-102782190D01*
X104470454Y-102827772D01*
X103874551Y-102857480D01*
X103228668Y-102864089D01*
X102749584Y-102848521D01*
X102128598Y-102786197D01*
X101725265Y-102694724D01*
X101638334Y-102629935D01*
X101829998Y-102575653D01*
X102326824Y-102547817D01*
X103011563Y-102544958D01*
X103766963Y-102565611D01*
G37*
X94217699Y-103265814D02*
X94388329Y-103401995D01*
X94358479Y-103564811D01*
X94246409Y-103902231D01*
X94230000Y-103988145D01*
X94054723Y-104074035D01*
X93651007Y-104077399D01*
X93202029Y-104014630D01*
X92890962Y-103902124D01*
X92854167Y-103865000D01*
X92877972Y-103670266D01*
X92960000Y-103653333D01*
X93098031Y-103524395D01*
X93065834Y-103441666D01*
X93156576Y-103298779D01*
X93591459Y-103232020D01*
X93710988Y-103230000D01*
X94217699Y-103265814D01*
G36*
X94217699Y-103265814D02*
G01*
X94388329Y-103401995D01*
X94358479Y-103564811D01*
X94246409Y-103902231D01*
X94230000Y-103988145D01*
X94054723Y-104074035D01*
X93651007Y-104077399D01*
X93202029Y-104014630D01*
X92890962Y-103902124D01*
X92854167Y-103865000D01*
X92877972Y-103670266D01*
X92960000Y-103653333D01*
X93098031Y-103524395D01*
X93065834Y-103441666D01*
X93156576Y-103298779D01*
X93591459Y-103232020D01*
X93710988Y-103230000D01*
X94217699Y-103265814D01*
G37*
X100721438Y-103167338D02*
X100951900Y-103289048D01*
X100818614Y-103391349D01*
X100580000Y-103463739D01*
X100225522Y-103572248D01*
X100266872Y-103616365D01*
X100527084Y-103632234D01*
X100899245Y-103728693D01*
X101003334Y-103865000D01*
X100884448Y-104048278D01*
X100844584Y-104047841D01*
X100527849Y-103988233D01*
X100209584Y-103927286D01*
X99812134Y-103692418D01*
X99733334Y-103426945D01*
X99880703Y-103085172D01*
X100322745Y-103047270D01*
X100721438Y-103167338D01*
G36*
X100721438Y-103167338D02*
G01*
X100951900Y-103289048D01*
X100818614Y-103391349D01*
X100580000Y-103463739D01*
X100225522Y-103572248D01*
X100266872Y-103616365D01*
X100527084Y-103632234D01*
X100899245Y-103728693D01*
X101003334Y-103865000D01*
X100884448Y-104048278D01*
X100844584Y-104047841D01*
X100527849Y-103988233D01*
X100209584Y-103927286D01*
X99812134Y-103692418D01*
X99733334Y-103426945D01*
X99880703Y-103085172D01*
X100322745Y-103047270D01*
X100721438Y-103167338D01*
G37*
X98458330Y-103282654D02*
X98554873Y-103497638D01*
X98524664Y-103653333D01*
X98380696Y-103982455D01*
X98279897Y-104047841D01*
X97984571Y-103988259D01*
X97681287Y-103928820D01*
X97348033Y-103757814D01*
X97346011Y-103547500D01*
X98040000Y-103547500D01*
X98145834Y-103653333D01*
X98251667Y-103547500D01*
X98145834Y-103441666D01*
X98040000Y-103547500D01*
X97346011Y-103547500D01*
X97345699Y-103515057D01*
X97620266Y-103304962D01*
X98042830Y-103230000D01*
X98458330Y-103282654D01*
G36*
X98458330Y-103282654D02*
G01*
X98554873Y-103497638D01*
X98524664Y-103653333D01*
X98380696Y-103982455D01*
X98279897Y-104047841D01*
X97984571Y-103988259D01*
X97681287Y-103928820D01*
X97348033Y-103757814D01*
X97346011Y-103547500D01*
X98040000Y-103547500D01*
X98145834Y-103653333D01*
X98251667Y-103547500D01*
X98145834Y-103441666D01*
X98040000Y-103547500D01*
X97346011Y-103547500D01*
X97345699Y-103515057D01*
X97620266Y-103304962D01*
X98042830Y-103230000D01*
X98458330Y-103282654D01*
G37*
X98680520Y-101930746D02*
X98545222Y-102120251D01*
X98457204Y-102179934D01*
X98277010Y-102341317D01*
X98422909Y-102380092D01*
X98598274Y-102501124D01*
X98569167Y-102595000D01*
X98283026Y-102747498D01*
X97815842Y-102806666D01*
X97375417Y-102744224D01*
X97193334Y-102595000D01*
X97373270Y-102421623D01*
X97669584Y-102362234D01*
X97982830Y-102337357D01*
X97911116Y-102277293D01*
X97616667Y-102188054D01*
X97299969Y-102081991D01*
X97328933Y-102011067D01*
X97737894Y-101931271D01*
X97828334Y-101916741D01*
X98434024Y-101859756D01*
X98680520Y-101930746D01*
G36*
X98680520Y-101930746D02*
G01*
X98545222Y-102120251D01*
X98457204Y-102179934D01*
X98277010Y-102341317D01*
X98422909Y-102380092D01*
X98598274Y-102501124D01*
X98569167Y-102595000D01*
X98283026Y-102747498D01*
X97815842Y-102806666D01*
X97375417Y-102744224D01*
X97193334Y-102595000D01*
X97373270Y-102421623D01*
X97669584Y-102362234D01*
X97982830Y-102337357D01*
X97911116Y-102277293D01*
X97616667Y-102188054D01*
X97299969Y-102081991D01*
X97328933Y-102011067D01*
X97737894Y-101931271D01*
X97828334Y-101916741D01*
X98434024Y-101859756D01*
X98680520Y-101930746D01*
G37*
X108771599Y-102702251D02*
X109089851Y-102976129D01*
X109070237Y-103344814D01*
X108933021Y-103525074D01*
X108578073Y-103810003D01*
X108250265Y-103798692D01*
X107935417Y-103636379D01*
X107625772Y-103269078D01*
X107616683Y-103230000D01*
X108094167Y-103230000D01*
X108355040Y-103433415D01*
X108411667Y-103441666D01*
X108685782Y-103288422D01*
X108729167Y-103230000D01*
X108662688Y-103064929D01*
X108411667Y-103018333D01*
X108111209Y-103097887D01*
X108094167Y-103230000D01*
X107616683Y-103230000D01*
X107565000Y-103007815D01*
X107675055Y-102699387D01*
X108072026Y-102596843D01*
X108174083Y-102595000D01*
X108771599Y-102702251D01*
G36*
X108771599Y-102702251D02*
G01*
X109089851Y-102976129D01*
X109070237Y-103344814D01*
X108933021Y-103525074D01*
X108578073Y-103810003D01*
X108250265Y-103798692D01*
X107935417Y-103636379D01*
X107625772Y-103269078D01*
X107616683Y-103230000D01*
X108094167Y-103230000D01*
X108355040Y-103433415D01*
X108411667Y-103441666D01*
X108685782Y-103288422D01*
X108729167Y-103230000D01*
X108662688Y-103064929D01*
X108411667Y-103018333D01*
X108111209Y-103097887D01*
X108094167Y-103230000D01*
X107616683Y-103230000D01*
X107565000Y-103007815D01*
X107675055Y-102699387D01*
X108072026Y-102596843D01*
X108174083Y-102595000D01*
X108771599Y-102702251D01*
G37*
X108637249Y-104719113D02*
X108986889Y-105105698D01*
X108999496Y-105606673D01*
X108792667Y-105939333D01*
X108285322Y-106178166D01*
X107684534Y-106045247D01*
X107483971Y-105920144D01*
X107241451Y-105663733D01*
X107248328Y-105566904D01*
X107581922Y-105566904D01*
X107755726Y-105736073D01*
X108147084Y-105731142D01*
X108592075Y-105577834D01*
X108729167Y-105349565D01*
X108563761Y-105060300D01*
X108200947Y-104953997D01*
X107840831Y-105068035D01*
X107752355Y-105167090D01*
X107581922Y-105566904D01*
X107248328Y-105566904D01*
X107265023Y-105331865D01*
X107371657Y-105073478D01*
X107703981Y-104611720D01*
X108151309Y-104529214D01*
X108637249Y-104719113D01*
G36*
X108637249Y-104719113D02*
G01*
X108986889Y-105105698D01*
X108999496Y-105606673D01*
X108792667Y-105939333D01*
X108285322Y-106178166D01*
X107684534Y-106045247D01*
X107483971Y-105920144D01*
X107241451Y-105663733D01*
X107248328Y-105566904D01*
X107581922Y-105566904D01*
X107755726Y-105736073D01*
X108147084Y-105731142D01*
X108592075Y-105577834D01*
X108729167Y-105349565D01*
X108563761Y-105060300D01*
X108200947Y-104953997D01*
X107840831Y-105068035D01*
X107752355Y-105167090D01*
X107581922Y-105566904D01*
X107248328Y-105566904D01*
X107265023Y-105331865D01*
X107371657Y-105073478D01*
X107703981Y-104611720D01*
X108151309Y-104529214D01*
X108637249Y-104719113D01*
G37*
X87048044Y-104522159D02*
X87575315Y-104580875D01*
X87793385Y-104664508D01*
X87790573Y-104685121D01*
X87528495Y-104784937D01*
X86999544Y-104822040D01*
X86719747Y-104813601D01*
X86089901Y-104815609D01*
X85801764Y-104930992D01*
X85763334Y-105051813D01*
X85571044Y-105274783D01*
X85075417Y-105325567D01*
X84634752Y-105303164D01*
X84588239Y-105252357D01*
X84906749Y-105138178D01*
X84916667Y-105135000D01*
X85217756Y-105006135D01*
X85101154Y-104946161D01*
X85075417Y-104944432D01*
X84760758Y-104826179D01*
X84705000Y-104711666D01*
X84902113Y-104605234D01*
X85436258Y-104530976D01*
X86221649Y-104500243D01*
X86304992Y-104500000D01*
X87048044Y-104522159D01*
G36*
X87048044Y-104522159D02*
G01*
X87575315Y-104580875D01*
X87793385Y-104664508D01*
X87790573Y-104685121D01*
X87528495Y-104784937D01*
X86999544Y-104822040D01*
X86719747Y-104813601D01*
X86089901Y-104815609D01*
X85801764Y-104930992D01*
X85763334Y-105051813D01*
X85571044Y-105274783D01*
X85075417Y-105325567D01*
X84634752Y-105303164D01*
X84588239Y-105252357D01*
X84906749Y-105138178D01*
X84916667Y-105135000D01*
X85217756Y-105006135D01*
X85101154Y-104946161D01*
X85075417Y-104944432D01*
X84760758Y-104826179D01*
X84705000Y-104711666D01*
X84902113Y-104605234D01*
X85436258Y-104530976D01*
X86221649Y-104500243D01*
X86304992Y-104500000D01*
X87048044Y-104522159D01*
G37*
X89205589Y-102451516D02*
X90252368Y-102477916D01*
X91192893Y-102520546D01*
X91936793Y-102577519D01*
X92393699Y-102646948D01*
X92486899Y-102686343D01*
X92509488Y-102903628D01*
X92501389Y-102912500D01*
X92285147Y-102907184D01*
X92274658Y-102897436D01*
X92033868Y-102857665D01*
X91439720Y-102821566D01*
X90562189Y-102791598D01*
X89471248Y-102770222D01*
X88376464Y-102760411D01*
X87060128Y-102751288D01*
X86135948Y-102735220D01*
X85572769Y-102709650D01*
X85339436Y-102672021D01*
X85404795Y-102619775D01*
X85737690Y-102550357D01*
X85763334Y-102545958D01*
X86331428Y-102488567D01*
X87154749Y-102454955D01*
X88142926Y-102443234D01*
X89205589Y-102451516D01*
G36*
X89205589Y-102451516D02*
G01*
X90252368Y-102477916D01*
X91192893Y-102520546D01*
X91936793Y-102577519D01*
X92393699Y-102646948D01*
X92486899Y-102686343D01*
X92509488Y-102903628D01*
X92501389Y-102912500D01*
X92285147Y-102907184D01*
X92274658Y-102897436D01*
X92033868Y-102857665D01*
X91439720Y-102821566D01*
X90562189Y-102791598D01*
X89471248Y-102770222D01*
X88376464Y-102760411D01*
X87060128Y-102751288D01*
X86135948Y-102735220D01*
X85572769Y-102709650D01*
X85339436Y-102672021D01*
X85404795Y-102619775D01*
X85737690Y-102550357D01*
X85763334Y-102545958D01*
X86331428Y-102488567D01*
X87154749Y-102454955D01*
X88142926Y-102443234D01*
X89205589Y-102451516D01*
G37*
X94343008Y-105639078D02*
X95120565Y-105686909D01*
X95870078Y-105765199D01*
X96479753Y-105866685D01*
X96837798Y-105984100D01*
X96865250Y-106004794D01*
X96850312Y-106143532D01*
X96494833Y-106193333D01*
X96077229Y-106260872D01*
X95923334Y-106405000D01*
X95731588Y-106519141D01*
X95235390Y-106595991D01*
X94716833Y-106616666D01*
X94050913Y-106587361D01*
X93717748Y-106506157D01*
X93711417Y-106422923D01*
X94063437Y-106237489D01*
X94441667Y-106134248D01*
X94574182Y-106075944D01*
X94327144Y-106029488D01*
X93965417Y-106010491D01*
X93365555Y-105949359D01*
X93009278Y-105825706D01*
X92960000Y-105750998D01*
X93150932Y-105663858D01*
X93649199Y-105628972D01*
X94343008Y-105639078D01*
G36*
X94343008Y-105639078D02*
G01*
X95120565Y-105686909D01*
X95870078Y-105765199D01*
X96479753Y-105866685D01*
X96837798Y-105984100D01*
X96865250Y-106004794D01*
X96850312Y-106143532D01*
X96494833Y-106193333D01*
X96077229Y-106260872D01*
X95923334Y-106405000D01*
X95731588Y-106519141D01*
X95235390Y-106595991D01*
X94716833Y-106616666D01*
X94050913Y-106587361D01*
X93717748Y-106506157D01*
X93711417Y-106422923D01*
X94063437Y-106237489D01*
X94441667Y-106134248D01*
X94574182Y-106075944D01*
X94327144Y-106029488D01*
X93965417Y-106010491D01*
X93365555Y-105949359D01*
X93009278Y-105825706D01*
X92960000Y-105750998D01*
X93150932Y-105663858D01*
X93649199Y-105628972D01*
X94343008Y-105639078D01*
G37*
X103133957Y-104446149D02*
X103805396Y-104527142D01*
X104334498Y-104645653D01*
X104593515Y-104790118D01*
X104601667Y-104820839D01*
X104781554Y-105077953D01*
X105077917Y-105197286D01*
X105161151Y-105251611D01*
X104882217Y-105296888D01*
X104465563Y-105317841D01*
X103741822Y-105294482D01*
X103355514Y-105163648D01*
X103255123Y-105029166D01*
X102978194Y-104817500D01*
X103543334Y-104817500D01*
X103649167Y-104923333D01*
X103755000Y-104817500D01*
X103649167Y-104711666D01*
X103543334Y-104817500D01*
X102978194Y-104817500D01*
X102944217Y-104791531D01*
X102248871Y-104711678D01*
X102237643Y-104711666D01*
X101740961Y-104677932D01*
X101523459Y-104592699D01*
X101543084Y-104543934D01*
X101875054Y-104442980D01*
X102447928Y-104414239D01*
X103133957Y-104446149D01*
G36*
X103133957Y-104446149D02*
G01*
X103805396Y-104527142D01*
X104334498Y-104645653D01*
X104593515Y-104790118D01*
X104601667Y-104820839D01*
X104781554Y-105077953D01*
X105077917Y-105197286D01*
X105161151Y-105251611D01*
X104882217Y-105296888D01*
X104465563Y-105317841D01*
X103741822Y-105294482D01*
X103355514Y-105163648D01*
X103255123Y-105029166D01*
X102978194Y-104817500D01*
X103543334Y-104817500D01*
X103649167Y-104923333D01*
X103755000Y-104817500D01*
X103649167Y-104711666D01*
X103543334Y-104817500D01*
X102978194Y-104817500D01*
X102944217Y-104791531D01*
X102248871Y-104711678D01*
X102237643Y-104711666D01*
X101740961Y-104677932D01*
X101523459Y-104592699D01*
X101543084Y-104543934D01*
X101875054Y-104442980D01*
X102447928Y-104414239D01*
X103133957Y-104446149D01*
G37*
X105178581Y-103289785D02*
X105167948Y-103369274D01*
X105162012Y-103623788D01*
X105264421Y-103792608D01*
X105309786Y-103928180D01*
X105132920Y-104013766D01*
X104672662Y-104059614D01*
X103867848Y-104075974D01*
X103569251Y-104076666D01*
X102656869Y-104069770D01*
X102087688Y-104037379D01*
X101781649Y-103961943D01*
X101658696Y-103825908D01*
X101638334Y-103653333D01*
X101747998Y-103333930D01*
X102144306Y-103233935D01*
X102220417Y-103233241D01*
X102585420Y-103275484D01*
X102543869Y-103399821D01*
X102521225Y-103414799D01*
X102496053Y-103555590D01*
X102893454Y-103678363D01*
X103156225Y-103720445D01*
X103833218Y-103759676D01*
X104220813Y-103628251D01*
X104307502Y-103538887D01*
X104706340Y-103270166D01*
X104924863Y-103230000D01*
X105178581Y-103289785D01*
G36*
X105178581Y-103289785D02*
G01*
X105167948Y-103369274D01*
X105162012Y-103623788D01*
X105264421Y-103792608D01*
X105309786Y-103928180D01*
X105132920Y-104013766D01*
X104672662Y-104059614D01*
X103867848Y-104075974D01*
X103569251Y-104076666D01*
X102656869Y-104069770D01*
X102087688Y-104037379D01*
X101781649Y-103961943D01*
X101658696Y-103825908D01*
X101638334Y-103653333D01*
X101747998Y-103333930D01*
X102144306Y-103233935D01*
X102220417Y-103233241D01*
X102585420Y-103275484D01*
X102543869Y-103399821D01*
X102521225Y-103414799D01*
X102496053Y-103555590D01*
X102893454Y-103678363D01*
X103156225Y-103720445D01*
X103833218Y-103759676D01*
X104220813Y-103628251D01*
X104307502Y-103538887D01*
X104706340Y-103270166D01*
X104924863Y-103230000D01*
X105178581Y-103289785D01*
G37*
X100050848Y-105823103D02*
X100672571Y-105847549D01*
X100996840Y-105887497D01*
X101003334Y-105924282D01*
X100634447Y-106158052D01*
X100546565Y-106258958D01*
X100273674Y-106392676D01*
X99716755Y-106512327D01*
X99220121Y-106571223D01*
X98547997Y-106611136D01*
X98212549Y-106574977D01*
X98131135Y-106444841D01*
X98158941Y-106341334D01*
X98150778Y-106263888D01*
X98745556Y-106263888D01*
X98774611Y-106389724D01*
X98886667Y-106405000D01*
X99060892Y-106327554D01*
X99027778Y-106263888D01*
X98776579Y-106238556D01*
X98745556Y-106263888D01*
X98150778Y-106263888D01*
X98131069Y-106076908D01*
X97747514Y-105933076D01*
X97686218Y-105923212D01*
X97627313Y-105885243D01*
X97933092Y-105852254D01*
X98544904Y-105828294D01*
X99204167Y-105818424D01*
X100050848Y-105823103D01*
G36*
X100050848Y-105823103D02*
G01*
X100672571Y-105847549D01*
X100996840Y-105887497D01*
X101003334Y-105924282D01*
X100634447Y-106158052D01*
X100546565Y-106258958D01*
X100273674Y-106392676D01*
X99716755Y-106512327D01*
X99220121Y-106571223D01*
X98547997Y-106611136D01*
X98212549Y-106574977D01*
X98131135Y-106444841D01*
X98158941Y-106341334D01*
X98150778Y-106263888D01*
X98745556Y-106263888D01*
X98774611Y-106389724D01*
X98886667Y-106405000D01*
X99060892Y-106327554D01*
X99027778Y-106263888D01*
X98776579Y-106238556D01*
X98745556Y-106263888D01*
X98150778Y-106263888D01*
X98131069Y-106076908D01*
X97747514Y-105933076D01*
X97686218Y-105923212D01*
X97627313Y-105885243D01*
X97933092Y-105852254D01*
X98544904Y-105828294D01*
X99204167Y-105818424D01*
X100050848Y-105823103D01*
G37*
X90102500Y-104524907D02*
X90832465Y-104540839D01*
X91175979Y-104571666D01*
X91169890Y-104626832D01*
X90851044Y-104715783D01*
X90849025Y-104716258D01*
X90339964Y-104889886D01*
X90051656Y-105089885D01*
X90037636Y-105117925D01*
X89811330Y-105276590D01*
X89394015Y-105340801D01*
X88973013Y-105308119D01*
X88735651Y-105176103D01*
X88726667Y-105135000D01*
X88894096Y-104936148D01*
X88991250Y-104920092D01*
X89101437Y-104846915D01*
X89023421Y-104782222D01*
X89432222Y-104782222D01*
X89461278Y-104908057D01*
X89573334Y-104923333D01*
X89747559Y-104845887D01*
X89714445Y-104782222D01*
X89463246Y-104756889D01*
X89432222Y-104782222D01*
X89023421Y-104782222D01*
X88938334Y-104711666D01*
X88908579Y-104599809D01*
X89259419Y-104538264D01*
X90010174Y-104523932D01*
X90102500Y-104524907D01*
G36*
X90102500Y-104524907D02*
G01*
X90832465Y-104540839D01*
X91175979Y-104571666D01*
X91169890Y-104626832D01*
X90851044Y-104715783D01*
X90849025Y-104716258D01*
X90339964Y-104889886D01*
X90051656Y-105089885D01*
X90037636Y-105117925D01*
X89811330Y-105276590D01*
X89394015Y-105340801D01*
X88973013Y-105308119D01*
X88735651Y-105176103D01*
X88726667Y-105135000D01*
X88894096Y-104936148D01*
X88991250Y-104920092D01*
X89101437Y-104846915D01*
X89023421Y-104782222D01*
X89432222Y-104782222D01*
X89461278Y-104908057D01*
X89573334Y-104923333D01*
X89747559Y-104845887D01*
X89714445Y-104782222D01*
X89463246Y-104756889D01*
X89432222Y-104782222D01*
X89023421Y-104782222D01*
X88938334Y-104711666D01*
X88908579Y-104599809D01*
X89259419Y-104538264D01*
X90010174Y-104523932D01*
X90102500Y-104524907D01*
G37*
X112888826Y-102767097D02*
X113162815Y-102931386D01*
X113542430Y-103521479D01*
X113587616Y-104249027D01*
X113443307Y-104839831D01*
X113209246Y-105392371D01*
X112906561Y-105650030D01*
X112538125Y-105726625D01*
X111996421Y-105689868D01*
X111638542Y-105525541D01*
X111446954Y-105084590D01*
X111409022Y-104401613D01*
X111798334Y-104401613D01*
X111820981Y-104986746D01*
X111930734Y-105262857D01*
X112190312Y-105343555D01*
X112320053Y-105346666D01*
X112827947Y-105185556D01*
X113060886Y-104937248D01*
X113273967Y-104286218D01*
X113241116Y-103705232D01*
X113006551Y-103286105D01*
X112614489Y-103120651D01*
X112235197Y-103222758D01*
X111944551Y-103485504D01*
X111817052Y-103946331D01*
X111798334Y-104401613D01*
X111409022Y-104401613D01*
X111408333Y-104389217D01*
X111527995Y-103581755D01*
X111561198Y-103455197D01*
X111863502Y-103005411D01*
X112361655Y-102757857D01*
X112888826Y-102767097D01*
G36*
X112888826Y-102767097D02*
G01*
X113162815Y-102931386D01*
X113542430Y-103521479D01*
X113587616Y-104249027D01*
X113443307Y-104839831D01*
X113209246Y-105392371D01*
X112906561Y-105650030D01*
X112538125Y-105726625D01*
X111996421Y-105689868D01*
X111638542Y-105525541D01*
X111446954Y-105084590D01*
X111409022Y-104401613D01*
X111798334Y-104401613D01*
X111820981Y-104986746D01*
X111930734Y-105262857D01*
X112190312Y-105343555D01*
X112320053Y-105346666D01*
X112827947Y-105185556D01*
X113060886Y-104937248D01*
X113273967Y-104286218D01*
X113241116Y-103705232D01*
X113006551Y-103286105D01*
X112614489Y-103120651D01*
X112235197Y-103222758D01*
X111944551Y-103485504D01*
X111817052Y-103946331D01*
X111798334Y-104401613D01*
X111409022Y-104401613D01*
X111408333Y-104389217D01*
X111527995Y-103581755D01*
X111561198Y-103455197D01*
X111863502Y-103005411D01*
X112361655Y-102757857D01*
X112888826Y-102767097D01*
G37*
X109019767Y-101364691D02*
X109413334Y-101532354D01*
X109745336Y-101921826D01*
X109840417Y-102065484D01*
X110221192Y-102789793D01*
X110279456Y-103347491D01*
X110022496Y-103837382D01*
X109975096Y-103891598D01*
X109754036Y-104272074D01*
X109803178Y-104745938D01*
X109850948Y-104892731D01*
X109894044Y-105610773D01*
X109568316Y-106290601D01*
X109164769Y-106666342D01*
X108789079Y-106780885D01*
X108173833Y-106833808D01*
X107451081Y-106830496D01*
X106752872Y-106776335D01*
X106211254Y-106676711D01*
X105958274Y-106537009D01*
X105957693Y-106535541D01*
X105961426Y-106255017D01*
X106360716Y-106255017D01*
X106619852Y-106417987D01*
X106856590Y-106463081D01*
X107766232Y-106565161D01*
X108396288Y-106532043D01*
X108874226Y-106344804D01*
X109179128Y-106118286D01*
X109553075Y-105752973D01*
X109641141Y-105441935D01*
X109495132Y-104984141D01*
X109480515Y-104948717D01*
X109317455Y-104448784D01*
X109376132Y-104120296D01*
X109547916Y-103895847D01*
X109844736Y-103315599D01*
X109786248Y-102723300D01*
X109428521Y-102206806D01*
X108827624Y-101853969D01*
X108177367Y-101748333D01*
X107794606Y-101754871D01*
X107531148Y-101822880D01*
X107343111Y-102024947D01*
X107186611Y-102433660D01*
X107017766Y-103121610D01*
X106833764Y-103970833D01*
X106655202Y-104780661D01*
X106493734Y-105478529D01*
X106384487Y-105912713D01*
X106360716Y-106255017D01*
X105961426Y-106255017D01*
X105962623Y-106165115D01*
X106114577Y-105608842D01*
X106176002Y-105451358D01*
X106393655Y-104798190D01*
X106503469Y-104209744D01*
X106506667Y-104128291D01*
X106574270Y-103525305D01*
X106743794Y-102783755D01*
X106965306Y-102085252D01*
X107188876Y-101611409D01*
X107204644Y-101589583D01*
X107522931Y-101431148D01*
X108094008Y-101338121D01*
X108384668Y-101327620D01*
X109019767Y-101364691D01*
G36*
X109019767Y-101364691D02*
G01*
X109413334Y-101532354D01*
X109745336Y-101921826D01*
X109840417Y-102065484D01*
X110221192Y-102789793D01*
X110279456Y-103347491D01*
X110022496Y-103837382D01*
X109975096Y-103891598D01*
X109754036Y-104272074D01*
X109803178Y-104745938D01*
X109850948Y-104892731D01*
X109894044Y-105610773D01*
X109568316Y-106290601D01*
X109164769Y-106666342D01*
X108789079Y-106780885D01*
X108173833Y-106833808D01*
X107451081Y-106830496D01*
X106752872Y-106776335D01*
X106211254Y-106676711D01*
X105958274Y-106537009D01*
X105957693Y-106535541D01*
X105961426Y-106255017D01*
X106360716Y-106255017D01*
X106619852Y-106417987D01*
X106856590Y-106463081D01*
X107766232Y-106565161D01*
X108396288Y-106532043D01*
X108874226Y-106344804D01*
X109179128Y-106118286D01*
X109553075Y-105752973D01*
X109641141Y-105441935D01*
X109495132Y-104984141D01*
X109480515Y-104948717D01*
X109317455Y-104448784D01*
X109376132Y-104120296D01*
X109547916Y-103895847D01*
X109844736Y-103315599D01*
X109786248Y-102723300D01*
X109428521Y-102206806D01*
X108827624Y-101853969D01*
X108177367Y-101748333D01*
X107794606Y-101754871D01*
X107531148Y-101822880D01*
X107343111Y-102024947D01*
X107186611Y-102433660D01*
X107017766Y-103121610D01*
X106833764Y-103970833D01*
X106655202Y-104780661D01*
X106493734Y-105478529D01*
X106384487Y-105912713D01*
X106360716Y-106255017D01*
X105961426Y-106255017D01*
X105962623Y-106165115D01*
X106114577Y-105608842D01*
X106176002Y-105451358D01*
X106393655Y-104798190D01*
X106503469Y-104209744D01*
X106506667Y-104128291D01*
X106574270Y-103525305D01*
X106743794Y-102783755D01*
X106965306Y-102085252D01*
X107188876Y-101611409D01*
X107204644Y-101589583D01*
X107522931Y-101431148D01*
X108094008Y-101338121D01*
X108384668Y-101327620D01*
X109019767Y-101364691D01*
G37*
X114988804Y-101453810D02*
X115475781Y-101762861D01*
X115783127Y-102136080D01*
X115820000Y-102289502D01*
X115884215Y-102548568D01*
X116106623Y-102519441D01*
X116531871Y-102185857D01*
X116801388Y-101932000D01*
X117375906Y-101500551D01*
X117822930Y-101409059D01*
X118092086Y-101654746D01*
X118147829Y-102006273D01*
X118032181Y-102418836D01*
X117729359Y-103037747D01*
X117304712Y-103729588D01*
X117301162Y-103734818D01*
X116871793Y-104421404D01*
X116556505Y-105028504D01*
X116422947Y-105425708D01*
X116422760Y-105428152D01*
X116385615Y-105940739D01*
X116368766Y-106170944D01*
X116187400Y-106519448D01*
X115981644Y-106696523D01*
X115615047Y-106800713D01*
X115245177Y-106555891D01*
X115019864Y-106204520D01*
X114926832Y-105667233D01*
X114933644Y-104971979D01*
X114909572Y-104020257D01*
X114733481Y-103410604D01*
X114697635Y-103356074D01*
X114502277Y-103120871D01*
X114450979Y-103209729D01*
X114499849Y-103619259D01*
X114505476Y-104686505D01*
X114232340Y-105639094D01*
X113729235Y-106399791D01*
X113044954Y-106891361D01*
X112338790Y-107040000D01*
X111535143Y-106874996D01*
X111047879Y-106520454D01*
X110685910Y-106006911D01*
X110506808Y-105321211D01*
X110501064Y-104993335D01*
X110822940Y-104993335D01*
X110994811Y-105807904D01*
X111296876Y-106296637D01*
X111837795Y-106572293D01*
X112528756Y-106596227D01*
X113188776Y-106380596D01*
X113487062Y-106149512D01*
X113836248Y-105625146D01*
X114115296Y-104959828D01*
X114139127Y-104877058D01*
X114244615Y-104264524D01*
X114161111Y-103700727D01*
X113943729Y-103139815D01*
X113436599Y-102303509D01*
X112864208Y-101876586D01*
X112268541Y-101858909D01*
X111691586Y-102250336D01*
X111175331Y-103050731D01*
X111130485Y-103149128D01*
X110865719Y-104060810D01*
X110822940Y-104993335D01*
X110501064Y-104993335D01*
X110490056Y-104365020D01*
X110516586Y-103974230D01*
X110729026Y-103059335D01*
X111157565Y-102310284D01*
X111731705Y-101778080D01*
X112380952Y-101513726D01*
X113034808Y-101568227D01*
X113471781Y-101836170D01*
X113768926Y-102065419D01*
X113908387Y-101972567D01*
X113943466Y-101857413D01*
X114375168Y-101857413D01*
X114452606Y-102120980D01*
X114713974Y-102636981D01*
X114883823Y-102954216D01*
X115217949Y-103672196D01*
X115340358Y-104278751D01*
X115298947Y-104983179D01*
X115239560Y-105764429D01*
X115325677Y-106210657D01*
X115578226Y-106391429D01*
X115726659Y-106405000D01*
X115968384Y-106220164D01*
X116031667Y-105869034D01*
X116177043Y-105062477D01*
X116563590Y-104144977D01*
X117116932Y-103287805D01*
X117192938Y-103194839D01*
X117538235Y-102671812D01*
X117711976Y-102182480D01*
X117688333Y-101840256D01*
X117522357Y-101748333D01*
X117278294Y-101900482D01*
X116900259Y-102283999D01*
X116728607Y-102489160D01*
X116350339Y-102935121D01*
X116083065Y-103199115D01*
X116026884Y-103229993D01*
X115866733Y-103062370D01*
X115603496Y-102644636D01*
X115517303Y-102489166D01*
X115147427Y-101981507D01*
X114773046Y-101751999D01*
X114728336Y-101748333D01*
X114470723Y-101761468D01*
X114375168Y-101857413D01*
X113943466Y-101857413D01*
X113974118Y-101756795D01*
X114231061Y-101404893D01*
X114483087Y-101325000D01*
X114988804Y-101453810D01*
G36*
X114988804Y-101453810D02*
G01*
X115475781Y-101762861D01*
X115783127Y-102136080D01*
X115820000Y-102289502D01*
X115884215Y-102548568D01*
X116106623Y-102519441D01*
X116531871Y-102185857D01*
X116801388Y-101932000D01*
X117375906Y-101500551D01*
X117822930Y-101409059D01*
X118092086Y-101654746D01*
X118147829Y-102006273D01*
X118032181Y-102418836D01*
X117729359Y-103037747D01*
X117304712Y-103729588D01*
X117301162Y-103734818D01*
X116871793Y-104421404D01*
X116556505Y-105028504D01*
X116422947Y-105425708D01*
X116422760Y-105428152D01*
X116385615Y-105940739D01*
X116368766Y-106170944D01*
X116187400Y-106519448D01*
X115981644Y-106696523D01*
X115615047Y-106800713D01*
X115245177Y-106555891D01*
X115019864Y-106204520D01*
X114926832Y-105667233D01*
X114933644Y-104971979D01*
X114909572Y-104020257D01*
X114733481Y-103410604D01*
X114697635Y-103356074D01*
X114502277Y-103120871D01*
X114450979Y-103209729D01*
X114499849Y-103619259D01*
X114505476Y-104686505D01*
X114232340Y-105639094D01*
X113729235Y-106399791D01*
X113044954Y-106891361D01*
X112338790Y-107040000D01*
X111535143Y-106874996D01*
X111047879Y-106520454D01*
X110685910Y-106006911D01*
X110506808Y-105321211D01*
X110501064Y-104993335D01*
X110822940Y-104993335D01*
X110994811Y-105807904D01*
X111296876Y-106296637D01*
X111837795Y-106572293D01*
X112528756Y-106596227D01*
X113188776Y-106380596D01*
X113487062Y-106149512D01*
X113836248Y-105625146D01*
X114115296Y-104959828D01*
X114139127Y-104877058D01*
X114244615Y-104264524D01*
X114161111Y-103700727D01*
X113943729Y-103139815D01*
X113436599Y-102303509D01*
X112864208Y-101876586D01*
X112268541Y-101858909D01*
X111691586Y-102250336D01*
X111175331Y-103050731D01*
X111130485Y-103149128D01*
X110865719Y-104060810D01*
X110822940Y-104993335D01*
X110501064Y-104993335D01*
X110490056Y-104365020D01*
X110516586Y-103974230D01*
X110729026Y-103059335D01*
X111157565Y-102310284D01*
X111731705Y-101778080D01*
X112380952Y-101513726D01*
X113034808Y-101568227D01*
X113471781Y-101836170D01*
X113768926Y-102065419D01*
X113908387Y-101972567D01*
X113943466Y-101857413D01*
X114375168Y-101857413D01*
X114452606Y-102120980D01*
X114713974Y-102636981D01*
X114883823Y-102954216D01*
X115217949Y-103672196D01*
X115340358Y-104278751D01*
X115298947Y-104983179D01*
X115239560Y-105764429D01*
X115325677Y-106210657D01*
X115578226Y-106391429D01*
X115726659Y-106405000D01*
X115968384Y-106220164D01*
X116031667Y-105869034D01*
X116177043Y-105062477D01*
X116563590Y-104144977D01*
X117116932Y-103287805D01*
X117192938Y-103194839D01*
X117538235Y-102671812D01*
X117711976Y-102182480D01*
X117688333Y-101840256D01*
X117522357Y-101748333D01*
X117278294Y-101900482D01*
X116900259Y-102283999D01*
X116728607Y-102489160D01*
X116350339Y-102935121D01*
X116083065Y-103199115D01*
X116026884Y-103229993D01*
X115866733Y-103062370D01*
X115603496Y-102644636D01*
X115517303Y-102489166D01*
X115147427Y-101981507D01*
X114773046Y-101751999D01*
X114728336Y-101748333D01*
X114470723Y-101761468D01*
X114375168Y-101857413D01*
X113943466Y-101857413D01*
X113974118Y-101756795D01*
X114231061Y-101404893D01*
X114483087Y-101325000D01*
X114988804Y-101453810D01*
G37*
%TD*%
M02*
