%TF.GenerationSoftware,KiCad,Pcbnew,7.0.9*%
%TF.CreationDate,2024-07-10T14:31:20+10:00*%
%TF.ProjectId,default_panel,64656661-756c-4745-9f70-616e656c2e6b,rev?*%
%TF.SameCoordinates,Original*%
%TF.FileFunction,Profile,NP*%
%FSLAX46Y46*%
G04 Gerber Fmt 4.6, Leading zero omitted, Abs format (unit mm)*
G04 Created by KiCad (PCBNEW 7.0.9) date 2024-07-10 14:31:20*
%MOMM*%
%LPD*%
G01*
G04 APERTURE LIST*
%TA.AperFunction,Profile*%
%ADD10C,0.100000*%
%TD*%
%TA.AperFunction,Profile*%
%ADD11C,0.150000*%
%TD*%
G04 APERTURE END LIST*
D10*
X111800000Y-132900000D02*
G75*
G03*
X111800000Y-132900000I-6800000J0D01*
G01*
X137096765Y-50838475D02*
G75*
G03*
X137096765Y-50838475I-5500000J0D01*
G01*
X98100000Y-118300000D02*
G75*
G03*
X98100000Y-118300000I-6800000J0D01*
G01*
X125400000Y-118400000D02*
G75*
G03*
X125400000Y-118400000I-6800000J0D01*
G01*
D11*
X181650000Y-144750000D02*
X81650000Y-144750000D01*
D10*
X173200001Y-68200000D02*
G75*
G03*
X173200001Y-68200000I-1J0D01*
G01*
X169100000Y-132900000D02*
G75*
G03*
X169100000Y-132900000I-6800000J0D01*
G01*
X96000001Y-55500000D02*
G75*
G03*
X96000001Y-55500000I-1J0D01*
G01*
X179850000Y-48238276D02*
G75*
G03*
X179850000Y-48238276I-1711724J0D01*
G01*
X94200000Y-88700000D02*
G75*
G03*
X94200000Y-88700000I-4000000J0D01*
G01*
X95800000Y-54200000D02*
G75*
G03*
X95800000Y-54200000I-3500000J0D01*
G01*
X174389752Y-54600000D02*
G75*
G03*
X174389752Y-54600000I-3500000J0D01*
G01*
X94000000Y-71900000D02*
G75*
G03*
X94000000Y-71900000I-4000000J0D01*
G01*
X117094876Y-54300000D02*
G75*
G03*
X117094876Y-54300000I-3500000J0D01*
G01*
X86861724Y-141261724D02*
G75*
G03*
X86861724Y-141261724I-1711724J0D01*
G01*
X153094876Y-54500000D02*
G75*
G03*
X153094876Y-54500000I-3500000J0D01*
G01*
D11*
X81650000Y-44750000D02*
X181650000Y-44750000D01*
D10*
X103700000Y-62600000D02*
X159600000Y-62600000D01*
X159600000Y-97700000D01*
X103700000Y-97700000D01*
X103700000Y-62600000D01*
X160100000Y-116800000D02*
G75*
G03*
X160100000Y-116800000I-6200000J0D01*
G01*
X177900000Y-88700000D02*
G75*
G03*
X177900000Y-88700000I-4000000J0D01*
G01*
X139100000Y-132900000D02*
G75*
G03*
X139100000Y-132900000I-6800000J0D01*
G01*
X177900000Y-72100000D02*
G75*
G03*
X177900000Y-72100000I-4000000J0D01*
G01*
X86861724Y-48250000D02*
G75*
G03*
X86861724Y-48250000I-1711724J0D01*
G01*
D11*
X181650000Y-44750000D02*
X181650000Y-144750000D01*
D10*
X179850000Y-141250000D02*
G75*
G03*
X179850000Y-141250000I-1711724J0D01*
G01*
D11*
X81650000Y-144750000D02*
X81650000Y-44750000D01*
M02*
