G04 #@! TF.GenerationSoftware,KiCad,Pcbnew,6.0.7*
G04 #@! TF.CreationDate,2022-12-24T12:27:27+13:00*
G04 #@! TF.ProjectId,recurBOY,72656375-7242-44f5-992e-6b696361645f,v0_7_1*
G04 #@! TF.SameCoordinates,Original*
G04 #@! TF.FileFunction,Legend,Top*
G04 #@! TF.FilePolarity,Positive*
%FSLAX46Y46*%
G04 Gerber Fmt 4.6, Leading zero omitted, Abs format (unit mm)*
G04 Created by KiCad (PCBNEW 6.0.7) date 2022-12-24 12:27:27*
%MOMM*%
%LPD*%
G01*
G04 APERTURE LIST*
%ADD10C,0.600000*%
%ADD11C,0.200000*%
%ADD12C,0.800000*%
%ADD13C,0.500000*%
%ADD14C,0.300000*%
%ADD15C,0.150000*%
%ADD16C,0.010000*%
%ADD17C,0.120000*%
%ADD18C,0.127000*%
%ADD19C,0.400000*%
G04 APERTURE END LIST*
D10*
X116300000Y-116500000D02*
X116300000Y-119200000D01*
D11*
X183000000Y-88000000D02*
X183000000Y-53000000D01*
X127000000Y-53000000D02*
X127000000Y-88000000D01*
X158000000Y-65000000D02*
X190500000Y-65000000D01*
X127000000Y-88000000D02*
X183000000Y-88000000D01*
X125500000Y-65000000D02*
X158000000Y-65000000D01*
X155000000Y-53000000D02*
X127000000Y-53000000D01*
X190500000Y-65000000D02*
X190500000Y-35200000D01*
X183000000Y-53000000D02*
X155000000Y-53000000D01*
D10*
X118100000Y-116500000D02*
X118100000Y-119200000D01*
D11*
X187500000Y-35000000D02*
X122500000Y-35000000D01*
X125500000Y-35000000D02*
X125500000Y-65000000D01*
D12*
X184726190Y-105742857D02*
X187773809Y-106885714D01*
X184726190Y-108028571D01*
X169573809Y-108057142D02*
X166526190Y-106914285D01*
X169573809Y-105771428D01*
D13*
X153300000Y-131885714D02*
X152300000Y-131885714D01*
X152300000Y-133457142D02*
X152300000Y-130457142D01*
X153728571Y-130457142D01*
X154585714Y-130457142D02*
X156585714Y-133457142D01*
X156585714Y-130457142D02*
X154585714Y-133457142D01*
D12*
X175892857Y-100723809D02*
X177035714Y-97676190D01*
X178178571Y-100723809D01*
D13*
X111400000Y-116771428D02*
X111400000Y-119057142D01*
X111542857Y-116914285D02*
X111542857Y-118914285D01*
X111685714Y-116914285D02*
X111685714Y-118914285D01*
X111828571Y-117057142D02*
X111828571Y-118771428D01*
X111971428Y-117057142D02*
X111971428Y-118771428D01*
X112114285Y-117200000D02*
X112114285Y-118628571D01*
X112257142Y-117200000D02*
X112257142Y-118628571D01*
X112400000Y-117342857D02*
X112400000Y-118485714D01*
X112542857Y-117485714D02*
X112542857Y-118342857D01*
X112685714Y-117485714D02*
X112685714Y-118342857D01*
X112828571Y-117628571D02*
X112828571Y-118200000D01*
X112971428Y-117628571D02*
X112971428Y-118200000D01*
X113114285Y-117914285D02*
X113257142Y-117914285D01*
X113114285Y-117771428D02*
X113114285Y-118057142D01*
X111257142Y-116771428D02*
X113400000Y-117914285D01*
X111257142Y-119057142D01*
X113542857Y-117914285D02*
X111257142Y-119200000D01*
X111257142Y-116628571D01*
X113542857Y-117914285D01*
D12*
X178307142Y-113476190D02*
X177164285Y-116523809D01*
X176021428Y-113476190D01*
D13*
X178021428Y-133764285D02*
X178450000Y-133907142D01*
X179164285Y-133907142D01*
X179450000Y-133764285D01*
X179592857Y-133621428D01*
X179735714Y-133335714D01*
X179735714Y-133050000D01*
X179592857Y-132764285D01*
X179450000Y-132621428D01*
X179164285Y-132478571D01*
X178592857Y-132335714D01*
X178307142Y-132192857D01*
X178164285Y-132050000D01*
X178021428Y-131764285D01*
X178021428Y-131478571D01*
X178164285Y-131192857D01*
X178307142Y-131050000D01*
X178592857Y-130907142D01*
X179307142Y-130907142D01*
X179735714Y-131050000D01*
X181021428Y-132335714D02*
X182021428Y-132335714D01*
X182450000Y-133907142D02*
X181021428Y-133907142D01*
X181021428Y-130907142D01*
X182450000Y-130907142D01*
X185164285Y-133907142D02*
X183735714Y-133907142D01*
X183735714Y-130907142D01*
X186164285Y-132335714D02*
X187164285Y-132335714D01*
X187592857Y-133907142D02*
X186164285Y-133907142D01*
X186164285Y-130907142D01*
X187592857Y-130907142D01*
X190592857Y-133621428D02*
X190450000Y-133764285D01*
X190021428Y-133907142D01*
X189735714Y-133907142D01*
X189307142Y-133764285D01*
X189021428Y-133478571D01*
X188878571Y-133192857D01*
X188735714Y-132621428D01*
X188735714Y-132192857D01*
X188878571Y-131621428D01*
X189021428Y-131335714D01*
X189307142Y-131050000D01*
X189735714Y-130907142D01*
X190021428Y-130907142D01*
X190450000Y-131050000D01*
X190592857Y-131192857D01*
X191450000Y-130907142D02*
X193164285Y-130907142D01*
X192307142Y-133907142D02*
X192307142Y-130907142D01*
D14*
X202380285Y-89695000D02*
X202323142Y-89580714D01*
X202323142Y-89352142D01*
X202380285Y-89237857D01*
X202437428Y-89180714D01*
X202551714Y-89123571D01*
X202894571Y-89123571D01*
X203008857Y-89180714D01*
X203066000Y-89237857D01*
X203123142Y-89352142D01*
X203123142Y-89580714D01*
X203066000Y-89695000D01*
X203123142Y-90095000D02*
X202323142Y-90380714D01*
X203123142Y-90666428D02*
X202323142Y-90380714D01*
X202037428Y-90266428D01*
X201980285Y-90209285D01*
X201923142Y-90095000D01*
X202323142Y-91123571D02*
X203523142Y-91123571D01*
X203066000Y-91123571D02*
X203123142Y-91237857D01*
X203123142Y-91466428D01*
X203066000Y-91580714D01*
X203008857Y-91637857D01*
X202894571Y-91695000D01*
X202551714Y-91695000D01*
X202437428Y-91637857D01*
X202380285Y-91580714D01*
X202323142Y-91466428D01*
X202323142Y-91237857D01*
X202380285Y-91123571D01*
X202380285Y-92666428D02*
X202323142Y-92552142D01*
X202323142Y-92323571D01*
X202380285Y-92209285D01*
X202494571Y-92152142D01*
X202951714Y-92152142D01*
X203066000Y-92209285D01*
X203123142Y-92323571D01*
X203123142Y-92552142D01*
X203066000Y-92666428D01*
X202951714Y-92723571D01*
X202837428Y-92723571D01*
X202723142Y-92152142D01*
X202323142Y-93237857D02*
X203123142Y-93237857D01*
X202894571Y-93237857D02*
X203008857Y-93295000D01*
X203066000Y-93352142D01*
X203123142Y-93466428D01*
X203123142Y-93580714D01*
X202323142Y-93980714D02*
X203523142Y-93980714D01*
X203066000Y-93980714D02*
X203123142Y-94095000D01*
X203123142Y-94323571D01*
X203066000Y-94437857D01*
X203008857Y-94495000D01*
X202894571Y-94552142D01*
X202551714Y-94552142D01*
X202437428Y-94495000D01*
X202380285Y-94437857D01*
X202323142Y-94323571D01*
X202323142Y-94095000D01*
X202380285Y-93980714D01*
X202323142Y-95237857D02*
X202380285Y-95123571D01*
X202437428Y-95066428D01*
X202551714Y-95009285D01*
X202894571Y-95009285D01*
X203008857Y-95066428D01*
X203066000Y-95123571D01*
X203123142Y-95237857D01*
X203123142Y-95409285D01*
X203066000Y-95523571D01*
X203008857Y-95580714D01*
X202894571Y-95637857D01*
X202551714Y-95637857D01*
X202437428Y-95580714D01*
X202380285Y-95523571D01*
X202323142Y-95409285D01*
X202323142Y-95237857D01*
X203123142Y-96037857D02*
X202323142Y-96323571D01*
X203123142Y-96609285D02*
X202323142Y-96323571D01*
X202037428Y-96209285D01*
X201980285Y-96152142D01*
X201923142Y-96037857D01*
X203523142Y-97580714D02*
X203523142Y-97352142D01*
X203466000Y-97237857D01*
X203408857Y-97180714D01*
X203237428Y-97066428D01*
X203008857Y-97009285D01*
X202551714Y-97009285D01*
X202437428Y-97066428D01*
X202380285Y-97123571D01*
X202323142Y-97237857D01*
X202323142Y-97466428D01*
X202380285Y-97580714D01*
X202437428Y-97637857D01*
X202551714Y-97695000D01*
X202837428Y-97695000D01*
X202951714Y-97637857D01*
X203008857Y-97580714D01*
X203066000Y-97466428D01*
X203066000Y-97237857D01*
X203008857Y-97123571D01*
X202951714Y-97066428D01*
X202837428Y-97009285D01*
X203523142Y-98723571D02*
X203523142Y-98495000D01*
X203466000Y-98380714D01*
X203408857Y-98323571D01*
X203237428Y-98209285D01*
X203008857Y-98152142D01*
X202551714Y-98152142D01*
X202437428Y-98209285D01*
X202380285Y-98266428D01*
X202323142Y-98380714D01*
X202323142Y-98609285D01*
X202380285Y-98723571D01*
X202437428Y-98780714D01*
X202551714Y-98837857D01*
X202837428Y-98837857D01*
X202951714Y-98780714D01*
X203008857Y-98723571D01*
X203066000Y-98609285D01*
X203066000Y-98380714D01*
X203008857Y-98266428D01*
X202951714Y-98209285D01*
X202837428Y-98152142D01*
X203523142Y-99866428D02*
X203523142Y-99637857D01*
X203466000Y-99523571D01*
X203408857Y-99466428D01*
X203237428Y-99352142D01*
X203008857Y-99295000D01*
X202551714Y-99295000D01*
X202437428Y-99352142D01*
X202380285Y-99409285D01*
X202323142Y-99523571D01*
X202323142Y-99752142D01*
X202380285Y-99866428D01*
X202437428Y-99923571D01*
X202551714Y-99980714D01*
X202837428Y-99980714D01*
X202951714Y-99923571D01*
X203008857Y-99866428D01*
X203066000Y-99752142D01*
X203066000Y-99523571D01*
X203008857Y-99409285D01*
X202951714Y-99352142D01*
X202837428Y-99295000D01*
X202323142Y-102380714D02*
X202323142Y-102323571D01*
X202380285Y-102209285D01*
X202551714Y-102037857D01*
X202894571Y-101752142D01*
X203066000Y-101637857D01*
X203237428Y-101580714D01*
X203351714Y-101580714D01*
X203466000Y-101637857D01*
X203523142Y-101752142D01*
X203523142Y-101809285D01*
X203466000Y-101923571D01*
X203351714Y-101980714D01*
X203294571Y-101980714D01*
X203180285Y-101923571D01*
X203123142Y-101866428D01*
X202894571Y-101523571D01*
X202837428Y-101466428D01*
X202723142Y-101409285D01*
X202551714Y-101409285D01*
X202437428Y-101466428D01*
X202380285Y-101523571D01*
X202323142Y-101637857D01*
X202323142Y-101809285D01*
X202380285Y-101923571D01*
X202437428Y-101980714D01*
X202666000Y-102152142D01*
X202837428Y-102209285D01*
X202951714Y-102209285D01*
X202323142Y-103809285D02*
X203123142Y-103809285D01*
X203523142Y-103809285D02*
X203466000Y-103752142D01*
X203408857Y-103809285D01*
X203466000Y-103866428D01*
X203523142Y-103809285D01*
X203408857Y-103809285D01*
X202380285Y-104895000D02*
X202323142Y-104780714D01*
X202323142Y-104552142D01*
X202380285Y-104437857D01*
X202437428Y-104380714D01*
X202551714Y-104323571D01*
X202894571Y-104323571D01*
X203008857Y-104380714D01*
X203066000Y-104437857D01*
X203123142Y-104552142D01*
X203123142Y-104780714D01*
X203066000Y-104895000D01*
X202323142Y-105409285D02*
X203523142Y-105409285D01*
X202323142Y-105923571D02*
X202951714Y-105923571D01*
X203066000Y-105866428D01*
X203123142Y-105752142D01*
X203123142Y-105580714D01*
X203066000Y-105466428D01*
X203008857Y-105409285D01*
X202323142Y-106495000D02*
X203123142Y-106495000D01*
X203523142Y-106495000D02*
X203466000Y-106437857D01*
X203408857Y-106495000D01*
X203466000Y-106552142D01*
X203523142Y-106495000D01*
X203408857Y-106495000D01*
X202323142Y-107980714D02*
X203123142Y-107980714D01*
X202894571Y-107980714D02*
X203008857Y-108037857D01*
X203066000Y-108095000D01*
X203123142Y-108209285D01*
X203123142Y-108323571D01*
X202323142Y-109237857D02*
X202951714Y-109237857D01*
X203066000Y-109180714D01*
X203123142Y-109066428D01*
X203123142Y-108837857D01*
X203066000Y-108723571D01*
X202380285Y-109237857D02*
X202323142Y-109123571D01*
X202323142Y-108837857D01*
X202380285Y-108723571D01*
X202494571Y-108666428D01*
X202608857Y-108666428D01*
X202723142Y-108723571D01*
X202780285Y-108837857D01*
X202780285Y-109123571D01*
X202837428Y-109237857D01*
X202323142Y-109809285D02*
X203123142Y-109809285D01*
X202894571Y-109809285D02*
X203008857Y-109866428D01*
X203066000Y-109923571D01*
X203123142Y-110037857D01*
X203123142Y-110152142D01*
X202323142Y-111066428D02*
X202951714Y-111066428D01*
X203066000Y-111009285D01*
X203123142Y-110895000D01*
X203123142Y-110666428D01*
X203066000Y-110552142D01*
X202380285Y-111066428D02*
X202323142Y-110952142D01*
X202323142Y-110666428D01*
X202380285Y-110552142D01*
X202494571Y-110495000D01*
X202608857Y-110495000D01*
X202723142Y-110552142D01*
X202780285Y-110666428D01*
X202780285Y-110952142D01*
X202837428Y-111066428D01*
X202323142Y-111637857D02*
X203123142Y-111637857D01*
X203008857Y-111637857D02*
X203066000Y-111695000D01*
X203123142Y-111809285D01*
X203123142Y-111980714D01*
X203066000Y-112095000D01*
X202951714Y-112152142D01*
X202323142Y-112152142D01*
X202951714Y-112152142D02*
X203066000Y-112209285D01*
X203123142Y-112323571D01*
X203123142Y-112495000D01*
X203066000Y-112609285D01*
X202951714Y-112666428D01*
X202323142Y-112666428D01*
X203123142Y-113752142D02*
X202323142Y-113752142D01*
X203123142Y-113237857D02*
X202494571Y-113237857D01*
X202380285Y-113295000D01*
X202323142Y-113409285D01*
X202323142Y-113580714D01*
X202380285Y-113695000D01*
X202437428Y-113752142D01*
X202323142Y-114323571D02*
X203123142Y-114323571D01*
X202894571Y-114323571D02*
X203008857Y-114380714D01*
X203066000Y-114437857D01*
X203123142Y-114552142D01*
X203123142Y-114666428D01*
X202323142Y-115066428D02*
X203123142Y-115066428D01*
X203523142Y-115066428D02*
X203466000Y-115009285D01*
X203408857Y-115066428D01*
X203466000Y-115123571D01*
X203523142Y-115066428D01*
X203408857Y-115066428D01*
X203123142Y-116552142D02*
X201923142Y-116552142D01*
X203066000Y-116552142D02*
X203123142Y-116666428D01*
X203123142Y-116895000D01*
X203066000Y-117009285D01*
X203008857Y-117066428D01*
X202894571Y-117123571D01*
X202551714Y-117123571D01*
X202437428Y-117066428D01*
X202380285Y-117009285D01*
X202323142Y-116895000D01*
X202323142Y-116666428D01*
X202380285Y-116552142D01*
X202323142Y-117637857D02*
X203123142Y-117637857D01*
X202894571Y-117637857D02*
X203008857Y-117695000D01*
X203066000Y-117752142D01*
X203123142Y-117866428D01*
X203123142Y-117980714D01*
X202380285Y-118837857D02*
X202323142Y-118723571D01*
X202323142Y-118495000D01*
X202380285Y-118380714D01*
X202494571Y-118323571D01*
X202951714Y-118323571D01*
X203066000Y-118380714D01*
X203123142Y-118495000D01*
X203123142Y-118723571D01*
X203066000Y-118837857D01*
X202951714Y-118895000D01*
X202837428Y-118895000D01*
X202723142Y-118323571D01*
X202380285Y-119352142D02*
X202323142Y-119466428D01*
X202323142Y-119695000D01*
X202380285Y-119809285D01*
X202494571Y-119866428D01*
X202551714Y-119866428D01*
X202666000Y-119809285D01*
X202723142Y-119695000D01*
X202723142Y-119523571D01*
X202780285Y-119409285D01*
X202894571Y-119352142D01*
X202951714Y-119352142D01*
X203066000Y-119409285D01*
X203123142Y-119523571D01*
X203123142Y-119695000D01*
X203066000Y-119809285D01*
X202380285Y-120837857D02*
X202323142Y-120723571D01*
X202323142Y-120495000D01*
X202380285Y-120380714D01*
X202494571Y-120323571D01*
X202951714Y-120323571D01*
X203066000Y-120380714D01*
X203123142Y-120495000D01*
X203123142Y-120723571D01*
X203066000Y-120837857D01*
X202951714Y-120895000D01*
X202837428Y-120895000D01*
X202723142Y-120323571D01*
X203123142Y-121409285D02*
X202323142Y-121409285D01*
X203008857Y-121409285D02*
X203066000Y-121466428D01*
X203123142Y-121580714D01*
X203123142Y-121752142D01*
X203066000Y-121866428D01*
X202951714Y-121923571D01*
X202323142Y-121923571D01*
X203123142Y-122323571D02*
X203123142Y-122780714D01*
X203523142Y-122495000D02*
X202494571Y-122495000D01*
X202380285Y-122552142D01*
X202323142Y-122666428D01*
X202323142Y-122780714D01*
X200391142Y-89180714D02*
X201191142Y-89180714D01*
X200962571Y-89180714D02*
X201076857Y-89237857D01*
X201134000Y-89295000D01*
X201191142Y-89409285D01*
X201191142Y-89523571D01*
X200448285Y-90380714D02*
X200391142Y-90266428D01*
X200391142Y-90037857D01*
X200448285Y-89923571D01*
X200562571Y-89866428D01*
X201019714Y-89866428D01*
X201134000Y-89923571D01*
X201191142Y-90037857D01*
X201191142Y-90266428D01*
X201134000Y-90380714D01*
X201019714Y-90437857D01*
X200905428Y-90437857D01*
X200791142Y-89866428D01*
X200448285Y-91466428D02*
X200391142Y-91352142D01*
X200391142Y-91123571D01*
X200448285Y-91009285D01*
X200505428Y-90952142D01*
X200619714Y-90895000D01*
X200962571Y-90895000D01*
X201076857Y-90952142D01*
X201134000Y-91009285D01*
X201191142Y-91123571D01*
X201191142Y-91352142D01*
X201134000Y-91466428D01*
X201191142Y-92495000D02*
X200391142Y-92495000D01*
X201191142Y-91980714D02*
X200562571Y-91980714D01*
X200448285Y-92037857D01*
X200391142Y-92152142D01*
X200391142Y-92323571D01*
X200448285Y-92437857D01*
X200505428Y-92495000D01*
X200391142Y-93066428D02*
X201191142Y-93066428D01*
X200962571Y-93066428D02*
X201076857Y-93123571D01*
X201134000Y-93180714D01*
X201191142Y-93295000D01*
X201191142Y-93409285D01*
X201019714Y-94209285D02*
X200962571Y-94380714D01*
X200905428Y-94437857D01*
X200791142Y-94495000D01*
X200619714Y-94495000D01*
X200505428Y-94437857D01*
X200448285Y-94380714D01*
X200391142Y-94266428D01*
X200391142Y-93809285D01*
X201591142Y-93809285D01*
X201591142Y-94209285D01*
X201534000Y-94323571D01*
X201476857Y-94380714D01*
X201362571Y-94437857D01*
X201248285Y-94437857D01*
X201134000Y-94380714D01*
X201076857Y-94323571D01*
X201019714Y-94209285D01*
X201019714Y-93809285D01*
X201591142Y-95237857D02*
X201591142Y-95466428D01*
X201534000Y-95580714D01*
X201419714Y-95695000D01*
X201191142Y-95752142D01*
X200791142Y-95752142D01*
X200562571Y-95695000D01*
X200448285Y-95580714D01*
X200391142Y-95466428D01*
X200391142Y-95237857D01*
X200448285Y-95123571D01*
X200562571Y-95009285D01*
X200791142Y-94952142D01*
X201191142Y-94952142D01*
X201419714Y-95009285D01*
X201534000Y-95123571D01*
X201591142Y-95237857D01*
X200962571Y-96495000D02*
X200391142Y-96495000D01*
X201591142Y-96095000D02*
X200962571Y-96495000D01*
X201591142Y-96895000D01*
X201191142Y-98095000D02*
X200391142Y-98380714D01*
X201191142Y-98666428D01*
X201591142Y-99352142D02*
X201591142Y-99466428D01*
X201534000Y-99580714D01*
X201476857Y-99637857D01*
X201362571Y-99695000D01*
X201134000Y-99752142D01*
X200848285Y-99752142D01*
X200619714Y-99695000D01*
X200505428Y-99637857D01*
X200448285Y-99580714D01*
X200391142Y-99466428D01*
X200391142Y-99352142D01*
X200448285Y-99237857D01*
X200505428Y-99180714D01*
X200619714Y-99123571D01*
X200848285Y-99066428D01*
X201134000Y-99066428D01*
X201362571Y-99123571D01*
X201476857Y-99180714D01*
X201534000Y-99237857D01*
X201591142Y-99352142D01*
X200276857Y-99980714D02*
X200276857Y-100895000D01*
X201591142Y-101066428D02*
X201591142Y-101866428D01*
X200391142Y-101352142D01*
X200276857Y-102037857D02*
X200276857Y-102952142D01*
X200391142Y-103866428D02*
X200391142Y-103180714D01*
X200391142Y-103523571D02*
X201591142Y-103523571D01*
X201419714Y-103409285D01*
X201305428Y-103295000D01*
X201248285Y-103180714D01*
D13*
X122221428Y-133307142D02*
X122221428Y-130307142D01*
X123221428Y-132450000D01*
X124221428Y-130307142D01*
X124221428Y-133307142D01*
X126221428Y-130307142D02*
X126792857Y-130307142D01*
X127078571Y-130450000D01*
X127364285Y-130735714D01*
X127507142Y-131307142D01*
X127507142Y-132307142D01*
X127364285Y-132878571D01*
X127078571Y-133164285D01*
X126792857Y-133307142D01*
X126221428Y-133307142D01*
X125935714Y-133164285D01*
X125650000Y-132878571D01*
X125507142Y-132307142D01*
X125507142Y-131307142D01*
X125650000Y-130735714D01*
X125935714Y-130450000D01*
X126221428Y-130307142D01*
X128792857Y-133307142D02*
X128792857Y-130307142D01*
X129507142Y-130307142D01*
X129935714Y-130450000D01*
X130221428Y-130735714D01*
X130364285Y-131021428D01*
X130507142Y-131592857D01*
X130507142Y-132021428D01*
X130364285Y-132592857D01*
X130221428Y-132878571D01*
X129935714Y-133164285D01*
X129507142Y-133307142D01*
X128792857Y-133307142D01*
X131792857Y-131735714D02*
X132792857Y-131735714D01*
X133221428Y-133307142D02*
X131792857Y-133307142D01*
X131792857Y-130307142D01*
X133221428Y-130307142D01*
D15*
X110352380Y-46938095D02*
X109352380Y-46938095D01*
X109352380Y-46700000D01*
X109400000Y-46557142D01*
X109495238Y-46461904D01*
X109590476Y-46414285D01*
X109780952Y-46366666D01*
X109923809Y-46366666D01*
X110114285Y-46414285D01*
X110209523Y-46461904D01*
X110304761Y-46557142D01*
X110352380Y-46700000D01*
X110352380Y-46938095D01*
X110352380Y-45414285D02*
X110352380Y-45985714D01*
X110352380Y-45700000D02*
X109352380Y-45700000D01*
X109495238Y-45795238D01*
X109590476Y-45890476D01*
X109638095Y-45985714D01*
X108352380Y-45661904D02*
X107352380Y-45661904D01*
X108352380Y-45090476D02*
X107780952Y-45519047D01*
X107352380Y-45090476D02*
X107923809Y-45661904D01*
X125578751Y-61628095D02*
X124578751Y-61628095D01*
X124578751Y-61390000D01*
X124626371Y-61247142D01*
X124721609Y-61151904D01*
X124816847Y-61104285D01*
X125007323Y-61056666D01*
X125150180Y-61056666D01*
X125340656Y-61104285D01*
X125435894Y-61151904D01*
X125531132Y-61247142D01*
X125578751Y-61390000D01*
X125578751Y-61628095D01*
X124673990Y-60675714D02*
X124626371Y-60628095D01*
X124578751Y-60532857D01*
X124578751Y-60294761D01*
X124626371Y-60199523D01*
X124673990Y-60151904D01*
X124769228Y-60104285D01*
X124864466Y-60104285D01*
X125007323Y-60151904D01*
X125578751Y-60723333D01*
X125578751Y-60104285D01*
X122452380Y-60111904D02*
X121452380Y-60111904D01*
X122452380Y-59540476D02*
X121880952Y-59969047D01*
X121452380Y-59540476D02*
X122023809Y-60111904D01*
X146278751Y-40778095D02*
X145278751Y-40778095D01*
X145278751Y-40540000D01*
X145326371Y-40397142D01*
X145421609Y-40301904D01*
X145516847Y-40254285D01*
X145707323Y-40206666D01*
X145850180Y-40206666D01*
X146040656Y-40254285D01*
X146135894Y-40301904D01*
X146231132Y-40397142D01*
X146278751Y-40540000D01*
X146278751Y-40778095D01*
X145278751Y-39873333D02*
X145278751Y-39254285D01*
X145659704Y-39587619D01*
X145659704Y-39444761D01*
X145707323Y-39349523D01*
X145754942Y-39301904D01*
X145850180Y-39254285D01*
X146088275Y-39254285D01*
X146183513Y-39301904D01*
X146231132Y-39349523D01*
X146278751Y-39444761D01*
X146278751Y-39730476D01*
X146231132Y-39825714D01*
X146183513Y-39873333D01*
X143152380Y-39261904D02*
X142152380Y-39261904D01*
X143152380Y-38690476D02*
X142580952Y-39119047D01*
X142152380Y-38690476D02*
X142723809Y-39261904D01*
X129278751Y-47328095D02*
X128278751Y-47328095D01*
X128278751Y-47090000D01*
X128326371Y-46947142D01*
X128421609Y-46851904D01*
X128516847Y-46804285D01*
X128707323Y-46756666D01*
X128850180Y-46756666D01*
X129040656Y-46804285D01*
X129135894Y-46851904D01*
X129231132Y-46947142D01*
X129278751Y-47090000D01*
X129278751Y-47328095D01*
X128612085Y-45899523D02*
X129278751Y-45899523D01*
X128231132Y-46137619D02*
X128945418Y-46375714D01*
X128945418Y-45756666D01*
X126152380Y-45811904D02*
X125152380Y-45811904D01*
X126152380Y-45240476D02*
X125580952Y-45669047D01*
X125152380Y-45240476D02*
X125723809Y-45811904D01*
X168678751Y-40878095D02*
X167678751Y-40878095D01*
X167678751Y-40640000D01*
X167726371Y-40497142D01*
X167821609Y-40401904D01*
X167916847Y-40354285D01*
X168107323Y-40306666D01*
X168250180Y-40306666D01*
X168440656Y-40354285D01*
X168535894Y-40401904D01*
X168631132Y-40497142D01*
X168678751Y-40640000D01*
X168678751Y-40878095D01*
X167678751Y-39401904D02*
X167678751Y-39878095D01*
X168154942Y-39925714D01*
X168107323Y-39878095D01*
X168059704Y-39782857D01*
X168059704Y-39544761D01*
X168107323Y-39449523D01*
X168154942Y-39401904D01*
X168250180Y-39354285D01*
X168488275Y-39354285D01*
X168583513Y-39401904D01*
X168631132Y-39449523D01*
X168678751Y-39544761D01*
X168678751Y-39782857D01*
X168631132Y-39878095D01*
X168583513Y-39925714D01*
X165552380Y-39361904D02*
X164552380Y-39361904D01*
X165552380Y-38790476D02*
X164980952Y-39219047D01*
X164552380Y-38790476D02*
X165123809Y-39361904D01*
X185928751Y-47478095D02*
X184928751Y-47478095D01*
X184928751Y-47240000D01*
X184976371Y-47097142D01*
X185071609Y-47001904D01*
X185166847Y-46954285D01*
X185357323Y-46906666D01*
X185500180Y-46906666D01*
X185690656Y-46954285D01*
X185785894Y-47001904D01*
X185881132Y-47097142D01*
X185928751Y-47240000D01*
X185928751Y-47478095D01*
X184928751Y-46049523D02*
X184928751Y-46240000D01*
X184976371Y-46335238D01*
X185023990Y-46382857D01*
X185166847Y-46478095D01*
X185357323Y-46525714D01*
X185738275Y-46525714D01*
X185833513Y-46478095D01*
X185881132Y-46430476D01*
X185928751Y-46335238D01*
X185928751Y-46144761D01*
X185881132Y-46049523D01*
X185833513Y-46001904D01*
X185738275Y-45954285D01*
X185500180Y-45954285D01*
X185404942Y-46001904D01*
X185357323Y-46049523D01*
X185309704Y-46144761D01*
X185309704Y-46335238D01*
X185357323Y-46430476D01*
X185404942Y-46478095D01*
X185500180Y-46525714D01*
X182802380Y-45961904D02*
X181802380Y-45961904D01*
X182802380Y-45390476D02*
X182230952Y-45819047D01*
X181802380Y-45390476D02*
X182373809Y-45961904D01*
X204078751Y-47778095D02*
X203078751Y-47778095D01*
X203078751Y-47540000D01*
X203126371Y-47397142D01*
X203221609Y-47301904D01*
X203316847Y-47254285D01*
X203507323Y-47206666D01*
X203650180Y-47206666D01*
X203840656Y-47254285D01*
X203935894Y-47301904D01*
X204031132Y-47397142D01*
X204078751Y-47540000D01*
X204078751Y-47778095D01*
X203078751Y-46873333D02*
X203078751Y-46206666D01*
X204078751Y-46635238D01*
X200952380Y-46261904D02*
X199952380Y-46261904D01*
X200952380Y-45690476D02*
X200380952Y-46119047D01*
X199952380Y-45690476D02*
X200523809Y-46261904D01*
X189978751Y-62228095D02*
X188978751Y-62228095D01*
X188978751Y-61990000D01*
X189026371Y-61847142D01*
X189121609Y-61751904D01*
X189216847Y-61704285D01*
X189407323Y-61656666D01*
X189550180Y-61656666D01*
X189740656Y-61704285D01*
X189835894Y-61751904D01*
X189931132Y-61847142D01*
X189978751Y-61990000D01*
X189978751Y-62228095D01*
X189407323Y-61085238D02*
X189359704Y-61180476D01*
X189312085Y-61228095D01*
X189216847Y-61275714D01*
X189169228Y-61275714D01*
X189073990Y-61228095D01*
X189026371Y-61180476D01*
X188978751Y-61085238D01*
X188978751Y-60894761D01*
X189026371Y-60799523D01*
X189073990Y-60751904D01*
X189169228Y-60704285D01*
X189216847Y-60704285D01*
X189312085Y-60751904D01*
X189359704Y-60799523D01*
X189407323Y-60894761D01*
X189407323Y-61085238D01*
X189454942Y-61180476D01*
X189502561Y-61228095D01*
X189597799Y-61275714D01*
X189788275Y-61275714D01*
X189883513Y-61228095D01*
X189931132Y-61180476D01*
X189978751Y-61085238D01*
X189978751Y-60894761D01*
X189931132Y-60799523D01*
X189883513Y-60751904D01*
X189788275Y-60704285D01*
X189597799Y-60704285D01*
X189502561Y-60751904D01*
X189454942Y-60799523D01*
X189407323Y-60894761D01*
X186852380Y-60711904D02*
X185852380Y-60711904D01*
X186852380Y-60140476D02*
X186280952Y-60569047D01*
X185852380Y-60140476D02*
X186423809Y-60711904D01*
X111236666Y-38532380D02*
X111236666Y-39246666D01*
X111189047Y-39389523D01*
X111093809Y-39484761D01*
X110950952Y-39532380D01*
X110855714Y-39532380D01*
X112236666Y-39532380D02*
X111665238Y-39532380D01*
X111950952Y-39532380D02*
X111950952Y-38532380D01*
X111855714Y-38675238D01*
X111760476Y-38770476D01*
X111665238Y-38818095D01*
X132536666Y-38432380D02*
X132536666Y-39146666D01*
X132489047Y-39289523D01*
X132393809Y-39384761D01*
X132250952Y-39432380D01*
X132155714Y-39432380D01*
X132965238Y-38527619D02*
X133012857Y-38480000D01*
X133108095Y-38432380D01*
X133346190Y-38432380D01*
X133441428Y-38480000D01*
X133489047Y-38527619D01*
X133536666Y-38622857D01*
X133536666Y-38718095D01*
X133489047Y-38860952D01*
X132917619Y-39432380D01*
X133536666Y-39432380D01*
X168536666Y-38532380D02*
X168536666Y-39246666D01*
X168489047Y-39389523D01*
X168393809Y-39484761D01*
X168250952Y-39532380D01*
X168155714Y-39532380D01*
X168917619Y-38532380D02*
X169536666Y-38532380D01*
X169203333Y-38913333D01*
X169346190Y-38913333D01*
X169441428Y-38960952D01*
X169489047Y-39008571D01*
X169536666Y-39103809D01*
X169536666Y-39341904D01*
X169489047Y-39437142D01*
X169441428Y-39484761D01*
X169346190Y-39532380D01*
X169060476Y-39532380D01*
X168965238Y-39484761D01*
X168917619Y-39437142D01*
X189836666Y-38432380D02*
X189836666Y-39146666D01*
X189789047Y-39289523D01*
X189693809Y-39384761D01*
X189550952Y-39432380D01*
X189455714Y-39432380D01*
X190741428Y-38765714D02*
X190741428Y-39432380D01*
X190503333Y-38384761D02*
X190265238Y-39099047D01*
X190884285Y-39099047D01*
X128516666Y-57702380D02*
X128516666Y-58416666D01*
X128469047Y-58559523D01*
X128373809Y-58654761D01*
X128230952Y-58702380D01*
X128135714Y-58702380D01*
X129469047Y-57702380D02*
X128992857Y-57702380D01*
X128945238Y-58178571D01*
X128992857Y-58130952D01*
X129088095Y-58083333D01*
X129326190Y-58083333D01*
X129421428Y-58130952D01*
X129469047Y-58178571D01*
X129516666Y-58273809D01*
X129516666Y-58511904D01*
X129469047Y-58607142D01*
X129421428Y-58654761D01*
X129326190Y-58702380D01*
X129088095Y-58702380D01*
X128992857Y-58654761D01*
X128945238Y-58607142D01*
X172366666Y-100452380D02*
X172366666Y-101166666D01*
X172319047Y-101309523D01*
X172223809Y-101404761D01*
X172080952Y-101452380D01*
X171985714Y-101452380D01*
X172890476Y-101452380D02*
X173080952Y-101452380D01*
X173176190Y-101404761D01*
X173223809Y-101357142D01*
X173319047Y-101214285D01*
X173366666Y-101023809D01*
X173366666Y-100642857D01*
X173319047Y-100547619D01*
X173271428Y-100500000D01*
X173176190Y-100452380D01*
X172985714Y-100452380D01*
X172890476Y-100500000D01*
X172842857Y-100547619D01*
X172795238Y-100642857D01*
X172795238Y-100880952D01*
X172842857Y-100976190D01*
X172890476Y-101023809D01*
X172985714Y-101071428D01*
X173176190Y-101071428D01*
X173271428Y-101023809D01*
X173319047Y-100976190D01*
X173366666Y-100880952D01*
X196560476Y-95072380D02*
X196560476Y-95786666D01*
X196512857Y-95929523D01*
X196417619Y-96024761D01*
X196274761Y-96072380D01*
X196179523Y-96072380D01*
X197560476Y-96072380D02*
X196989047Y-96072380D01*
X197274761Y-96072380D02*
X197274761Y-95072380D01*
X197179523Y-95215238D01*
X197084285Y-95310476D01*
X196989047Y-95358095D01*
X198179523Y-95072380D02*
X198274761Y-95072380D01*
X198370000Y-95120000D01*
X198417619Y-95167619D01*
X198465238Y-95262857D01*
X198512857Y-95453333D01*
X198512857Y-95691428D01*
X198465238Y-95881904D01*
X198417619Y-95977142D01*
X198370000Y-96024761D01*
X198274761Y-96072380D01*
X198179523Y-96072380D01*
X198084285Y-96024761D01*
X198036666Y-95977142D01*
X197989047Y-95881904D01*
X197941428Y-95691428D01*
X197941428Y-95453333D01*
X197989047Y-95262857D01*
X198036666Y-95167619D01*
X198084285Y-95120000D01*
X198179523Y-95072380D01*
X116083333Y-54202380D02*
X115750000Y-53726190D01*
X115511904Y-54202380D02*
X115511904Y-53202380D01*
X115892857Y-53202380D01*
X115988095Y-53250000D01*
X116035714Y-53297619D01*
X116083333Y-53392857D01*
X116083333Y-53535714D01*
X116035714Y-53630952D01*
X115988095Y-53678571D01*
X115892857Y-53726190D01*
X115511904Y-53726190D01*
X117035714Y-54202380D02*
X116464285Y-54202380D01*
X116750000Y-54202380D02*
X116750000Y-53202380D01*
X116654761Y-53345238D01*
X116559523Y-53440476D01*
X116464285Y-53488095D01*
X146033333Y-49602380D02*
X145700000Y-49126190D01*
X145461904Y-49602380D02*
X145461904Y-48602380D01*
X145842857Y-48602380D01*
X145938095Y-48650000D01*
X145985714Y-48697619D01*
X146033333Y-48792857D01*
X146033333Y-48935714D01*
X145985714Y-49030952D01*
X145938095Y-49078571D01*
X145842857Y-49126190D01*
X145461904Y-49126190D01*
X146414285Y-48697619D02*
X146461904Y-48650000D01*
X146557142Y-48602380D01*
X146795238Y-48602380D01*
X146890476Y-48650000D01*
X146938095Y-48697619D01*
X146985714Y-48792857D01*
X146985714Y-48888095D01*
X146938095Y-49030952D01*
X146366666Y-49602380D01*
X146985714Y-49602380D01*
X160833333Y-49402380D02*
X160500000Y-48926190D01*
X160261904Y-49402380D02*
X160261904Y-48402380D01*
X160642857Y-48402380D01*
X160738095Y-48450000D01*
X160785714Y-48497619D01*
X160833333Y-48592857D01*
X160833333Y-48735714D01*
X160785714Y-48830952D01*
X160738095Y-48878571D01*
X160642857Y-48926190D01*
X160261904Y-48926190D01*
X161166666Y-48402380D02*
X161785714Y-48402380D01*
X161452380Y-48783333D01*
X161595238Y-48783333D01*
X161690476Y-48830952D01*
X161738095Y-48878571D01*
X161785714Y-48973809D01*
X161785714Y-49211904D01*
X161738095Y-49307142D01*
X161690476Y-49354761D01*
X161595238Y-49402380D01*
X161309523Y-49402380D01*
X161214285Y-49354761D01*
X161166666Y-49307142D01*
X191633333Y-54302380D02*
X191300000Y-53826190D01*
X191061904Y-54302380D02*
X191061904Y-53302380D01*
X191442857Y-53302380D01*
X191538095Y-53350000D01*
X191585714Y-53397619D01*
X191633333Y-53492857D01*
X191633333Y-53635714D01*
X191585714Y-53730952D01*
X191538095Y-53778571D01*
X191442857Y-53826190D01*
X191061904Y-53826190D01*
X192490476Y-53635714D02*
X192490476Y-54302380D01*
X192252380Y-53254761D02*
X192014285Y-53969047D01*
X192633333Y-53969047D01*
X107604761Y-70352380D02*
X107271428Y-69876190D01*
X107033333Y-70352380D02*
X107033333Y-69352380D01*
X107414285Y-69352380D01*
X107509523Y-69400000D01*
X107557142Y-69447619D01*
X107604761Y-69542857D01*
X107604761Y-69685714D01*
X107557142Y-69780952D01*
X107509523Y-69828571D01*
X107414285Y-69876190D01*
X107033333Y-69876190D01*
X107890476Y-69352380D02*
X108223809Y-70352380D01*
X108557142Y-69352380D01*
X109414285Y-70352380D02*
X108842857Y-70352380D01*
X109128571Y-70352380D02*
X109128571Y-69352380D01*
X109033333Y-69495238D01*
X108938095Y-69590476D01*
X108842857Y-69638095D01*
X107904761Y-86852380D02*
X107571428Y-86376190D01*
X107333333Y-86852380D02*
X107333333Y-85852380D01*
X107714285Y-85852380D01*
X107809523Y-85900000D01*
X107857142Y-85947619D01*
X107904761Y-86042857D01*
X107904761Y-86185714D01*
X107857142Y-86280952D01*
X107809523Y-86328571D01*
X107714285Y-86376190D01*
X107333333Y-86376190D01*
X108190476Y-85852380D02*
X108523809Y-86852380D01*
X108857142Y-85852380D01*
X109142857Y-85947619D02*
X109190476Y-85900000D01*
X109285714Y-85852380D01*
X109523809Y-85852380D01*
X109619047Y-85900000D01*
X109666666Y-85947619D01*
X109714285Y-86042857D01*
X109714285Y-86138095D01*
X109666666Y-86280952D01*
X109095238Y-86852380D01*
X109714285Y-86852380D01*
X191504761Y-70452380D02*
X191171428Y-69976190D01*
X190933333Y-70452380D02*
X190933333Y-69452380D01*
X191314285Y-69452380D01*
X191409523Y-69500000D01*
X191457142Y-69547619D01*
X191504761Y-69642857D01*
X191504761Y-69785714D01*
X191457142Y-69880952D01*
X191409523Y-69928571D01*
X191314285Y-69976190D01*
X190933333Y-69976190D01*
X191790476Y-69452380D02*
X192123809Y-70452380D01*
X192457142Y-69452380D01*
X192695238Y-69452380D02*
X193314285Y-69452380D01*
X192980952Y-69833333D01*
X193123809Y-69833333D01*
X193219047Y-69880952D01*
X193266666Y-69928571D01*
X193314285Y-70023809D01*
X193314285Y-70261904D01*
X193266666Y-70357142D01*
X193219047Y-70404761D01*
X193123809Y-70452380D01*
X192838095Y-70452380D01*
X192742857Y-70404761D01*
X192695238Y-70357142D01*
X191604761Y-87052380D02*
X191271428Y-86576190D01*
X191033333Y-87052380D02*
X191033333Y-86052380D01*
X191414285Y-86052380D01*
X191509523Y-86100000D01*
X191557142Y-86147619D01*
X191604761Y-86242857D01*
X191604761Y-86385714D01*
X191557142Y-86480952D01*
X191509523Y-86528571D01*
X191414285Y-86576190D01*
X191033333Y-86576190D01*
X191890476Y-86052380D02*
X192223809Y-87052380D01*
X192557142Y-86052380D01*
X193319047Y-86385714D02*
X193319047Y-87052380D01*
X193080952Y-86004761D02*
X192842857Y-86719047D01*
X193461904Y-86719047D01*
X153038095Y-93652380D02*
X153038095Y-94461904D01*
X153085714Y-94557142D01*
X153133333Y-94604761D01*
X153228571Y-94652380D01*
X153419047Y-94652380D01*
X153514285Y-94604761D01*
X153561904Y-94557142D01*
X153609523Y-94461904D01*
X153609523Y-93652380D01*
X154609523Y-94652380D02*
X154038095Y-94652380D01*
X154323809Y-94652380D02*
X154323809Y-93652380D01*
X154228571Y-93795238D01*
X154133333Y-93890476D01*
X154038095Y-93938095D01*
X150166190Y-35651597D02*
X150166190Y-36366905D01*
X150118502Y-36509966D01*
X150023128Y-36605340D01*
X149880067Y-36653027D01*
X149784692Y-36653027D01*
X150547687Y-35651597D02*
X151215307Y-35651597D01*
X150786122Y-36653027D01*
X179566666Y-116504761D02*
X179709523Y-116552380D01*
X179947619Y-116552380D01*
X180042857Y-116504761D01*
X180090476Y-116457142D01*
X180138095Y-116361904D01*
X180138095Y-116266666D01*
X180090476Y-116171428D01*
X180042857Y-116123809D01*
X179947619Y-116076190D01*
X179757142Y-116028571D01*
X179661904Y-115980952D01*
X179614285Y-115933333D01*
X179566666Y-115838095D01*
X179566666Y-115742857D01*
X179614285Y-115647619D01*
X179661904Y-115600000D01*
X179757142Y-115552380D01*
X179995238Y-115552380D01*
X180138095Y-115600000D01*
X180471428Y-115552380D02*
X180709523Y-116552380D01*
X180900000Y-115838095D01*
X181090476Y-116552380D01*
X181328571Y-115552380D01*
X181614285Y-115552380D02*
X182233333Y-115552380D01*
X181900000Y-115933333D01*
X182042857Y-115933333D01*
X182138095Y-115980952D01*
X182185714Y-116028571D01*
X182233333Y-116123809D01*
X182233333Y-116361904D01*
X182185714Y-116457142D01*
X182138095Y-116504761D01*
X182042857Y-116552380D01*
X181757142Y-116552380D01*
X181661904Y-116504761D01*
X181614285Y-116457142D01*
X108866666Y-102004761D02*
X109009523Y-102052380D01*
X109247619Y-102052380D01*
X109342857Y-102004761D01*
X109390476Y-101957142D01*
X109438095Y-101861904D01*
X109438095Y-101766666D01*
X109390476Y-101671428D01*
X109342857Y-101623809D01*
X109247619Y-101576190D01*
X109057142Y-101528571D01*
X108961904Y-101480952D01*
X108914285Y-101433333D01*
X108866666Y-101338095D01*
X108866666Y-101242857D01*
X108914285Y-101147619D01*
X108961904Y-101100000D01*
X109057142Y-101052380D01*
X109295238Y-101052380D01*
X109438095Y-101100000D01*
X109771428Y-101052380D02*
X110009523Y-102052380D01*
X110200000Y-101338095D01*
X110390476Y-102052380D01*
X110628571Y-101052380D01*
X111533333Y-102052380D02*
X110961904Y-102052380D01*
X111247619Y-102052380D02*
X111247619Y-101052380D01*
X111152380Y-101195238D01*
X111057142Y-101290476D01*
X110961904Y-101338095D01*
X122466666Y-116504761D02*
X122609523Y-116552380D01*
X122847619Y-116552380D01*
X122942857Y-116504761D01*
X122990476Y-116457142D01*
X123038095Y-116361904D01*
X123038095Y-116266666D01*
X122990476Y-116171428D01*
X122942857Y-116123809D01*
X122847619Y-116076190D01*
X122657142Y-116028571D01*
X122561904Y-115980952D01*
X122514285Y-115933333D01*
X122466666Y-115838095D01*
X122466666Y-115742857D01*
X122514285Y-115647619D01*
X122561904Y-115600000D01*
X122657142Y-115552380D01*
X122895238Y-115552380D01*
X123038095Y-115600000D01*
X123371428Y-115552380D02*
X123609523Y-116552380D01*
X123800000Y-115838095D01*
X123990476Y-116552380D01*
X124228571Y-115552380D01*
X124561904Y-115647619D02*
X124609523Y-115600000D01*
X124704761Y-115552380D01*
X124942857Y-115552380D01*
X125038095Y-115600000D01*
X125085714Y-115647619D01*
X125133333Y-115742857D01*
X125133333Y-115838095D01*
X125085714Y-115980952D01*
X124514285Y-116552380D01*
X125133333Y-116552380D01*
X135766666Y-102004761D02*
X135909523Y-102052380D01*
X136147619Y-102052380D01*
X136242857Y-102004761D01*
X136290476Y-101957142D01*
X136338095Y-101861904D01*
X136338095Y-101766666D01*
X136290476Y-101671428D01*
X136242857Y-101623809D01*
X136147619Y-101576190D01*
X135957142Y-101528571D01*
X135861904Y-101480952D01*
X135814285Y-101433333D01*
X135766666Y-101338095D01*
X135766666Y-101242857D01*
X135814285Y-101147619D01*
X135861904Y-101100000D01*
X135957142Y-101052380D01*
X136195238Y-101052380D01*
X136338095Y-101100000D01*
X136671428Y-101052380D02*
X136909523Y-102052380D01*
X137100000Y-101338095D01*
X137290476Y-102052380D01*
X137528571Y-101052380D01*
X138385714Y-101052380D02*
X137909523Y-101052380D01*
X137861904Y-101528571D01*
X137909523Y-101480952D01*
X138004761Y-101433333D01*
X138242857Y-101433333D01*
X138338095Y-101480952D01*
X138385714Y-101528571D01*
X138433333Y-101623809D01*
X138433333Y-101861904D01*
X138385714Y-101957142D01*
X138338095Y-102004761D01*
X138242857Y-102052380D01*
X138004761Y-102052380D01*
X137909523Y-102004761D01*
X137861904Y-101957142D01*
X149666666Y-116604761D02*
X149809523Y-116652380D01*
X150047619Y-116652380D01*
X150142857Y-116604761D01*
X150190476Y-116557142D01*
X150238095Y-116461904D01*
X150238095Y-116366666D01*
X150190476Y-116271428D01*
X150142857Y-116223809D01*
X150047619Y-116176190D01*
X149857142Y-116128571D01*
X149761904Y-116080952D01*
X149714285Y-116033333D01*
X149666666Y-115938095D01*
X149666666Y-115842857D01*
X149714285Y-115747619D01*
X149761904Y-115700000D01*
X149857142Y-115652380D01*
X150095238Y-115652380D01*
X150238095Y-115700000D01*
X150571428Y-115652380D02*
X150809523Y-116652380D01*
X151000000Y-115938095D01*
X151190476Y-116652380D01*
X151428571Y-115652380D01*
X152238095Y-115985714D02*
X152238095Y-116652380D01*
X152000000Y-115604761D02*
X151761904Y-116319047D01*
X152380952Y-116319047D01*
G36*
X119749663Y-95238580D02*
G01*
X120014167Y-95385000D01*
X119924742Y-95529030D01*
X119493525Y-95595104D01*
X119391659Y-95596666D01*
X118897051Y-95544322D01*
X118646109Y-95415346D01*
X118638334Y-95385000D01*
X118821975Y-95235245D01*
X119260842Y-95173333D01*
X119749663Y-95238580D01*
G37*
D16*
X119749663Y-95238580D02*
X120014167Y-95385000D01*
X119924742Y-95529030D01*
X119493525Y-95595104D01*
X119391659Y-95596666D01*
X118897051Y-95544322D01*
X118646109Y-95415346D01*
X118638334Y-95385000D01*
X118821975Y-95235245D01*
X119260842Y-95173333D01*
X119749663Y-95238580D01*
G36*
X117693008Y-95889078D02*
G01*
X118470565Y-95936909D01*
X119220078Y-96015199D01*
X119829753Y-96116685D01*
X120187798Y-96234100D01*
X120215250Y-96254794D01*
X120200312Y-96393532D01*
X119844833Y-96443333D01*
X119427229Y-96510872D01*
X119273334Y-96655000D01*
X119081588Y-96769141D01*
X118585390Y-96845991D01*
X118066833Y-96866666D01*
X117400913Y-96837361D01*
X117067748Y-96756157D01*
X117061417Y-96672923D01*
X117413437Y-96487489D01*
X117791667Y-96384248D01*
X117924182Y-96325944D01*
X117677144Y-96279488D01*
X117315417Y-96260491D01*
X116715555Y-96199359D01*
X116359278Y-96075706D01*
X116310000Y-96000998D01*
X116500932Y-95913858D01*
X116999199Y-95878972D01*
X117693008Y-95889078D01*
G37*
X117693008Y-95889078D02*
X118470565Y-95936909D01*
X119220078Y-96015199D01*
X119829753Y-96116685D01*
X120187798Y-96234100D01*
X120215250Y-96254794D01*
X120200312Y-96393532D01*
X119844833Y-96443333D01*
X119427229Y-96510872D01*
X119273334Y-96655000D01*
X119081588Y-96769141D01*
X118585390Y-96845991D01*
X118066833Y-96866666D01*
X117400913Y-96837361D01*
X117067748Y-96756157D01*
X117061417Y-96672923D01*
X117413437Y-96487489D01*
X117791667Y-96384248D01*
X117924182Y-96325944D01*
X117677144Y-96279488D01*
X117315417Y-96260491D01*
X116715555Y-96199359D01*
X116359278Y-96075706D01*
X116310000Y-96000998D01*
X116500932Y-95913858D01*
X116999199Y-95878972D01*
X117693008Y-95889078D01*
G36*
X121097514Y-96183076D02*
G01*
X121036218Y-96173212D01*
X120977313Y-96135243D01*
X121283092Y-96102254D01*
X121894904Y-96078294D01*
X122554167Y-96068424D01*
X123400848Y-96073103D01*
X124022571Y-96097549D01*
X124346840Y-96137497D01*
X124353334Y-96174282D01*
X123984447Y-96408052D01*
X123896565Y-96508958D01*
X123623674Y-96642676D01*
X123066755Y-96762327D01*
X122570121Y-96821223D01*
X121897997Y-96861136D01*
X121562549Y-96824977D01*
X121481135Y-96694841D01*
X121508941Y-96591334D01*
X121500778Y-96513888D01*
X122095556Y-96513888D01*
X122124611Y-96639724D01*
X122236667Y-96655000D01*
X122410892Y-96577554D01*
X122377778Y-96513888D01*
X122126579Y-96488556D01*
X122095556Y-96513888D01*
X121500778Y-96513888D01*
X121481069Y-96326908D01*
X121097514Y-96183076D01*
G37*
X121097514Y-96183076D02*
X121036218Y-96173212D01*
X120977313Y-96135243D01*
X121283092Y-96102254D01*
X121894904Y-96078294D01*
X122554167Y-96068424D01*
X123400848Y-96073103D01*
X124022571Y-96097549D01*
X124346840Y-96137497D01*
X124353334Y-96174282D01*
X123984447Y-96408052D01*
X123896565Y-96508958D01*
X123623674Y-96642676D01*
X123066755Y-96762327D01*
X122570121Y-96821223D01*
X121897997Y-96861136D01*
X121562549Y-96824977D01*
X121481135Y-96694841D01*
X121508941Y-96591334D01*
X121500778Y-96513888D01*
X122095556Y-96513888D01*
X122124611Y-96639724D01*
X122236667Y-96655000D01*
X122410892Y-96577554D01*
X122377778Y-96513888D01*
X122126579Y-96488556D01*
X122095556Y-96513888D01*
X121500778Y-96513888D01*
X121481069Y-96326908D01*
X121097514Y-96183076D01*
G36*
X113358967Y-93325658D02*
G01*
X113456675Y-93472738D01*
X113452500Y-93480000D01*
X113160732Y-93643847D01*
X112805008Y-93691666D01*
X112413237Y-93617617D01*
X112288334Y-93480000D01*
X112472546Y-93332493D01*
X112917594Y-93268416D01*
X112935825Y-93268333D01*
X113358967Y-93325658D01*
G37*
X113358967Y-93325658D02*
X113456675Y-93472738D01*
X113452500Y-93480000D01*
X113160732Y-93643847D01*
X112805008Y-93691666D01*
X112413237Y-93617617D01*
X112288334Y-93480000D01*
X112472546Y-93332493D01*
X112917594Y-93268416D01*
X112935825Y-93268333D01*
X113358967Y-93325658D01*
G36*
X125598871Y-94961678D02*
G01*
X125587643Y-94961666D01*
X125090961Y-94927932D01*
X124873459Y-94842699D01*
X124893084Y-94793934D01*
X125225054Y-94692980D01*
X125797928Y-94664239D01*
X126483957Y-94696149D01*
X127155396Y-94777142D01*
X127684498Y-94895653D01*
X127943515Y-95040118D01*
X127951667Y-95070839D01*
X128131554Y-95327953D01*
X128427917Y-95447286D01*
X128511151Y-95501611D01*
X128232217Y-95546888D01*
X127815563Y-95567841D01*
X127091822Y-95544482D01*
X126705514Y-95413648D01*
X126605123Y-95279166D01*
X126328194Y-95067500D01*
X126893334Y-95067500D01*
X126999167Y-95173333D01*
X127105000Y-95067500D01*
X126999167Y-94961666D01*
X126893334Y-95067500D01*
X126328194Y-95067500D01*
X126294217Y-95041531D01*
X125598871Y-94961678D01*
G37*
X125598871Y-94961678D02*
X125587643Y-94961666D01*
X125090961Y-94927932D01*
X124873459Y-94842699D01*
X124893084Y-94793934D01*
X125225054Y-94692980D01*
X125797928Y-94664239D01*
X126483957Y-94696149D01*
X127155396Y-94777142D01*
X127684498Y-94895653D01*
X127943515Y-95040118D01*
X127951667Y-95070839D01*
X128131554Y-95327953D01*
X128427917Y-95447286D01*
X128511151Y-95501611D01*
X128232217Y-95546888D01*
X127815563Y-95567841D01*
X127091822Y-95544482D01*
X126705514Y-95413648D01*
X126605123Y-95279166D01*
X126328194Y-95067500D01*
X126893334Y-95067500D01*
X126999167Y-95173333D01*
X127105000Y-95067500D01*
X126999167Y-94961666D01*
X126893334Y-95067500D01*
X126328194Y-95067500D01*
X126294217Y-95041531D01*
X125598871Y-94961678D01*
G36*
X128536218Y-96721234D02*
G01*
X128585697Y-96778449D01*
X128281732Y-96810553D01*
X128057500Y-96813287D01*
X127647590Y-96792447D01*
X127585400Y-96744640D01*
X127689551Y-96716963D01*
X128241077Y-96682884D01*
X128536218Y-96721234D01*
G37*
X128536218Y-96721234D02*
X128585697Y-96778449D01*
X128281732Y-96810553D01*
X128057500Y-96813287D01*
X127647590Y-96792447D01*
X127585400Y-96744640D01*
X127689551Y-96716963D01*
X128241077Y-96682884D01*
X128536218Y-96721234D01*
G36*
X130721657Y-95323478D02*
G01*
X131053981Y-94861720D01*
X131501309Y-94779214D01*
X131987249Y-94969113D01*
X132336889Y-95355698D01*
X132349496Y-95856673D01*
X132142667Y-96189333D01*
X131635322Y-96428166D01*
X131034534Y-96295247D01*
X130833971Y-96170144D01*
X130591451Y-95913733D01*
X130598328Y-95816904D01*
X130931922Y-95816904D01*
X131105726Y-95986073D01*
X131497084Y-95981142D01*
X131942075Y-95827834D01*
X132079167Y-95599565D01*
X131913761Y-95310300D01*
X131550947Y-95203997D01*
X131190831Y-95318035D01*
X131102355Y-95417090D01*
X130931922Y-95816904D01*
X130598328Y-95816904D01*
X130615023Y-95581865D01*
X130721657Y-95323478D01*
G37*
X130721657Y-95323478D02*
X131053981Y-94861720D01*
X131501309Y-94779214D01*
X131987249Y-94969113D01*
X132336889Y-95355698D01*
X132349496Y-95856673D01*
X132142667Y-96189333D01*
X131635322Y-96428166D01*
X131034534Y-96295247D01*
X130833971Y-96170144D01*
X130591451Y-95913733D01*
X130598328Y-95816904D01*
X130931922Y-95816904D01*
X131105726Y-95986073D01*
X131497084Y-95981142D01*
X131942075Y-95827834D01*
X132079167Y-95599565D01*
X131913761Y-95310300D01*
X131550947Y-95203997D01*
X131190831Y-95318035D01*
X131102355Y-95417090D01*
X130931922Y-95816904D01*
X130598328Y-95816904D01*
X130615023Y-95581865D01*
X130721657Y-95323478D01*
G36*
X110398044Y-94772159D02*
G01*
X110925315Y-94830875D01*
X111143385Y-94914508D01*
X111140573Y-94935121D01*
X110878495Y-95034937D01*
X110349544Y-95072040D01*
X110069747Y-95063601D01*
X109439901Y-95065609D01*
X109151764Y-95180992D01*
X109113334Y-95301813D01*
X108921044Y-95524783D01*
X108425417Y-95575567D01*
X107984752Y-95553164D01*
X107938239Y-95502357D01*
X108256749Y-95388178D01*
X108266667Y-95385000D01*
X108567756Y-95256135D01*
X108451154Y-95196161D01*
X108425417Y-95194432D01*
X108110758Y-95076179D01*
X108055000Y-94961666D01*
X108252113Y-94855234D01*
X108786258Y-94780976D01*
X109571649Y-94750243D01*
X109654992Y-94750000D01*
X110398044Y-94772159D01*
G37*
X110398044Y-94772159D02*
X110925315Y-94830875D01*
X111143385Y-94914508D01*
X111140573Y-94935121D01*
X110878495Y-95034937D01*
X110349544Y-95072040D01*
X110069747Y-95063601D01*
X109439901Y-95065609D01*
X109151764Y-95180992D01*
X109113334Y-95301813D01*
X108921044Y-95524783D01*
X108425417Y-95575567D01*
X107984752Y-95553164D01*
X107938239Y-95502357D01*
X108256749Y-95388178D01*
X108266667Y-95385000D01*
X108567756Y-95256135D01*
X108451154Y-95196161D01*
X108425417Y-95194432D01*
X108110758Y-95076179D01*
X108055000Y-94961666D01*
X108252113Y-94855234D01*
X108786258Y-94780976D01*
X109571649Y-94750243D01*
X109654992Y-94750000D01*
X110398044Y-94772159D01*
G36*
X110241676Y-94002351D02*
G01*
X110936641Y-94052134D01*
X111431619Y-94128073D01*
X111590721Y-94193498D01*
X111455033Y-94251094D01*
X110981041Y-94296151D01*
X110253726Y-94322450D01*
X109771119Y-94326666D01*
X108801242Y-94305650D01*
X108181180Y-94245047D01*
X107942834Y-94148526D01*
X107947935Y-94116992D01*
X108199851Y-94036045D01*
X108748980Y-93991696D01*
X109471022Y-93981335D01*
X110241676Y-94002351D01*
G37*
X110241676Y-94002351D02*
X110936641Y-94052134D01*
X111431619Y-94128073D01*
X111590721Y-94193498D01*
X111455033Y-94251094D01*
X110981041Y-94296151D01*
X110253726Y-94322450D01*
X109771119Y-94326666D01*
X108801242Y-94305650D01*
X108181180Y-94245047D01*
X107942834Y-94148526D01*
X107947935Y-94116992D01*
X108199851Y-94036045D01*
X108748980Y-93991696D01*
X109471022Y-93981335D01*
X110241676Y-94002351D01*
G36*
X140616534Y-96185940D02*
G01*
X140640837Y-96542666D01*
X140537354Y-96878532D01*
X140454626Y-96963460D01*
X140181129Y-96941733D01*
X140136439Y-96889220D01*
X140097837Y-96547744D01*
X140238245Y-96182120D01*
X140462646Y-96020000D01*
X140616534Y-96185940D01*
G37*
X140616534Y-96185940D02*
X140640837Y-96542666D01*
X140537354Y-96878532D01*
X140454626Y-96963460D01*
X140181129Y-96941733D01*
X140136439Y-96889220D01*
X140097837Y-96547744D01*
X140238245Y-96182120D01*
X140462646Y-96020000D01*
X140616534Y-96185940D01*
G36*
X124071438Y-93417338D02*
G01*
X124301900Y-93539048D01*
X124168614Y-93641349D01*
X123930000Y-93713739D01*
X123575522Y-93822248D01*
X123616872Y-93866365D01*
X123877084Y-93882234D01*
X124249245Y-93978693D01*
X124353334Y-94115000D01*
X124234448Y-94298278D01*
X124194584Y-94297841D01*
X123877849Y-94238233D01*
X123559584Y-94177286D01*
X123162134Y-93942418D01*
X123083334Y-93676945D01*
X123230703Y-93335172D01*
X123672745Y-93297270D01*
X124071438Y-93417338D01*
G37*
X124071438Y-93417338D02*
X124301900Y-93539048D01*
X124168614Y-93641349D01*
X123930000Y-93713739D01*
X123575522Y-93822248D01*
X123616872Y-93866365D01*
X123877084Y-93882234D01*
X124249245Y-93978693D01*
X124353334Y-94115000D01*
X124234448Y-94298278D01*
X124194584Y-94297841D01*
X123877849Y-94238233D01*
X123559584Y-94177286D01*
X123162134Y-93942418D01*
X123083334Y-93676945D01*
X123230703Y-93335172D01*
X123672745Y-93297270D01*
X124071438Y-93417338D01*
G36*
X119851677Y-93535190D02*
G01*
X120027784Y-93654375D01*
X120014167Y-93691666D01*
X119863195Y-93874886D01*
X119842925Y-93878290D01*
X119632980Y-93814559D01*
X119182196Y-93695409D01*
X119167500Y-93691666D01*
X118778763Y-93586137D01*
X118751482Y-93535888D01*
X119111847Y-93512374D01*
X119338742Y-93505043D01*
X119851677Y-93535190D01*
G37*
X119851677Y-93535190D02*
X120027784Y-93654375D01*
X120014167Y-93691666D01*
X119863195Y-93874886D01*
X119842925Y-93878290D01*
X119632980Y-93814559D01*
X119182196Y-93695409D01*
X119167500Y-93691666D01*
X118778763Y-93586137D01*
X118751482Y-93535888D01*
X119111847Y-93512374D01*
X119338742Y-93505043D01*
X119851677Y-93535190D01*
G36*
X108924188Y-96081310D02*
G01*
X109113285Y-96229033D01*
X109113334Y-96231666D01*
X108929402Y-96380284D01*
X108486234Y-96443317D01*
X108478334Y-96443333D01*
X108032479Y-96382022D01*
X107843382Y-96234300D01*
X107843334Y-96231666D01*
X108027265Y-96083048D01*
X108470433Y-96020016D01*
X108478334Y-96020000D01*
X108924188Y-96081310D01*
G37*
X108924188Y-96081310D02*
X109113285Y-96229033D01*
X109113334Y-96231666D01*
X108929402Y-96380284D01*
X108486234Y-96443317D01*
X108478334Y-96443333D01*
X108032479Y-96382022D01*
X107843382Y-96234300D01*
X107843334Y-96231666D01*
X108027265Y-96083048D01*
X108470433Y-96020016D01*
X108478334Y-96020000D01*
X108924188Y-96081310D01*
G36*
X121719857Y-94616377D02*
G01*
X121919167Y-94750000D01*
X121836455Y-94899907D01*
X121424643Y-94961564D01*
X121402492Y-94961666D01*
X120951267Y-94901447D01*
X120755255Y-94755960D01*
X120755000Y-94750000D01*
X120935752Y-94589502D01*
X121271675Y-94538333D01*
X121719857Y-94616377D01*
G37*
X121719857Y-94616377D02*
X121919167Y-94750000D01*
X121836455Y-94899907D01*
X121424643Y-94961564D01*
X121402492Y-94961666D01*
X120951267Y-94901447D01*
X120755255Y-94755960D01*
X120755000Y-94750000D01*
X120935752Y-94589502D01*
X121271675Y-94538333D01*
X121719857Y-94616377D01*
G36*
X117567699Y-93515814D02*
G01*
X117738329Y-93651995D01*
X117708479Y-93814811D01*
X117596409Y-94152231D01*
X117580000Y-94238145D01*
X117404723Y-94324035D01*
X117001007Y-94327399D01*
X116552029Y-94264630D01*
X116240962Y-94152124D01*
X116204167Y-94115000D01*
X116227972Y-93920266D01*
X116310000Y-93903333D01*
X116448031Y-93774395D01*
X116415834Y-93691666D01*
X116506576Y-93548779D01*
X116941459Y-93482020D01*
X117060988Y-93480000D01*
X117567699Y-93515814D01*
G37*
X117567699Y-93515814D02*
X117738329Y-93651995D01*
X117708479Y-93814811D01*
X117596409Y-94152231D01*
X117580000Y-94238145D01*
X117404723Y-94324035D01*
X117001007Y-94327399D01*
X116552029Y-94264630D01*
X116240962Y-94152124D01*
X116204167Y-94115000D01*
X116227972Y-93920266D01*
X116310000Y-93903333D01*
X116448031Y-93774395D01*
X116415834Y-93691666D01*
X116506576Y-93548779D01*
X116941459Y-93482020D01*
X117060988Y-93480000D01*
X117567699Y-93515814D01*
G36*
X128296222Y-96054143D02*
G01*
X128375000Y-96101146D01*
X128200475Y-96212333D01*
X127951667Y-96292996D01*
X127614147Y-96304867D01*
X127528334Y-96211850D01*
X127705790Y-96055918D01*
X127951667Y-96020000D01*
X128296222Y-96054143D01*
G37*
X128296222Y-96054143D02*
X128375000Y-96101146D01*
X128200475Y-96212333D01*
X127951667Y-96292996D01*
X127614147Y-96304867D01*
X127528334Y-96211850D01*
X127705790Y-96055918D01*
X127951667Y-96020000D01*
X128296222Y-96054143D01*
G36*
X117486524Y-95251377D02*
G01*
X117685834Y-95385000D01*
X117603122Y-95534907D01*
X117191310Y-95596564D01*
X117169159Y-95596666D01*
X116717934Y-95536447D01*
X116521922Y-95390960D01*
X116521667Y-95385000D01*
X116702418Y-95224502D01*
X117038342Y-95173333D01*
X117486524Y-95251377D01*
G37*
X117486524Y-95251377D02*
X117685834Y-95385000D01*
X117603122Y-95534907D01*
X117191310Y-95596564D01*
X117169159Y-95596666D01*
X116717934Y-95536447D01*
X116521922Y-95390960D01*
X116521667Y-95385000D01*
X116702418Y-95224502D01*
X117038342Y-95173333D01*
X117486524Y-95251377D01*
G36*
X115269807Y-92054727D02*
G01*
X115831024Y-92116382D01*
X116091396Y-92206086D01*
X116098334Y-92224502D01*
X115908735Y-92324883D01*
X115425142Y-92388983D01*
X114775358Y-92416539D01*
X114087187Y-92407294D01*
X113488432Y-92360985D01*
X113106896Y-92277353D01*
X113041977Y-92230727D01*
X113176599Y-92137872D01*
X113646150Y-92068666D01*
X114362392Y-92034951D01*
X114511152Y-92033563D01*
X115269807Y-92054727D01*
G37*
X115269807Y-92054727D02*
X115831024Y-92116382D01*
X116091396Y-92206086D01*
X116098334Y-92224502D01*
X115908735Y-92324883D01*
X115425142Y-92388983D01*
X114775358Y-92416539D01*
X114087187Y-92407294D01*
X113488432Y-92360985D01*
X113106896Y-92277353D01*
X113041977Y-92230727D01*
X113176599Y-92137872D01*
X113646150Y-92068666D01*
X114362392Y-92034951D01*
X114511152Y-92033563D01*
X115269807Y-92054727D01*
G36*
X128528581Y-93539785D02*
G01*
X128517948Y-93619274D01*
X128512012Y-93873788D01*
X128614421Y-94042608D01*
X128659786Y-94178180D01*
X128482920Y-94263766D01*
X128022662Y-94309614D01*
X127217848Y-94325974D01*
X126919251Y-94326666D01*
X126006869Y-94319770D01*
X125437688Y-94287379D01*
X125131649Y-94211943D01*
X125008696Y-94075908D01*
X124988334Y-93903333D01*
X125097998Y-93583930D01*
X125494306Y-93483935D01*
X125570417Y-93483241D01*
X125935420Y-93525484D01*
X125893869Y-93649821D01*
X125871225Y-93664799D01*
X125846053Y-93805590D01*
X126243454Y-93928363D01*
X126506225Y-93970445D01*
X127183218Y-94009676D01*
X127570813Y-93878251D01*
X127657502Y-93788887D01*
X128056340Y-93520166D01*
X128274863Y-93480000D01*
X128528581Y-93539785D01*
G37*
X128528581Y-93539785D02*
X128517948Y-93619274D01*
X128512012Y-93873788D01*
X128614421Y-94042608D01*
X128659786Y-94178180D01*
X128482920Y-94263766D01*
X128022662Y-94309614D01*
X127217848Y-94325974D01*
X126919251Y-94326666D01*
X126006869Y-94319770D01*
X125437688Y-94287379D01*
X125131649Y-94211943D01*
X125008696Y-94075908D01*
X124988334Y-93903333D01*
X125097998Y-93583930D01*
X125494306Y-93483935D01*
X125570417Y-93483241D01*
X125935420Y-93525484D01*
X125893869Y-93649821D01*
X125871225Y-93664799D01*
X125846053Y-93805590D01*
X126243454Y-93928363D01*
X126506225Y-93970445D01*
X127183218Y-94009676D01*
X127570813Y-93878251D01*
X127657502Y-93788887D01*
X128056340Y-93520166D01*
X128274863Y-93480000D01*
X128528581Y-93539785D01*
G36*
X124382917Y-94600775D02*
G01*
X124565000Y-94750000D01*
X124378707Y-94888973D01*
X123919679Y-94959481D01*
X123811675Y-94961666D01*
X123330054Y-94911529D01*
X123176868Y-94778893D01*
X123189167Y-94750000D01*
X123475307Y-94597501D01*
X123942492Y-94538333D01*
X124382917Y-94600775D01*
G37*
X124382917Y-94600775D02*
X124565000Y-94750000D01*
X124378707Y-94888973D01*
X123919679Y-94959481D01*
X123811675Y-94961666D01*
X123330054Y-94911529D01*
X123176868Y-94778893D01*
X123189167Y-94750000D01*
X123475307Y-94597501D01*
X123942492Y-94538333D01*
X124382917Y-94600775D01*
G36*
X114223162Y-95951644D02*
G01*
X114948682Y-95978347D01*
X115518414Y-96026027D01*
X115816689Y-96093768D01*
X115828178Y-96102621D01*
X115690858Y-96158606D01*
X115215707Y-96202337D01*
X114488183Y-96227726D01*
X114016945Y-96231666D01*
X113169565Y-96215627D01*
X112509810Y-96172613D01*
X112131257Y-96110280D01*
X112076605Y-96072916D01*
X112268577Y-96006553D01*
X112767440Y-95964831D01*
X113457525Y-95946833D01*
X114223162Y-95951644D01*
G37*
X114223162Y-95951644D02*
X114948682Y-95978347D01*
X115518414Y-96026027D01*
X115816689Y-96093768D01*
X115828178Y-96102621D01*
X115690858Y-96158606D01*
X115215707Y-96202337D01*
X114488183Y-96227726D01*
X114016945Y-96231666D01*
X113169565Y-96215627D01*
X112509810Y-96172613D01*
X112131257Y-96110280D01*
X112076605Y-96072916D01*
X112268577Y-96006553D01*
X112767440Y-95964831D01*
X113457525Y-95946833D01*
X114223162Y-95951644D01*
G36*
X125915288Y-95245789D02*
G01*
X126046667Y-95385000D01*
X125865527Y-95544114D01*
X125517500Y-95596666D01*
X125119713Y-95524210D01*
X124988334Y-95385000D01*
X125169474Y-95225885D01*
X125517500Y-95173333D01*
X125915288Y-95245789D01*
G37*
X125915288Y-95245789D02*
X126046667Y-95385000D01*
X125865527Y-95544114D01*
X125517500Y-95596666D01*
X125119713Y-95524210D01*
X124988334Y-95385000D01*
X125169474Y-95225885D01*
X125517500Y-95173333D01*
X125915288Y-95245789D01*
G36*
X122030520Y-92180746D02*
G01*
X121895222Y-92370251D01*
X121807204Y-92429934D01*
X121627010Y-92591317D01*
X121772909Y-92630092D01*
X121948274Y-92751124D01*
X121919167Y-92845000D01*
X121633026Y-92997498D01*
X121165842Y-93056666D01*
X120725417Y-92994224D01*
X120543334Y-92845000D01*
X120723270Y-92671623D01*
X121019584Y-92612234D01*
X121332830Y-92587357D01*
X121261116Y-92527293D01*
X120966667Y-92438054D01*
X120649969Y-92331991D01*
X120678933Y-92261067D01*
X121087894Y-92181271D01*
X121178334Y-92166741D01*
X121784024Y-92109756D01*
X122030520Y-92180746D01*
G37*
X122030520Y-92180746D02*
X121895222Y-92370251D01*
X121807204Y-92429934D01*
X121627010Y-92591317D01*
X121772909Y-92630092D01*
X121948274Y-92751124D01*
X121919167Y-92845000D01*
X121633026Y-92997498D01*
X121165842Y-93056666D01*
X120725417Y-92994224D01*
X120543334Y-92845000D01*
X120723270Y-92671623D01*
X121019584Y-92612234D01*
X121332830Y-92587357D01*
X121261116Y-92527293D01*
X120966667Y-92438054D01*
X120649969Y-92331991D01*
X120678933Y-92261067D01*
X121087894Y-92181271D01*
X121178334Y-92166741D01*
X121784024Y-92109756D01*
X122030520Y-92180746D01*
G36*
X118958371Y-92033129D02*
G01*
X119381225Y-92122889D01*
X119485000Y-92210000D01*
X119293620Y-92325915D01*
X118799939Y-92402798D01*
X118320834Y-92421666D01*
X117683296Y-92386870D01*
X117260442Y-92297110D01*
X117156667Y-92210000D01*
X117348047Y-92094084D01*
X117841728Y-92017201D01*
X118320834Y-91998333D01*
X118958371Y-92033129D01*
G37*
X118958371Y-92033129D02*
X119381225Y-92122889D01*
X119485000Y-92210000D01*
X119293620Y-92325915D01*
X118799939Y-92402798D01*
X118320834Y-92421666D01*
X117683296Y-92386870D01*
X117260442Y-92297110D01*
X117156667Y-92210000D01*
X117348047Y-92094084D01*
X117841728Y-92017201D01*
X118320834Y-91998333D01*
X118958371Y-92033129D01*
G36*
X127327538Y-92148682D02*
G01*
X127623584Y-92241648D01*
X127579556Y-92358912D01*
X127198342Y-92418826D01*
X127058812Y-92421666D01*
X126448521Y-92456113D01*
X125986790Y-92540057D01*
X125958145Y-92550145D01*
X125675336Y-92559758D01*
X125623334Y-92466545D01*
X125808562Y-92315238D01*
X126259293Y-92200025D01*
X126818095Y-92138606D01*
X127327538Y-92148682D01*
G37*
X127327538Y-92148682D02*
X127623584Y-92241648D01*
X127579556Y-92358912D01*
X127198342Y-92418826D01*
X127058812Y-92421666D01*
X126448521Y-92456113D01*
X125986790Y-92540057D01*
X125958145Y-92550145D01*
X125675336Y-92559758D01*
X125623334Y-92466545D01*
X125808562Y-92315238D01*
X126259293Y-92200025D01*
X126818095Y-92138606D01*
X127327538Y-92148682D01*
G36*
X111285827Y-95447667D02*
G01*
X111371000Y-95497243D01*
X111093676Y-95529196D01*
X110700834Y-95536127D01*
X110220577Y-95520287D01*
X110080105Y-95482358D01*
X110227494Y-95444778D01*
X110853475Y-95409958D01*
X111285827Y-95447667D01*
G37*
X111285827Y-95447667D02*
X111371000Y-95497243D01*
X111093676Y-95529196D01*
X110700834Y-95536127D01*
X110220577Y-95520287D01*
X110080105Y-95482358D01*
X110227494Y-95444778D01*
X110853475Y-95409958D01*
X111285827Y-95447667D01*
G36*
X134877995Y-93831755D02*
G01*
X134911198Y-93705197D01*
X135213502Y-93255411D01*
X135711655Y-93007857D01*
X136238826Y-93017097D01*
X136512815Y-93181386D01*
X136892430Y-93771479D01*
X136937616Y-94499027D01*
X136793307Y-95089831D01*
X136559246Y-95642371D01*
X136256561Y-95900030D01*
X135888125Y-95976625D01*
X135346421Y-95939868D01*
X134988542Y-95775541D01*
X134796954Y-95334590D01*
X134759022Y-94651613D01*
X135148334Y-94651613D01*
X135170981Y-95236746D01*
X135280734Y-95512857D01*
X135540312Y-95593555D01*
X135670053Y-95596666D01*
X136177947Y-95435556D01*
X136410886Y-95187248D01*
X136623967Y-94536218D01*
X136591116Y-93955232D01*
X136356551Y-93536105D01*
X135964489Y-93370651D01*
X135585197Y-93472758D01*
X135294551Y-93735504D01*
X135167052Y-94196331D01*
X135148334Y-94651613D01*
X134759022Y-94651613D01*
X134758333Y-94639217D01*
X134877995Y-93831755D01*
G37*
X134877995Y-93831755D02*
X134911198Y-93705197D01*
X135213502Y-93255411D01*
X135711655Y-93007857D01*
X136238826Y-93017097D01*
X136512815Y-93181386D01*
X136892430Y-93771479D01*
X136937616Y-94499027D01*
X136793307Y-95089831D01*
X136559246Y-95642371D01*
X136256561Y-95900030D01*
X135888125Y-95976625D01*
X135346421Y-95939868D01*
X134988542Y-95775541D01*
X134796954Y-95334590D01*
X134759022Y-94651613D01*
X135148334Y-94651613D01*
X135170981Y-95236746D01*
X135280734Y-95512857D01*
X135540312Y-95593555D01*
X135670053Y-95596666D01*
X136177947Y-95435556D01*
X136410886Y-95187248D01*
X136623967Y-94536218D01*
X136591116Y-93955232D01*
X136356551Y-93536105D01*
X135964489Y-93370651D01*
X135585197Y-93472758D01*
X135294551Y-93735504D01*
X135167052Y-94196331D01*
X135148334Y-94651613D01*
X134759022Y-94651613D01*
X134758333Y-94639217D01*
X134877995Y-93831755D01*
G36*
X111602885Y-96721234D02*
G01*
X111652364Y-96778449D01*
X111348398Y-96810553D01*
X111124167Y-96813287D01*
X110714257Y-96792447D01*
X110652067Y-96744640D01*
X110756218Y-96716963D01*
X111307743Y-96682884D01*
X111602885Y-96721234D01*
G37*
X111602885Y-96721234D02*
X111652364Y-96778449D01*
X111348398Y-96810553D01*
X111124167Y-96813287D01*
X110714257Y-96792447D01*
X110652067Y-96744640D01*
X110756218Y-96716963D01*
X111307743Y-96682884D01*
X111602885Y-96721234D01*
G36*
X109201341Y-93378432D02*
G01*
X109325000Y-93475860D01*
X109140313Y-93624240D01*
X108692009Y-93691334D01*
X108654722Y-93691666D01*
X108230964Y-93660972D01*
X108092317Y-93586114D01*
X108099585Y-93576525D01*
X108404014Y-93429846D01*
X108833741Y-93358683D01*
X109201341Y-93378432D01*
G37*
X109201341Y-93378432D02*
X109325000Y-93475860D01*
X109140313Y-93624240D01*
X108692009Y-93691334D01*
X108654722Y-93691666D01*
X108230964Y-93660972D01*
X108092317Y-93586114D01*
X108099585Y-93576525D01*
X108404014Y-93429846D01*
X108833741Y-93358683D01*
X109201341Y-93378432D01*
G36*
X121608592Y-95229696D02*
G01*
X121713116Y-95374925D01*
X121707500Y-95385000D01*
X121408073Y-95564663D01*
X121178334Y-95596666D01*
X120778347Y-95496564D01*
X120649167Y-95385000D01*
X120732722Y-95235837D01*
X121147042Y-95173529D01*
X121178334Y-95173333D01*
X121608592Y-95229696D01*
G37*
X121608592Y-95229696D02*
X121713116Y-95374925D01*
X121707500Y-95385000D01*
X121408073Y-95564663D01*
X121178334Y-95596666D01*
X120778347Y-95496564D01*
X120649167Y-95385000D01*
X120732722Y-95235837D01*
X121147042Y-95173529D01*
X121178334Y-95173333D01*
X121608592Y-95229696D01*
G36*
X112555589Y-92701516D02*
G01*
X113602368Y-92727916D01*
X114542893Y-92770546D01*
X115286793Y-92827519D01*
X115743699Y-92896948D01*
X115836899Y-92936343D01*
X115859488Y-93153628D01*
X115851389Y-93162500D01*
X115635147Y-93157184D01*
X115624658Y-93147436D01*
X115383868Y-93107665D01*
X114789720Y-93071566D01*
X113912189Y-93041598D01*
X112821248Y-93020222D01*
X111726464Y-93010411D01*
X110410128Y-93001288D01*
X109485948Y-92985220D01*
X108922769Y-92959650D01*
X108689436Y-92922021D01*
X108754795Y-92869775D01*
X109087690Y-92800357D01*
X109113334Y-92795958D01*
X109681428Y-92738567D01*
X110504749Y-92704955D01*
X111492926Y-92693234D01*
X112555589Y-92701516D01*
G37*
X112555589Y-92701516D02*
X113602368Y-92727916D01*
X114542893Y-92770546D01*
X115286793Y-92827519D01*
X115743699Y-92896948D01*
X115836899Y-92936343D01*
X115859488Y-93153628D01*
X115851389Y-93162500D01*
X115635147Y-93157184D01*
X115624658Y-93147436D01*
X115383868Y-93107665D01*
X114789720Y-93071566D01*
X113912189Y-93041598D01*
X112821248Y-93020222D01*
X111726464Y-93010411D01*
X110410128Y-93001288D01*
X109485948Y-92985220D01*
X108922769Y-92959650D01*
X108689436Y-92922021D01*
X108754795Y-92869775D01*
X109087690Y-92800357D01*
X109113334Y-92795958D01*
X109681428Y-92738567D01*
X110504749Y-92704955D01*
X111492926Y-92693234D01*
X112555589Y-92701516D01*
G36*
X110989198Y-93312306D02*
G01*
X111547500Y-93480000D01*
X111746221Y-93598215D01*
X111595140Y-93657367D01*
X111177084Y-93676789D01*
X110667056Y-93636549D01*
X110396490Y-93518120D01*
X110383334Y-93480000D01*
X110555979Y-93311095D01*
X110989198Y-93312306D01*
G37*
X110989198Y-93312306D02*
X111547500Y-93480000D01*
X111746221Y-93598215D01*
X111595140Y-93657367D01*
X111177084Y-93676789D01*
X110667056Y-93636549D01*
X110396490Y-93518120D01*
X110383334Y-93480000D01*
X110555979Y-93311095D01*
X110989198Y-93312306D01*
G36*
X120970266Y-93554962D02*
G01*
X121392830Y-93480000D01*
X121808330Y-93532654D01*
X121904873Y-93747638D01*
X121874664Y-93903333D01*
X121730696Y-94232455D01*
X121629897Y-94297841D01*
X121334571Y-94238259D01*
X121031287Y-94178820D01*
X120698033Y-94007814D01*
X120696011Y-93797500D01*
X121390000Y-93797500D01*
X121495834Y-93903333D01*
X121601667Y-93797500D01*
X121495834Y-93691666D01*
X121390000Y-93797500D01*
X120696011Y-93797500D01*
X120695699Y-93765057D01*
X120970266Y-93554962D01*
G37*
X120970266Y-93554962D02*
X121392830Y-93480000D01*
X121808330Y-93532654D01*
X121904873Y-93747638D01*
X121874664Y-93903333D01*
X121730696Y-94232455D01*
X121629897Y-94297841D01*
X121334571Y-94238259D01*
X121031287Y-94178820D01*
X120698033Y-94007814D01*
X120696011Y-93797500D01*
X121390000Y-93797500D01*
X121495834Y-93903333D01*
X121601667Y-93797500D01*
X121495834Y-93691666D01*
X121390000Y-93797500D01*
X120696011Y-93797500D01*
X120695699Y-93765057D01*
X120970266Y-93554962D01*
G36*
X115198750Y-96712474D02*
G01*
X115384920Y-96750333D01*
X115191950Y-96779145D01*
X114664013Y-96794287D01*
X114405000Y-96795503D01*
X113769012Y-96786310D01*
X113452347Y-96761811D01*
X113499176Y-96726628D01*
X113611250Y-96712474D01*
X114406044Y-96678224D01*
X115198750Y-96712474D01*
G37*
X115198750Y-96712474D02*
X115384920Y-96750333D01*
X115191950Y-96779145D01*
X114664013Y-96794287D01*
X114405000Y-96795503D01*
X113769012Y-96786310D01*
X113452347Y-96761811D01*
X113499176Y-96726628D01*
X113611250Y-96712474D01*
X114406044Y-96678224D01*
X115198750Y-96712474D01*
G36*
X109011909Y-96730744D02*
G01*
X109218296Y-96865257D01*
X109144853Y-97006906D01*
X108790549Y-97029358D01*
X108337988Y-96938968D01*
X108131437Y-96819101D01*
X108230922Y-96697547D01*
X108559183Y-96655000D01*
X109011909Y-96730744D01*
G37*
X109011909Y-96730744D02*
X109218296Y-96865257D01*
X109144853Y-97006906D01*
X108790549Y-97029358D01*
X108337988Y-96938968D01*
X108131437Y-96819101D01*
X108230922Y-96697547D01*
X108559183Y-96655000D01*
X109011909Y-96730744D01*
G36*
X124164188Y-95234643D02*
G01*
X124353285Y-95382366D01*
X124353334Y-95385000D01*
X124169402Y-95533618D01*
X123726234Y-95596650D01*
X123718334Y-95596666D01*
X123272479Y-95535356D01*
X123083382Y-95387633D01*
X123083334Y-95385000D01*
X123267265Y-95236381D01*
X123710433Y-95173349D01*
X123718334Y-95173333D01*
X124164188Y-95234643D01*
G37*
X124164188Y-95234643D02*
X124353285Y-95382366D01*
X124353334Y-95385000D01*
X124169402Y-95533618D01*
X123726234Y-95596650D01*
X123718334Y-95596666D01*
X123272479Y-95535356D01*
X123083382Y-95387633D01*
X123083334Y-95385000D01*
X123267265Y-95236381D01*
X123710433Y-95173349D01*
X123718334Y-95173333D01*
X124164188Y-95234643D01*
G36*
X125787431Y-96202735D02*
G01*
X126032814Y-96637827D01*
X126046667Y-96778145D01*
X125861804Y-96839395D01*
X125414060Y-96866585D01*
X125385749Y-96866666D01*
X124955069Y-96832709D01*
X124880322Y-96702337D01*
X124960580Y-96582608D01*
X125094853Y-96273963D01*
X125057053Y-96159274D01*
X125115094Y-96049707D01*
X125353743Y-96020000D01*
X125787431Y-96202735D01*
G37*
X125787431Y-96202735D02*
X126032814Y-96637827D01*
X126046667Y-96778145D01*
X125861804Y-96839395D01*
X125414060Y-96866585D01*
X125385749Y-96866666D01*
X124955069Y-96832709D01*
X124880322Y-96702337D01*
X124960580Y-96582608D01*
X125094853Y-96273963D01*
X125057053Y-96159274D01*
X125115094Y-96049707D01*
X125353743Y-96020000D01*
X125787431Y-96202735D01*
G36*
X112258579Y-94849809D02*
G01*
X112609419Y-94788264D01*
X113360174Y-94773932D01*
X113452500Y-94774907D01*
X114182465Y-94790839D01*
X114525979Y-94821666D01*
X114519890Y-94876832D01*
X114201044Y-94965783D01*
X114199025Y-94966258D01*
X113689964Y-95139886D01*
X113401656Y-95339885D01*
X113387636Y-95367925D01*
X113161330Y-95526590D01*
X112744015Y-95590801D01*
X112323013Y-95558119D01*
X112085651Y-95426103D01*
X112076667Y-95385000D01*
X112244096Y-95186148D01*
X112341250Y-95170092D01*
X112451437Y-95096915D01*
X112373421Y-95032222D01*
X112782222Y-95032222D01*
X112811278Y-95158057D01*
X112923334Y-95173333D01*
X113097559Y-95095887D01*
X113064445Y-95032222D01*
X112813246Y-95006889D01*
X112782222Y-95032222D01*
X112373421Y-95032222D01*
X112288334Y-94961666D01*
X112258579Y-94849809D01*
G37*
X112258579Y-94849809D02*
X112609419Y-94788264D01*
X113360174Y-94773932D01*
X113452500Y-94774907D01*
X114182465Y-94790839D01*
X114525979Y-94821666D01*
X114519890Y-94876832D01*
X114201044Y-94965783D01*
X114199025Y-94966258D01*
X113689964Y-95139886D01*
X113401656Y-95339885D01*
X113387636Y-95367925D01*
X113161330Y-95526590D01*
X112744015Y-95590801D01*
X112323013Y-95558119D01*
X112085651Y-95426103D01*
X112076667Y-95385000D01*
X112244096Y-95186148D01*
X112341250Y-95170092D01*
X112451437Y-95096915D01*
X112373421Y-95032222D01*
X112782222Y-95032222D01*
X112811278Y-95158057D01*
X112923334Y-95173333D01*
X113097559Y-95095887D01*
X113064445Y-95032222D01*
X112813246Y-95006889D01*
X112782222Y-95032222D01*
X112373421Y-95032222D01*
X112288334Y-94961666D01*
X112258579Y-94849809D01*
G36*
X124194663Y-92698580D02*
G01*
X124459167Y-92845000D01*
X124369742Y-92989030D01*
X123938525Y-93055104D01*
X123836659Y-93056666D01*
X123342051Y-93004322D01*
X123091109Y-92875346D01*
X123083334Y-92845000D01*
X123266975Y-92695245D01*
X123705842Y-92633333D01*
X124194663Y-92698580D01*
G37*
X124194663Y-92698580D02*
X124459167Y-92845000D01*
X124369742Y-92989030D01*
X123938525Y-93055104D01*
X123836659Y-93056666D01*
X123342051Y-93004322D01*
X123091109Y-92875346D01*
X123083334Y-92845000D01*
X123266975Y-92695245D01*
X123705842Y-92633333D01*
X124194663Y-92698580D01*
G36*
X114264882Y-93928410D02*
G01*
X114637937Y-93992324D01*
X114634824Y-94102535D01*
X114616667Y-94115000D01*
X114209567Y-94246562D01*
X113604439Y-94310876D01*
X112958714Y-94307941D01*
X112429824Y-94237758D01*
X112182500Y-94115000D01*
X112299894Y-93996176D01*
X112800713Y-93925049D01*
X113492925Y-93906574D01*
X114264882Y-93928410D01*
G37*
X114264882Y-93928410D02*
X114637937Y-93992324D01*
X114634824Y-94102535D01*
X114616667Y-94115000D01*
X114209567Y-94246562D01*
X113604439Y-94310876D01*
X112958714Y-94307941D01*
X112429824Y-94237758D01*
X112182500Y-94115000D01*
X112299894Y-93996176D01*
X112800713Y-93925049D01*
X113492925Y-93906574D01*
X114264882Y-93928410D01*
G36*
X111496786Y-96087190D02*
G01*
X111547500Y-96231666D01*
X111248951Y-96409480D01*
X111005842Y-96443333D01*
X110668731Y-96352285D01*
X110595000Y-96231666D01*
X110776515Y-96073901D01*
X111136659Y-96020000D01*
X111496786Y-96087190D01*
G37*
X111496786Y-96087190D02*
X111547500Y-96231666D01*
X111248951Y-96409480D01*
X111005842Y-96443333D01*
X110668731Y-96352285D01*
X110595000Y-96231666D01*
X110776515Y-96073901D01*
X111136659Y-96020000D01*
X111496786Y-96087190D01*
G36*
X124048190Y-92076377D02*
G01*
X124247500Y-92210000D01*
X124164789Y-92359907D01*
X123752977Y-92421564D01*
X123730825Y-92421666D01*
X123279601Y-92361447D01*
X123083589Y-92215960D01*
X123083334Y-92210000D01*
X123264085Y-92049502D01*
X123600008Y-91998333D01*
X124048190Y-92076377D01*
G37*
X124048190Y-92076377D02*
X124247500Y-92210000D01*
X124164789Y-92359907D01*
X123752977Y-92421564D01*
X123730825Y-92421666D01*
X123279601Y-92361447D01*
X123083589Y-92215960D01*
X123083334Y-92210000D01*
X123264085Y-92049502D01*
X123600008Y-91998333D01*
X124048190Y-92076377D01*
G36*
X117501142Y-94706904D02*
G01*
X117886947Y-94782530D01*
X118003334Y-94880508D01*
X117814695Y-94926970D01*
X117340329Y-94947836D01*
X117103750Y-94946789D01*
X116590290Y-94916303D01*
X116479308Y-94844082D01*
X116612954Y-94771810D01*
X117016425Y-94698635D01*
X117501142Y-94706904D01*
G37*
X117501142Y-94706904D02*
X117886947Y-94782530D01*
X118003334Y-94880508D01*
X117814695Y-94926970D01*
X117340329Y-94947836D01*
X117103750Y-94946789D01*
X116590290Y-94916303D01*
X116479308Y-94844082D01*
X116612954Y-94771810D01*
X117016425Y-94698635D01*
X117501142Y-94706904D01*
G36*
X111000695Y-92130768D02*
G01*
X111030665Y-92247246D01*
X110790896Y-92347142D01*
X110222787Y-92447762D01*
X109695417Y-92516230D01*
X108987174Y-92570057D01*
X108563678Y-92533917D01*
X108478334Y-92463108D01*
X108666233Y-92356218D01*
X109135921Y-92246717D01*
X109746387Y-92153185D01*
X110356616Y-92094199D01*
X110825595Y-92088341D01*
X111000695Y-92130768D01*
G37*
X111000695Y-92130768D02*
X111030665Y-92247246D01*
X110790896Y-92347142D01*
X110222787Y-92447762D01*
X109695417Y-92516230D01*
X108987174Y-92570057D01*
X108563678Y-92533917D01*
X108478334Y-92463108D01*
X108666233Y-92356218D01*
X109135921Y-92246717D01*
X109746387Y-92153185D01*
X110356616Y-92094199D01*
X110825595Y-92088341D01*
X111000695Y-92130768D01*
G36*
X118214479Y-92684743D02*
G01*
X119181565Y-92741513D01*
X119729341Y-92824129D01*
X119857780Y-92914547D01*
X119566858Y-92994723D01*
X118856549Y-93046612D01*
X118215000Y-93056666D01*
X117368811Y-93031672D01*
X116780228Y-92963145D01*
X116526171Y-92860768D01*
X116521667Y-92843493D01*
X116722156Y-92739107D01*
X117283338Y-92683597D01*
X118144782Y-92682631D01*
X118214479Y-92684743D01*
G37*
X118214479Y-92684743D02*
X119181565Y-92741513D01*
X119729341Y-92824129D01*
X119857780Y-92914547D01*
X119566858Y-92994723D01*
X118856549Y-93046612D01*
X118215000Y-93056666D01*
X117368811Y-93031672D01*
X116780228Y-92963145D01*
X116526171Y-92860768D01*
X116521667Y-92843493D01*
X116722156Y-92739107D01*
X117283338Y-92683597D01*
X118144782Y-92682631D01*
X118214479Y-92684743D01*
G36*
X133866586Y-94224230D02*
G01*
X134079026Y-93309335D01*
X134507565Y-92560284D01*
X135081705Y-92028080D01*
X135730952Y-91763726D01*
X136384808Y-91818227D01*
X136821781Y-92086170D01*
X137118926Y-92315419D01*
X137258387Y-92222567D01*
X137293466Y-92107413D01*
X137725168Y-92107413D01*
X137802606Y-92370980D01*
X138063974Y-92886981D01*
X138233823Y-93204216D01*
X138567949Y-93922196D01*
X138690358Y-94528751D01*
X138648947Y-95233179D01*
X138589560Y-96014429D01*
X138675677Y-96460657D01*
X138928226Y-96641429D01*
X139076659Y-96655000D01*
X139318384Y-96470164D01*
X139381667Y-96119034D01*
X139527043Y-95312477D01*
X139913590Y-94394977D01*
X140466932Y-93537805D01*
X140542938Y-93444839D01*
X140888235Y-92921812D01*
X141061976Y-92432480D01*
X141038333Y-92090256D01*
X140872357Y-91998333D01*
X140628294Y-92150482D01*
X140250259Y-92533999D01*
X140078607Y-92739160D01*
X139700339Y-93185121D01*
X139433065Y-93449115D01*
X139376884Y-93479993D01*
X139216733Y-93312370D01*
X138953496Y-92894636D01*
X138867303Y-92739166D01*
X138497427Y-92231507D01*
X138123046Y-92001999D01*
X138078336Y-91998333D01*
X137820723Y-92011468D01*
X137725168Y-92107413D01*
X137293466Y-92107413D01*
X137324118Y-92006795D01*
X137581061Y-91654893D01*
X137833087Y-91575000D01*
X138338804Y-91703810D01*
X138825781Y-92012861D01*
X139133127Y-92386080D01*
X139170000Y-92539502D01*
X139234215Y-92798568D01*
X139456623Y-92769441D01*
X139881871Y-92435857D01*
X140151388Y-92182000D01*
X140725906Y-91750551D01*
X141172930Y-91659059D01*
X141442086Y-91904746D01*
X141497829Y-92256273D01*
X141382181Y-92668836D01*
X141079359Y-93287747D01*
X140654712Y-93979588D01*
X140651162Y-93984818D01*
X140221793Y-94671404D01*
X139906505Y-95278504D01*
X139772947Y-95675708D01*
X139772760Y-95678152D01*
X139735615Y-96190739D01*
X139718766Y-96420944D01*
X139537400Y-96769448D01*
X139331644Y-96946523D01*
X138965047Y-97050713D01*
X138595177Y-96805891D01*
X138369864Y-96454520D01*
X138276832Y-95917233D01*
X138283644Y-95221979D01*
X138259572Y-94270257D01*
X138083481Y-93660604D01*
X138047635Y-93606074D01*
X137852277Y-93370871D01*
X137800979Y-93459729D01*
X137849849Y-93869259D01*
X137855476Y-94936505D01*
X137582340Y-95889094D01*
X137079235Y-96649791D01*
X136394954Y-97141361D01*
X135688790Y-97290000D01*
X134885143Y-97124996D01*
X134397879Y-96770454D01*
X134035910Y-96256911D01*
X133856808Y-95571211D01*
X133851064Y-95243335D01*
X134172940Y-95243335D01*
X134344811Y-96057904D01*
X134646876Y-96546637D01*
X135187795Y-96822293D01*
X135878756Y-96846227D01*
X136538776Y-96630596D01*
X136837062Y-96399512D01*
X137186248Y-95875146D01*
X137465296Y-95209828D01*
X137489127Y-95127058D01*
X137594615Y-94514524D01*
X137511111Y-93950727D01*
X137293729Y-93389815D01*
X136786599Y-92553509D01*
X136214208Y-92126586D01*
X135618541Y-92108909D01*
X135041586Y-92500336D01*
X134525331Y-93300731D01*
X134480485Y-93399128D01*
X134215719Y-94310810D01*
X134172940Y-95243335D01*
X133851064Y-95243335D01*
X133840056Y-94615020D01*
X133866586Y-94224230D01*
G37*
X133866586Y-94224230D02*
X134079026Y-93309335D01*
X134507565Y-92560284D01*
X135081705Y-92028080D01*
X135730952Y-91763726D01*
X136384808Y-91818227D01*
X136821781Y-92086170D01*
X137118926Y-92315419D01*
X137258387Y-92222567D01*
X137293466Y-92107413D01*
X137725168Y-92107413D01*
X137802606Y-92370980D01*
X138063974Y-92886981D01*
X138233823Y-93204216D01*
X138567949Y-93922196D01*
X138690358Y-94528751D01*
X138648947Y-95233179D01*
X138589560Y-96014429D01*
X138675677Y-96460657D01*
X138928226Y-96641429D01*
X139076659Y-96655000D01*
X139318384Y-96470164D01*
X139381667Y-96119034D01*
X139527043Y-95312477D01*
X139913590Y-94394977D01*
X140466932Y-93537805D01*
X140542938Y-93444839D01*
X140888235Y-92921812D01*
X141061976Y-92432480D01*
X141038333Y-92090256D01*
X140872357Y-91998333D01*
X140628294Y-92150482D01*
X140250259Y-92533999D01*
X140078607Y-92739160D01*
X139700339Y-93185121D01*
X139433065Y-93449115D01*
X139376884Y-93479993D01*
X139216733Y-93312370D01*
X138953496Y-92894636D01*
X138867303Y-92739166D01*
X138497427Y-92231507D01*
X138123046Y-92001999D01*
X138078336Y-91998333D01*
X137820723Y-92011468D01*
X137725168Y-92107413D01*
X137293466Y-92107413D01*
X137324118Y-92006795D01*
X137581061Y-91654893D01*
X137833087Y-91575000D01*
X138338804Y-91703810D01*
X138825781Y-92012861D01*
X139133127Y-92386080D01*
X139170000Y-92539502D01*
X139234215Y-92798568D01*
X139456623Y-92769441D01*
X139881871Y-92435857D01*
X140151388Y-92182000D01*
X140725906Y-91750551D01*
X141172930Y-91659059D01*
X141442086Y-91904746D01*
X141497829Y-92256273D01*
X141382181Y-92668836D01*
X141079359Y-93287747D01*
X140654712Y-93979588D01*
X140651162Y-93984818D01*
X140221793Y-94671404D01*
X139906505Y-95278504D01*
X139772947Y-95675708D01*
X139772760Y-95678152D01*
X139735615Y-96190739D01*
X139718766Y-96420944D01*
X139537400Y-96769448D01*
X139331644Y-96946523D01*
X138965047Y-97050713D01*
X138595177Y-96805891D01*
X138369864Y-96454520D01*
X138276832Y-95917233D01*
X138283644Y-95221979D01*
X138259572Y-94270257D01*
X138083481Y-93660604D01*
X138047635Y-93606074D01*
X137852277Y-93370871D01*
X137800979Y-93459729D01*
X137849849Y-93869259D01*
X137855476Y-94936505D01*
X137582340Y-95889094D01*
X137079235Y-96649791D01*
X136394954Y-97141361D01*
X135688790Y-97290000D01*
X134885143Y-97124996D01*
X134397879Y-96770454D01*
X134035910Y-96256911D01*
X133856808Y-95571211D01*
X133851064Y-95243335D01*
X134172940Y-95243335D01*
X134344811Y-96057904D01*
X134646876Y-96546637D01*
X135187795Y-96822293D01*
X135878756Y-96846227D01*
X136538776Y-96630596D01*
X136837062Y-96399512D01*
X137186248Y-95875146D01*
X137465296Y-95209828D01*
X137489127Y-95127058D01*
X137594615Y-94514524D01*
X137511111Y-93950727D01*
X137293729Y-93389815D01*
X136786599Y-92553509D01*
X136214208Y-92126586D01*
X135618541Y-92108909D01*
X135041586Y-92500336D01*
X134525331Y-93300731D01*
X134480485Y-93399128D01*
X134215719Y-94310810D01*
X134172940Y-95243335D01*
X133851064Y-95243335D01*
X133840056Y-94615020D01*
X133866586Y-94224230D01*
G36*
X127116963Y-92815611D02*
G01*
X127825776Y-92858307D01*
X128370750Y-92921579D01*
X128375000Y-92922315D01*
X128489007Y-92977962D01*
X128273049Y-93032190D01*
X127820454Y-93077772D01*
X127224551Y-93107480D01*
X126578668Y-93114089D01*
X126099584Y-93098521D01*
X125478598Y-93036197D01*
X125075265Y-92944724D01*
X124988334Y-92879935D01*
X125179998Y-92825653D01*
X125676824Y-92797817D01*
X126361563Y-92794958D01*
X127116963Y-92815611D01*
G37*
X127116963Y-92815611D02*
X127825776Y-92858307D01*
X128370750Y-92921579D01*
X128375000Y-92922315D01*
X128489007Y-92977962D01*
X128273049Y-93032190D01*
X127820454Y-93077772D01*
X127224551Y-93107480D01*
X126578668Y-93114089D01*
X126099584Y-93098521D01*
X125478598Y-93036197D01*
X125075265Y-92944724D01*
X124988334Y-92879935D01*
X125179998Y-92825653D01*
X125676824Y-92797817D01*
X126361563Y-92794958D01*
X127116963Y-92815611D01*
G36*
X129464577Y-95858842D02*
G01*
X129526002Y-95701358D01*
X129743655Y-95048190D01*
X129853469Y-94459744D01*
X129856667Y-94378291D01*
X129924270Y-93775305D01*
X130093794Y-93033755D01*
X130315306Y-92335252D01*
X130538876Y-91861409D01*
X130554644Y-91839583D01*
X130872931Y-91681148D01*
X131444008Y-91588121D01*
X131734668Y-91577620D01*
X132369767Y-91614691D01*
X132763334Y-91782354D01*
X133095336Y-92171826D01*
X133190417Y-92315484D01*
X133571192Y-93039793D01*
X133629456Y-93597491D01*
X133372496Y-94087382D01*
X133325096Y-94141598D01*
X133104036Y-94522074D01*
X133153178Y-94995938D01*
X133200948Y-95142731D01*
X133244044Y-95860773D01*
X132918316Y-96540601D01*
X132514769Y-96916342D01*
X132139079Y-97030885D01*
X131523833Y-97083808D01*
X130801081Y-97080496D01*
X130102872Y-97026335D01*
X129561254Y-96926711D01*
X129308274Y-96787009D01*
X129307693Y-96785541D01*
X129311426Y-96505017D01*
X129710716Y-96505017D01*
X129969852Y-96667987D01*
X130206590Y-96713081D01*
X131116232Y-96815161D01*
X131746288Y-96782043D01*
X132224226Y-96594804D01*
X132529128Y-96368286D01*
X132903075Y-96002973D01*
X132991141Y-95691935D01*
X132845132Y-95234141D01*
X132830515Y-95198717D01*
X132667455Y-94698784D01*
X132726132Y-94370296D01*
X132897916Y-94145847D01*
X133194736Y-93565599D01*
X133136248Y-92973300D01*
X132778521Y-92456806D01*
X132177624Y-92103969D01*
X131527367Y-91998333D01*
X131144606Y-92004871D01*
X130881148Y-92072880D01*
X130693111Y-92274947D01*
X130536611Y-92683660D01*
X130367766Y-93371610D01*
X130183764Y-94220833D01*
X130005202Y-95030661D01*
X129843734Y-95728529D01*
X129734487Y-96162713D01*
X129710716Y-96505017D01*
X129311426Y-96505017D01*
X129312623Y-96415115D01*
X129464577Y-95858842D01*
G37*
X129464577Y-95858842D02*
X129526002Y-95701358D01*
X129743655Y-95048190D01*
X129853469Y-94459744D01*
X129856667Y-94378291D01*
X129924270Y-93775305D01*
X130093794Y-93033755D01*
X130315306Y-92335252D01*
X130538876Y-91861409D01*
X130554644Y-91839583D01*
X130872931Y-91681148D01*
X131444008Y-91588121D01*
X131734668Y-91577620D01*
X132369767Y-91614691D01*
X132763334Y-91782354D01*
X133095336Y-92171826D01*
X133190417Y-92315484D01*
X133571192Y-93039793D01*
X133629456Y-93597491D01*
X133372496Y-94087382D01*
X133325096Y-94141598D01*
X133104036Y-94522074D01*
X133153178Y-94995938D01*
X133200948Y-95142731D01*
X133244044Y-95860773D01*
X132918316Y-96540601D01*
X132514769Y-96916342D01*
X132139079Y-97030885D01*
X131523833Y-97083808D01*
X130801081Y-97080496D01*
X130102872Y-97026335D01*
X129561254Y-96926711D01*
X129308274Y-96787009D01*
X129307693Y-96785541D01*
X129311426Y-96505017D01*
X129710716Y-96505017D01*
X129969852Y-96667987D01*
X130206590Y-96713081D01*
X131116232Y-96815161D01*
X131746288Y-96782043D01*
X132224226Y-96594804D01*
X132529128Y-96368286D01*
X132903075Y-96002973D01*
X132991141Y-95691935D01*
X132845132Y-95234141D01*
X132830515Y-95198717D01*
X132667455Y-94698784D01*
X132726132Y-94370296D01*
X132897916Y-94145847D01*
X133194736Y-93565599D01*
X133136248Y-92973300D01*
X132778521Y-92456806D01*
X132177624Y-92103969D01*
X131527367Y-91998333D01*
X131144606Y-92004871D01*
X130881148Y-92072880D01*
X130693111Y-92274947D01*
X130536611Y-92683660D01*
X130367766Y-93371610D01*
X130183764Y-94220833D01*
X130005202Y-95030661D01*
X129843734Y-95728529D01*
X129734487Y-96162713D01*
X129710716Y-96505017D01*
X129311426Y-96505017D01*
X129312623Y-96415115D01*
X129464577Y-95858842D01*
G36*
X131025055Y-92949387D02*
G01*
X131422026Y-92846843D01*
X131524083Y-92845000D01*
X132121599Y-92952251D01*
X132439851Y-93226129D01*
X132420237Y-93594814D01*
X132283021Y-93775074D01*
X131928073Y-94060003D01*
X131600265Y-94048692D01*
X131285417Y-93886379D01*
X130975772Y-93519078D01*
X130966683Y-93480000D01*
X131444167Y-93480000D01*
X131705040Y-93683415D01*
X131761667Y-93691666D01*
X132035782Y-93538422D01*
X132079167Y-93480000D01*
X132012688Y-93314929D01*
X131761667Y-93268333D01*
X131461209Y-93347887D01*
X131444167Y-93480000D01*
X130966683Y-93480000D01*
X130915000Y-93257815D01*
X131025055Y-92949387D01*
G37*
X131025055Y-92949387D02*
X131422026Y-92846843D01*
X131524083Y-92845000D01*
X132121599Y-92952251D01*
X132439851Y-93226129D01*
X132420237Y-93594814D01*
X132283021Y-93775074D01*
X131928073Y-94060003D01*
X131600265Y-94048692D01*
X131285417Y-93886379D01*
X130975772Y-93519078D01*
X130966683Y-93480000D01*
X131444167Y-93480000D01*
X131705040Y-93683415D01*
X131761667Y-93691666D01*
X132035782Y-93538422D01*
X132079167Y-93480000D01*
X132012688Y-93314929D01*
X131761667Y-93268333D01*
X131461209Y-93347887D01*
X131444167Y-93480000D01*
X130966683Y-93480000D01*
X130915000Y-93257815D01*
X131025055Y-92949387D01*
D17*
X108700000Y-47653629D02*
X108700000Y-45000000D01*
X110026371Y-48980000D02*
G75*
G03*
X110026371Y-48980000I-1326371J0D01*
G01*
X122800000Y-62103629D02*
X122800000Y-59450000D01*
X124126371Y-63430000D02*
G75*
G03*
X124126371Y-63430000I-1326371J0D01*
G01*
X143500000Y-41253629D02*
X143500000Y-38600000D01*
X144826371Y-42580000D02*
G75*
G03*
X144826371Y-42580000I-1326371J0D01*
G01*
X126500000Y-47803629D02*
X126500000Y-45150000D01*
X127826371Y-49130000D02*
G75*
G03*
X127826371Y-49130000I-1326371J0D01*
G01*
X165900000Y-41353629D02*
X165900000Y-38700000D01*
X167226371Y-42680000D02*
G75*
G03*
X167226371Y-42680000I-1326371J0D01*
G01*
X183150000Y-47953629D02*
X183150000Y-45300000D01*
X184476371Y-49280000D02*
G75*
G03*
X184476371Y-49280000I-1326371J0D01*
G01*
X201300000Y-48253629D02*
X201300000Y-45600000D01*
X202626371Y-49580000D02*
G75*
G03*
X202626371Y-49580000I-1326371J0D01*
G01*
X187200000Y-62703629D02*
X187200000Y-60050000D01*
X188526371Y-64030000D02*
G75*
G03*
X188526371Y-64030000I-1326371J0D01*
G01*
X114880000Y-39980000D02*
X111100000Y-39980000D01*
X114370000Y-36830000D02*
X114370000Y-37630000D01*
X114800000Y-50480000D02*
X111100000Y-50480000D01*
X114370000Y-36830000D02*
X115230000Y-36830000D01*
X120100000Y-39980000D02*
X120100000Y-50480000D01*
X111100000Y-39980000D02*
X111100000Y-50480000D01*
X120100000Y-50480000D02*
X116400000Y-50480000D01*
X120100000Y-39980000D02*
X116320000Y-39980000D01*
X117400000Y-44480000D02*
G75*
G03*
X117400000Y-44480000I-1800000J0D01*
G01*
X136100000Y-50380000D02*
X132400000Y-50380000D01*
X135670000Y-36730000D02*
X135670000Y-37530000D01*
X141400000Y-39880000D02*
X137620000Y-39880000D01*
X136180000Y-39880000D02*
X132400000Y-39880000D01*
X132400000Y-39880000D02*
X132400000Y-50380000D01*
X141400000Y-50380000D02*
X137700000Y-50380000D01*
X141400000Y-39880000D02*
X141400000Y-50380000D01*
X135670000Y-36730000D02*
X136530000Y-36730000D01*
X138700000Y-44380000D02*
G75*
G03*
X138700000Y-44380000I-1800000J0D01*
G01*
X177400000Y-39980000D02*
X177400000Y-50480000D01*
X168400000Y-39980000D02*
X168400000Y-50480000D01*
X171670000Y-36830000D02*
X172530000Y-36830000D01*
X171670000Y-36830000D02*
X171670000Y-37630000D01*
X172180000Y-39980000D02*
X168400000Y-39980000D01*
X177400000Y-39980000D02*
X173620000Y-39980000D01*
X172100000Y-50480000D02*
X168400000Y-50480000D01*
X177400000Y-50480000D02*
X173700000Y-50480000D01*
X174700000Y-44480000D02*
G75*
G03*
X174700000Y-44480000I-1800000J0D01*
G01*
X193480000Y-39880000D02*
X189700000Y-39880000D01*
X198700000Y-39880000D02*
X198700000Y-50380000D01*
X198700000Y-39880000D02*
X194920000Y-39880000D01*
X198700000Y-50380000D02*
X195000000Y-50380000D01*
X193400000Y-50380000D02*
X189700000Y-50380000D01*
X192970000Y-36730000D02*
X193830000Y-36730000D01*
X192970000Y-36730000D02*
X192970000Y-37530000D01*
X189700000Y-39880000D02*
X189700000Y-50380000D01*
X196000000Y-44380000D02*
G75*
G03*
X196000000Y-44380000I-1800000J0D01*
G01*
X182800000Y-53000000D02*
X182800000Y-88000000D01*
X126920000Y-88000000D02*
X182800000Y-88000000D01*
X126800000Y-53000000D02*
X126800000Y-88000000D01*
X126800000Y-53000000D02*
X182800000Y-53000000D01*
X127270000Y-80610000D02*
X129930000Y-80610000D01*
X137670000Y-56730000D02*
X137670000Y-54070000D01*
X132470000Y-56730000D02*
X132470000Y-55400000D01*
X135070000Y-54070000D02*
X137670000Y-54070000D01*
X135070000Y-56730000D02*
X137670000Y-56730000D01*
X133800000Y-56730000D02*
X132470000Y-56730000D01*
X135070000Y-56730000D02*
X135070000Y-54070000D01*
X180730000Y-61770000D02*
X183330000Y-61770000D01*
X183330000Y-59170000D02*
X183330000Y-60500000D01*
X180730000Y-59170000D02*
X180730000Y-61770000D01*
X183330000Y-64370000D02*
X132410000Y-64370000D01*
X180730000Y-59170000D02*
X132410000Y-59170000D01*
X183330000Y-61770000D02*
X183330000Y-64370000D01*
X182000000Y-59170000D02*
X183330000Y-59170000D01*
X132410000Y-59170000D02*
X132410000Y-64370000D01*
X171960000Y-101720000D02*
X171960000Y-112450000D01*
X182260000Y-112460000D02*
X182260000Y-101750000D01*
X182200000Y-101720000D02*
X172060000Y-101720000D01*
X172000000Y-112460000D02*
X182160000Y-112460000D01*
X194770000Y-99220000D02*
X197370000Y-99220000D01*
X199970000Y-96620000D02*
X199970000Y-117060000D01*
X197370000Y-96620000D02*
X199970000Y-96620000D01*
X194770000Y-99220000D02*
X194770000Y-117060000D01*
X194770000Y-117060000D02*
X199970000Y-117060000D01*
X194770000Y-97950000D02*
X194770000Y-96620000D01*
X197370000Y-99220000D02*
X197370000Y-96620000D01*
X194770000Y-96620000D02*
X196100000Y-96620000D01*
X113820000Y-55170000D02*
X113820000Y-54840000D01*
X120360000Y-52760000D02*
X120360000Y-52430000D01*
X120360000Y-52430000D02*
X113820000Y-52430000D01*
X120360000Y-55170000D02*
X113820000Y-55170000D01*
X113820000Y-52430000D02*
X113820000Y-52760000D01*
X120360000Y-54840000D02*
X120360000Y-55170000D01*
X150910000Y-50670000D02*
X144370000Y-50670000D01*
X144370000Y-47930000D02*
X144370000Y-48260000D01*
X144370000Y-50670000D02*
X144370000Y-50340000D01*
X150910000Y-47930000D02*
X144370000Y-47930000D01*
X150910000Y-48260000D02*
X150910000Y-47930000D01*
X150910000Y-50340000D02*
X150910000Y-50670000D01*
X165430000Y-50570000D02*
X165430000Y-50240000D01*
X158890000Y-50570000D02*
X165430000Y-50570000D01*
X165430000Y-47830000D02*
X165430000Y-48160000D01*
X158890000Y-48160000D02*
X158890000Y-47830000D01*
X158890000Y-50240000D02*
X158890000Y-50570000D01*
X158890000Y-47830000D02*
X165430000Y-47830000D01*
X189140000Y-55370000D02*
X195680000Y-55370000D01*
X189140000Y-52960000D02*
X189140000Y-52630000D01*
X195680000Y-52630000D02*
X195680000Y-52960000D01*
X189140000Y-55040000D02*
X189140000Y-55370000D01*
X189140000Y-52630000D02*
X195680000Y-52630000D01*
X195680000Y-55370000D02*
X195680000Y-55040000D01*
X108279000Y-60366000D02*
X108279000Y-56430000D01*
X108279000Y-68670000D02*
X108279000Y-64733000D01*
X118320000Y-68670000D02*
X118320000Y-64733000D01*
X112050000Y-68670000D02*
X112430000Y-68670000D01*
X108279000Y-68670000D02*
X109600000Y-68670000D01*
X108279000Y-56430000D02*
X118320000Y-56430000D01*
X114171000Y-68670000D02*
X114930000Y-68670000D01*
X118320000Y-60366000D02*
X118320000Y-56430000D01*
X116670000Y-68670000D02*
X118320000Y-68670000D01*
X112350000Y-85570000D02*
X112730000Y-85570000D01*
X114471000Y-85570000D02*
X115230000Y-85570000D01*
X118620000Y-85570000D02*
X118620000Y-81633000D01*
X108579000Y-85570000D02*
X108579000Y-81633000D01*
X108579000Y-85570000D02*
X109900000Y-85570000D01*
X108579000Y-73330000D02*
X118620000Y-73330000D01*
X118620000Y-77266000D02*
X118620000Y-73330000D01*
X116970000Y-85570000D02*
X118620000Y-85570000D01*
X108579000Y-77266000D02*
X108579000Y-73330000D01*
X192179000Y-68970000D02*
X192179000Y-65033000D01*
X192179000Y-60666000D02*
X192179000Y-56730000D01*
X198071000Y-68970000D02*
X198830000Y-68970000D01*
X202220000Y-60666000D02*
X202220000Y-56730000D01*
X200570000Y-68970000D02*
X202220000Y-68970000D01*
X192179000Y-68970000D02*
X193500000Y-68970000D01*
X195950000Y-68970000D02*
X196330000Y-68970000D01*
X202220000Y-68970000D02*
X202220000Y-65033000D01*
X192179000Y-56730000D02*
X202220000Y-56730000D01*
X192279000Y-77216000D02*
X192279000Y-73280000D01*
X198171000Y-85520000D02*
X198930000Y-85520000D01*
X196050000Y-85520000D02*
X196430000Y-85520000D01*
X192279000Y-85520000D02*
X192279000Y-81583000D01*
X192279000Y-85520000D02*
X193600000Y-85520000D01*
X192279000Y-73280000D02*
X202320000Y-73280000D01*
X200670000Y-85520000D02*
X202320000Y-85520000D01*
X202320000Y-77216000D02*
X202320000Y-73280000D01*
X202320000Y-85520000D02*
X202320000Y-81583000D01*
X143370000Y-91940000D02*
X143370000Y-93190000D01*
X143370000Y-96440000D02*
X163810000Y-96440000D01*
X163810000Y-96440000D02*
X163810000Y-91940000D01*
X163810000Y-91940000D02*
X143370000Y-91940000D01*
X143370000Y-95190000D02*
X143370000Y-96440000D01*
X143370000Y-95190000D02*
G75*
G03*
X143370000Y-93190000I0J1000000D01*
G01*
D18*
X160250000Y-37965000D02*
X160250000Y-39335000D01*
X160250000Y-37965000D02*
X158784000Y-37965000D01*
X149550000Y-37965000D02*
X149550000Y-39335000D01*
X151016000Y-37965000D02*
X149550000Y-37965000D01*
X151016000Y-44235000D02*
X149550000Y-44235000D01*
X160250000Y-44235000D02*
X158784000Y-44235000D01*
X149550000Y-42865000D02*
X149550000Y-44235000D01*
X160250000Y-42865000D02*
X160250000Y-44235000D01*
X158784000Y-37965000D02*
G75*
G03*
X151017924Y-37962628I-3884000J-3148850D01*
G01*
X151016000Y-44235000D02*
G75*
G03*
X158782076Y-44237372I3884000J3148850D01*
G01*
D19*
X147700000Y-41100000D02*
G75*
G03*
X147700000Y-41100000I-200000J0D01*
G01*
D17*
X191800000Y-121630000D02*
X191800000Y-124770000D01*
X179500000Y-119770000D02*
X179500000Y-117050000D01*
X179500000Y-117050000D02*
X191800000Y-117050000D01*
X179500000Y-124770000D02*
X179500000Y-121630000D01*
X191800000Y-117050000D02*
X191800000Y-119770000D01*
X191800000Y-129350000D02*
X179500000Y-129350000D01*
X179500000Y-129350000D02*
X179500000Y-126630000D01*
X191800000Y-126630000D02*
X191800000Y-129350000D01*
X190129050Y-123160000D02*
G75*
G03*
X190129050Y-123160000I-4579050J0D01*
G01*
X108640000Y-102550000D02*
X120940000Y-102550000D01*
X108640000Y-110270000D02*
X108640000Y-107130000D01*
X108640000Y-105270000D02*
X108640000Y-102550000D01*
X120940000Y-114850000D02*
X108640000Y-114850000D01*
X120940000Y-102550000D02*
X120940000Y-105270000D01*
X120940000Y-107130000D02*
X120940000Y-110270000D01*
X120940000Y-112130000D02*
X120940000Y-114850000D01*
X108640000Y-114850000D02*
X108640000Y-112130000D01*
X119269050Y-108660000D02*
G75*
G03*
X119269050Y-108660000I-4579050J0D01*
G01*
X122240000Y-119770000D02*
X122240000Y-117050000D01*
X122240000Y-117050000D02*
X134540000Y-117050000D01*
X134540000Y-126630000D02*
X134540000Y-129350000D01*
X134540000Y-129350000D02*
X122240000Y-129350000D01*
X122240000Y-124770000D02*
X122240000Y-121630000D01*
X122240000Y-129350000D02*
X122240000Y-126630000D01*
X134540000Y-117050000D02*
X134540000Y-119770000D01*
X134540000Y-121630000D02*
X134540000Y-124770000D01*
X132869050Y-123160000D02*
G75*
G03*
X132869050Y-123160000I-4579050J0D01*
G01*
X148040000Y-102550000D02*
X148040000Y-105270000D01*
X148040000Y-107130000D02*
X148040000Y-110270000D01*
X135740000Y-110270000D02*
X135740000Y-107130000D01*
X135740000Y-105270000D02*
X135740000Y-102550000D01*
X135740000Y-102550000D02*
X148040000Y-102550000D01*
X135740000Y-114850000D02*
X135740000Y-112130000D01*
X148040000Y-112130000D02*
X148040000Y-114850000D01*
X148040000Y-114850000D02*
X135740000Y-114850000D01*
X146369050Y-108660000D02*
G75*
G03*
X146369050Y-108660000I-4579050J0D01*
G01*
X161740000Y-126630000D02*
X161740000Y-129350000D01*
X161740000Y-117050000D02*
X161740000Y-119770000D01*
X149440000Y-117050000D02*
X161740000Y-117050000D01*
X149440000Y-129350000D02*
X149440000Y-126630000D01*
X161740000Y-121630000D02*
X161740000Y-124770000D01*
X161740000Y-129350000D02*
X149440000Y-129350000D01*
X149440000Y-119770000D02*
X149440000Y-117050000D01*
X149440000Y-124770000D02*
X149440000Y-121630000D01*
X160069050Y-123160000D02*
G75*
G03*
X160069050Y-123160000I-4579050J0D01*
G01*
M02*
