G04 #@! TF.GenerationSoftware,KiCad,Pcbnew,6.0.7*
G04 #@! TF.CreationDate,2022-12-24T12:27:27+13:00*
G04 #@! TF.ProjectId,recurBOY,72656375-7242-44f5-992e-6b696361645f,v0_7_1*
G04 #@! TF.SameCoordinates,Original*
G04 #@! TF.FileFunction,Soldermask,Top*
G04 #@! TF.FilePolarity,Negative*
%FSLAX46Y46*%
G04 Gerber Fmt 4.6, Leading zero omitted, Abs format (unit mm)*
G04 Created by KiCad (PCBNEW 6.0.7) date 2022-12-24 12:27:27*
%MOMM*%
%LPD*%
G01*
G04 APERTURE LIST*
G04 Aperture macros list*
%AMRoundRect*
0 Rectangle with rounded corners*
0 $1 Rounding radius*
0 $2 $3 $4 $5 $6 $7 $8 $9 X,Y pos of 4 corners*
0 Add a 4 corners polygon primitive as box body*
4,1,4,$2,$3,$4,$5,$6,$7,$8,$9,$2,$3,0*
0 Add four circle primitives for the rounded corners*
1,1,$1+$1,$2,$3*
1,1,$1+$1,$4,$5*
1,1,$1+$1,$6,$7*
1,1,$1+$1,$8,$9*
0 Add four rect primitives between the rounded corners*
20,1,$1+$1,$2,$3,$4,$5,0*
20,1,$1+$1,$4,$5,$6,$7,0*
20,1,$1+$1,$6,$7,$8,$9,0*
20,1,$1+$1,$8,$9,$2,$3,0*%
G04 Aperture macros list end*
%ADD10C,3.600000*%
%ADD11RoundRect,0.200000X-0.800000X0.800000X-0.800000X-0.800000X0.800000X-0.800000X0.800000X0.800000X0*%
%ADD12O,2.000000X2.000000*%
%ADD13RoundRect,0.200000X0.965000X0.915000X-0.965000X0.915000X-0.965000X-0.915000X0.965000X-0.915000X0*%
%ADD14C,2.530000*%
%ADD15C,3.400000*%
%ADD16RoundRect,0.200000X-0.850000X-0.850000X0.850000X-0.850000X0.850000X0.850000X-0.850000X0.850000X0*%
%ADD17O,2.100000X2.100000*%
%ADD18RoundRect,0.200000X0.850000X-0.850000X0.850000X0.850000X-0.850000X0.850000X-0.850000X-0.850000X0*%
%ADD19RoundRect,0.200000X-0.850000X0.850000X-0.850000X-0.850000X0.850000X-0.850000X0.850000X0.850000X0*%
%ADD20RoundRect,0.200000X-1.200000X-0.800000X1.200000X-0.800000X1.200000X0.800000X-1.200000X0.800000X0*%
%ADD21O,2.800000X2.000000*%
%ADD22C,2.000000*%
%ADD23RoundRect,0.950000X0.750000X-1.250000X0.750000X1.250000X-0.750000X1.250000X-0.750000X-1.250000X0*%
%ADD24RoundRect,0.200000X0.900000X-0.900000X0.900000X0.900000X-0.900000X0.900000X-0.900000X-0.900000X0*%
%ADD25C,2.200000*%
%ADD26RoundRect,0.200000X0.800000X-1.200000X0.800000X1.200000X-0.800000X1.200000X-0.800000X-1.200000X0*%
%ADD27O,2.000000X2.800000*%
%ADD28C,2.950000*%
%ADD29O,3.448000X2.250000*%
G04 APERTURE END LIST*
D10*
X108500000Y-38500000D03*
X201500000Y-38500000D03*
X201500000Y-131500000D03*
X108500000Y-131500000D03*
X128950000Y-38350000D03*
X187000000Y-38650000D03*
D11*
X108700000Y-43900000D03*
D12*
X108700000Y-48980000D03*
D11*
X122800000Y-58350000D03*
D12*
X122800000Y-63430000D03*
D11*
X143500000Y-37500000D03*
D12*
X143500000Y-42580000D03*
D11*
X126500000Y-44050000D03*
D12*
X126500000Y-49130000D03*
D11*
X165900000Y-37600000D03*
D12*
X165900000Y-42680000D03*
D11*
X183150000Y-44200000D03*
D12*
X183150000Y-49280000D03*
D11*
X201300000Y-44500000D03*
D12*
X201300000Y-49580000D03*
D11*
X187200000Y-58950000D03*
D12*
X187200000Y-64030000D03*
D13*
X115600000Y-38000000D03*
D14*
X115600000Y-49400000D03*
X115600000Y-41100000D03*
D13*
X136900000Y-37900000D03*
D14*
X136900000Y-49300000D03*
X136900000Y-41000000D03*
D13*
X172900000Y-38000000D03*
D14*
X172900000Y-49400000D03*
X172900000Y-41100000D03*
D13*
X194200000Y-37900000D03*
D14*
X194200000Y-49300000D03*
X194200000Y-41000000D03*
D15*
X180300000Y-55500000D03*
X129300000Y-55500000D03*
X180300000Y-85500000D03*
X129300000Y-85500000D03*
D16*
X128600000Y-61500000D03*
D17*
X128600000Y-64040000D03*
X128600000Y-66580000D03*
X128600000Y-69120000D03*
X128600000Y-71660000D03*
X128600000Y-74200000D03*
X128600000Y-76740000D03*
X128600000Y-79280000D03*
D18*
X133800000Y-55400000D03*
D17*
X136340000Y-55400000D03*
D19*
X182000000Y-60500000D03*
D17*
X182000000Y-63040000D03*
X179460000Y-60500000D03*
X179460000Y-63040000D03*
X176920000Y-60500000D03*
X176920000Y-63040000D03*
X174380000Y-60500000D03*
X174380000Y-63040000D03*
X171840000Y-60500000D03*
X171840000Y-63040000D03*
X169300000Y-60500000D03*
X169300000Y-63040000D03*
X166760000Y-60500000D03*
X166760000Y-63040000D03*
X164220000Y-60500000D03*
X164220000Y-63040000D03*
X161680000Y-60500000D03*
X161680000Y-63040000D03*
X159140000Y-60500000D03*
X159140000Y-63040000D03*
X156600000Y-60500000D03*
X156600000Y-63040000D03*
X154060000Y-60500000D03*
X154060000Y-63040000D03*
X151520000Y-60500000D03*
X151520000Y-63040000D03*
X148980000Y-60500000D03*
X148980000Y-63040000D03*
X146440000Y-60500000D03*
X146440000Y-63040000D03*
X143900000Y-60500000D03*
X143900000Y-63040000D03*
X141360000Y-60500000D03*
X141360000Y-63040000D03*
X138820000Y-60500000D03*
X138820000Y-63040000D03*
X136280000Y-60500000D03*
X136280000Y-63040000D03*
X133740000Y-60500000D03*
X133740000Y-63040000D03*
D20*
X171900000Y-104050000D03*
D21*
X171900000Y-106850000D03*
X171900000Y-110550000D03*
X182270000Y-104050000D03*
X182300000Y-106850000D03*
X182300000Y-110550000D03*
D16*
X196100000Y-97950000D03*
D17*
X198640000Y-97950000D03*
X196100000Y-100490000D03*
X198640000Y-100490000D03*
X196100000Y-103030000D03*
X198640000Y-103030000D03*
X196100000Y-105570000D03*
X198640000Y-105570000D03*
X196100000Y-108110000D03*
X198640000Y-108110000D03*
X196100000Y-110650000D03*
X198640000Y-110650000D03*
X196100000Y-113190000D03*
X198640000Y-113190000D03*
X196100000Y-115730000D03*
X198640000Y-115730000D03*
D22*
X120900000Y-53800000D03*
D12*
X113280000Y-53800000D03*
D22*
X151450000Y-49300000D03*
D12*
X143830000Y-49300000D03*
D22*
X158350000Y-49200000D03*
D12*
X165970000Y-49200000D03*
D22*
X188600000Y-54000000D03*
D12*
X196220000Y-54000000D03*
D23*
X108900000Y-62550000D03*
X117700000Y-62550000D03*
D24*
X110800000Y-69550000D03*
D25*
X113300000Y-69550000D03*
X115800000Y-69550000D03*
D23*
X118000000Y-79450000D03*
X109200000Y-79450000D03*
D24*
X111100000Y-86450000D03*
D25*
X113600000Y-86450000D03*
X116100000Y-86450000D03*
D23*
X201600000Y-62850000D03*
X192800000Y-62850000D03*
D24*
X194700000Y-69850000D03*
D25*
X197200000Y-69850000D03*
X199700000Y-69850000D03*
D23*
X201700000Y-79400000D03*
X192900000Y-79400000D03*
D24*
X194800000Y-86400000D03*
D25*
X197300000Y-86400000D03*
X199800000Y-86400000D03*
D26*
X144700000Y-98000000D03*
D27*
X147240000Y-98000000D03*
X149780000Y-98000000D03*
X152320000Y-98000000D03*
X154860000Y-98000000D03*
X157400000Y-98000000D03*
X159940000Y-98000000D03*
X162480000Y-98000000D03*
X162480000Y-90380000D03*
X159940000Y-90380000D03*
X157400000Y-90380000D03*
X154860000Y-90380000D03*
X152320000Y-90380000D03*
X149780000Y-90380000D03*
X147240000Y-90380000D03*
X144700000Y-90380000D03*
D28*
X154900000Y-39500000D03*
D15*
X149750000Y-41100000D03*
X160050000Y-41100000D03*
D29*
X191900000Y-125700000D03*
X179400000Y-125700000D03*
X191900000Y-120700000D03*
X179400000Y-120700000D03*
X121040000Y-111200000D03*
X108540000Y-111200000D03*
X121040000Y-106200000D03*
X108540000Y-106200000D03*
X122140000Y-125700000D03*
X134640000Y-125700000D03*
X122140000Y-120700000D03*
X134640000Y-120700000D03*
X135640000Y-111200000D03*
X148140000Y-111200000D03*
X135640000Y-106200000D03*
X148140000Y-106200000D03*
X161840000Y-125700000D03*
X149340000Y-125700000D03*
X161840000Y-120700000D03*
X149340000Y-120700000D03*
M02*
