%TF.GenerationSoftware,KiCad,Pcbnew,7.0.9*%
%TF.CreationDate,2024-08-29T12:31:07+10:00*%
%TF.ProjectId,eurorack_panel,6575726f-7261-4636-9b5f-70616e656c2e,rev?*%
%TF.SameCoordinates,Original*%
%TF.FileFunction,Legend,Top*%
%TF.FilePolarity,Positive*%
%FSLAX46Y46*%
G04 Gerber Fmt 4.6, Leading zero omitted, Abs format (unit mm)*
G04 Created by KiCad (PCBNEW 7.0.9) date 2024-08-29 12:31:07*
%MOMM*%
%LPD*%
G01*
G04 APERTURE LIST*
%ADD10C,0.050000*%
%ADD11C,0.600000*%
%ADD12C,0.800000*%
%ADD13C,0.200000*%
%ADD14C,0.450000*%
%ADD15C,0.400000*%
%ADD16C,0.010000*%
G04 APERTURE END LIST*
D10*
X59800000Y-41300000D02*
G75*
G03*
X59800000Y-41300000I-1600000J0D01*
G01*
D11*
X65100000Y-139000000D02*
X65100000Y-141700000D01*
D10*
X59800000Y-163825000D02*
G75*
G03*
X59800000Y-163825000I-1600000J0D01*
G01*
X147400000Y-41300000D02*
G75*
G03*
X147400000Y-41300000I-1600000J0D01*
G01*
D11*
X63300000Y-139000000D02*
X63300000Y-141700000D01*
D10*
X147400000Y-163875000D02*
G75*
G03*
X147400000Y-163875000I-1600000J0D01*
G01*
D12*
X131726190Y-128242209D02*
X134773810Y-129385066D01*
X134773810Y-129385066D02*
X131726190Y-130527923D01*
D13*
X93371430Y-165244742D02*
X93371430Y-166044742D01*
X92857144Y-165244742D02*
X92857144Y-165873314D01*
X92857144Y-165873314D02*
X92914287Y-165987600D01*
X92914287Y-165987600D02*
X93028572Y-166044742D01*
X93028572Y-166044742D02*
X93200001Y-166044742D01*
X93200001Y-166044742D02*
X93314287Y-165987600D01*
X93314287Y-165987600D02*
X93371430Y-165930457D01*
X93942858Y-165244742D02*
X93942858Y-166044742D01*
X93942858Y-165359028D02*
X94000001Y-165301885D01*
X94000001Y-165301885D02*
X94114286Y-165244742D01*
X94114286Y-165244742D02*
X94285715Y-165244742D01*
X94285715Y-165244742D02*
X94400001Y-165301885D01*
X94400001Y-165301885D02*
X94457144Y-165416171D01*
X94457144Y-165416171D02*
X94457144Y-166044742D01*
X95542858Y-166044742D02*
X95542858Y-164844742D01*
X95542858Y-165987600D02*
X95428572Y-166044742D01*
X95428572Y-166044742D02*
X95200000Y-166044742D01*
X95200000Y-166044742D02*
X95085715Y-165987600D01*
X95085715Y-165987600D02*
X95028572Y-165930457D01*
X95028572Y-165930457D02*
X94971429Y-165816171D01*
X94971429Y-165816171D02*
X94971429Y-165473314D01*
X94971429Y-165473314D02*
X95028572Y-165359028D01*
X95028572Y-165359028D02*
X95085715Y-165301885D01*
X95085715Y-165301885D02*
X95200000Y-165244742D01*
X95200000Y-165244742D02*
X95428572Y-165244742D01*
X95428572Y-165244742D02*
X95542858Y-165301885D01*
X96571429Y-165987600D02*
X96457143Y-166044742D01*
X96457143Y-166044742D02*
X96228572Y-166044742D01*
X96228572Y-166044742D02*
X96114286Y-165987600D01*
X96114286Y-165987600D02*
X96057143Y-165873314D01*
X96057143Y-165873314D02*
X96057143Y-165416171D01*
X96057143Y-165416171D02*
X96114286Y-165301885D01*
X96114286Y-165301885D02*
X96228572Y-165244742D01*
X96228572Y-165244742D02*
X96457143Y-165244742D01*
X96457143Y-165244742D02*
X96571429Y-165301885D01*
X96571429Y-165301885D02*
X96628572Y-165416171D01*
X96628572Y-165416171D02*
X96628572Y-165530457D01*
X96628572Y-165530457D02*
X96057143Y-165644742D01*
X97142857Y-166044742D02*
X97142857Y-165244742D01*
X97142857Y-165473314D02*
X97200000Y-165359028D01*
X97200000Y-165359028D02*
X97257143Y-165301885D01*
X97257143Y-165301885D02*
X97371428Y-165244742D01*
X97371428Y-165244742D02*
X97485714Y-165244742D01*
X97828571Y-165987600D02*
X97942857Y-166044742D01*
X97942857Y-166044742D02*
X98171428Y-166044742D01*
X98171428Y-166044742D02*
X98285714Y-165987600D01*
X98285714Y-165987600D02*
X98342857Y-165873314D01*
X98342857Y-165873314D02*
X98342857Y-165816171D01*
X98342857Y-165816171D02*
X98285714Y-165701885D01*
X98285714Y-165701885D02*
X98171428Y-165644742D01*
X98171428Y-165644742D02*
X98000000Y-165644742D01*
X98000000Y-165644742D02*
X97885714Y-165587600D01*
X97885714Y-165587600D02*
X97828571Y-165473314D01*
X97828571Y-165473314D02*
X97828571Y-165416171D01*
X97828571Y-165416171D02*
X97885714Y-165301885D01*
X97885714Y-165301885D02*
X98000000Y-165244742D01*
X98000000Y-165244742D02*
X98171428Y-165244742D01*
X98171428Y-165244742D02*
X98285714Y-165301885D01*
X99371429Y-165987600D02*
X99257143Y-166044742D01*
X99257143Y-166044742D02*
X99028571Y-166044742D01*
X99028571Y-166044742D02*
X98914286Y-165987600D01*
X98914286Y-165987600D02*
X98857143Y-165930457D01*
X98857143Y-165930457D02*
X98800000Y-165816171D01*
X98800000Y-165816171D02*
X98800000Y-165473314D01*
X98800000Y-165473314D02*
X98857143Y-165359028D01*
X98857143Y-165359028D02*
X98914286Y-165301885D01*
X98914286Y-165301885D02*
X99028571Y-165244742D01*
X99028571Y-165244742D02*
X99257143Y-165244742D01*
X99257143Y-165244742D02*
X99371429Y-165301885D01*
X100057142Y-166044742D02*
X99942857Y-165987600D01*
X99942857Y-165987600D02*
X99885714Y-165930457D01*
X99885714Y-165930457D02*
X99828571Y-165816171D01*
X99828571Y-165816171D02*
X99828571Y-165473314D01*
X99828571Y-165473314D02*
X99885714Y-165359028D01*
X99885714Y-165359028D02*
X99942857Y-165301885D01*
X99942857Y-165301885D02*
X100057142Y-165244742D01*
X100057142Y-165244742D02*
X100228571Y-165244742D01*
X100228571Y-165244742D02*
X100342857Y-165301885D01*
X100342857Y-165301885D02*
X100400000Y-165359028D01*
X100400000Y-165359028D02*
X100457142Y-165473314D01*
X100457142Y-165473314D02*
X100457142Y-165816171D01*
X100457142Y-165816171D02*
X100400000Y-165930457D01*
X100400000Y-165930457D02*
X100342857Y-165987600D01*
X100342857Y-165987600D02*
X100228571Y-166044742D01*
X100228571Y-166044742D02*
X100057142Y-166044742D01*
X100971428Y-166044742D02*
X100971428Y-165244742D01*
X100971428Y-165473314D02*
X101028571Y-165359028D01*
X101028571Y-165359028D02*
X101085714Y-165301885D01*
X101085714Y-165301885D02*
X101199999Y-165244742D01*
X101199999Y-165244742D02*
X101314285Y-165244742D01*
X102171428Y-165987600D02*
X102057142Y-166044742D01*
X102057142Y-166044742D02*
X101828571Y-166044742D01*
X101828571Y-166044742D02*
X101714285Y-165987600D01*
X101714285Y-165987600D02*
X101657142Y-165873314D01*
X101657142Y-165873314D02*
X101657142Y-165416171D01*
X101657142Y-165416171D02*
X101714285Y-165301885D01*
X101714285Y-165301885D02*
X101828571Y-165244742D01*
X101828571Y-165244742D02*
X102057142Y-165244742D01*
X102057142Y-165244742D02*
X102171428Y-165301885D01*
X102171428Y-165301885D02*
X102228571Y-165416171D01*
X102228571Y-165416171D02*
X102228571Y-165530457D01*
X102228571Y-165530457D02*
X101657142Y-165644742D01*
X102685713Y-165987600D02*
X102799999Y-166044742D01*
X102799999Y-166044742D02*
X103028570Y-166044742D01*
X103028570Y-166044742D02*
X103142856Y-165987600D01*
X103142856Y-165987600D02*
X103199999Y-165873314D01*
X103199999Y-165873314D02*
X103199999Y-165816171D01*
X103199999Y-165816171D02*
X103142856Y-165701885D01*
X103142856Y-165701885D02*
X103028570Y-165644742D01*
X103028570Y-165644742D02*
X102857142Y-165644742D01*
X102857142Y-165644742D02*
X102742856Y-165587600D01*
X102742856Y-165587600D02*
X102685713Y-165473314D01*
X102685713Y-165473314D02*
X102685713Y-165416171D01*
X102685713Y-165416171D02*
X102742856Y-165301885D01*
X102742856Y-165301885D02*
X102857142Y-165244742D01*
X102857142Y-165244742D02*
X103028570Y-165244742D01*
X103028570Y-165244742D02*
X103142856Y-165301885D01*
X103714285Y-165930457D02*
X103771428Y-165987600D01*
X103771428Y-165987600D02*
X103714285Y-166044742D01*
X103714285Y-166044742D02*
X103657142Y-165987600D01*
X103657142Y-165987600D02*
X103714285Y-165930457D01*
X103714285Y-165930457D02*
X103714285Y-166044742D01*
X104228571Y-165987600D02*
X104342857Y-166044742D01*
X104342857Y-166044742D02*
X104571428Y-166044742D01*
X104571428Y-166044742D02*
X104685714Y-165987600D01*
X104685714Y-165987600D02*
X104742857Y-165873314D01*
X104742857Y-165873314D02*
X104742857Y-165816171D01*
X104742857Y-165816171D02*
X104685714Y-165701885D01*
X104685714Y-165701885D02*
X104571428Y-165644742D01*
X104571428Y-165644742D02*
X104400000Y-165644742D01*
X104400000Y-165644742D02*
X104285714Y-165587600D01*
X104285714Y-165587600D02*
X104228571Y-165473314D01*
X104228571Y-165473314D02*
X104228571Y-165416171D01*
X104228571Y-165416171D02*
X104285714Y-165301885D01*
X104285714Y-165301885D02*
X104400000Y-165244742D01*
X104400000Y-165244742D02*
X104571428Y-165244742D01*
X104571428Y-165244742D02*
X104685714Y-165301885D01*
X105257143Y-166044742D02*
X105257143Y-164844742D01*
X105771429Y-166044742D02*
X105771429Y-165416171D01*
X105771429Y-165416171D02*
X105714286Y-165301885D01*
X105714286Y-165301885D02*
X105600000Y-165244742D01*
X105600000Y-165244742D02*
X105428571Y-165244742D01*
X105428571Y-165244742D02*
X105314286Y-165301885D01*
X105314286Y-165301885D02*
X105257143Y-165359028D01*
X106514285Y-166044742D02*
X106400000Y-165987600D01*
X106400000Y-165987600D02*
X106342857Y-165930457D01*
X106342857Y-165930457D02*
X106285714Y-165816171D01*
X106285714Y-165816171D02*
X106285714Y-165473314D01*
X106285714Y-165473314D02*
X106342857Y-165359028D01*
X106342857Y-165359028D02*
X106400000Y-165301885D01*
X106400000Y-165301885D02*
X106514285Y-165244742D01*
X106514285Y-165244742D02*
X106685714Y-165244742D01*
X106685714Y-165244742D02*
X106800000Y-165301885D01*
X106800000Y-165301885D02*
X106857143Y-165359028D01*
X106857143Y-165359028D02*
X106914285Y-165473314D01*
X106914285Y-165473314D02*
X106914285Y-165816171D01*
X106914285Y-165816171D02*
X106857143Y-165930457D01*
X106857143Y-165930457D02*
X106800000Y-165987600D01*
X106800000Y-165987600D02*
X106685714Y-166044742D01*
X106685714Y-166044742D02*
X106514285Y-166044742D01*
X107428571Y-165244742D02*
X107428571Y-166444742D01*
X107428571Y-165301885D02*
X107542857Y-165244742D01*
X107542857Y-165244742D02*
X107771428Y-165244742D01*
X107771428Y-165244742D02*
X107885714Y-165301885D01*
X107885714Y-165301885D02*
X107942857Y-165359028D01*
X107942857Y-165359028D02*
X107999999Y-165473314D01*
X107999999Y-165473314D02*
X107999999Y-165816171D01*
X107999999Y-165816171D02*
X107942857Y-165930457D01*
X107942857Y-165930457D02*
X107885714Y-165987600D01*
X107885714Y-165987600D02*
X107771428Y-166044742D01*
X107771428Y-166044742D02*
X107542857Y-166044742D01*
X107542857Y-166044742D02*
X107428571Y-165987600D01*
D14*
X58500000Y-139368528D02*
X58500000Y-141425671D01*
X58628572Y-139497100D02*
X58628572Y-141297100D01*
X58757143Y-139497100D02*
X58757143Y-141297100D01*
X58885714Y-139625671D02*
X58885714Y-141168528D01*
X59014286Y-139625671D02*
X59014286Y-141168528D01*
X59142857Y-139754242D02*
X59142857Y-141039957D01*
X59271429Y-139754242D02*
X59271429Y-141039957D01*
X59400000Y-139882814D02*
X59400000Y-140911385D01*
X59528572Y-140011385D02*
X59528572Y-140782814D01*
X59657143Y-140011385D02*
X59657143Y-140782814D01*
X59785714Y-140139957D02*
X59785714Y-140654242D01*
X59914286Y-140139957D02*
X59914286Y-140654242D01*
X60042857Y-140397100D02*
X60171429Y-140397100D01*
X60042857Y-140268528D02*
X60042857Y-140525671D01*
X58371429Y-139368528D02*
X60300000Y-140397100D01*
X60300000Y-140397100D02*
X58371429Y-141425671D01*
X60428572Y-140397100D02*
X58371429Y-141554242D01*
X58371429Y-141554242D02*
X58371429Y-139239957D01*
X58371429Y-139239957D02*
X60428572Y-140397100D01*
X69764286Y-155675671D02*
X69764286Y-152975671D01*
X69764286Y-152975671D02*
X70664286Y-154904242D01*
X70664286Y-154904242D02*
X71564286Y-152975671D01*
X71564286Y-152975671D02*
X71564286Y-155675671D01*
X73364285Y-152975671D02*
X73878571Y-152975671D01*
X73878571Y-152975671D02*
X74135714Y-153104242D01*
X74135714Y-153104242D02*
X74392857Y-153361385D01*
X74392857Y-153361385D02*
X74521428Y-153875671D01*
X74521428Y-153875671D02*
X74521428Y-154775671D01*
X74521428Y-154775671D02*
X74392857Y-155289957D01*
X74392857Y-155289957D02*
X74135714Y-155547100D01*
X74135714Y-155547100D02*
X73878571Y-155675671D01*
X73878571Y-155675671D02*
X73364285Y-155675671D01*
X73364285Y-155675671D02*
X73107143Y-155547100D01*
X73107143Y-155547100D02*
X72850000Y-155289957D01*
X72850000Y-155289957D02*
X72721428Y-154775671D01*
X72721428Y-154775671D02*
X72721428Y-153875671D01*
X72721428Y-153875671D02*
X72850000Y-153361385D01*
X72850000Y-153361385D02*
X73107143Y-153104242D01*
X73107143Y-153104242D02*
X73364285Y-152975671D01*
X75678571Y-155675671D02*
X75678571Y-152975671D01*
X75678571Y-152975671D02*
X76321428Y-152975671D01*
X76321428Y-152975671D02*
X76707142Y-153104242D01*
X76707142Y-153104242D02*
X76964285Y-153361385D01*
X76964285Y-153361385D02*
X77092856Y-153618528D01*
X77092856Y-153618528D02*
X77221428Y-154132814D01*
X77221428Y-154132814D02*
X77221428Y-154518528D01*
X77221428Y-154518528D02*
X77092856Y-155032814D01*
X77092856Y-155032814D02*
X76964285Y-155289957D01*
X76964285Y-155289957D02*
X76707142Y-155547100D01*
X76707142Y-155547100D02*
X76321428Y-155675671D01*
X76321428Y-155675671D02*
X75678571Y-155675671D01*
X78378571Y-154261385D02*
X79278571Y-154261385D01*
X79664285Y-155675671D02*
X78378571Y-155675671D01*
X78378571Y-155675671D02*
X78378571Y-152975671D01*
X78378571Y-152975671D02*
X79664285Y-152975671D01*
D12*
X122892209Y-123223809D02*
X124035066Y-120176190D01*
X124035066Y-120176190D02*
X125177923Y-123223809D01*
D14*
X125764285Y-156147100D02*
X126150000Y-156275671D01*
X126150000Y-156275671D02*
X126792857Y-156275671D01*
X126792857Y-156275671D02*
X127050000Y-156147100D01*
X127050000Y-156147100D02*
X127178571Y-156018528D01*
X127178571Y-156018528D02*
X127307142Y-155761385D01*
X127307142Y-155761385D02*
X127307142Y-155504242D01*
X127307142Y-155504242D02*
X127178571Y-155247100D01*
X127178571Y-155247100D02*
X127050000Y-155118528D01*
X127050000Y-155118528D02*
X126792857Y-154989957D01*
X126792857Y-154989957D02*
X126278571Y-154861385D01*
X126278571Y-154861385D02*
X126021428Y-154732814D01*
X126021428Y-154732814D02*
X125892857Y-154604242D01*
X125892857Y-154604242D02*
X125764285Y-154347100D01*
X125764285Y-154347100D02*
X125764285Y-154089957D01*
X125764285Y-154089957D02*
X125892857Y-153832814D01*
X125892857Y-153832814D02*
X126021428Y-153704242D01*
X126021428Y-153704242D02*
X126278571Y-153575671D01*
X126278571Y-153575671D02*
X126921428Y-153575671D01*
X126921428Y-153575671D02*
X127307142Y-153704242D01*
X128464286Y-154861385D02*
X129364286Y-154861385D01*
X129750000Y-156275671D02*
X128464286Y-156275671D01*
X128464286Y-156275671D02*
X128464286Y-153575671D01*
X128464286Y-153575671D02*
X129750000Y-153575671D01*
X132192857Y-156275671D02*
X130907143Y-156275671D01*
X130907143Y-156275671D02*
X130907143Y-153575671D01*
X133092857Y-154861385D02*
X133992857Y-154861385D01*
X134378571Y-156275671D02*
X133092857Y-156275671D01*
X133092857Y-156275671D02*
X133092857Y-153575671D01*
X133092857Y-153575671D02*
X134378571Y-153575671D01*
X137078571Y-156018528D02*
X136949999Y-156147100D01*
X136949999Y-156147100D02*
X136564285Y-156275671D01*
X136564285Y-156275671D02*
X136307142Y-156275671D01*
X136307142Y-156275671D02*
X135921428Y-156147100D01*
X135921428Y-156147100D02*
X135664285Y-155889957D01*
X135664285Y-155889957D02*
X135535714Y-155632814D01*
X135535714Y-155632814D02*
X135407142Y-155118528D01*
X135407142Y-155118528D02*
X135407142Y-154732814D01*
X135407142Y-154732814D02*
X135535714Y-154218528D01*
X135535714Y-154218528D02*
X135664285Y-153961385D01*
X135664285Y-153961385D02*
X135921428Y-153704242D01*
X135921428Y-153704242D02*
X136307142Y-153575671D01*
X136307142Y-153575671D02*
X136564285Y-153575671D01*
X136564285Y-153575671D02*
X136949999Y-153704242D01*
X136949999Y-153704242D02*
X137078571Y-153832814D01*
X137849999Y-153575671D02*
X139392857Y-153575671D01*
X138621428Y-156275671D02*
X138621428Y-153575671D01*
D15*
X93000000Y-164210628D02*
X96047619Y-164210628D01*
X96428571Y-160210628D02*
X97190476Y-159639200D01*
X97190476Y-159639200D02*
X97952380Y-160210628D01*
X104428571Y-163829676D02*
X102142856Y-163829676D01*
X103285713Y-163829676D02*
X103285713Y-159829676D01*
X103285713Y-159829676D02*
X102904761Y-160401104D01*
X102904761Y-160401104D02*
X102523809Y-160782057D01*
X102523809Y-160782057D02*
X102142856Y-160972533D01*
X106904761Y-159829676D02*
X107285714Y-159829676D01*
X107285714Y-159829676D02*
X107666666Y-160020152D01*
X107666666Y-160020152D02*
X107857142Y-160210628D01*
X107857142Y-160210628D02*
X108047618Y-160591580D01*
X108047618Y-160591580D02*
X108238095Y-161353485D01*
X108238095Y-161353485D02*
X108238095Y-162305866D01*
X108238095Y-162305866D02*
X108047618Y-163067771D01*
X108047618Y-163067771D02*
X107857142Y-163448723D01*
X107857142Y-163448723D02*
X107666666Y-163639200D01*
X107666666Y-163639200D02*
X107285714Y-163829676D01*
X107285714Y-163829676D02*
X106904761Y-163829676D01*
X106904761Y-163829676D02*
X106523809Y-163639200D01*
X106523809Y-163639200D02*
X106333333Y-163448723D01*
X106333333Y-163448723D02*
X106142856Y-163067771D01*
X106142856Y-163067771D02*
X105952380Y-162305866D01*
X105952380Y-162305866D02*
X105952380Y-161353485D01*
X105952380Y-161353485D02*
X106142856Y-160591580D01*
X106142856Y-160591580D02*
X106333333Y-160210628D01*
X106333333Y-160210628D02*
X106523809Y-160020152D01*
X106523809Y-160020152D02*
X106904761Y-159829676D01*
D14*
X100400000Y-154411385D02*
X99500000Y-154411385D01*
X99500000Y-155825671D02*
X99500000Y-153125671D01*
X99500000Y-153125671D02*
X100785714Y-153125671D01*
X101557143Y-153125671D02*
X103357143Y-155825671D01*
X103357143Y-153125671D02*
X101557143Y-155825671D01*
D12*
X125307790Y-135976190D02*
X124164933Y-139023810D01*
X124164933Y-139023810D02*
X123022076Y-135976190D01*
X116573809Y-130557790D02*
X113526190Y-129414933D01*
X113526190Y-129414933D02*
X116573809Y-128272076D01*
%TO.C,G\u002A\u002A\u002A*%
D16*
X56011909Y-119230744D02*
X56218296Y-119365257D01*
X56144853Y-119506906D01*
X55790549Y-119529358D01*
X55337988Y-119438968D01*
X55131437Y-119319101D01*
X55230922Y-119197547D01*
X55559183Y-119155000D01*
X56011909Y-119230744D01*
G36*
X56011909Y-119230744D02*
G01*
X56218296Y-119365257D01*
X56144853Y-119506906D01*
X55790549Y-119529358D01*
X55337988Y-119438968D01*
X55131437Y-119319101D01*
X55230922Y-119197547D01*
X55559183Y-119155000D01*
X56011909Y-119230744D01*
G37*
X58285827Y-117947667D02*
X58371000Y-117997243D01*
X58093676Y-118029196D01*
X57700834Y-118036127D01*
X57220577Y-118020287D01*
X57080105Y-117982358D01*
X57227494Y-117944778D01*
X57853475Y-117909958D01*
X58285827Y-117947667D01*
G36*
X58285827Y-117947667D02*
G01*
X58371000Y-117997243D01*
X58093676Y-118029196D01*
X57700834Y-118036127D01*
X57220577Y-118020287D01*
X57080105Y-117982358D01*
X57227494Y-117944778D01*
X57853475Y-117909958D01*
X58285827Y-117947667D01*
G37*
X58496786Y-118587190D02*
X58547500Y-118731666D01*
X58248951Y-118909480D01*
X58005842Y-118943333D01*
X57668731Y-118852285D01*
X57595000Y-118731666D01*
X57776515Y-118573901D01*
X58136659Y-118520000D01*
X58496786Y-118587190D01*
G36*
X58496786Y-118587190D02*
G01*
X58547500Y-118731666D01*
X58248951Y-118909480D01*
X58005842Y-118943333D01*
X57668731Y-118852285D01*
X57595000Y-118731666D01*
X57776515Y-118573901D01*
X58136659Y-118520000D01*
X58496786Y-118587190D01*
G37*
X58602885Y-119221234D02*
X58652364Y-119278449D01*
X58348398Y-119310553D01*
X58124167Y-119313287D01*
X57714257Y-119292447D01*
X57652067Y-119244640D01*
X57756218Y-119216963D01*
X58307743Y-119182884D01*
X58602885Y-119221234D01*
G36*
X58602885Y-119221234D02*
G01*
X58652364Y-119278449D01*
X58348398Y-119310553D01*
X58124167Y-119313287D01*
X57714257Y-119292447D01*
X57652067Y-119244640D01*
X57756218Y-119216963D01*
X58307743Y-119182884D01*
X58602885Y-119221234D01*
G37*
X72915288Y-117745789D02*
X73046667Y-117885000D01*
X72865527Y-118044114D01*
X72517500Y-118096666D01*
X72119713Y-118024210D01*
X71988334Y-117885000D01*
X72169474Y-117725885D01*
X72517500Y-117673333D01*
X72915288Y-117745789D01*
G36*
X72915288Y-117745789D02*
G01*
X73046667Y-117885000D01*
X72865527Y-118044114D01*
X72517500Y-118096666D01*
X72119713Y-118024210D01*
X71988334Y-117885000D01*
X72169474Y-117725885D01*
X72517500Y-117673333D01*
X72915288Y-117745789D01*
G37*
X75296222Y-118554143D02*
X75375000Y-118601146D01*
X75200475Y-118712333D01*
X74951667Y-118792996D01*
X74614147Y-118804867D01*
X74528334Y-118711850D01*
X74705790Y-118555918D01*
X74951667Y-118520000D01*
X75296222Y-118554143D01*
G36*
X75296222Y-118554143D02*
G01*
X75375000Y-118601146D01*
X75200475Y-118712333D01*
X74951667Y-118792996D01*
X74614147Y-118804867D01*
X74528334Y-118711850D01*
X74705790Y-118555918D01*
X74951667Y-118520000D01*
X75296222Y-118554143D01*
G37*
X75536218Y-119221234D02*
X75585697Y-119278449D01*
X75281732Y-119310553D01*
X75057500Y-119313287D01*
X74647590Y-119292447D01*
X74585400Y-119244640D01*
X74689551Y-119216963D01*
X75241077Y-119182884D01*
X75536218Y-119221234D01*
G36*
X75536218Y-119221234D02*
G01*
X75585697Y-119278449D01*
X75281732Y-119310553D01*
X75057500Y-119313287D01*
X74647590Y-119292447D01*
X74585400Y-119244640D01*
X74689551Y-119216963D01*
X75241077Y-119182884D01*
X75536218Y-119221234D01*
G37*
X57989198Y-115812306D02*
X58547500Y-115980000D01*
X58746221Y-116098215D01*
X58595140Y-116157367D01*
X58177084Y-116176789D01*
X57667056Y-116136549D01*
X57396490Y-116018120D01*
X57383334Y-115980000D01*
X57555979Y-115811095D01*
X57989198Y-115812306D01*
G36*
X57989198Y-115812306D02*
G01*
X58547500Y-115980000D01*
X58746221Y-116098215D01*
X58595140Y-116157367D01*
X58177084Y-116176789D01*
X57667056Y-116136549D01*
X57396490Y-116018120D01*
X57383334Y-115980000D01*
X57555979Y-115811095D01*
X57989198Y-115812306D01*
G37*
X87616534Y-118685940D02*
X87640837Y-119042666D01*
X87537354Y-119378532D01*
X87454626Y-119463460D01*
X87181129Y-119441733D01*
X87136439Y-119389220D01*
X87097837Y-119047744D01*
X87238245Y-118682120D01*
X87462646Y-118520000D01*
X87616534Y-118685940D01*
G36*
X87616534Y-118685940D02*
G01*
X87640837Y-119042666D01*
X87537354Y-119378532D01*
X87454626Y-119463460D01*
X87181129Y-119441733D01*
X87136439Y-119389220D01*
X87097837Y-119047744D01*
X87238245Y-118682120D01*
X87462646Y-118520000D01*
X87616534Y-118685940D01*
G37*
X56201341Y-115878432D02*
X56325000Y-115975860D01*
X56140313Y-116124240D01*
X55692009Y-116191334D01*
X55654722Y-116191666D01*
X55230964Y-116160972D01*
X55092317Y-116086114D01*
X55099585Y-116076525D01*
X55404014Y-115929846D01*
X55833741Y-115858683D01*
X56201341Y-115878432D01*
G36*
X56201341Y-115878432D02*
G01*
X56325000Y-115975860D01*
X56140313Y-116124240D01*
X55692009Y-116191334D01*
X55654722Y-116191666D01*
X55230964Y-116160972D01*
X55092317Y-116086114D01*
X55099585Y-116076525D01*
X55404014Y-115929846D01*
X55833741Y-115858683D01*
X56201341Y-115878432D01*
G37*
X60358967Y-115825658D02*
X60456675Y-115972738D01*
X60452500Y-115980000D01*
X60160732Y-116143847D01*
X59805008Y-116191666D01*
X59413237Y-116117617D01*
X59288334Y-115980000D01*
X59472546Y-115832493D01*
X59917594Y-115768416D01*
X59935825Y-115768333D01*
X60358967Y-115825658D01*
G36*
X60358967Y-115825658D02*
G01*
X60456675Y-115972738D01*
X60452500Y-115980000D01*
X60160732Y-116143847D01*
X59805008Y-116191666D01*
X59413237Y-116117617D01*
X59288334Y-115980000D01*
X59472546Y-115832493D01*
X59917594Y-115768416D01*
X59935825Y-115768333D01*
X60358967Y-115825658D01*
G37*
X62198750Y-119212474D02*
X62384920Y-119250333D01*
X62191950Y-119279145D01*
X61664013Y-119294287D01*
X61405000Y-119295503D01*
X60769012Y-119286310D01*
X60452347Y-119261811D01*
X60499176Y-119226628D01*
X60611250Y-119212474D01*
X61406044Y-119178224D01*
X62198750Y-119212474D01*
G36*
X62198750Y-119212474D02*
G01*
X62384920Y-119250333D01*
X62191950Y-119279145D01*
X61664013Y-119294287D01*
X61405000Y-119295503D01*
X60769012Y-119286310D01*
X60452347Y-119261811D01*
X60499176Y-119226628D01*
X60611250Y-119212474D01*
X61406044Y-119178224D01*
X62198750Y-119212474D01*
G37*
X64486524Y-117751377D02*
X64685834Y-117885000D01*
X64603122Y-118034907D01*
X64191310Y-118096564D01*
X64169159Y-118096666D01*
X63717934Y-118036447D01*
X63521922Y-117890960D01*
X63521667Y-117885000D01*
X63702418Y-117724502D01*
X64038342Y-117673333D01*
X64486524Y-117751377D01*
G36*
X64486524Y-117751377D02*
G01*
X64685834Y-117885000D01*
X64603122Y-118034907D01*
X64191310Y-118096564D01*
X64169159Y-118096666D01*
X63717934Y-118036447D01*
X63521922Y-117890960D01*
X63521667Y-117885000D01*
X63702418Y-117724502D01*
X64038342Y-117673333D01*
X64486524Y-117751377D01*
G37*
X64501142Y-117206904D02*
X64886947Y-117282530D01*
X65003334Y-117380508D01*
X64814695Y-117426970D01*
X64340329Y-117447836D01*
X64103750Y-117446789D01*
X63590290Y-117416303D01*
X63479308Y-117344082D01*
X63612954Y-117271810D01*
X64016425Y-117198635D01*
X64501142Y-117206904D01*
G36*
X64501142Y-117206904D02*
G01*
X64886947Y-117282530D01*
X65003334Y-117380508D01*
X64814695Y-117426970D01*
X64340329Y-117447836D01*
X64103750Y-117446789D01*
X63590290Y-117416303D01*
X63479308Y-117344082D01*
X63612954Y-117271810D01*
X64016425Y-117198635D01*
X64501142Y-117206904D01*
G37*
X66749663Y-117738580D02*
X67014167Y-117885000D01*
X66924742Y-118029030D01*
X66493525Y-118095104D01*
X66391659Y-118096666D01*
X65897051Y-118044322D01*
X65646109Y-117915346D01*
X65638334Y-117885000D01*
X65821975Y-117735245D01*
X66260842Y-117673333D01*
X66749663Y-117738580D01*
G36*
X66749663Y-117738580D02*
G01*
X67014167Y-117885000D01*
X66924742Y-118029030D01*
X66493525Y-118095104D01*
X66391659Y-118096666D01*
X65897051Y-118044322D01*
X65646109Y-117915346D01*
X65638334Y-117885000D01*
X65821975Y-117735245D01*
X66260842Y-117673333D01*
X66749663Y-117738580D01*
G37*
X68608592Y-117729696D02*
X68713116Y-117874925D01*
X68707500Y-117885000D01*
X68408073Y-118064663D01*
X68178334Y-118096666D01*
X67778347Y-117996564D01*
X67649167Y-117885000D01*
X67732722Y-117735837D01*
X68147042Y-117673529D01*
X68178334Y-117673333D01*
X68608592Y-117729696D01*
G36*
X68608592Y-117729696D02*
G01*
X68713116Y-117874925D01*
X68707500Y-117885000D01*
X68408073Y-118064663D01*
X68178334Y-118096666D01*
X67778347Y-117996564D01*
X67649167Y-117885000D01*
X67732722Y-117735837D01*
X68147042Y-117673529D01*
X68178334Y-117673333D01*
X68608592Y-117729696D01*
G37*
X68719857Y-117116377D02*
X68919167Y-117250000D01*
X68836455Y-117399907D01*
X68424643Y-117461564D01*
X68402492Y-117461666D01*
X67951267Y-117401447D01*
X67755255Y-117255960D01*
X67755000Y-117250000D01*
X67935752Y-117089502D01*
X68271675Y-117038333D01*
X68719857Y-117116377D01*
G36*
X68719857Y-117116377D02*
G01*
X68919167Y-117250000D01*
X68836455Y-117399907D01*
X68424643Y-117461564D01*
X68402492Y-117461666D01*
X67951267Y-117401447D01*
X67755255Y-117255960D01*
X67755000Y-117250000D01*
X67935752Y-117089502D01*
X68271675Y-117038333D01*
X68719857Y-117116377D01*
G37*
X71048190Y-114576377D02*
X71247500Y-114710000D01*
X71164789Y-114859907D01*
X70752977Y-114921564D01*
X70730825Y-114921666D01*
X70279601Y-114861447D01*
X70083589Y-114715960D01*
X70083334Y-114710000D01*
X70264085Y-114549502D01*
X70600008Y-114498333D01*
X71048190Y-114576377D01*
G36*
X71048190Y-114576377D02*
G01*
X71247500Y-114710000D01*
X71164789Y-114859907D01*
X70752977Y-114921564D01*
X70730825Y-114921666D01*
X70279601Y-114861447D01*
X70083589Y-114715960D01*
X70083334Y-114710000D01*
X70264085Y-114549502D01*
X70600008Y-114498333D01*
X71048190Y-114576377D01*
G37*
X71194663Y-115198580D02*
X71459167Y-115345000D01*
X71369742Y-115489030D01*
X70938525Y-115555104D01*
X70836659Y-115556666D01*
X70342051Y-115504322D01*
X70091109Y-115375346D01*
X70083334Y-115345000D01*
X70266975Y-115195245D01*
X70705842Y-115133333D01*
X71194663Y-115198580D01*
G36*
X71194663Y-115198580D02*
G01*
X71459167Y-115345000D01*
X71369742Y-115489030D01*
X70938525Y-115555104D01*
X70836659Y-115556666D01*
X70342051Y-115504322D01*
X70091109Y-115375346D01*
X70083334Y-115345000D01*
X70266975Y-115195245D01*
X70705842Y-115133333D01*
X71194663Y-115198580D01*
G37*
X71382917Y-117100775D02*
X71565000Y-117250000D01*
X71378707Y-117388973D01*
X70919679Y-117459481D01*
X70811675Y-117461666D01*
X70330054Y-117411529D01*
X70176868Y-117278893D01*
X70189167Y-117250000D01*
X70475307Y-117097501D01*
X70942492Y-117038333D01*
X71382917Y-117100775D01*
G36*
X71382917Y-117100775D02*
G01*
X71565000Y-117250000D01*
X71378707Y-117388973D01*
X70919679Y-117459481D01*
X70811675Y-117461666D01*
X70330054Y-117411529D01*
X70176868Y-117278893D01*
X70189167Y-117250000D01*
X70475307Y-117097501D01*
X70942492Y-117038333D01*
X71382917Y-117100775D01*
G37*
X55924188Y-118581310D02*
X56113285Y-118729033D01*
X56113334Y-118731666D01*
X55929402Y-118880284D01*
X55486234Y-118943317D01*
X55478334Y-118943333D01*
X55032479Y-118882022D01*
X54843382Y-118734300D01*
X54843334Y-118731666D01*
X55027265Y-118583048D01*
X55470433Y-118520016D01*
X55478334Y-118520000D01*
X55924188Y-118581310D01*
G36*
X55924188Y-118581310D02*
G01*
X56113285Y-118729033D01*
X56113334Y-118731666D01*
X55929402Y-118880284D01*
X55486234Y-118943317D01*
X55478334Y-118943333D01*
X55032479Y-118882022D01*
X54843382Y-118734300D01*
X54843334Y-118731666D01*
X55027265Y-118583048D01*
X55470433Y-118520016D01*
X55478334Y-118520000D01*
X55924188Y-118581310D01*
G37*
X61264882Y-116428410D02*
X61637937Y-116492324D01*
X61634824Y-116602535D01*
X61616667Y-116615000D01*
X61209567Y-116746562D01*
X60604439Y-116810876D01*
X59958714Y-116807941D01*
X59429824Y-116737758D01*
X59182500Y-116615000D01*
X59299894Y-116496176D01*
X59800713Y-116425049D01*
X60492925Y-116406574D01*
X61264882Y-116428410D01*
G36*
X61264882Y-116428410D02*
G01*
X61637937Y-116492324D01*
X61634824Y-116602535D01*
X61616667Y-116615000D01*
X61209567Y-116746562D01*
X60604439Y-116810876D01*
X59958714Y-116807941D01*
X59429824Y-116737758D01*
X59182500Y-116615000D01*
X59299894Y-116496176D01*
X59800713Y-116425049D01*
X60492925Y-116406574D01*
X61264882Y-116428410D01*
G37*
X65958371Y-114533129D02*
X66381225Y-114622889D01*
X66485000Y-114710000D01*
X66293620Y-114825915D01*
X65799939Y-114902798D01*
X65320834Y-114921666D01*
X64683296Y-114886870D01*
X64260442Y-114797110D01*
X64156667Y-114710000D01*
X64348047Y-114594084D01*
X64841728Y-114517201D01*
X65320834Y-114498333D01*
X65958371Y-114533129D01*
G36*
X65958371Y-114533129D02*
G01*
X66381225Y-114622889D01*
X66485000Y-114710000D01*
X66293620Y-114825915D01*
X65799939Y-114902798D01*
X65320834Y-114921666D01*
X64683296Y-114886870D01*
X64260442Y-114797110D01*
X64156667Y-114710000D01*
X64348047Y-114594084D01*
X64841728Y-114517201D01*
X65320834Y-114498333D01*
X65958371Y-114533129D01*
G37*
X66851677Y-116035190D02*
X67027784Y-116154375D01*
X67014167Y-116191666D01*
X66863195Y-116374886D01*
X66842925Y-116378290D01*
X66632980Y-116314559D01*
X66182196Y-116195409D01*
X66167500Y-116191666D01*
X65778763Y-116086137D01*
X65751482Y-116035888D01*
X66111847Y-116012374D01*
X66338742Y-116005043D01*
X66851677Y-116035190D01*
G36*
X66851677Y-116035190D02*
G01*
X67027784Y-116154375D01*
X67014167Y-116191666D01*
X66863195Y-116374886D01*
X66842925Y-116378290D01*
X66632980Y-116314559D01*
X66182196Y-116195409D01*
X66167500Y-116191666D01*
X65778763Y-116086137D01*
X65751482Y-116035888D01*
X66111847Y-116012374D01*
X66338742Y-116005043D01*
X66851677Y-116035190D01*
G37*
X71164188Y-117734643D02*
X71353285Y-117882366D01*
X71353334Y-117885000D01*
X71169402Y-118033618D01*
X70726234Y-118096650D01*
X70718334Y-118096666D01*
X70272479Y-118035356D01*
X70083382Y-117887633D01*
X70083334Y-117885000D01*
X70267265Y-117736381D01*
X70710433Y-117673349D01*
X70718334Y-117673333D01*
X71164188Y-117734643D01*
G36*
X71164188Y-117734643D02*
G01*
X71353285Y-117882366D01*
X71353334Y-117885000D01*
X71169402Y-118033618D01*
X70726234Y-118096650D01*
X70718334Y-118096666D01*
X70272479Y-118035356D01*
X70083382Y-117887633D01*
X70083334Y-117885000D01*
X70267265Y-117736381D01*
X70710433Y-117673349D01*
X70718334Y-117673333D01*
X71164188Y-117734643D01*
G37*
X58000695Y-114630768D02*
X58030665Y-114747246D01*
X57790896Y-114847142D01*
X57222787Y-114947762D01*
X56695417Y-115016230D01*
X55987174Y-115070057D01*
X55563678Y-115033917D01*
X55478334Y-114963108D01*
X55666233Y-114856218D01*
X56135921Y-114746717D01*
X56746387Y-114653185D01*
X57356616Y-114594199D01*
X57825595Y-114588341D01*
X58000695Y-114630768D01*
G36*
X58000695Y-114630768D02*
G01*
X58030665Y-114747246D01*
X57790896Y-114847142D01*
X57222787Y-114947762D01*
X56695417Y-115016230D01*
X55987174Y-115070057D01*
X55563678Y-115033917D01*
X55478334Y-114963108D01*
X55666233Y-114856218D01*
X56135921Y-114746717D01*
X56746387Y-114653185D01*
X57356616Y-114594199D01*
X57825595Y-114588341D01*
X58000695Y-114630768D01*
G37*
X72787431Y-118702735D02*
X73032814Y-119137827D01*
X73046667Y-119278145D01*
X72861804Y-119339395D01*
X72414060Y-119366585D01*
X72385749Y-119366666D01*
X71955069Y-119332709D01*
X71880322Y-119202337D01*
X71960580Y-119082608D01*
X72094853Y-118773963D01*
X72057053Y-118659274D01*
X72115094Y-118549707D01*
X72353743Y-118520000D01*
X72787431Y-118702735D01*
G36*
X72787431Y-118702735D02*
G01*
X73032814Y-119137827D01*
X73046667Y-119278145D01*
X72861804Y-119339395D01*
X72414060Y-119366585D01*
X72385749Y-119366666D01*
X71955069Y-119332709D01*
X71880322Y-119202337D01*
X71960580Y-119082608D01*
X72094853Y-118773963D01*
X72057053Y-118659274D01*
X72115094Y-118549707D01*
X72353743Y-118520000D01*
X72787431Y-118702735D01*
G37*
X74327538Y-114648682D02*
X74623584Y-114741648D01*
X74579556Y-114858912D01*
X74198342Y-114918826D01*
X74058812Y-114921666D01*
X73448521Y-114956113D01*
X72986790Y-115040057D01*
X72958145Y-115050145D01*
X72675336Y-115059758D01*
X72623334Y-114966545D01*
X72808562Y-114815238D01*
X73259293Y-114700025D01*
X73818095Y-114638606D01*
X74327538Y-114648682D01*
G36*
X74327538Y-114648682D02*
G01*
X74623584Y-114741648D01*
X74579556Y-114858912D01*
X74198342Y-114918826D01*
X74058812Y-114921666D01*
X73448521Y-114956113D01*
X72986790Y-115040057D01*
X72958145Y-115050145D01*
X72675336Y-115059758D01*
X72623334Y-114966545D01*
X72808562Y-114815238D01*
X73259293Y-114700025D01*
X73818095Y-114638606D01*
X74327538Y-114648682D01*
G37*
X65214479Y-115184743D02*
X66181565Y-115241513D01*
X66729341Y-115324129D01*
X66857780Y-115414547D01*
X66566858Y-115494723D01*
X65856549Y-115546612D01*
X65215000Y-115556666D01*
X64368811Y-115531672D01*
X63780228Y-115463145D01*
X63526171Y-115360768D01*
X63521667Y-115343493D01*
X63722156Y-115239107D01*
X64283338Y-115183597D01*
X65144782Y-115182631D01*
X65214479Y-115184743D01*
G36*
X65214479Y-115184743D02*
G01*
X66181565Y-115241513D01*
X66729341Y-115324129D01*
X66857780Y-115414547D01*
X66566858Y-115494723D01*
X65856549Y-115546612D01*
X65215000Y-115556666D01*
X64368811Y-115531672D01*
X63780228Y-115463145D01*
X63526171Y-115360768D01*
X63521667Y-115343493D01*
X63722156Y-115239107D01*
X64283338Y-115183597D01*
X65144782Y-115182631D01*
X65214479Y-115184743D01*
G37*
X57241676Y-116502351D02*
X57936641Y-116552134D01*
X58431619Y-116628073D01*
X58590721Y-116693498D01*
X58455033Y-116751094D01*
X57981041Y-116796151D01*
X57253726Y-116822450D01*
X56771119Y-116826666D01*
X55801242Y-116805650D01*
X55181180Y-116745047D01*
X54942834Y-116648526D01*
X54947935Y-116616992D01*
X55199851Y-116536045D01*
X55748980Y-116491696D01*
X56471022Y-116481335D01*
X57241676Y-116502351D01*
G36*
X57241676Y-116502351D02*
G01*
X57936641Y-116552134D01*
X58431619Y-116628073D01*
X58590721Y-116693498D01*
X58455033Y-116751094D01*
X57981041Y-116796151D01*
X57253726Y-116822450D01*
X56771119Y-116826666D01*
X55801242Y-116805650D01*
X55181180Y-116745047D01*
X54942834Y-116648526D01*
X54947935Y-116616992D01*
X55199851Y-116536045D01*
X55748980Y-116491696D01*
X56471022Y-116481335D01*
X57241676Y-116502351D01*
G37*
X62269807Y-114554727D02*
X62831024Y-114616382D01*
X63091396Y-114706086D01*
X63098334Y-114724502D01*
X62908735Y-114824883D01*
X62425142Y-114888983D01*
X61775358Y-114916539D01*
X61087187Y-114907294D01*
X60488432Y-114860985D01*
X60106896Y-114777353D01*
X60041977Y-114730727D01*
X60176599Y-114637872D01*
X60646150Y-114568666D01*
X61362392Y-114534951D01*
X61511152Y-114533563D01*
X62269807Y-114554727D01*
G36*
X62269807Y-114554727D02*
G01*
X62831024Y-114616382D01*
X63091396Y-114706086D01*
X63098334Y-114724502D01*
X62908735Y-114824883D01*
X62425142Y-114888983D01*
X61775358Y-114916539D01*
X61087187Y-114907294D01*
X60488432Y-114860985D01*
X60106896Y-114777353D01*
X60041977Y-114730727D01*
X60176599Y-114637872D01*
X60646150Y-114568666D01*
X61362392Y-114534951D01*
X61511152Y-114533563D01*
X62269807Y-114554727D01*
G37*
X61223162Y-118451644D02*
X61948682Y-118478347D01*
X62518414Y-118526027D01*
X62816689Y-118593768D01*
X62828178Y-118602621D01*
X62690858Y-118658606D01*
X62215707Y-118702337D01*
X61488183Y-118727726D01*
X61016945Y-118731666D01*
X60169565Y-118715627D01*
X59509810Y-118672613D01*
X59131257Y-118610280D01*
X59076605Y-118572916D01*
X59268577Y-118506553D01*
X59767440Y-118464831D01*
X60457525Y-118446833D01*
X61223162Y-118451644D01*
G36*
X61223162Y-118451644D02*
G01*
X61948682Y-118478347D01*
X62518414Y-118526027D01*
X62816689Y-118593768D01*
X62828178Y-118602621D01*
X62690858Y-118658606D01*
X62215707Y-118702337D01*
X61488183Y-118727726D01*
X61016945Y-118731666D01*
X60169565Y-118715627D01*
X59509810Y-118672613D01*
X59131257Y-118610280D01*
X59076605Y-118572916D01*
X59268577Y-118506553D01*
X59767440Y-118464831D01*
X60457525Y-118446833D01*
X61223162Y-118451644D01*
G37*
X74116963Y-115315611D02*
X74825776Y-115358307D01*
X75370750Y-115421579D01*
X75375000Y-115422315D01*
X75489007Y-115477962D01*
X75273049Y-115532190D01*
X74820454Y-115577772D01*
X74224551Y-115607480D01*
X73578668Y-115614089D01*
X73099584Y-115598521D01*
X72478598Y-115536197D01*
X72075265Y-115444724D01*
X71988334Y-115379935D01*
X72179998Y-115325653D01*
X72676824Y-115297817D01*
X73361563Y-115294958D01*
X74116963Y-115315611D01*
G36*
X74116963Y-115315611D02*
G01*
X74825776Y-115358307D01*
X75370750Y-115421579D01*
X75375000Y-115422315D01*
X75489007Y-115477962D01*
X75273049Y-115532190D01*
X74820454Y-115577772D01*
X74224551Y-115607480D01*
X73578668Y-115614089D01*
X73099584Y-115598521D01*
X72478598Y-115536197D01*
X72075265Y-115444724D01*
X71988334Y-115379935D01*
X72179998Y-115325653D01*
X72676824Y-115297817D01*
X73361563Y-115294958D01*
X74116963Y-115315611D01*
G37*
X64567699Y-116015814D02*
X64738329Y-116151995D01*
X64708479Y-116314811D01*
X64596409Y-116652231D01*
X64580000Y-116738145D01*
X64404723Y-116824035D01*
X64001007Y-116827399D01*
X63552029Y-116764630D01*
X63240962Y-116652124D01*
X63204167Y-116615000D01*
X63227972Y-116420266D01*
X63310000Y-116403333D01*
X63448031Y-116274395D01*
X63415834Y-116191666D01*
X63506576Y-116048779D01*
X63941459Y-115982020D01*
X64060988Y-115980000D01*
X64567699Y-116015814D01*
G36*
X64567699Y-116015814D02*
G01*
X64738329Y-116151995D01*
X64708479Y-116314811D01*
X64596409Y-116652231D01*
X64580000Y-116738145D01*
X64404723Y-116824035D01*
X64001007Y-116827399D01*
X63552029Y-116764630D01*
X63240962Y-116652124D01*
X63204167Y-116615000D01*
X63227972Y-116420266D01*
X63310000Y-116403333D01*
X63448031Y-116274395D01*
X63415834Y-116191666D01*
X63506576Y-116048779D01*
X63941459Y-115982020D01*
X64060988Y-115980000D01*
X64567699Y-116015814D01*
G37*
X71071438Y-115917338D02*
X71301900Y-116039048D01*
X71168614Y-116141349D01*
X70930000Y-116213739D01*
X70575522Y-116322248D01*
X70616872Y-116366365D01*
X70877084Y-116382234D01*
X71249245Y-116478693D01*
X71353334Y-116615000D01*
X71234448Y-116798278D01*
X71194584Y-116797841D01*
X70877849Y-116738233D01*
X70559584Y-116677286D01*
X70162134Y-116442418D01*
X70083334Y-116176945D01*
X70230703Y-115835172D01*
X70672745Y-115797270D01*
X71071438Y-115917338D01*
G36*
X71071438Y-115917338D02*
G01*
X71301900Y-116039048D01*
X71168614Y-116141349D01*
X70930000Y-116213739D01*
X70575522Y-116322248D01*
X70616872Y-116366365D01*
X70877084Y-116382234D01*
X71249245Y-116478693D01*
X71353334Y-116615000D01*
X71234448Y-116798278D01*
X71194584Y-116797841D01*
X70877849Y-116738233D01*
X70559584Y-116677286D01*
X70162134Y-116442418D01*
X70083334Y-116176945D01*
X70230703Y-115835172D01*
X70672745Y-115797270D01*
X71071438Y-115917338D01*
G37*
X68808330Y-116032654D02*
X68904873Y-116247638D01*
X68874664Y-116403333D01*
X68730696Y-116732455D01*
X68629897Y-116797841D01*
X68334571Y-116738259D01*
X68031287Y-116678820D01*
X67698033Y-116507814D01*
X67696011Y-116297500D01*
X68390000Y-116297500D01*
X68495834Y-116403333D01*
X68601667Y-116297500D01*
X68495834Y-116191666D01*
X68390000Y-116297500D01*
X67696011Y-116297500D01*
X67695699Y-116265057D01*
X67970266Y-116054962D01*
X68392830Y-115980000D01*
X68808330Y-116032654D01*
G36*
X68808330Y-116032654D02*
G01*
X68904873Y-116247638D01*
X68874664Y-116403333D01*
X68730696Y-116732455D01*
X68629897Y-116797841D01*
X68334571Y-116738259D01*
X68031287Y-116678820D01*
X67698033Y-116507814D01*
X67696011Y-116297500D01*
X68390000Y-116297500D01*
X68495834Y-116403333D01*
X68601667Y-116297500D01*
X68495834Y-116191666D01*
X68390000Y-116297500D01*
X67696011Y-116297500D01*
X67695699Y-116265057D01*
X67970266Y-116054962D01*
X68392830Y-115980000D01*
X68808330Y-116032654D01*
G37*
X69030520Y-114680746D02*
X68895222Y-114870251D01*
X68807204Y-114929934D01*
X68627010Y-115091317D01*
X68772909Y-115130092D01*
X68948274Y-115251124D01*
X68919167Y-115345000D01*
X68633026Y-115497498D01*
X68165842Y-115556666D01*
X67725417Y-115494224D01*
X67543334Y-115345000D01*
X67723270Y-115171623D01*
X68019584Y-115112234D01*
X68332830Y-115087357D01*
X68261116Y-115027293D01*
X67966667Y-114938054D01*
X67649969Y-114831991D01*
X67678933Y-114761067D01*
X68087894Y-114681271D01*
X68178334Y-114666741D01*
X68784024Y-114609756D01*
X69030520Y-114680746D01*
G36*
X69030520Y-114680746D02*
G01*
X68895222Y-114870251D01*
X68807204Y-114929934D01*
X68627010Y-115091317D01*
X68772909Y-115130092D01*
X68948274Y-115251124D01*
X68919167Y-115345000D01*
X68633026Y-115497498D01*
X68165842Y-115556666D01*
X67725417Y-115494224D01*
X67543334Y-115345000D01*
X67723270Y-115171623D01*
X68019584Y-115112234D01*
X68332830Y-115087357D01*
X68261116Y-115027293D01*
X67966667Y-114938054D01*
X67649969Y-114831991D01*
X67678933Y-114761067D01*
X68087894Y-114681271D01*
X68178334Y-114666741D01*
X68784024Y-114609756D01*
X69030520Y-114680746D01*
G37*
X79121599Y-115452251D02*
X79439851Y-115726129D01*
X79420237Y-116094814D01*
X79283021Y-116275074D01*
X78928073Y-116560003D01*
X78600265Y-116548692D01*
X78285417Y-116386379D01*
X77975772Y-116019078D01*
X77966683Y-115980000D01*
X78444167Y-115980000D01*
X78705040Y-116183415D01*
X78761667Y-116191666D01*
X79035782Y-116038422D01*
X79079167Y-115980000D01*
X79012688Y-115814929D01*
X78761667Y-115768333D01*
X78461209Y-115847887D01*
X78444167Y-115980000D01*
X77966683Y-115980000D01*
X77915000Y-115757815D01*
X78025055Y-115449387D01*
X78422026Y-115346843D01*
X78524083Y-115345000D01*
X79121599Y-115452251D01*
G36*
X79121599Y-115452251D02*
G01*
X79439851Y-115726129D01*
X79420237Y-116094814D01*
X79283021Y-116275074D01*
X78928073Y-116560003D01*
X78600265Y-116548692D01*
X78285417Y-116386379D01*
X77975772Y-116019078D01*
X77966683Y-115980000D01*
X78444167Y-115980000D01*
X78705040Y-116183415D01*
X78761667Y-116191666D01*
X79035782Y-116038422D01*
X79079167Y-115980000D01*
X79012688Y-115814929D01*
X78761667Y-115768333D01*
X78461209Y-115847887D01*
X78444167Y-115980000D01*
X77966683Y-115980000D01*
X77915000Y-115757815D01*
X78025055Y-115449387D01*
X78422026Y-115346843D01*
X78524083Y-115345000D01*
X79121599Y-115452251D01*
G37*
X78987249Y-117469113D02*
X79336889Y-117855698D01*
X79349496Y-118356673D01*
X79142667Y-118689333D01*
X78635322Y-118928166D01*
X78034534Y-118795247D01*
X77833971Y-118670144D01*
X77591451Y-118413733D01*
X77598328Y-118316904D01*
X77931922Y-118316904D01*
X78105726Y-118486073D01*
X78497084Y-118481142D01*
X78942075Y-118327834D01*
X79079167Y-118099565D01*
X78913761Y-117810300D01*
X78550947Y-117703997D01*
X78190831Y-117818035D01*
X78102355Y-117917090D01*
X77931922Y-118316904D01*
X77598328Y-118316904D01*
X77615023Y-118081865D01*
X77721657Y-117823478D01*
X78053981Y-117361720D01*
X78501309Y-117279214D01*
X78987249Y-117469113D01*
G36*
X78987249Y-117469113D02*
G01*
X79336889Y-117855698D01*
X79349496Y-118356673D01*
X79142667Y-118689333D01*
X78635322Y-118928166D01*
X78034534Y-118795247D01*
X77833971Y-118670144D01*
X77591451Y-118413733D01*
X77598328Y-118316904D01*
X77931922Y-118316904D01*
X78105726Y-118486073D01*
X78497084Y-118481142D01*
X78942075Y-118327834D01*
X79079167Y-118099565D01*
X78913761Y-117810300D01*
X78550947Y-117703997D01*
X78190831Y-117818035D01*
X78102355Y-117917090D01*
X77931922Y-118316904D01*
X77598328Y-118316904D01*
X77615023Y-118081865D01*
X77721657Y-117823478D01*
X78053981Y-117361720D01*
X78501309Y-117279214D01*
X78987249Y-117469113D01*
G37*
X57398044Y-117272159D02*
X57925315Y-117330875D01*
X58143385Y-117414508D01*
X58140573Y-117435121D01*
X57878495Y-117534937D01*
X57349544Y-117572040D01*
X57069747Y-117563601D01*
X56439901Y-117565609D01*
X56151764Y-117680992D01*
X56113334Y-117801813D01*
X55921044Y-118024783D01*
X55425417Y-118075567D01*
X54984752Y-118053164D01*
X54938239Y-118002357D01*
X55256749Y-117888178D01*
X55266667Y-117885000D01*
X55567756Y-117756135D01*
X55451154Y-117696161D01*
X55425417Y-117694432D01*
X55110758Y-117576179D01*
X55055000Y-117461666D01*
X55252113Y-117355234D01*
X55786258Y-117280976D01*
X56571649Y-117250243D01*
X56654992Y-117250000D01*
X57398044Y-117272159D01*
G36*
X57398044Y-117272159D02*
G01*
X57925315Y-117330875D01*
X58143385Y-117414508D01*
X58140573Y-117435121D01*
X57878495Y-117534937D01*
X57349544Y-117572040D01*
X57069747Y-117563601D01*
X56439901Y-117565609D01*
X56151764Y-117680992D01*
X56113334Y-117801813D01*
X55921044Y-118024783D01*
X55425417Y-118075567D01*
X54984752Y-118053164D01*
X54938239Y-118002357D01*
X55256749Y-117888178D01*
X55266667Y-117885000D01*
X55567756Y-117756135D01*
X55451154Y-117696161D01*
X55425417Y-117694432D01*
X55110758Y-117576179D01*
X55055000Y-117461666D01*
X55252113Y-117355234D01*
X55786258Y-117280976D01*
X56571649Y-117250243D01*
X56654992Y-117250000D01*
X57398044Y-117272159D01*
G37*
X59555589Y-115201516D02*
X60602368Y-115227916D01*
X61542893Y-115270546D01*
X62286793Y-115327519D01*
X62743699Y-115396948D01*
X62836899Y-115436343D01*
X62859488Y-115653628D01*
X62851389Y-115662500D01*
X62635147Y-115657184D01*
X62624658Y-115647436D01*
X62383868Y-115607665D01*
X61789720Y-115571566D01*
X60912189Y-115541598D01*
X59821248Y-115520222D01*
X58726464Y-115510411D01*
X57410128Y-115501288D01*
X56485948Y-115485220D01*
X55922769Y-115459650D01*
X55689436Y-115422021D01*
X55754795Y-115369775D01*
X56087690Y-115300357D01*
X56113334Y-115295958D01*
X56681428Y-115238567D01*
X57504749Y-115204955D01*
X58492926Y-115193234D01*
X59555589Y-115201516D01*
G36*
X59555589Y-115201516D02*
G01*
X60602368Y-115227916D01*
X61542893Y-115270546D01*
X62286793Y-115327519D01*
X62743699Y-115396948D01*
X62836899Y-115436343D01*
X62859488Y-115653628D01*
X62851389Y-115662500D01*
X62635147Y-115657184D01*
X62624658Y-115647436D01*
X62383868Y-115607665D01*
X61789720Y-115571566D01*
X60912189Y-115541598D01*
X59821248Y-115520222D01*
X58726464Y-115510411D01*
X57410128Y-115501288D01*
X56485948Y-115485220D01*
X55922769Y-115459650D01*
X55689436Y-115422021D01*
X55754795Y-115369775D01*
X56087690Y-115300357D01*
X56113334Y-115295958D01*
X56681428Y-115238567D01*
X57504749Y-115204955D01*
X58492926Y-115193234D01*
X59555589Y-115201516D01*
G37*
X64693008Y-118389078D02*
X65470565Y-118436909D01*
X66220078Y-118515199D01*
X66829753Y-118616685D01*
X67187798Y-118734100D01*
X67215250Y-118754794D01*
X67200312Y-118893532D01*
X66844833Y-118943333D01*
X66427229Y-119010872D01*
X66273334Y-119155000D01*
X66081588Y-119269141D01*
X65585390Y-119345991D01*
X65066833Y-119366666D01*
X64400913Y-119337361D01*
X64067748Y-119256157D01*
X64061417Y-119172923D01*
X64413437Y-118987489D01*
X64791667Y-118884248D01*
X64924182Y-118825944D01*
X64677144Y-118779488D01*
X64315417Y-118760491D01*
X63715555Y-118699359D01*
X63359278Y-118575706D01*
X63310000Y-118500998D01*
X63500932Y-118413858D01*
X63999199Y-118378972D01*
X64693008Y-118389078D01*
G36*
X64693008Y-118389078D02*
G01*
X65470565Y-118436909D01*
X66220078Y-118515199D01*
X66829753Y-118616685D01*
X67187798Y-118734100D01*
X67215250Y-118754794D01*
X67200312Y-118893532D01*
X66844833Y-118943333D01*
X66427229Y-119010872D01*
X66273334Y-119155000D01*
X66081588Y-119269141D01*
X65585390Y-119345991D01*
X65066833Y-119366666D01*
X64400913Y-119337361D01*
X64067748Y-119256157D01*
X64061417Y-119172923D01*
X64413437Y-118987489D01*
X64791667Y-118884248D01*
X64924182Y-118825944D01*
X64677144Y-118779488D01*
X64315417Y-118760491D01*
X63715555Y-118699359D01*
X63359278Y-118575706D01*
X63310000Y-118500998D01*
X63500932Y-118413858D01*
X63999199Y-118378972D01*
X64693008Y-118389078D01*
G37*
X73483957Y-117196149D02*
X74155396Y-117277142D01*
X74684498Y-117395653D01*
X74943515Y-117540118D01*
X74951667Y-117570839D01*
X75131554Y-117827953D01*
X75427917Y-117947286D01*
X75511151Y-118001611D01*
X75232217Y-118046888D01*
X74815563Y-118067841D01*
X74091822Y-118044482D01*
X73705514Y-117913648D01*
X73605123Y-117779166D01*
X73328194Y-117567500D01*
X73893334Y-117567500D01*
X73999167Y-117673333D01*
X74105000Y-117567500D01*
X73999167Y-117461666D01*
X73893334Y-117567500D01*
X73328194Y-117567500D01*
X73294217Y-117541531D01*
X72598871Y-117461678D01*
X72587643Y-117461666D01*
X72090961Y-117427932D01*
X71873459Y-117342699D01*
X71893084Y-117293934D01*
X72225054Y-117192980D01*
X72797928Y-117164239D01*
X73483957Y-117196149D01*
G36*
X73483957Y-117196149D02*
G01*
X74155396Y-117277142D01*
X74684498Y-117395653D01*
X74943515Y-117540118D01*
X74951667Y-117570839D01*
X75131554Y-117827953D01*
X75427917Y-117947286D01*
X75511151Y-118001611D01*
X75232217Y-118046888D01*
X74815563Y-118067841D01*
X74091822Y-118044482D01*
X73705514Y-117913648D01*
X73605123Y-117779166D01*
X73328194Y-117567500D01*
X73893334Y-117567500D01*
X73999167Y-117673333D01*
X74105000Y-117567500D01*
X73999167Y-117461666D01*
X73893334Y-117567500D01*
X73328194Y-117567500D01*
X73294217Y-117541531D01*
X72598871Y-117461678D01*
X72587643Y-117461666D01*
X72090961Y-117427932D01*
X71873459Y-117342699D01*
X71893084Y-117293934D01*
X72225054Y-117192980D01*
X72797928Y-117164239D01*
X73483957Y-117196149D01*
G37*
X75528581Y-116039785D02*
X75517948Y-116119274D01*
X75512012Y-116373788D01*
X75614421Y-116542608D01*
X75659786Y-116678180D01*
X75482920Y-116763766D01*
X75022662Y-116809614D01*
X74217848Y-116825974D01*
X73919251Y-116826666D01*
X73006869Y-116819770D01*
X72437688Y-116787379D01*
X72131649Y-116711943D01*
X72008696Y-116575908D01*
X71988334Y-116403333D01*
X72097998Y-116083930D01*
X72494306Y-115983935D01*
X72570417Y-115983241D01*
X72935420Y-116025484D01*
X72893869Y-116149821D01*
X72871225Y-116164799D01*
X72846053Y-116305590D01*
X73243454Y-116428363D01*
X73506225Y-116470445D01*
X74183218Y-116509676D01*
X74570813Y-116378251D01*
X74657502Y-116288887D01*
X75056340Y-116020166D01*
X75274863Y-115980000D01*
X75528581Y-116039785D01*
G36*
X75528581Y-116039785D02*
G01*
X75517948Y-116119274D01*
X75512012Y-116373788D01*
X75614421Y-116542608D01*
X75659786Y-116678180D01*
X75482920Y-116763766D01*
X75022662Y-116809614D01*
X74217848Y-116825974D01*
X73919251Y-116826666D01*
X73006869Y-116819770D01*
X72437688Y-116787379D01*
X72131649Y-116711943D01*
X72008696Y-116575908D01*
X71988334Y-116403333D01*
X72097998Y-116083930D01*
X72494306Y-115983935D01*
X72570417Y-115983241D01*
X72935420Y-116025484D01*
X72893869Y-116149821D01*
X72871225Y-116164799D01*
X72846053Y-116305590D01*
X73243454Y-116428363D01*
X73506225Y-116470445D01*
X74183218Y-116509676D01*
X74570813Y-116378251D01*
X74657502Y-116288887D01*
X75056340Y-116020166D01*
X75274863Y-115980000D01*
X75528581Y-116039785D01*
G37*
X70400848Y-118573103D02*
X71022571Y-118597549D01*
X71346840Y-118637497D01*
X71353334Y-118674282D01*
X70984447Y-118908052D01*
X70896565Y-119008958D01*
X70623674Y-119142676D01*
X70066755Y-119262327D01*
X69570121Y-119321223D01*
X68897997Y-119361136D01*
X68562549Y-119324977D01*
X68481135Y-119194841D01*
X68508941Y-119091334D01*
X68500778Y-119013888D01*
X69095556Y-119013888D01*
X69124611Y-119139724D01*
X69236667Y-119155000D01*
X69410892Y-119077554D01*
X69377778Y-119013888D01*
X69126579Y-118988556D01*
X69095556Y-119013888D01*
X68500778Y-119013888D01*
X68481069Y-118826908D01*
X68097514Y-118683076D01*
X68036218Y-118673212D01*
X67977313Y-118635243D01*
X68283092Y-118602254D01*
X68894904Y-118578294D01*
X69554167Y-118568424D01*
X70400848Y-118573103D01*
G36*
X70400848Y-118573103D02*
G01*
X71022571Y-118597549D01*
X71346840Y-118637497D01*
X71353334Y-118674282D01*
X70984447Y-118908052D01*
X70896565Y-119008958D01*
X70623674Y-119142676D01*
X70066755Y-119262327D01*
X69570121Y-119321223D01*
X68897997Y-119361136D01*
X68562549Y-119324977D01*
X68481135Y-119194841D01*
X68508941Y-119091334D01*
X68500778Y-119013888D01*
X69095556Y-119013888D01*
X69124611Y-119139724D01*
X69236667Y-119155000D01*
X69410892Y-119077554D01*
X69377778Y-119013888D01*
X69126579Y-118988556D01*
X69095556Y-119013888D01*
X68500778Y-119013888D01*
X68481069Y-118826908D01*
X68097514Y-118683076D01*
X68036218Y-118673212D01*
X67977313Y-118635243D01*
X68283092Y-118602254D01*
X68894904Y-118578294D01*
X69554167Y-118568424D01*
X70400848Y-118573103D01*
G37*
X60452500Y-117274907D02*
X61182465Y-117290839D01*
X61525979Y-117321666D01*
X61519890Y-117376832D01*
X61201044Y-117465783D01*
X61199025Y-117466258D01*
X60689964Y-117639886D01*
X60401656Y-117839885D01*
X60387636Y-117867925D01*
X60161330Y-118026590D01*
X59744015Y-118090801D01*
X59323013Y-118058119D01*
X59085651Y-117926103D01*
X59076667Y-117885000D01*
X59244096Y-117686148D01*
X59341250Y-117670092D01*
X59451437Y-117596915D01*
X59373421Y-117532222D01*
X59782222Y-117532222D01*
X59811278Y-117658057D01*
X59923334Y-117673333D01*
X60097559Y-117595887D01*
X60064445Y-117532222D01*
X59813246Y-117506889D01*
X59782222Y-117532222D01*
X59373421Y-117532222D01*
X59288334Y-117461666D01*
X59258579Y-117349809D01*
X59609419Y-117288264D01*
X60360174Y-117273932D01*
X60452500Y-117274907D01*
G36*
X60452500Y-117274907D02*
G01*
X61182465Y-117290839D01*
X61525979Y-117321666D01*
X61519890Y-117376832D01*
X61201044Y-117465783D01*
X61199025Y-117466258D01*
X60689964Y-117639886D01*
X60401656Y-117839885D01*
X60387636Y-117867925D01*
X60161330Y-118026590D01*
X59744015Y-118090801D01*
X59323013Y-118058119D01*
X59085651Y-117926103D01*
X59076667Y-117885000D01*
X59244096Y-117686148D01*
X59341250Y-117670092D01*
X59451437Y-117596915D01*
X59373421Y-117532222D01*
X59782222Y-117532222D01*
X59811278Y-117658057D01*
X59923334Y-117673333D01*
X60097559Y-117595887D01*
X60064445Y-117532222D01*
X59813246Y-117506889D01*
X59782222Y-117532222D01*
X59373421Y-117532222D01*
X59288334Y-117461666D01*
X59258579Y-117349809D01*
X59609419Y-117288264D01*
X60360174Y-117273932D01*
X60452500Y-117274907D01*
G37*
X83238826Y-115517097D02*
X83512815Y-115681386D01*
X83892430Y-116271479D01*
X83937616Y-116999027D01*
X83793307Y-117589831D01*
X83559246Y-118142371D01*
X83256561Y-118400030D01*
X82888125Y-118476625D01*
X82346421Y-118439868D01*
X81988542Y-118275541D01*
X81796954Y-117834590D01*
X81759022Y-117151613D01*
X82148334Y-117151613D01*
X82170981Y-117736746D01*
X82280734Y-118012857D01*
X82540312Y-118093555D01*
X82670053Y-118096666D01*
X83177947Y-117935556D01*
X83410886Y-117687248D01*
X83623967Y-117036218D01*
X83591116Y-116455232D01*
X83356551Y-116036105D01*
X82964489Y-115870651D01*
X82585197Y-115972758D01*
X82294551Y-116235504D01*
X82167052Y-116696331D01*
X82148334Y-117151613D01*
X81759022Y-117151613D01*
X81758333Y-117139217D01*
X81877995Y-116331755D01*
X81911198Y-116205197D01*
X82213502Y-115755411D01*
X82711655Y-115507857D01*
X83238826Y-115517097D01*
G36*
X83238826Y-115517097D02*
G01*
X83512815Y-115681386D01*
X83892430Y-116271479D01*
X83937616Y-116999027D01*
X83793307Y-117589831D01*
X83559246Y-118142371D01*
X83256561Y-118400030D01*
X82888125Y-118476625D01*
X82346421Y-118439868D01*
X81988542Y-118275541D01*
X81796954Y-117834590D01*
X81759022Y-117151613D01*
X82148334Y-117151613D01*
X82170981Y-117736746D01*
X82280734Y-118012857D01*
X82540312Y-118093555D01*
X82670053Y-118096666D01*
X83177947Y-117935556D01*
X83410886Y-117687248D01*
X83623967Y-117036218D01*
X83591116Y-116455232D01*
X83356551Y-116036105D01*
X82964489Y-115870651D01*
X82585197Y-115972758D01*
X82294551Y-116235504D01*
X82167052Y-116696331D01*
X82148334Y-117151613D01*
X81759022Y-117151613D01*
X81758333Y-117139217D01*
X81877995Y-116331755D01*
X81911198Y-116205197D01*
X82213502Y-115755411D01*
X82711655Y-115507857D01*
X83238826Y-115517097D01*
G37*
X79369767Y-114114691D02*
X79763334Y-114282354D01*
X80095336Y-114671826D01*
X80190417Y-114815484D01*
X80571192Y-115539793D01*
X80629456Y-116097491D01*
X80372496Y-116587382D01*
X80325096Y-116641598D01*
X80104036Y-117022074D01*
X80153178Y-117495938D01*
X80200948Y-117642731D01*
X80244044Y-118360773D01*
X79918316Y-119040601D01*
X79514769Y-119416342D01*
X79139079Y-119530885D01*
X78523833Y-119583808D01*
X77801081Y-119580496D01*
X77102872Y-119526335D01*
X76561254Y-119426711D01*
X76308274Y-119287009D01*
X76307693Y-119285541D01*
X76311426Y-119005017D01*
X76710716Y-119005017D01*
X76969852Y-119167987D01*
X77206590Y-119213081D01*
X78116232Y-119315161D01*
X78746288Y-119282043D01*
X79224226Y-119094804D01*
X79529128Y-118868286D01*
X79903075Y-118502973D01*
X79991141Y-118191935D01*
X79845132Y-117734141D01*
X79830515Y-117698717D01*
X79667455Y-117198784D01*
X79726132Y-116870296D01*
X79897916Y-116645847D01*
X80194736Y-116065599D01*
X80136248Y-115473300D01*
X79778521Y-114956806D01*
X79177624Y-114603969D01*
X78527367Y-114498333D01*
X78144606Y-114504871D01*
X77881148Y-114572880D01*
X77693111Y-114774947D01*
X77536611Y-115183660D01*
X77367766Y-115871610D01*
X77183764Y-116720833D01*
X77005202Y-117530661D01*
X76843734Y-118228529D01*
X76734487Y-118662713D01*
X76710716Y-119005017D01*
X76311426Y-119005017D01*
X76312623Y-118915115D01*
X76464577Y-118358842D01*
X76526002Y-118201358D01*
X76743655Y-117548190D01*
X76853469Y-116959744D01*
X76856667Y-116878291D01*
X76924270Y-116275305D01*
X77093794Y-115533755D01*
X77315306Y-114835252D01*
X77538876Y-114361409D01*
X77554644Y-114339583D01*
X77872931Y-114181148D01*
X78444008Y-114088121D01*
X78734668Y-114077620D01*
X79369767Y-114114691D01*
G36*
X79369767Y-114114691D02*
G01*
X79763334Y-114282354D01*
X80095336Y-114671826D01*
X80190417Y-114815484D01*
X80571192Y-115539793D01*
X80629456Y-116097491D01*
X80372496Y-116587382D01*
X80325096Y-116641598D01*
X80104036Y-117022074D01*
X80153178Y-117495938D01*
X80200948Y-117642731D01*
X80244044Y-118360773D01*
X79918316Y-119040601D01*
X79514769Y-119416342D01*
X79139079Y-119530885D01*
X78523833Y-119583808D01*
X77801081Y-119580496D01*
X77102872Y-119526335D01*
X76561254Y-119426711D01*
X76308274Y-119287009D01*
X76307693Y-119285541D01*
X76311426Y-119005017D01*
X76710716Y-119005017D01*
X76969852Y-119167987D01*
X77206590Y-119213081D01*
X78116232Y-119315161D01*
X78746288Y-119282043D01*
X79224226Y-119094804D01*
X79529128Y-118868286D01*
X79903075Y-118502973D01*
X79991141Y-118191935D01*
X79845132Y-117734141D01*
X79830515Y-117698717D01*
X79667455Y-117198784D01*
X79726132Y-116870296D01*
X79897916Y-116645847D01*
X80194736Y-116065599D01*
X80136248Y-115473300D01*
X79778521Y-114956806D01*
X79177624Y-114603969D01*
X78527367Y-114498333D01*
X78144606Y-114504871D01*
X77881148Y-114572880D01*
X77693111Y-114774947D01*
X77536611Y-115183660D01*
X77367766Y-115871610D01*
X77183764Y-116720833D01*
X77005202Y-117530661D01*
X76843734Y-118228529D01*
X76734487Y-118662713D01*
X76710716Y-119005017D01*
X76311426Y-119005017D01*
X76312623Y-118915115D01*
X76464577Y-118358842D01*
X76526002Y-118201358D01*
X76743655Y-117548190D01*
X76853469Y-116959744D01*
X76856667Y-116878291D01*
X76924270Y-116275305D01*
X77093794Y-115533755D01*
X77315306Y-114835252D01*
X77538876Y-114361409D01*
X77554644Y-114339583D01*
X77872931Y-114181148D01*
X78444008Y-114088121D01*
X78734668Y-114077620D01*
X79369767Y-114114691D01*
G37*
X85338804Y-114203810D02*
X85825781Y-114512861D01*
X86133127Y-114886080D01*
X86170000Y-115039502D01*
X86234215Y-115298568D01*
X86456623Y-115269441D01*
X86881871Y-114935857D01*
X87151388Y-114682000D01*
X87725906Y-114250551D01*
X88172930Y-114159059D01*
X88442086Y-114404746D01*
X88497829Y-114756273D01*
X88382181Y-115168836D01*
X88079359Y-115787747D01*
X87654712Y-116479588D01*
X87651162Y-116484818D01*
X87221793Y-117171404D01*
X86906505Y-117778504D01*
X86772947Y-118175708D01*
X86772760Y-118178152D01*
X86735615Y-118690739D01*
X86718766Y-118920944D01*
X86537400Y-119269448D01*
X86331644Y-119446523D01*
X85965047Y-119550713D01*
X85595177Y-119305891D01*
X85369864Y-118954520D01*
X85276832Y-118417233D01*
X85283644Y-117721979D01*
X85259572Y-116770257D01*
X85083481Y-116160604D01*
X85047635Y-116106074D01*
X84852277Y-115870871D01*
X84800979Y-115959729D01*
X84849849Y-116369259D01*
X84855476Y-117436505D01*
X84582340Y-118389094D01*
X84079235Y-119149791D01*
X83394954Y-119641361D01*
X82688790Y-119790000D01*
X81885143Y-119624996D01*
X81397879Y-119270454D01*
X81035910Y-118756911D01*
X80856808Y-118071211D01*
X80851064Y-117743335D01*
X81172940Y-117743335D01*
X81344811Y-118557904D01*
X81646876Y-119046637D01*
X82187795Y-119322293D01*
X82878756Y-119346227D01*
X83538776Y-119130596D01*
X83837062Y-118899512D01*
X84186248Y-118375146D01*
X84465296Y-117709828D01*
X84489127Y-117627058D01*
X84594615Y-117014524D01*
X84511111Y-116450727D01*
X84293729Y-115889815D01*
X83786599Y-115053509D01*
X83214208Y-114626586D01*
X82618541Y-114608909D01*
X82041586Y-115000336D01*
X81525331Y-115800731D01*
X81480485Y-115899128D01*
X81215719Y-116810810D01*
X81172940Y-117743335D01*
X80851064Y-117743335D01*
X80840056Y-117115020D01*
X80866586Y-116724230D01*
X81079026Y-115809335D01*
X81507565Y-115060284D01*
X82081705Y-114528080D01*
X82730952Y-114263726D01*
X83384808Y-114318227D01*
X83821781Y-114586170D01*
X84118926Y-114815419D01*
X84258387Y-114722567D01*
X84293466Y-114607413D01*
X84725168Y-114607413D01*
X84802606Y-114870980D01*
X85063974Y-115386981D01*
X85233823Y-115704216D01*
X85567949Y-116422196D01*
X85690358Y-117028751D01*
X85648947Y-117733179D01*
X85589560Y-118514429D01*
X85675677Y-118960657D01*
X85928226Y-119141429D01*
X86076659Y-119155000D01*
X86318384Y-118970164D01*
X86381667Y-118619034D01*
X86527043Y-117812477D01*
X86913590Y-116894977D01*
X87466932Y-116037805D01*
X87542938Y-115944839D01*
X87888235Y-115421812D01*
X88061976Y-114932480D01*
X88038333Y-114590256D01*
X87872357Y-114498333D01*
X87628294Y-114650482D01*
X87250259Y-115033999D01*
X87078607Y-115239160D01*
X86700339Y-115685121D01*
X86433065Y-115949115D01*
X86376884Y-115979993D01*
X86216733Y-115812370D01*
X85953496Y-115394636D01*
X85867303Y-115239166D01*
X85497427Y-114731507D01*
X85123046Y-114501999D01*
X85078336Y-114498333D01*
X84820723Y-114511468D01*
X84725168Y-114607413D01*
X84293466Y-114607413D01*
X84324118Y-114506795D01*
X84581061Y-114154893D01*
X84833087Y-114075000D01*
X85338804Y-114203810D01*
G36*
X85338804Y-114203810D02*
G01*
X85825781Y-114512861D01*
X86133127Y-114886080D01*
X86170000Y-115039502D01*
X86234215Y-115298568D01*
X86456623Y-115269441D01*
X86881871Y-114935857D01*
X87151388Y-114682000D01*
X87725906Y-114250551D01*
X88172930Y-114159059D01*
X88442086Y-114404746D01*
X88497829Y-114756273D01*
X88382181Y-115168836D01*
X88079359Y-115787747D01*
X87654712Y-116479588D01*
X87651162Y-116484818D01*
X87221793Y-117171404D01*
X86906505Y-117778504D01*
X86772947Y-118175708D01*
X86772760Y-118178152D01*
X86735615Y-118690739D01*
X86718766Y-118920944D01*
X86537400Y-119269448D01*
X86331644Y-119446523D01*
X85965047Y-119550713D01*
X85595177Y-119305891D01*
X85369864Y-118954520D01*
X85276832Y-118417233D01*
X85283644Y-117721979D01*
X85259572Y-116770257D01*
X85083481Y-116160604D01*
X85047635Y-116106074D01*
X84852277Y-115870871D01*
X84800979Y-115959729D01*
X84849849Y-116369259D01*
X84855476Y-117436505D01*
X84582340Y-118389094D01*
X84079235Y-119149791D01*
X83394954Y-119641361D01*
X82688790Y-119790000D01*
X81885143Y-119624996D01*
X81397879Y-119270454D01*
X81035910Y-118756911D01*
X80856808Y-118071211D01*
X80851064Y-117743335D01*
X81172940Y-117743335D01*
X81344811Y-118557904D01*
X81646876Y-119046637D01*
X82187795Y-119322293D01*
X82878756Y-119346227D01*
X83538776Y-119130596D01*
X83837062Y-118899512D01*
X84186248Y-118375146D01*
X84465296Y-117709828D01*
X84489127Y-117627058D01*
X84594615Y-117014524D01*
X84511111Y-116450727D01*
X84293729Y-115889815D01*
X83786599Y-115053509D01*
X83214208Y-114626586D01*
X82618541Y-114608909D01*
X82041586Y-115000336D01*
X81525331Y-115800731D01*
X81480485Y-115899128D01*
X81215719Y-116810810D01*
X81172940Y-117743335D01*
X80851064Y-117743335D01*
X80840056Y-117115020D01*
X80866586Y-116724230D01*
X81079026Y-115809335D01*
X81507565Y-115060284D01*
X82081705Y-114528080D01*
X82730952Y-114263726D01*
X83384808Y-114318227D01*
X83821781Y-114586170D01*
X84118926Y-114815419D01*
X84258387Y-114722567D01*
X84293466Y-114607413D01*
X84725168Y-114607413D01*
X84802606Y-114870980D01*
X85063974Y-115386981D01*
X85233823Y-115704216D01*
X85567949Y-116422196D01*
X85690358Y-117028751D01*
X85648947Y-117733179D01*
X85589560Y-118514429D01*
X85675677Y-118960657D01*
X85928226Y-119141429D01*
X86076659Y-119155000D01*
X86318384Y-118970164D01*
X86381667Y-118619034D01*
X86527043Y-117812477D01*
X86913590Y-116894977D01*
X87466932Y-116037805D01*
X87542938Y-115944839D01*
X87888235Y-115421812D01*
X88061976Y-114932480D01*
X88038333Y-114590256D01*
X87872357Y-114498333D01*
X87628294Y-114650482D01*
X87250259Y-115033999D01*
X87078607Y-115239160D01*
X86700339Y-115685121D01*
X86433065Y-115949115D01*
X86376884Y-115979993D01*
X86216733Y-115812370D01*
X85953496Y-115394636D01*
X85867303Y-115239166D01*
X85497427Y-114731507D01*
X85123046Y-114501999D01*
X85078336Y-114498333D01*
X84820723Y-114511468D01*
X84725168Y-114607413D01*
X84293466Y-114607413D01*
X84324118Y-114506795D01*
X84581061Y-114154893D01*
X84833087Y-114075000D01*
X85338804Y-114203810D01*
G37*
X87941328Y-46098244D02*
X88147715Y-46232757D01*
X88074272Y-46374406D01*
X87719968Y-46396858D01*
X87267407Y-46306468D01*
X87060856Y-46186601D01*
X87160341Y-46065047D01*
X87488602Y-46022500D01*
X87941328Y-46098244D01*
G36*
X87941328Y-46098244D02*
G01*
X88147715Y-46232757D01*
X88074272Y-46374406D01*
X87719968Y-46396858D01*
X87267407Y-46306468D01*
X87060856Y-46186601D01*
X87160341Y-46065047D01*
X87488602Y-46022500D01*
X87941328Y-46098244D01*
G37*
X90215246Y-44815167D02*
X90300419Y-44864743D01*
X90023095Y-44896696D01*
X89630253Y-44903627D01*
X89149996Y-44887787D01*
X89009524Y-44849858D01*
X89156913Y-44812278D01*
X89782894Y-44777458D01*
X90215246Y-44815167D01*
G36*
X90215246Y-44815167D02*
G01*
X90300419Y-44864743D01*
X90023095Y-44896696D01*
X89630253Y-44903627D01*
X89149996Y-44887787D01*
X89009524Y-44849858D01*
X89156913Y-44812278D01*
X89782894Y-44777458D01*
X90215246Y-44815167D01*
G37*
X90426205Y-45454690D02*
X90476919Y-45599166D01*
X90178370Y-45776980D01*
X89935261Y-45810833D01*
X89598150Y-45719785D01*
X89524419Y-45599166D01*
X89705934Y-45441401D01*
X90066078Y-45387500D01*
X90426205Y-45454690D01*
G36*
X90426205Y-45454690D02*
G01*
X90476919Y-45599166D01*
X90178370Y-45776980D01*
X89935261Y-45810833D01*
X89598150Y-45719785D01*
X89524419Y-45599166D01*
X89705934Y-45441401D01*
X90066078Y-45387500D01*
X90426205Y-45454690D01*
G37*
X90532304Y-46088734D02*
X90581783Y-46145949D01*
X90277817Y-46178053D01*
X90053586Y-46180787D01*
X89643676Y-46159947D01*
X89581486Y-46112140D01*
X89685637Y-46084463D01*
X90237162Y-46050384D01*
X90532304Y-46088734D01*
G36*
X90532304Y-46088734D02*
G01*
X90581783Y-46145949D01*
X90277817Y-46178053D01*
X90053586Y-46180787D01*
X89643676Y-46159947D01*
X89581486Y-46112140D01*
X89685637Y-46084463D01*
X90237162Y-46050384D01*
X90532304Y-46088734D01*
G37*
X104844707Y-44613289D02*
X104976086Y-44752500D01*
X104794946Y-44911614D01*
X104446919Y-44964166D01*
X104049132Y-44891710D01*
X103917753Y-44752500D01*
X104098893Y-44593385D01*
X104446919Y-44540833D01*
X104844707Y-44613289D01*
G36*
X104844707Y-44613289D02*
G01*
X104976086Y-44752500D01*
X104794946Y-44911614D01*
X104446919Y-44964166D01*
X104049132Y-44891710D01*
X103917753Y-44752500D01*
X104098893Y-44593385D01*
X104446919Y-44540833D01*
X104844707Y-44613289D01*
G37*
X107225641Y-45421643D02*
X107304419Y-45468646D01*
X107129894Y-45579833D01*
X106881086Y-45660496D01*
X106543566Y-45672367D01*
X106457753Y-45579350D01*
X106635209Y-45423418D01*
X106881086Y-45387500D01*
X107225641Y-45421643D01*
G36*
X107225641Y-45421643D02*
G01*
X107304419Y-45468646D01*
X107129894Y-45579833D01*
X106881086Y-45660496D01*
X106543566Y-45672367D01*
X106457753Y-45579350D01*
X106635209Y-45423418D01*
X106881086Y-45387500D01*
X107225641Y-45421643D01*
G37*
X107465637Y-46088734D02*
X107515116Y-46145949D01*
X107211151Y-46178053D01*
X106986919Y-46180787D01*
X106577009Y-46159947D01*
X106514819Y-46112140D01*
X106618970Y-46084463D01*
X107170496Y-46050384D01*
X107465637Y-46088734D01*
G36*
X107465637Y-46088734D02*
G01*
X107515116Y-46145949D01*
X107211151Y-46178053D01*
X106986919Y-46180787D01*
X106577009Y-46159947D01*
X106514819Y-46112140D01*
X106618970Y-46084463D01*
X107170496Y-46050384D01*
X107465637Y-46088734D01*
G37*
X89918617Y-42679806D02*
X90476919Y-42847500D01*
X90675640Y-42965715D01*
X90524559Y-43024867D01*
X90106503Y-43044289D01*
X89596475Y-43004049D01*
X89325909Y-42885620D01*
X89312753Y-42847500D01*
X89485398Y-42678595D01*
X89918617Y-42679806D01*
G36*
X89918617Y-42679806D02*
G01*
X90476919Y-42847500D01*
X90675640Y-42965715D01*
X90524559Y-43024867D01*
X90106503Y-43044289D01*
X89596475Y-43004049D01*
X89325909Y-42885620D01*
X89312753Y-42847500D01*
X89485398Y-42678595D01*
X89918617Y-42679806D01*
G37*
X119545953Y-45553440D02*
X119570256Y-45910166D01*
X119466773Y-46246032D01*
X119384045Y-46330960D01*
X119110548Y-46309233D01*
X119065858Y-46256720D01*
X119027256Y-45915244D01*
X119167664Y-45549620D01*
X119392065Y-45387500D01*
X119545953Y-45553440D01*
G36*
X119545953Y-45553440D02*
G01*
X119570256Y-45910166D01*
X119466773Y-46246032D01*
X119384045Y-46330960D01*
X119110548Y-46309233D01*
X119065858Y-46256720D01*
X119027256Y-45915244D01*
X119167664Y-45549620D01*
X119392065Y-45387500D01*
X119545953Y-45553440D01*
G37*
X88130760Y-42745932D02*
X88254419Y-42843360D01*
X88069732Y-42991740D01*
X87621428Y-43058834D01*
X87584141Y-43059166D01*
X87160383Y-43028472D01*
X87021736Y-42953614D01*
X87029004Y-42944025D01*
X87333433Y-42797346D01*
X87763160Y-42726183D01*
X88130760Y-42745932D01*
G36*
X88130760Y-42745932D02*
G01*
X88254419Y-42843360D01*
X88069732Y-42991740D01*
X87621428Y-43058834D01*
X87584141Y-43059166D01*
X87160383Y-43028472D01*
X87021736Y-42953614D01*
X87029004Y-42944025D01*
X87333433Y-42797346D01*
X87763160Y-42726183D01*
X88130760Y-42745932D01*
G37*
X92288386Y-42693158D02*
X92386094Y-42840238D01*
X92381919Y-42847500D01*
X92090151Y-43011347D01*
X91734427Y-43059166D01*
X91342656Y-42985117D01*
X91217753Y-42847500D01*
X91401965Y-42699993D01*
X91847013Y-42635916D01*
X91865244Y-42635833D01*
X92288386Y-42693158D01*
G36*
X92288386Y-42693158D02*
G01*
X92386094Y-42840238D01*
X92381919Y-42847500D01*
X92090151Y-43011347D01*
X91734427Y-43059166D01*
X91342656Y-42985117D01*
X91217753Y-42847500D01*
X91401965Y-42699993D01*
X91847013Y-42635916D01*
X91865244Y-42635833D01*
X92288386Y-42693158D01*
G37*
X94128169Y-46079974D02*
X94314339Y-46117833D01*
X94121369Y-46146645D01*
X93593432Y-46161787D01*
X93334419Y-46163003D01*
X92698431Y-46153810D01*
X92381766Y-46129311D01*
X92428595Y-46094128D01*
X92540669Y-46079974D01*
X93335463Y-46045724D01*
X94128169Y-46079974D01*
G36*
X94128169Y-46079974D02*
G01*
X94314339Y-46117833D01*
X94121369Y-46146645D01*
X93593432Y-46161787D01*
X93334419Y-46163003D01*
X92698431Y-46153810D01*
X92381766Y-46129311D01*
X92428595Y-46094128D01*
X92540669Y-46079974D01*
X93335463Y-46045724D01*
X94128169Y-46079974D01*
G37*
X96415943Y-44618877D02*
X96615253Y-44752500D01*
X96532541Y-44902407D01*
X96120729Y-44964064D01*
X96098578Y-44964166D01*
X95647353Y-44903947D01*
X95451341Y-44758460D01*
X95451086Y-44752500D01*
X95631837Y-44592002D01*
X95967761Y-44540833D01*
X96415943Y-44618877D01*
G36*
X96415943Y-44618877D02*
G01*
X96615253Y-44752500D01*
X96532541Y-44902407D01*
X96120729Y-44964064D01*
X96098578Y-44964166D01*
X95647353Y-44903947D01*
X95451341Y-44758460D01*
X95451086Y-44752500D01*
X95631837Y-44592002D01*
X95967761Y-44540833D01*
X96415943Y-44618877D01*
G37*
X96430561Y-44074404D02*
X96816366Y-44150030D01*
X96932753Y-44248008D01*
X96744114Y-44294470D01*
X96269748Y-44315336D01*
X96033169Y-44314289D01*
X95519709Y-44283803D01*
X95408727Y-44211582D01*
X95542373Y-44139310D01*
X95945844Y-44066135D01*
X96430561Y-44074404D01*
G36*
X96430561Y-44074404D02*
G01*
X96816366Y-44150030D01*
X96932753Y-44248008D01*
X96744114Y-44294470D01*
X96269748Y-44315336D01*
X96033169Y-44314289D01*
X95519709Y-44283803D01*
X95408727Y-44211582D01*
X95542373Y-44139310D01*
X95945844Y-44066135D01*
X96430561Y-44074404D01*
G37*
X98679082Y-44606080D02*
X98943586Y-44752500D01*
X98854161Y-44896530D01*
X98422944Y-44962604D01*
X98321078Y-44964166D01*
X97826470Y-44911822D01*
X97575528Y-44782846D01*
X97567753Y-44752500D01*
X97751394Y-44602745D01*
X98190261Y-44540833D01*
X98679082Y-44606080D01*
G36*
X98679082Y-44606080D02*
G01*
X98943586Y-44752500D01*
X98854161Y-44896530D01*
X98422944Y-44962604D01*
X98321078Y-44964166D01*
X97826470Y-44911822D01*
X97575528Y-44782846D01*
X97567753Y-44752500D01*
X97751394Y-44602745D01*
X98190261Y-44540833D01*
X98679082Y-44606080D01*
G37*
X100538011Y-44597196D02*
X100642535Y-44742425D01*
X100636919Y-44752500D01*
X100337492Y-44932163D01*
X100107753Y-44964166D01*
X99707766Y-44864064D01*
X99578586Y-44752500D01*
X99662141Y-44603337D01*
X100076461Y-44541029D01*
X100107753Y-44540833D01*
X100538011Y-44597196D01*
G36*
X100538011Y-44597196D02*
G01*
X100642535Y-44742425D01*
X100636919Y-44752500D01*
X100337492Y-44932163D01*
X100107753Y-44964166D01*
X99707766Y-44864064D01*
X99578586Y-44752500D01*
X99662141Y-44603337D01*
X100076461Y-44541029D01*
X100107753Y-44540833D01*
X100538011Y-44597196D01*
G37*
X100649276Y-43983877D02*
X100848586Y-44117500D01*
X100765874Y-44267407D01*
X100354062Y-44329064D01*
X100331911Y-44329166D01*
X99880686Y-44268947D01*
X99684674Y-44123460D01*
X99684419Y-44117500D01*
X99865171Y-43957002D01*
X100201094Y-43905833D01*
X100649276Y-43983877D01*
G36*
X100649276Y-43983877D02*
G01*
X100848586Y-44117500D01*
X100765874Y-44267407D01*
X100354062Y-44329064D01*
X100331911Y-44329166D01*
X99880686Y-44268947D01*
X99684674Y-44123460D01*
X99684419Y-44117500D01*
X99865171Y-43957002D01*
X100201094Y-43905833D01*
X100649276Y-43983877D01*
G37*
X102977609Y-41443877D02*
X103176919Y-41577500D01*
X103094208Y-41727407D01*
X102682396Y-41789064D01*
X102660244Y-41789166D01*
X102209020Y-41728947D01*
X102013008Y-41583460D01*
X102012753Y-41577500D01*
X102193504Y-41417002D01*
X102529427Y-41365833D01*
X102977609Y-41443877D01*
G36*
X102977609Y-41443877D02*
G01*
X103176919Y-41577500D01*
X103094208Y-41727407D01*
X102682396Y-41789064D01*
X102660244Y-41789166D01*
X102209020Y-41728947D01*
X102013008Y-41583460D01*
X102012753Y-41577500D01*
X102193504Y-41417002D01*
X102529427Y-41365833D01*
X102977609Y-41443877D01*
G37*
X103124082Y-42066080D02*
X103388586Y-42212500D01*
X103299161Y-42356530D01*
X102867944Y-42422604D01*
X102766078Y-42424166D01*
X102271470Y-42371822D01*
X102020528Y-42242846D01*
X102012753Y-42212500D01*
X102196394Y-42062745D01*
X102635261Y-42000833D01*
X103124082Y-42066080D01*
G36*
X103124082Y-42066080D02*
G01*
X103388586Y-42212500D01*
X103299161Y-42356530D01*
X102867944Y-42422604D01*
X102766078Y-42424166D01*
X102271470Y-42371822D01*
X102020528Y-42242846D01*
X102012753Y-42212500D01*
X102196394Y-42062745D01*
X102635261Y-42000833D01*
X103124082Y-42066080D01*
G37*
X103312336Y-43968275D02*
X103494419Y-44117500D01*
X103308126Y-44256473D01*
X102849098Y-44326981D01*
X102741094Y-44329166D01*
X102259473Y-44279029D01*
X102106287Y-44146393D01*
X102118586Y-44117500D01*
X102404726Y-43965001D01*
X102871911Y-43905833D01*
X103312336Y-43968275D01*
G36*
X103312336Y-43968275D02*
G01*
X103494419Y-44117500D01*
X103308126Y-44256473D01*
X102849098Y-44326981D01*
X102741094Y-44329166D01*
X102259473Y-44279029D01*
X102106287Y-44146393D01*
X102118586Y-44117500D01*
X102404726Y-43965001D01*
X102871911Y-43905833D01*
X103312336Y-43968275D01*
G37*
X87853607Y-45448810D02*
X88042704Y-45596533D01*
X88042753Y-45599166D01*
X87858821Y-45747784D01*
X87415653Y-45810817D01*
X87407753Y-45810833D01*
X86961898Y-45749522D01*
X86772801Y-45601800D01*
X86772753Y-45599166D01*
X86956684Y-45450548D01*
X87399852Y-45387516D01*
X87407753Y-45387500D01*
X87853607Y-45448810D01*
G36*
X87853607Y-45448810D02*
G01*
X88042704Y-45596533D01*
X88042753Y-45599166D01*
X87858821Y-45747784D01*
X87415653Y-45810817D01*
X87407753Y-45810833D01*
X86961898Y-45749522D01*
X86772801Y-45601800D01*
X86772753Y-45599166D01*
X86956684Y-45450548D01*
X87399852Y-45387516D01*
X87407753Y-45387500D01*
X87853607Y-45448810D01*
G37*
X93194301Y-43295910D02*
X93567356Y-43359824D01*
X93564243Y-43470035D01*
X93546086Y-43482500D01*
X93138986Y-43614062D01*
X92533858Y-43678376D01*
X91888133Y-43675441D01*
X91359243Y-43605258D01*
X91111919Y-43482500D01*
X91229313Y-43363676D01*
X91730132Y-43292549D01*
X92422344Y-43274074D01*
X93194301Y-43295910D01*
G36*
X93194301Y-43295910D02*
G01*
X93567356Y-43359824D01*
X93564243Y-43470035D01*
X93546086Y-43482500D01*
X93138986Y-43614062D01*
X92533858Y-43678376D01*
X91888133Y-43675441D01*
X91359243Y-43605258D01*
X91111919Y-43482500D01*
X91229313Y-43363676D01*
X91730132Y-43292549D01*
X92422344Y-43274074D01*
X93194301Y-43295910D01*
G37*
X97887790Y-41400629D02*
X98310644Y-41490389D01*
X98414419Y-41577500D01*
X98223039Y-41693415D01*
X97729358Y-41770298D01*
X97250253Y-41789166D01*
X96612715Y-41754370D01*
X96189861Y-41664610D01*
X96086086Y-41577500D01*
X96277466Y-41461584D01*
X96771147Y-41384701D01*
X97250253Y-41365833D01*
X97887790Y-41400629D01*
G36*
X97887790Y-41400629D02*
G01*
X98310644Y-41490389D01*
X98414419Y-41577500D01*
X98223039Y-41693415D01*
X97729358Y-41770298D01*
X97250253Y-41789166D01*
X96612715Y-41754370D01*
X96189861Y-41664610D01*
X96086086Y-41577500D01*
X96277466Y-41461584D01*
X96771147Y-41384701D01*
X97250253Y-41365833D01*
X97887790Y-41400629D01*
G37*
X98781096Y-42902690D02*
X98957203Y-43021875D01*
X98943586Y-43059166D01*
X98792614Y-43242386D01*
X98772344Y-43245790D01*
X98562399Y-43182059D01*
X98111615Y-43062909D01*
X98096919Y-43059166D01*
X97708182Y-42953637D01*
X97680901Y-42903388D01*
X98041266Y-42879874D01*
X98268161Y-42872543D01*
X98781096Y-42902690D01*
G36*
X98781096Y-42902690D02*
G01*
X98957203Y-43021875D01*
X98943586Y-43059166D01*
X98792614Y-43242386D01*
X98772344Y-43245790D01*
X98562399Y-43182059D01*
X98111615Y-43062909D01*
X98096919Y-43059166D01*
X97708182Y-42953637D01*
X97680901Y-42903388D01*
X98041266Y-42879874D01*
X98268161Y-42872543D01*
X98781096Y-42902690D01*
G37*
X103093607Y-44602143D02*
X103282704Y-44749866D01*
X103282753Y-44752500D01*
X103098821Y-44901118D01*
X102655653Y-44964150D01*
X102647753Y-44964166D01*
X102201898Y-44902856D01*
X102012801Y-44755133D01*
X102012753Y-44752500D01*
X102196684Y-44603881D01*
X102639852Y-44540849D01*
X102647753Y-44540833D01*
X103093607Y-44602143D01*
G36*
X103093607Y-44602143D02*
G01*
X103282704Y-44749866D01*
X103282753Y-44752500D01*
X103098821Y-44901118D01*
X102655653Y-44964150D01*
X102647753Y-44964166D01*
X102201898Y-44902856D01*
X102012801Y-44755133D01*
X102012753Y-44752500D01*
X102196684Y-44603881D01*
X102639852Y-44540849D01*
X102647753Y-44540833D01*
X103093607Y-44602143D01*
G37*
X89930114Y-41498268D02*
X89960084Y-41614746D01*
X89720315Y-41714642D01*
X89152206Y-41815262D01*
X88624836Y-41883730D01*
X87916593Y-41937557D01*
X87493097Y-41901417D01*
X87407753Y-41830608D01*
X87595652Y-41723718D01*
X88065340Y-41614217D01*
X88675806Y-41520685D01*
X89286035Y-41461699D01*
X89755014Y-41455841D01*
X89930114Y-41498268D01*
G36*
X89930114Y-41498268D02*
G01*
X89960084Y-41614746D01*
X89720315Y-41714642D01*
X89152206Y-41815262D01*
X88624836Y-41883730D01*
X87916593Y-41937557D01*
X87493097Y-41901417D01*
X87407753Y-41830608D01*
X87595652Y-41723718D01*
X88065340Y-41614217D01*
X88675806Y-41520685D01*
X89286035Y-41461699D01*
X89755014Y-41455841D01*
X89930114Y-41498268D01*
G37*
X104716850Y-45570235D02*
X104962233Y-46005327D01*
X104976086Y-46145645D01*
X104791223Y-46206895D01*
X104343479Y-46234085D01*
X104315168Y-46234166D01*
X103884488Y-46200209D01*
X103809741Y-46069837D01*
X103889999Y-45950108D01*
X104024272Y-45641463D01*
X103986472Y-45526774D01*
X104044513Y-45417207D01*
X104283162Y-45387500D01*
X104716850Y-45570235D01*
G36*
X104716850Y-45570235D02*
G01*
X104962233Y-46005327D01*
X104976086Y-46145645D01*
X104791223Y-46206895D01*
X104343479Y-46234085D01*
X104315168Y-46234166D01*
X103884488Y-46200209D01*
X103809741Y-46069837D01*
X103889999Y-45950108D01*
X104024272Y-45641463D01*
X103986472Y-45526774D01*
X104044513Y-45417207D01*
X104283162Y-45387500D01*
X104716850Y-45570235D01*
G37*
X106256957Y-41516182D02*
X106553003Y-41609148D01*
X106508975Y-41726412D01*
X106127761Y-41786326D01*
X105988231Y-41789166D01*
X105377940Y-41823613D01*
X104916209Y-41907557D01*
X104887564Y-41917645D01*
X104604755Y-41927258D01*
X104552753Y-41834045D01*
X104737981Y-41682738D01*
X105188712Y-41567525D01*
X105747514Y-41506106D01*
X106256957Y-41516182D01*
G36*
X106256957Y-41516182D02*
G01*
X106553003Y-41609148D01*
X106508975Y-41726412D01*
X106127761Y-41786326D01*
X105988231Y-41789166D01*
X105377940Y-41823613D01*
X104916209Y-41907557D01*
X104887564Y-41917645D01*
X104604755Y-41927258D01*
X104552753Y-41834045D01*
X104737981Y-41682738D01*
X105188712Y-41567525D01*
X105747514Y-41506106D01*
X106256957Y-41516182D01*
G37*
X97143898Y-42052243D02*
X98110984Y-42109013D01*
X98658760Y-42191629D01*
X98787199Y-42282047D01*
X98496277Y-42362223D01*
X97785968Y-42414112D01*
X97144419Y-42424166D01*
X96298230Y-42399172D01*
X95709647Y-42330645D01*
X95455590Y-42228268D01*
X95451086Y-42210993D01*
X95651575Y-42106607D01*
X96212757Y-42051097D01*
X97074201Y-42050131D01*
X97143898Y-42052243D01*
G36*
X97143898Y-42052243D02*
G01*
X98110984Y-42109013D01*
X98658760Y-42191629D01*
X98787199Y-42282047D01*
X98496277Y-42362223D01*
X97785968Y-42414112D01*
X97144419Y-42424166D01*
X96298230Y-42399172D01*
X95709647Y-42330645D01*
X95455590Y-42228268D01*
X95451086Y-42210993D01*
X95651575Y-42106607D01*
X96212757Y-42051097D01*
X97074201Y-42050131D01*
X97143898Y-42052243D01*
G37*
X89171095Y-43369851D02*
X89866060Y-43419634D01*
X90361038Y-43495573D01*
X90520140Y-43560998D01*
X90384452Y-43618594D01*
X89910460Y-43663651D01*
X89183145Y-43689950D01*
X88700538Y-43694166D01*
X87730661Y-43673150D01*
X87110599Y-43612547D01*
X86872253Y-43516026D01*
X86877354Y-43484492D01*
X87129270Y-43403545D01*
X87678399Y-43359196D01*
X88400441Y-43348835D01*
X89171095Y-43369851D01*
G36*
X89171095Y-43369851D02*
G01*
X89866060Y-43419634D01*
X90361038Y-43495573D01*
X90520140Y-43560998D01*
X90384452Y-43618594D01*
X89910460Y-43663651D01*
X89183145Y-43689950D01*
X88700538Y-43694166D01*
X87730661Y-43673150D01*
X87110599Y-43612547D01*
X86872253Y-43516026D01*
X86877354Y-43484492D01*
X87129270Y-43403545D01*
X87678399Y-43359196D01*
X88400441Y-43348835D01*
X89171095Y-43369851D01*
G37*
X94199226Y-41422227D02*
X94760443Y-41483882D01*
X95020815Y-41573586D01*
X95027753Y-41592002D01*
X94838154Y-41692383D01*
X94354561Y-41756483D01*
X93704777Y-41784039D01*
X93016606Y-41774794D01*
X92417851Y-41728485D01*
X92036315Y-41644853D01*
X91971396Y-41598227D01*
X92106018Y-41505372D01*
X92575569Y-41436166D01*
X93291811Y-41402451D01*
X93440571Y-41401063D01*
X94199226Y-41422227D01*
G36*
X94199226Y-41422227D02*
G01*
X94760443Y-41483882D01*
X95020815Y-41573586D01*
X95027753Y-41592002D01*
X94838154Y-41692383D01*
X94354561Y-41756483D01*
X93704777Y-41784039D01*
X93016606Y-41774794D01*
X92417851Y-41728485D01*
X92036315Y-41644853D01*
X91971396Y-41598227D01*
X92106018Y-41505372D01*
X92575569Y-41436166D01*
X93291811Y-41402451D01*
X93440571Y-41401063D01*
X94199226Y-41422227D01*
G37*
X93152581Y-45319144D02*
X93878101Y-45345847D01*
X94447833Y-45393527D01*
X94746108Y-45461268D01*
X94757597Y-45470121D01*
X94620277Y-45526106D01*
X94145126Y-45569837D01*
X93417602Y-45595226D01*
X92946364Y-45599166D01*
X92098984Y-45583127D01*
X91439229Y-45540113D01*
X91060676Y-45477780D01*
X91006024Y-45440416D01*
X91197996Y-45374053D01*
X91696859Y-45332331D01*
X92386944Y-45314333D01*
X93152581Y-45319144D01*
G36*
X93152581Y-45319144D02*
G01*
X93878101Y-45345847D01*
X94447833Y-45393527D01*
X94746108Y-45461268D01*
X94757597Y-45470121D01*
X94620277Y-45526106D01*
X94145126Y-45569837D01*
X93417602Y-45595226D01*
X92946364Y-45599166D01*
X92098984Y-45583127D01*
X91439229Y-45540113D01*
X91060676Y-45477780D01*
X91006024Y-45440416D01*
X91197996Y-45374053D01*
X91696859Y-45332331D01*
X92386944Y-45314333D01*
X93152581Y-45319144D01*
G37*
X106046382Y-42183111D02*
X106755195Y-42225807D01*
X107300169Y-42289079D01*
X107304419Y-42289815D01*
X107418426Y-42345462D01*
X107202468Y-42399690D01*
X106749873Y-42445272D01*
X106153970Y-42474980D01*
X105508087Y-42481589D01*
X105029003Y-42466021D01*
X104408017Y-42403697D01*
X104004684Y-42312224D01*
X103917753Y-42247435D01*
X104109417Y-42193153D01*
X104606243Y-42165317D01*
X105290982Y-42162458D01*
X106046382Y-42183111D01*
G36*
X106046382Y-42183111D02*
G01*
X106755195Y-42225807D01*
X107300169Y-42289079D01*
X107304419Y-42289815D01*
X107418426Y-42345462D01*
X107202468Y-42399690D01*
X106749873Y-42445272D01*
X106153970Y-42474980D01*
X105508087Y-42481589D01*
X105029003Y-42466021D01*
X104408017Y-42403697D01*
X104004684Y-42312224D01*
X103917753Y-42247435D01*
X104109417Y-42193153D01*
X104606243Y-42165317D01*
X105290982Y-42162458D01*
X106046382Y-42183111D01*
G37*
X96497118Y-42883314D02*
X96667748Y-43019495D01*
X96637898Y-43182311D01*
X96525828Y-43519731D01*
X96509419Y-43605645D01*
X96334142Y-43691535D01*
X95930426Y-43694899D01*
X95481448Y-43632130D01*
X95170381Y-43519624D01*
X95133586Y-43482500D01*
X95157391Y-43287766D01*
X95239419Y-43270833D01*
X95377450Y-43141895D01*
X95345253Y-43059166D01*
X95435995Y-42916279D01*
X95870878Y-42849520D01*
X95990407Y-42847500D01*
X96497118Y-42883314D01*
G36*
X96497118Y-42883314D02*
G01*
X96667748Y-43019495D01*
X96637898Y-43182311D01*
X96525828Y-43519731D01*
X96509419Y-43605645D01*
X96334142Y-43691535D01*
X95930426Y-43694899D01*
X95481448Y-43632130D01*
X95170381Y-43519624D01*
X95133586Y-43482500D01*
X95157391Y-43287766D01*
X95239419Y-43270833D01*
X95377450Y-43141895D01*
X95345253Y-43059166D01*
X95435995Y-42916279D01*
X95870878Y-42849520D01*
X95990407Y-42847500D01*
X96497118Y-42883314D01*
G37*
X103000857Y-42784838D02*
X103231319Y-42906548D01*
X103098033Y-43008849D01*
X102859419Y-43081239D01*
X102504941Y-43189748D01*
X102546291Y-43233865D01*
X102806503Y-43249734D01*
X103178664Y-43346193D01*
X103282753Y-43482500D01*
X103163867Y-43665778D01*
X103124003Y-43665341D01*
X102807268Y-43605733D01*
X102489003Y-43544786D01*
X102091553Y-43309918D01*
X102012753Y-43044445D01*
X102160122Y-42702672D01*
X102602164Y-42664770D01*
X103000857Y-42784838D01*
G36*
X103000857Y-42784838D02*
G01*
X103231319Y-42906548D01*
X103098033Y-43008849D01*
X102859419Y-43081239D01*
X102504941Y-43189748D01*
X102546291Y-43233865D01*
X102806503Y-43249734D01*
X103178664Y-43346193D01*
X103282753Y-43482500D01*
X103163867Y-43665778D01*
X103124003Y-43665341D01*
X102807268Y-43605733D01*
X102489003Y-43544786D01*
X102091553Y-43309918D01*
X102012753Y-43044445D01*
X102160122Y-42702672D01*
X102602164Y-42664770D01*
X103000857Y-42784838D01*
G37*
X100737749Y-42900154D02*
X100834292Y-43115138D01*
X100804083Y-43270833D01*
X100660115Y-43599955D01*
X100559316Y-43665341D01*
X100263990Y-43605759D01*
X99960706Y-43546320D01*
X99627452Y-43375314D01*
X99625430Y-43165000D01*
X100319419Y-43165000D01*
X100425253Y-43270833D01*
X100531086Y-43165000D01*
X100425253Y-43059166D01*
X100319419Y-43165000D01*
X99625430Y-43165000D01*
X99625118Y-43132557D01*
X99899685Y-42922462D01*
X100322249Y-42847500D01*
X100737749Y-42900154D01*
G36*
X100737749Y-42900154D02*
G01*
X100834292Y-43115138D01*
X100804083Y-43270833D01*
X100660115Y-43599955D01*
X100559316Y-43665341D01*
X100263990Y-43605759D01*
X99960706Y-43546320D01*
X99627452Y-43375314D01*
X99625430Y-43165000D01*
X100319419Y-43165000D01*
X100425253Y-43270833D01*
X100531086Y-43165000D01*
X100425253Y-43059166D01*
X100319419Y-43165000D01*
X99625430Y-43165000D01*
X99625118Y-43132557D01*
X99899685Y-42922462D01*
X100322249Y-42847500D01*
X100737749Y-42900154D01*
G37*
X100959939Y-41548246D02*
X100824641Y-41737751D01*
X100736623Y-41797434D01*
X100556429Y-41958817D01*
X100702328Y-41997592D01*
X100877693Y-42118624D01*
X100848586Y-42212500D01*
X100562445Y-42364998D01*
X100095261Y-42424166D01*
X99654836Y-42361724D01*
X99472753Y-42212500D01*
X99652689Y-42039123D01*
X99949003Y-41979734D01*
X100262249Y-41954857D01*
X100190535Y-41894793D01*
X99896086Y-41805554D01*
X99579388Y-41699491D01*
X99608352Y-41628567D01*
X100017313Y-41548771D01*
X100107753Y-41534241D01*
X100713443Y-41477256D01*
X100959939Y-41548246D01*
G36*
X100959939Y-41548246D02*
G01*
X100824641Y-41737751D01*
X100736623Y-41797434D01*
X100556429Y-41958817D01*
X100702328Y-41997592D01*
X100877693Y-42118624D01*
X100848586Y-42212500D01*
X100562445Y-42364998D01*
X100095261Y-42424166D01*
X99654836Y-42361724D01*
X99472753Y-42212500D01*
X99652689Y-42039123D01*
X99949003Y-41979734D01*
X100262249Y-41954857D01*
X100190535Y-41894793D01*
X99896086Y-41805554D01*
X99579388Y-41699491D01*
X99608352Y-41628567D01*
X100017313Y-41548771D01*
X100107753Y-41534241D01*
X100713443Y-41477256D01*
X100959939Y-41548246D01*
G37*
X111051018Y-42319751D02*
X111369270Y-42593629D01*
X111349656Y-42962314D01*
X111212440Y-43142574D01*
X110857492Y-43427503D01*
X110529684Y-43416192D01*
X110214836Y-43253879D01*
X109905191Y-42886578D01*
X109896102Y-42847500D01*
X110373586Y-42847500D01*
X110634459Y-43050915D01*
X110691086Y-43059166D01*
X110965201Y-42905922D01*
X111008586Y-42847500D01*
X110942107Y-42682429D01*
X110691086Y-42635833D01*
X110390628Y-42715387D01*
X110373586Y-42847500D01*
X109896102Y-42847500D01*
X109844419Y-42625315D01*
X109954474Y-42316887D01*
X110351445Y-42214343D01*
X110453502Y-42212500D01*
X111051018Y-42319751D01*
G36*
X111051018Y-42319751D02*
G01*
X111369270Y-42593629D01*
X111349656Y-42962314D01*
X111212440Y-43142574D01*
X110857492Y-43427503D01*
X110529684Y-43416192D01*
X110214836Y-43253879D01*
X109905191Y-42886578D01*
X109896102Y-42847500D01*
X110373586Y-42847500D01*
X110634459Y-43050915D01*
X110691086Y-43059166D01*
X110965201Y-42905922D01*
X111008586Y-42847500D01*
X110942107Y-42682429D01*
X110691086Y-42635833D01*
X110390628Y-42715387D01*
X110373586Y-42847500D01*
X109896102Y-42847500D01*
X109844419Y-42625315D01*
X109954474Y-42316887D01*
X110351445Y-42214343D01*
X110453502Y-42212500D01*
X111051018Y-42319751D01*
G37*
X110916668Y-44336613D02*
X111266308Y-44723198D01*
X111278915Y-45224173D01*
X111072086Y-45556833D01*
X110564741Y-45795666D01*
X109963953Y-45662747D01*
X109763390Y-45537644D01*
X109520870Y-45281233D01*
X109527747Y-45184404D01*
X109861341Y-45184404D01*
X110035145Y-45353573D01*
X110426503Y-45348642D01*
X110871494Y-45195334D01*
X111008586Y-44967065D01*
X110843180Y-44677800D01*
X110480366Y-44571497D01*
X110120250Y-44685535D01*
X110031774Y-44784590D01*
X109861341Y-45184404D01*
X109527747Y-45184404D01*
X109544442Y-44949365D01*
X109651076Y-44690978D01*
X109983400Y-44229220D01*
X110430728Y-44146714D01*
X110916668Y-44336613D01*
G36*
X110916668Y-44336613D02*
G01*
X111266308Y-44723198D01*
X111278915Y-45224173D01*
X111072086Y-45556833D01*
X110564741Y-45795666D01*
X109963953Y-45662747D01*
X109763390Y-45537644D01*
X109520870Y-45281233D01*
X109527747Y-45184404D01*
X109861341Y-45184404D01*
X110035145Y-45353573D01*
X110426503Y-45348642D01*
X110871494Y-45195334D01*
X111008586Y-44967065D01*
X110843180Y-44677800D01*
X110480366Y-44571497D01*
X110120250Y-44685535D01*
X110031774Y-44784590D01*
X109861341Y-45184404D01*
X109527747Y-45184404D01*
X109544442Y-44949365D01*
X109651076Y-44690978D01*
X109983400Y-44229220D01*
X110430728Y-44146714D01*
X110916668Y-44336613D01*
G37*
X89327463Y-44139659D02*
X89854734Y-44198375D01*
X90072804Y-44282008D01*
X90069992Y-44302621D01*
X89807914Y-44402437D01*
X89278963Y-44439540D01*
X88999166Y-44431101D01*
X88369320Y-44433109D01*
X88081183Y-44548492D01*
X88042753Y-44669313D01*
X87850463Y-44892283D01*
X87354836Y-44943067D01*
X86914171Y-44920664D01*
X86867658Y-44869857D01*
X87186168Y-44755678D01*
X87196086Y-44752500D01*
X87497175Y-44623635D01*
X87380573Y-44563661D01*
X87354836Y-44561932D01*
X87040177Y-44443679D01*
X86984419Y-44329166D01*
X87181532Y-44222734D01*
X87715677Y-44148476D01*
X88501068Y-44117743D01*
X88584411Y-44117500D01*
X89327463Y-44139659D01*
G36*
X89327463Y-44139659D02*
G01*
X89854734Y-44198375D01*
X90072804Y-44282008D01*
X90069992Y-44302621D01*
X89807914Y-44402437D01*
X89278963Y-44439540D01*
X88999166Y-44431101D01*
X88369320Y-44433109D01*
X88081183Y-44548492D01*
X88042753Y-44669313D01*
X87850463Y-44892283D01*
X87354836Y-44943067D01*
X86914171Y-44920664D01*
X86867658Y-44869857D01*
X87186168Y-44755678D01*
X87196086Y-44752500D01*
X87497175Y-44623635D01*
X87380573Y-44563661D01*
X87354836Y-44561932D01*
X87040177Y-44443679D01*
X86984419Y-44329166D01*
X87181532Y-44222734D01*
X87715677Y-44148476D01*
X88501068Y-44117743D01*
X88584411Y-44117500D01*
X89327463Y-44139659D01*
G37*
X91485008Y-42069016D02*
X92531787Y-42095416D01*
X93472312Y-42138046D01*
X94216212Y-42195019D01*
X94673118Y-42264448D01*
X94766318Y-42303843D01*
X94788907Y-42521128D01*
X94780808Y-42530000D01*
X94564566Y-42524684D01*
X94554077Y-42514936D01*
X94313287Y-42475165D01*
X93719139Y-42439066D01*
X92841608Y-42409098D01*
X91750667Y-42387722D01*
X90655883Y-42377911D01*
X89339547Y-42368788D01*
X88415367Y-42352720D01*
X87852188Y-42327150D01*
X87618855Y-42289521D01*
X87684214Y-42237275D01*
X88017109Y-42167857D01*
X88042753Y-42163458D01*
X88610847Y-42106067D01*
X89434168Y-42072455D01*
X90422345Y-42060734D01*
X91485008Y-42069016D01*
G36*
X91485008Y-42069016D02*
G01*
X92531787Y-42095416D01*
X93472312Y-42138046D01*
X94216212Y-42195019D01*
X94673118Y-42264448D01*
X94766318Y-42303843D01*
X94788907Y-42521128D01*
X94780808Y-42530000D01*
X94564566Y-42524684D01*
X94554077Y-42514936D01*
X94313287Y-42475165D01*
X93719139Y-42439066D01*
X92841608Y-42409098D01*
X91750667Y-42387722D01*
X90655883Y-42377911D01*
X89339547Y-42368788D01*
X88415367Y-42352720D01*
X87852188Y-42327150D01*
X87618855Y-42289521D01*
X87684214Y-42237275D01*
X88017109Y-42167857D01*
X88042753Y-42163458D01*
X88610847Y-42106067D01*
X89434168Y-42072455D01*
X90422345Y-42060734D01*
X91485008Y-42069016D01*
G37*
X96622427Y-45256578D02*
X97399984Y-45304409D01*
X98149497Y-45382699D01*
X98759172Y-45484185D01*
X99117217Y-45601600D01*
X99144669Y-45622294D01*
X99129731Y-45761032D01*
X98774252Y-45810833D01*
X98356648Y-45878372D01*
X98202753Y-46022500D01*
X98011007Y-46136641D01*
X97514809Y-46213491D01*
X96996252Y-46234166D01*
X96330332Y-46204861D01*
X95997167Y-46123657D01*
X95990836Y-46040423D01*
X96342856Y-45854989D01*
X96721086Y-45751748D01*
X96853601Y-45693444D01*
X96606563Y-45646988D01*
X96244836Y-45627991D01*
X95644974Y-45566859D01*
X95288697Y-45443206D01*
X95239419Y-45368498D01*
X95430351Y-45281358D01*
X95928618Y-45246472D01*
X96622427Y-45256578D01*
G36*
X96622427Y-45256578D02*
G01*
X97399984Y-45304409D01*
X98149497Y-45382699D01*
X98759172Y-45484185D01*
X99117217Y-45601600D01*
X99144669Y-45622294D01*
X99129731Y-45761032D01*
X98774252Y-45810833D01*
X98356648Y-45878372D01*
X98202753Y-46022500D01*
X98011007Y-46136641D01*
X97514809Y-46213491D01*
X96996252Y-46234166D01*
X96330332Y-46204861D01*
X95997167Y-46123657D01*
X95990836Y-46040423D01*
X96342856Y-45854989D01*
X96721086Y-45751748D01*
X96853601Y-45693444D01*
X96606563Y-45646988D01*
X96244836Y-45627991D01*
X95644974Y-45566859D01*
X95288697Y-45443206D01*
X95239419Y-45368498D01*
X95430351Y-45281358D01*
X95928618Y-45246472D01*
X96622427Y-45256578D01*
G37*
X105413376Y-44063649D02*
X106084815Y-44144642D01*
X106613917Y-44263153D01*
X106872934Y-44407618D01*
X106881086Y-44438339D01*
X107060973Y-44695453D01*
X107357336Y-44814786D01*
X107440570Y-44869111D01*
X107161636Y-44914388D01*
X106744982Y-44935341D01*
X106021241Y-44911982D01*
X105634933Y-44781148D01*
X105534542Y-44646666D01*
X105257613Y-44435000D01*
X105822753Y-44435000D01*
X105928586Y-44540833D01*
X106034419Y-44435000D01*
X105928586Y-44329166D01*
X105822753Y-44435000D01*
X105257613Y-44435000D01*
X105223636Y-44409031D01*
X104528290Y-44329178D01*
X104517062Y-44329166D01*
X104020380Y-44295432D01*
X103802878Y-44210199D01*
X103822503Y-44161434D01*
X104154473Y-44060480D01*
X104727347Y-44031739D01*
X105413376Y-44063649D01*
G36*
X105413376Y-44063649D02*
G01*
X106084815Y-44144642D01*
X106613917Y-44263153D01*
X106872934Y-44407618D01*
X106881086Y-44438339D01*
X107060973Y-44695453D01*
X107357336Y-44814786D01*
X107440570Y-44869111D01*
X107161636Y-44914388D01*
X106744982Y-44935341D01*
X106021241Y-44911982D01*
X105634933Y-44781148D01*
X105534542Y-44646666D01*
X105257613Y-44435000D01*
X105822753Y-44435000D01*
X105928586Y-44540833D01*
X106034419Y-44435000D01*
X105928586Y-44329166D01*
X105822753Y-44435000D01*
X105257613Y-44435000D01*
X105223636Y-44409031D01*
X104528290Y-44329178D01*
X104517062Y-44329166D01*
X104020380Y-44295432D01*
X103802878Y-44210199D01*
X103822503Y-44161434D01*
X104154473Y-44060480D01*
X104727347Y-44031739D01*
X105413376Y-44063649D01*
G37*
X107458000Y-42907285D02*
X107447367Y-42986774D01*
X107441431Y-43241288D01*
X107543840Y-43410108D01*
X107589205Y-43545680D01*
X107412339Y-43631266D01*
X106952081Y-43677114D01*
X106147267Y-43693474D01*
X105848670Y-43694166D01*
X104936288Y-43687270D01*
X104367107Y-43654879D01*
X104061068Y-43579443D01*
X103938115Y-43443408D01*
X103917753Y-43270833D01*
X104027417Y-42951430D01*
X104423725Y-42851435D01*
X104499836Y-42850741D01*
X104864839Y-42892984D01*
X104823288Y-43017321D01*
X104800644Y-43032299D01*
X104775472Y-43173090D01*
X105172873Y-43295863D01*
X105435644Y-43337945D01*
X106112637Y-43377176D01*
X106500232Y-43245751D01*
X106586921Y-43156387D01*
X106985759Y-42887666D01*
X107204282Y-42847500D01*
X107458000Y-42907285D01*
G36*
X107458000Y-42907285D02*
G01*
X107447367Y-42986774D01*
X107441431Y-43241288D01*
X107543840Y-43410108D01*
X107589205Y-43545680D01*
X107412339Y-43631266D01*
X106952081Y-43677114D01*
X106147267Y-43693474D01*
X105848670Y-43694166D01*
X104936288Y-43687270D01*
X104367107Y-43654879D01*
X104061068Y-43579443D01*
X103938115Y-43443408D01*
X103917753Y-43270833D01*
X104027417Y-42951430D01*
X104423725Y-42851435D01*
X104499836Y-42850741D01*
X104864839Y-42892984D01*
X104823288Y-43017321D01*
X104800644Y-43032299D01*
X104775472Y-43173090D01*
X105172873Y-43295863D01*
X105435644Y-43337945D01*
X106112637Y-43377176D01*
X106500232Y-43245751D01*
X106586921Y-43156387D01*
X106985759Y-42887666D01*
X107204282Y-42847500D01*
X107458000Y-42907285D01*
G37*
X102330267Y-45440603D02*
X102951990Y-45465049D01*
X103276259Y-45504997D01*
X103282753Y-45541782D01*
X102913866Y-45775552D01*
X102825984Y-45876458D01*
X102553093Y-46010176D01*
X101996174Y-46129827D01*
X101499540Y-46188723D01*
X100827416Y-46228636D01*
X100491968Y-46192477D01*
X100410554Y-46062341D01*
X100438360Y-45958834D01*
X100430197Y-45881388D01*
X101024975Y-45881388D01*
X101054030Y-46007224D01*
X101166086Y-46022500D01*
X101340311Y-45945054D01*
X101307197Y-45881388D01*
X101055998Y-45856056D01*
X101024975Y-45881388D01*
X100430197Y-45881388D01*
X100410488Y-45694408D01*
X100026933Y-45550576D01*
X99965637Y-45540712D01*
X99906732Y-45502743D01*
X100212511Y-45469754D01*
X100824323Y-45445794D01*
X101483586Y-45435924D01*
X102330267Y-45440603D01*
G36*
X102330267Y-45440603D02*
G01*
X102951990Y-45465049D01*
X103276259Y-45504997D01*
X103282753Y-45541782D01*
X102913866Y-45775552D01*
X102825984Y-45876458D01*
X102553093Y-46010176D01*
X101996174Y-46129827D01*
X101499540Y-46188723D01*
X100827416Y-46228636D01*
X100491968Y-46192477D01*
X100410554Y-46062341D01*
X100438360Y-45958834D01*
X100430197Y-45881388D01*
X101024975Y-45881388D01*
X101054030Y-46007224D01*
X101166086Y-46022500D01*
X101340311Y-45945054D01*
X101307197Y-45881388D01*
X101055998Y-45856056D01*
X101024975Y-45881388D01*
X100430197Y-45881388D01*
X100410488Y-45694408D01*
X100026933Y-45550576D01*
X99965637Y-45540712D01*
X99906732Y-45502743D01*
X100212511Y-45469754D01*
X100824323Y-45445794D01*
X101483586Y-45435924D01*
X102330267Y-45440603D01*
G37*
X92381919Y-44142407D02*
X93111884Y-44158339D01*
X93455398Y-44189166D01*
X93449309Y-44244332D01*
X93130463Y-44333283D01*
X93128444Y-44333758D01*
X92619383Y-44507386D01*
X92331075Y-44707385D01*
X92317055Y-44735425D01*
X92090749Y-44894090D01*
X91673434Y-44958301D01*
X91252432Y-44925619D01*
X91015070Y-44793603D01*
X91006086Y-44752500D01*
X91173515Y-44553648D01*
X91270669Y-44537592D01*
X91380856Y-44464415D01*
X91302840Y-44399722D01*
X91711641Y-44399722D01*
X91740697Y-44525557D01*
X91852753Y-44540833D01*
X92026978Y-44463387D01*
X91993864Y-44399722D01*
X91742665Y-44374389D01*
X91711641Y-44399722D01*
X91302840Y-44399722D01*
X91217753Y-44329166D01*
X91187998Y-44217309D01*
X91538838Y-44155764D01*
X92289593Y-44141432D01*
X92381919Y-44142407D01*
G36*
X92381919Y-44142407D02*
G01*
X93111884Y-44158339D01*
X93455398Y-44189166D01*
X93449309Y-44244332D01*
X93130463Y-44333283D01*
X93128444Y-44333758D01*
X92619383Y-44507386D01*
X92331075Y-44707385D01*
X92317055Y-44735425D01*
X92090749Y-44894090D01*
X91673434Y-44958301D01*
X91252432Y-44925619D01*
X91015070Y-44793603D01*
X91006086Y-44752500D01*
X91173515Y-44553648D01*
X91270669Y-44537592D01*
X91380856Y-44464415D01*
X91302840Y-44399722D01*
X91711641Y-44399722D01*
X91740697Y-44525557D01*
X91852753Y-44540833D01*
X92026978Y-44463387D01*
X91993864Y-44399722D01*
X91742665Y-44374389D01*
X91711641Y-44399722D01*
X91302840Y-44399722D01*
X91217753Y-44329166D01*
X91187998Y-44217309D01*
X91538838Y-44155764D01*
X92289593Y-44141432D01*
X92381919Y-44142407D01*
G37*
X115168245Y-42384597D02*
X115442234Y-42548886D01*
X115821849Y-43138979D01*
X115867035Y-43866527D01*
X115722726Y-44457331D01*
X115488665Y-45009871D01*
X115185980Y-45267530D01*
X114817544Y-45344125D01*
X114275840Y-45307368D01*
X113917961Y-45143041D01*
X113726373Y-44702090D01*
X113688441Y-44019113D01*
X114077753Y-44019113D01*
X114100400Y-44604246D01*
X114210153Y-44880357D01*
X114469731Y-44961055D01*
X114599472Y-44964166D01*
X115107366Y-44803056D01*
X115340305Y-44554748D01*
X115553386Y-43903718D01*
X115520535Y-43322732D01*
X115285970Y-42903605D01*
X114893908Y-42738151D01*
X114514616Y-42840258D01*
X114223970Y-43103004D01*
X114096471Y-43563831D01*
X114077753Y-44019113D01*
X113688441Y-44019113D01*
X113687752Y-44006717D01*
X113807414Y-43199255D01*
X113840617Y-43072697D01*
X114142921Y-42622911D01*
X114641074Y-42375357D01*
X115168245Y-42384597D01*
G36*
X115168245Y-42384597D02*
G01*
X115442234Y-42548886D01*
X115821849Y-43138979D01*
X115867035Y-43866527D01*
X115722726Y-44457331D01*
X115488665Y-45009871D01*
X115185980Y-45267530D01*
X114817544Y-45344125D01*
X114275840Y-45307368D01*
X113917961Y-45143041D01*
X113726373Y-44702090D01*
X113688441Y-44019113D01*
X114077753Y-44019113D01*
X114100400Y-44604246D01*
X114210153Y-44880357D01*
X114469731Y-44961055D01*
X114599472Y-44964166D01*
X115107366Y-44803056D01*
X115340305Y-44554748D01*
X115553386Y-43903718D01*
X115520535Y-43322732D01*
X115285970Y-42903605D01*
X114893908Y-42738151D01*
X114514616Y-42840258D01*
X114223970Y-43103004D01*
X114096471Y-43563831D01*
X114077753Y-44019113D01*
X113688441Y-44019113D01*
X113687752Y-44006717D01*
X113807414Y-43199255D01*
X113840617Y-43072697D01*
X114142921Y-42622911D01*
X114641074Y-42375357D01*
X115168245Y-42384597D01*
G37*
X111299186Y-40982191D02*
X111692753Y-41149854D01*
X112024755Y-41539326D01*
X112119836Y-41682984D01*
X112500611Y-42407293D01*
X112558875Y-42964991D01*
X112301915Y-43454882D01*
X112254515Y-43509098D01*
X112033455Y-43889574D01*
X112082597Y-44363438D01*
X112130367Y-44510231D01*
X112173463Y-45228273D01*
X111847735Y-45908101D01*
X111444188Y-46283842D01*
X111068498Y-46398385D01*
X110453252Y-46451308D01*
X109730500Y-46447996D01*
X109032291Y-46393835D01*
X108490673Y-46294211D01*
X108237693Y-46154509D01*
X108237112Y-46153041D01*
X108240845Y-45872517D01*
X108640135Y-45872517D01*
X108899271Y-46035487D01*
X109136009Y-46080581D01*
X110045651Y-46182661D01*
X110675707Y-46149543D01*
X111153645Y-45962304D01*
X111458547Y-45735786D01*
X111832494Y-45370473D01*
X111920560Y-45059435D01*
X111774551Y-44601641D01*
X111759934Y-44566217D01*
X111596874Y-44066284D01*
X111655551Y-43737796D01*
X111827335Y-43513347D01*
X112124155Y-42933099D01*
X112065667Y-42340800D01*
X111707940Y-41824306D01*
X111107043Y-41471469D01*
X110456786Y-41365833D01*
X110074025Y-41372371D01*
X109810567Y-41440380D01*
X109622530Y-41642447D01*
X109466030Y-42051160D01*
X109297185Y-42739110D01*
X109113183Y-43588333D01*
X108934621Y-44398161D01*
X108773153Y-45096029D01*
X108663906Y-45530213D01*
X108640135Y-45872517D01*
X108240845Y-45872517D01*
X108242042Y-45782615D01*
X108393996Y-45226342D01*
X108455421Y-45068858D01*
X108673074Y-44415690D01*
X108782888Y-43827244D01*
X108786086Y-43745791D01*
X108853689Y-43142805D01*
X109023213Y-42401255D01*
X109244725Y-41702752D01*
X109468295Y-41228909D01*
X109484063Y-41207083D01*
X109802350Y-41048648D01*
X110373427Y-40955621D01*
X110664087Y-40945120D01*
X111299186Y-40982191D01*
G36*
X111299186Y-40982191D02*
G01*
X111692753Y-41149854D01*
X112024755Y-41539326D01*
X112119836Y-41682984D01*
X112500611Y-42407293D01*
X112558875Y-42964991D01*
X112301915Y-43454882D01*
X112254515Y-43509098D01*
X112033455Y-43889574D01*
X112082597Y-44363438D01*
X112130367Y-44510231D01*
X112173463Y-45228273D01*
X111847735Y-45908101D01*
X111444188Y-46283842D01*
X111068498Y-46398385D01*
X110453252Y-46451308D01*
X109730500Y-46447996D01*
X109032291Y-46393835D01*
X108490673Y-46294211D01*
X108237693Y-46154509D01*
X108237112Y-46153041D01*
X108240845Y-45872517D01*
X108640135Y-45872517D01*
X108899271Y-46035487D01*
X109136009Y-46080581D01*
X110045651Y-46182661D01*
X110675707Y-46149543D01*
X111153645Y-45962304D01*
X111458547Y-45735786D01*
X111832494Y-45370473D01*
X111920560Y-45059435D01*
X111774551Y-44601641D01*
X111759934Y-44566217D01*
X111596874Y-44066284D01*
X111655551Y-43737796D01*
X111827335Y-43513347D01*
X112124155Y-42933099D01*
X112065667Y-42340800D01*
X111707940Y-41824306D01*
X111107043Y-41471469D01*
X110456786Y-41365833D01*
X110074025Y-41372371D01*
X109810567Y-41440380D01*
X109622530Y-41642447D01*
X109466030Y-42051160D01*
X109297185Y-42739110D01*
X109113183Y-43588333D01*
X108934621Y-44398161D01*
X108773153Y-45096029D01*
X108663906Y-45530213D01*
X108640135Y-45872517D01*
X108240845Y-45872517D01*
X108242042Y-45782615D01*
X108393996Y-45226342D01*
X108455421Y-45068858D01*
X108673074Y-44415690D01*
X108782888Y-43827244D01*
X108786086Y-43745791D01*
X108853689Y-43142805D01*
X109023213Y-42401255D01*
X109244725Y-41702752D01*
X109468295Y-41228909D01*
X109484063Y-41207083D01*
X109802350Y-41048648D01*
X110373427Y-40955621D01*
X110664087Y-40945120D01*
X111299186Y-40982191D01*
G37*
X117268223Y-41071310D02*
X117755200Y-41380361D01*
X118062546Y-41753580D01*
X118099419Y-41907002D01*
X118163634Y-42166068D01*
X118386042Y-42136941D01*
X118811290Y-41803357D01*
X119080807Y-41549500D01*
X119655325Y-41118051D01*
X120102349Y-41026559D01*
X120371505Y-41272246D01*
X120427248Y-41623773D01*
X120311600Y-42036336D01*
X120008778Y-42655247D01*
X119584131Y-43347088D01*
X119580581Y-43352318D01*
X119151212Y-44038904D01*
X118835924Y-44646004D01*
X118702366Y-45043208D01*
X118702179Y-45045652D01*
X118665034Y-45558239D01*
X118648185Y-45788444D01*
X118466819Y-46136948D01*
X118261063Y-46314023D01*
X117894466Y-46418213D01*
X117524596Y-46173391D01*
X117299283Y-45822020D01*
X117206251Y-45284733D01*
X117213063Y-44589479D01*
X117188991Y-43637757D01*
X117012900Y-43028104D01*
X116977054Y-42973574D01*
X116781696Y-42738371D01*
X116730398Y-42827229D01*
X116779268Y-43236759D01*
X116784895Y-44304005D01*
X116511759Y-45256594D01*
X116008654Y-46017291D01*
X115324373Y-46508861D01*
X114618209Y-46657500D01*
X113814562Y-46492496D01*
X113327298Y-46137954D01*
X112965329Y-45624411D01*
X112786227Y-44938711D01*
X112780483Y-44610835D01*
X113102359Y-44610835D01*
X113274230Y-45425404D01*
X113576295Y-45914137D01*
X114117214Y-46189793D01*
X114808175Y-46213727D01*
X115468195Y-45998096D01*
X115766481Y-45767012D01*
X116115667Y-45242646D01*
X116394715Y-44577328D01*
X116418546Y-44494558D01*
X116524034Y-43882024D01*
X116440530Y-43318227D01*
X116223148Y-42757315D01*
X115716018Y-41921009D01*
X115143627Y-41494086D01*
X114547960Y-41476409D01*
X113971005Y-41867836D01*
X113454750Y-42668231D01*
X113409904Y-42766628D01*
X113145138Y-43678310D01*
X113102359Y-44610835D01*
X112780483Y-44610835D01*
X112769475Y-43982520D01*
X112796005Y-43591730D01*
X113008445Y-42676835D01*
X113436984Y-41927784D01*
X114011124Y-41395580D01*
X114660371Y-41131226D01*
X115314227Y-41185727D01*
X115751200Y-41453670D01*
X116048345Y-41682919D01*
X116187806Y-41590067D01*
X116222885Y-41474913D01*
X116654587Y-41474913D01*
X116732025Y-41738480D01*
X116993393Y-42254481D01*
X117163242Y-42571716D01*
X117497368Y-43289696D01*
X117619777Y-43896251D01*
X117578366Y-44600679D01*
X117518979Y-45381929D01*
X117605096Y-45828157D01*
X117857645Y-46008929D01*
X118006078Y-46022500D01*
X118247803Y-45837664D01*
X118311086Y-45486534D01*
X118456462Y-44679977D01*
X118843009Y-43762477D01*
X119396351Y-42905305D01*
X119472357Y-42812339D01*
X119817654Y-42289312D01*
X119991395Y-41799980D01*
X119967752Y-41457756D01*
X119801776Y-41365833D01*
X119557713Y-41517982D01*
X119179678Y-41901499D01*
X119008026Y-42106660D01*
X118629758Y-42552621D01*
X118362484Y-42816615D01*
X118306303Y-42847493D01*
X118146152Y-42679870D01*
X117882915Y-42262136D01*
X117796722Y-42106666D01*
X117426846Y-41599007D01*
X117052465Y-41369499D01*
X117007755Y-41365833D01*
X116750142Y-41378968D01*
X116654587Y-41474913D01*
X116222885Y-41474913D01*
X116253537Y-41374295D01*
X116510480Y-41022393D01*
X116762506Y-40942500D01*
X117268223Y-41071310D01*
G36*
X117268223Y-41071310D02*
G01*
X117755200Y-41380361D01*
X118062546Y-41753580D01*
X118099419Y-41907002D01*
X118163634Y-42166068D01*
X118386042Y-42136941D01*
X118811290Y-41803357D01*
X119080807Y-41549500D01*
X119655325Y-41118051D01*
X120102349Y-41026559D01*
X120371505Y-41272246D01*
X120427248Y-41623773D01*
X120311600Y-42036336D01*
X120008778Y-42655247D01*
X119584131Y-43347088D01*
X119580581Y-43352318D01*
X119151212Y-44038904D01*
X118835924Y-44646004D01*
X118702366Y-45043208D01*
X118702179Y-45045652D01*
X118665034Y-45558239D01*
X118648185Y-45788444D01*
X118466819Y-46136948D01*
X118261063Y-46314023D01*
X117894466Y-46418213D01*
X117524596Y-46173391D01*
X117299283Y-45822020D01*
X117206251Y-45284733D01*
X117213063Y-44589479D01*
X117188991Y-43637757D01*
X117012900Y-43028104D01*
X116977054Y-42973574D01*
X116781696Y-42738371D01*
X116730398Y-42827229D01*
X116779268Y-43236759D01*
X116784895Y-44304005D01*
X116511759Y-45256594D01*
X116008654Y-46017291D01*
X115324373Y-46508861D01*
X114618209Y-46657500D01*
X113814562Y-46492496D01*
X113327298Y-46137954D01*
X112965329Y-45624411D01*
X112786227Y-44938711D01*
X112780483Y-44610835D01*
X113102359Y-44610835D01*
X113274230Y-45425404D01*
X113576295Y-45914137D01*
X114117214Y-46189793D01*
X114808175Y-46213727D01*
X115468195Y-45998096D01*
X115766481Y-45767012D01*
X116115667Y-45242646D01*
X116394715Y-44577328D01*
X116418546Y-44494558D01*
X116524034Y-43882024D01*
X116440530Y-43318227D01*
X116223148Y-42757315D01*
X115716018Y-41921009D01*
X115143627Y-41494086D01*
X114547960Y-41476409D01*
X113971005Y-41867836D01*
X113454750Y-42668231D01*
X113409904Y-42766628D01*
X113145138Y-43678310D01*
X113102359Y-44610835D01*
X112780483Y-44610835D01*
X112769475Y-43982520D01*
X112796005Y-43591730D01*
X113008445Y-42676835D01*
X113436984Y-41927784D01*
X114011124Y-41395580D01*
X114660371Y-41131226D01*
X115314227Y-41185727D01*
X115751200Y-41453670D01*
X116048345Y-41682919D01*
X116187806Y-41590067D01*
X116222885Y-41474913D01*
X116654587Y-41474913D01*
X116732025Y-41738480D01*
X116993393Y-42254481D01*
X117163242Y-42571716D01*
X117497368Y-43289696D01*
X117619777Y-43896251D01*
X117578366Y-44600679D01*
X117518979Y-45381929D01*
X117605096Y-45828157D01*
X117857645Y-46008929D01*
X118006078Y-46022500D01*
X118247803Y-45837664D01*
X118311086Y-45486534D01*
X118456462Y-44679977D01*
X118843009Y-43762477D01*
X119396351Y-42905305D01*
X119472357Y-42812339D01*
X119817654Y-42289312D01*
X119991395Y-41799980D01*
X119967752Y-41457756D01*
X119801776Y-41365833D01*
X119557713Y-41517982D01*
X119179678Y-41901499D01*
X119008026Y-42106660D01*
X118629758Y-42552621D01*
X118362484Y-42816615D01*
X118306303Y-42847493D01*
X118146152Y-42679870D01*
X117882915Y-42262136D01*
X117796722Y-42106666D01*
X117426846Y-41599007D01*
X117052465Y-41369499D01*
X117007755Y-41365833D01*
X116750142Y-41378968D01*
X116654587Y-41474913D01*
X116222885Y-41474913D01*
X116253537Y-41374295D01*
X116510480Y-41022393D01*
X116762506Y-40942500D01*
X117268223Y-41071310D01*
G37*
%TD*%
M02*
