%TF.GenerationSoftware,KiCad,Pcbnew,7.0.9*%
%TF.CreationDate,2024-08-29T12:31:07+10:00*%
%TF.ProjectId,eurorack_panel,6575726f-7261-4636-9b5f-70616e656c2e,rev?*%
%TF.SameCoordinates,Original*%
%TF.FileFunction,Profile,NP*%
%FSLAX46Y46*%
G04 Gerber Fmt 4.6, Leading zero omitted, Abs format (unit mm)*
G04 Created by KiCad (PCBNEW 7.0.9) date 2024-08-29 12:31:07*
%MOMM*%
%LPD*%
G01*
G04 APERTURE LIST*
%TA.AperFunction,Profile*%
%ADD10C,0.050000*%
%TD*%
%TA.AperFunction,Profile*%
%ADD11C,0.100000*%
%TD*%
G04 APERTURE END LIST*
D10*
X146950000Y-165475000D02*
X144650000Y-165475000D01*
D11*
X82150000Y-145650000D02*
G75*
G03*
X82150000Y-145650000I-6800000J0D01*
G01*
X108446765Y-63588475D02*
G75*
G03*
X108446765Y-63588475I-6500000J0D01*
G01*
D10*
X152825000Y-166875000D02*
X51175000Y-166875000D01*
X51175000Y-166875000D02*
X51175000Y-38300000D01*
X59350000Y-165425000D02*
G75*
G03*
X59350000Y-162225000I0J1600000D01*
G01*
X59350000Y-39700000D02*
X57050000Y-39700000D01*
D11*
X68450000Y-131050000D02*
G75*
G03*
X68450000Y-131050000I-6800000J0D01*
G01*
X95750000Y-131150000D02*
G75*
G03*
X95750000Y-131150000I-6800000J0D01*
G01*
D10*
X57050000Y-162225000D02*
G75*
G03*
X57050000Y-165425000I0J-1600000D01*
G01*
X146950000Y-165475000D02*
G75*
G03*
X146950000Y-162275000I0J1600000D01*
G01*
D11*
X143550001Y-80950000D02*
G75*
G03*
X143550001Y-80950000I-1J0D01*
G01*
X139450000Y-145650000D02*
G75*
G03*
X139450000Y-145650000I-6800000J0D01*
G01*
D10*
X152825000Y-166875000D02*
X152825000Y-38307234D01*
X59350000Y-42900000D02*
G75*
G03*
X59350000Y-39700000I0J1600000D01*
G01*
D11*
X66350001Y-68250000D02*
G75*
G03*
X66350001Y-68250000I-1J0D01*
G01*
D10*
X59350000Y-165425000D02*
X57050000Y-165425000D01*
D11*
X150211724Y-61000000D02*
G75*
G03*
X150211724Y-61000000I-1711724J0D01*
G01*
D10*
X144650000Y-39700000D02*
G75*
G03*
X144650000Y-42900000I0J-1600000D01*
G01*
D11*
X64550000Y-101450000D02*
G75*
G03*
X64550000Y-101450000I-4000000J0D01*
G01*
X66150000Y-66950000D02*
G75*
G03*
X66150000Y-66950000I-3500000J0D01*
G01*
X144739752Y-67350000D02*
G75*
G03*
X144739752Y-67350000I-3500000J0D01*
G01*
X64350000Y-84650000D02*
G75*
G03*
X64350000Y-84650000I-4000000J0D01*
G01*
X87444876Y-67050000D02*
G75*
G03*
X87444876Y-67050000I-3500000J0D01*
G01*
D10*
X144650000Y-162275000D02*
G75*
G03*
X144650000Y-165475000I0J-1600000D01*
G01*
D11*
X57211724Y-153925000D02*
G75*
G03*
X57211724Y-153925000I-1711724J0D01*
G01*
X123444876Y-67250000D02*
G75*
G03*
X123444876Y-67250000I-3500000J0D01*
G01*
D10*
X146950000Y-42900000D02*
X144650000Y-42900000D01*
X59350000Y-162225000D02*
X57050000Y-162225000D01*
D11*
X74050000Y-75350000D02*
X129950000Y-75350000D01*
X129950000Y-110450000D01*
X74050000Y-110450000D01*
X74050000Y-75350000D01*
X130450000Y-129550000D02*
G75*
G03*
X130450000Y-129550000I-6200000J0D01*
G01*
X148250000Y-101450000D02*
G75*
G03*
X148250000Y-101450000I-4000000J0D01*
G01*
D10*
X146950000Y-39700000D02*
X144650000Y-39700000D01*
D11*
X109450000Y-145650000D02*
G75*
G03*
X109450000Y-145650000I-6800000J0D01*
G01*
D10*
X51175000Y-38300000D02*
X152825000Y-38307234D01*
D11*
X148250000Y-84850000D02*
G75*
G03*
X148250000Y-84850000I-4000000J0D01*
G01*
D10*
X146950000Y-162275000D02*
X144650000Y-162275000D01*
D11*
X57236724Y-61000000D02*
G75*
G03*
X57236724Y-61000000I-1711724J0D01*
G01*
D10*
X146950000Y-42900000D02*
G75*
G03*
X146950000Y-39700000I0J1600000D01*
G01*
X57050000Y-39700000D02*
G75*
G03*
X57050000Y-42900000I0J-1600000D01*
G01*
D11*
X150211724Y-154000000D02*
G75*
G03*
X150211724Y-154000000I-1711724J0D01*
G01*
D10*
X59350000Y-42900000D02*
X57050000Y-42900000D01*
M02*
