  0
SECTION
  2
HEADER
  9
$ACADVER
  1
AC1014
  9
$HANDSEED
  5
FFFF
  9
$INSUNITS
 70
     5
  9
$MEASUREMENT
 70
     1
  0
ENDSEC
  0
SECTION
  2
TABLES
  0
TABLE
  2
VPORT
  5
8
330
0
100
AcDbSymbolTable
 70
     4
  0
VPORT
  5
2E
330
8
100
AcDbSymbolTableRecord
100
AcDbViewportTableRecord
  2
*ACTIVE
 70
     0
 10
0.0
 20
0.0
 11
1.0
 21
1.0
 12
210.0
 22
148.5
 13
0.0
 23
0.0
 14
10.0
 24
10.0
 15
10.0
 25
10.0
 16
0.0
 26
0.0
 36
1.0
 17
0.0
 27
0.0
 37
0.0
 40
341.0
 41
1.24
 42
50.0
 43
0.0
 44
0.0
 50
0.0
 51
0.0
 71
     0
 72
   100
 73
     1
 74
     3
 75
     0
 76
     0
 77
     0
 78
     0
  0
ENDTAB
  0
TABLE
  2
LTYPE
  5
5
330
0
100
AcDbSymbolTable
 70
     1
  0
LTYPE
  5
14
330
5
100
AcDbSymbolTableRecord
100
AcDbLinetypeTableRecord
  2
BYBLOCK
 70
     0
  3

 72
    65
 73
     0
 40
0.0
  0
LTYPE
  5
15
330
5
100
AcDbSymbolTableRecord
100
AcDbLinetypeTableRecord
  2
BYLAYER
 70
     0
  3

 72
    65
 73
     0
 40
0.0
  0
LTYPE
  5
16
330
5
100
AcDbSymbolTableRecord
100
AcDbLinetypeTableRecord
  2
CONTINUOUS
 70
     0
  3
Solid line
 72
    65
 73
     0
 40
0.0
  0
ENDTAB
  0
TABLE
  2
LAYER
  5
2
100
AcDbSymbolTable
 70
1
  0
LAYER
  5
50
100
AcDbSymbolTableRecord
100
AcDbLayerTableRecord
  2
0
 70
0
  6
CONTINUOUS
  0
ENDTAB
  0
TABLE
  2
STYLE
  5
3
330
0
100
AcDbSymbolTable
 70
     1
  0
STYLE
  5
11
330
3
100
AcDbSymbolTableRecord
100
AcDbTextStyleTableRecord
  2
STANDARD
 70
     0
 40
0.0
 41
1.0
 50
0.0
 71
     0
 42
2.5
  3
txt
  4

  0
ENDTAB
  0
TABLE
  2
VIEW
  5
6
330
0
100
AcDbSymbolTable
 70
     0
  0
ENDTAB
  0
TABLE
  2
UCS
  5
7
330
0
100
AcDbSymbolTable
 70
     0
  0
ENDTAB
  0
TABLE
  2
APPID
  5
9
330
0
100
AcDbSymbolTable
 70
     2
  0
APPID
  5
12
330
9
100
AcDbSymbolTableRecord
100
AcDbRegAppTableRecord
  2
ACAD
 70
     0
  0
ENDTAB
  0
TABLE
  2
DIMSTYLE
  5
A
330
0
100
AcDbSymbolTable
 70
     1
  0
DIMSTYLE
105
27
330
A
100
AcDbSymbolTableRecord
100
AcDbDimStyleTableRecord
  2
ISO-25
 70
     0
  3

  4

  5

  6

  7

 40
1.0
 41
2.5
 42
0.625
 43
3.75
 44
1.25
 45
0.0
 46
0.0
 47
0.0
 48
0.0
140
2.5
141
2.5
142
0.0
143
0.03937007874016
144
1.0
145
0.0
146
1.0
147
0.625
 71
     0
 72
     0
 73
     0
 74
     0
 75
     0
 76
     0
 77
     1
 78
     8
170
     0
171
     3
172
     1
173
     0
174
     0
175
     0
176
     0
177
     0
178
     0
270
     2
271
     2
272
     2
273
     2
274
     3
340
11
275
     0
280
     0
281
     0
282
     0
283
     0
284
     8
285
     0
286
     0
287
     3
288
     0
  0
ENDTAB
  0
TABLE
  2
BLOCK_RECORD
  5
1
330
0
100
AcDbSymbolTable
 70
     1
  0
BLOCK_RECORD
  5
1F
330
1
100
AcDbSymbolTableRecord
100
AcDbBlockTableRecord
  2
*MODEL_SPACE
  0
BLOCK_RECORD
  5
1B
330
1
100
AcDbSymbolTableRecord
100
AcDbBlockTableRecord
  2
*PAPER_SPACE
  0
ENDTAB
  0
ENDSEC
  0
SECTION
  2
BLOCKS
  0
BLOCK
  5
20
330
1F
100
AcDbEntity
  8
0
100
AcDbBlockBegin
  2
*MODEL_SPACE
 70
     0
 10
0.0
 20
0.0
 30
0.0
  3
*MODEL_SPACE
  1

  0
ENDBLK
  5
21
330
1F
100
AcDbEntity
  8
0
100
AcDbBlockEnd
  0
BLOCK
  5
1C
330
1B
100
AcDbEntity
 67
     1
  8
0
100
AcDbBlockBegin
  2
*PAPER_SPACE
  1

  0
ENDBLK
  5
1D
330
1B
100
AcDbEntity
 67
     1
  8
0
100
AcDbBlockEnd
  0
ENDSEC
  0
SECTION
  2
ENTITIES
  0
SPLINE
  5
100
100
AcDbEntity
  8
0
 62
7
100
AcDbSpline
 70
8
 71
3
 72
8
 73
4
 74
0
 40
0
 40
0
 40
0
 40
0
 40
1
 40
1
 40
1
 40
1
 10
2.342500
 20
1.898120
 30
0.0
 10
2.067466
 20
1.898120
 30
0.0
 10
1.819513
 20
1.732443
 30
0.0
 10
1.714262
 20
1.478345
 30
0.0
  0
SPLINE
  5
101
100
AcDbEntity
  8
0
 62
7
100
AcDbSpline
 70
8
 71
3
 72
8
 73
4
 74
0
 40
0
 40
0
 40
0
 40
0
 40
1
 40
1
 40
1
 40
1
 10
1.714262
 20
1.478345
 30
0.0
 10
1.609011
 20
1.224246
 30
0.0
 10
1.667189
 20
0.931766
 30
0.0
 10
1.861667
 20
0.737287
 30
0.0
  0
SPLINE
  5
102
100
AcDbEntity
  8
0
 62
7
100
AcDbSpline
 70
8
 71
3
 72
8
 73
4
 74
0
 40
0
 40
0
 40
0
 40
0
 40
1
 40
1
 40
1
 40
1
 10
1.861667
 20
0.737287
 30
0.0
 10
2.056146
 20
0.542809
 30
0.0
 10
2.348626
 20
0.484631
 30
0.0
 10
2.602725
 20
0.589882
 30
0.0
  0
SPLINE
  5
103
100
AcDbEntity
  8
0
 62
7
100
AcDbSpline
 70
8
 71
3
 72
8
 73
4
 74
0
 40
0
 40
0
 40
0
 40
0
 40
1
 40
1
 40
1
 40
1
 10
2.602725
 20
0.589882
 30
0.0
 10
2.856823
 20
0.695133
 30
0.0
 10
3.022500
 20
0.943086
 30
0.0
 10
3.022500
 20
1.218120
 30
0.0
  0
SPLINE
  5
104
100
AcDbEntity
  8
0
 62
7
100
AcDbSpline
 70
8
 71
3
 72
8
 73
4
 74
0
 40
0
 40
0
 40
0
 40
0
 40
1
 40
1
 40
1
 40
1
 10
3.022500
 20
1.218120
 30
0.0
 10
3.022500
 20
1.593674
 30
0.0
 10
2.718054
 20
1.898120
 30
0.0
 10
2.342500
 20
1.898120
 30
0.0
  0
SPLINE
  5
105
100
AcDbEntity
  8
0
 62
7
100
AcDbSpline
 70
8
 71
3
 72
8
 73
4
 74
0
 40
0
 40
0
 40
0
 40
0
 40
1
 40
1
 40
1
 40
1
 10
5.002177
 20
10.024273
 30
0.0
 10
4.759499
 20
10.024273
 30
0.0
 10
4.540717
 20
9.878087
 30
0.0
 10
4.447849
 20
9.653883
 30
0.0
  0
SPLINE
  5
106
100
AcDbEntity
  8
0
 62
7
100
AcDbSpline
 70
8
 71
3
 72
8
 73
4
 74
0
 40
0
 40
0
 40
0
 40
0
 40
1
 40
1
 40
1
 40
1
 10
4.447849
 20
9.653883
 30
0.0
 10
4.354980
 20
9.429678
 30
0.0
 10
4.406314
 20
9.171607
 30
0.0
 10
4.577912
 20
9.000008
 30
0.0
  0
SPLINE
  5
107
100
AcDbEntity
  8
0
 62
7
100
AcDbSpline
 70
8
 71
3
 72
8
 73
4
 74
0
 40
0
 40
0
 40
0
 40
0
 40
1
 40
1
 40
1
 40
1
 10
4.577912
 20
9.000008
 30
0.0
 10
4.749511
 20
8.828410
 30
0.0
 10
5.007582
 20
8.777076
 30
0.0
 10
5.231787
 20
8.869945
 30
0.0
  0
SPLINE
  5
108
100
AcDbEntity
  8
0
 62
7
100
AcDbSpline
 70
8
 71
3
 72
8
 73
4
 74
0
 40
0
 40
0
 40
0
 40
0
 40
1
 40
1
 40
1
 40
1
 10
5.231787
 20
8.869945
 30
0.0
 10
5.455991
 20
8.962813
 30
0.0
 10
5.602177
 20
9.181595
 30
0.0
 10
5.602177
 20
9.424273
 30
0.0
  0
SPLINE
  5
109
100
AcDbEntity
  8
0
 62
7
100
AcDbSpline
 70
8
 71
3
 72
8
 73
4
 74
0
 40
0
 40
0
 40
0
 40
0
 40
1
 40
1
 40
1
 40
1
 10
5.602177
 20
9.424273
 30
0.0
 10
5.602177
 20
9.583402
 30
0.0
 10
5.538962
 20
9.736015
 30
0.0
 10
5.426441
 20
9.848537
 30
0.0
  0
SPLINE
  5
10a
100
AcDbEntity
  8
0
 62
7
100
AcDbSpline
 70
8
 71
3
 72
8
 73
4
 74
0
 40
0
 40
0
 40
0
 40
0
 40
1
 40
1
 40
1
 40
1
 10
5.426441
 20
9.848537
 30
0.0
 10
5.313919
 20
9.961058
 30
0.0
 10
5.161306
 20
10.024273
 30
0.0
 10
5.002177
 20
10.024273
 30
0.0
  0
LWPOLYLINE
  5
10b
100
AcDbEntity
  8
0
 62
7
100
AcDbPolyline
 90
1
 70
1
 10
2.342500
 20
1.898120
 30
0.0
  0
SPLINE
  5
10c
100
AcDbEntity
  8
0
 62
7
100
AcDbSpline
 70
8
 71
3
 72
8
 73
4
 74
0
 40
0
 40
0
 40
0
 40
0
 40
1
 40
1
 40
1
 40
1
 10
0.972500
 20
3.358120
 30
0.0
 10
0.697466
 20
3.358120
 30
0.0
 10
0.449513
 20
3.192443
 30
0.0
 10
0.344262
 20
2.938345
 30
0.0
  0
SPLINE
  5
10d
100
AcDbEntity
  8
0
 62
7
100
AcDbSpline
 70
8
 71
3
 72
8
 73
4
 74
0
 40
0
 40
0
 40
0
 40
0
 40
1
 40
1
 40
1
 40
1
 10
0.344262
 20
2.938345
 30
0.0
 10
0.239011
 20
2.684246
 30
0.0
 10
0.297189
 20
2.391766
 30
0.0
 10
0.491667
 20
2.197287
 30
0.0
  0
SPLINE
  5
10e
100
AcDbEntity
  8
0
 62
7
100
AcDbSpline
 70
8
 71
3
 72
8
 73
4
 74
0
 40
0
 40
0
 40
0
 40
0
 40
1
 40
1
 40
1
 40
1
 10
0.491667
 20
2.197287
 30
0.0
 10
0.686146
 20
2.002809
 30
0.0
 10
0.978626
 20
1.944631
 30
0.0
 10
1.232725
 20
2.049882
 30
0.0
  0
SPLINE
  5
10f
100
AcDbEntity
  8
0
 62
7
100
AcDbSpline
 70
8
 71
3
 72
8
 73
4
 74
0
 40
0
 40
0
 40
0
 40
0
 40
1
 40
1
 40
1
 40
1
 10
1.232725
 20
2.049882
 30
0.0
 10
1.486823
 20
2.155133
 30
0.0
 10
1.652500
 20
2.403086
 30
0.0
 10
1.652500
 20
2.678120
 30
0.0
  0
SPLINE
  5
110
100
AcDbEntity
  8
0
 62
7
100
AcDbSpline
 70
8
 71
3
 72
8
 73
4
 74
0
 40
0
 40
0
 40
0
 40
0
 40
1
 40
1
 40
1
 40
1
 10
1.652500
 20
2.678120
 30
0.0
 10
1.652500
 20
3.053674
 30
0.0
 10
1.348054
 20
3.358120
 30
0.0
 10
0.972500
 20
3.358120
 30
0.0
  0
LWPOLYLINE
  5
111
100
AcDbEntity
  8
0
 62
7
100
AcDbPolyline
 90
1
 70
1
 10
5.002177
 20
10.024273
 30
0.0
  0
SPLINE
  5
112
100
AcDbEntity
  8
0
 62
7
100
AcDbSpline
 70
8
 71
3
 72
8
 73
4
 74
0
 40
0
 40
0
 40
0
 40
0
 40
1
 40
1
 40
1
 40
1
 10
3.702500
 20
3.348120
 30
0.0
 10
3.427466
 20
3.348120
 30
0.0
 10
3.179513
 20
3.182443
 30
0.0
 10
3.074262
 20
2.928345
 30
0.0
  0
SPLINE
  5
113
100
AcDbEntity
  8
0
 62
7
100
AcDbSpline
 70
8
 71
3
 72
8
 73
4
 74
0
 40
0
 40
0
 40
0
 40
0
 40
1
 40
1
 40
1
 40
1
 10
3.074262
 20
2.928345
 30
0.0
 10
2.969011
 20
2.674246
 30
0.0
 10
3.027189
 20
2.381766
 30
0.0
 10
3.221667
 20
2.187287
 30
0.0
  0
SPLINE
  5
114
100
AcDbEntity
  8
0
 62
7
100
AcDbSpline
 70
8
 71
3
 72
8
 73
4
 74
0
 40
0
 40
0
 40
0
 40
0
 40
1
 40
1
 40
1
 40
1
 10
3.221667
 20
2.187287
 30
0.0
 10
3.416146
 20
1.992809
 30
0.0
 10
3.708626
 20
1.934631
 30
0.0
 10
3.962725
 20
2.039882
 30
0.0
  0
SPLINE
  5
115
100
AcDbEntity
  8
0
 62
7
100
AcDbSpline
 70
8
 71
3
 72
8
 73
4
 74
0
 40
0
 40
0
 40
0
 40
0
 40
1
 40
1
 40
1
 40
1
 10
3.962725
 20
2.039882
 30
0.0
 10
4.216823
 20
2.145133
 30
0.0
 10
4.382500
 20
2.393086
 30
0.0
 10
4.382500
 20
2.668120
 30
0.0
  0
SPLINE
  5
116
100
AcDbEntity
  8
0
 62
7
100
AcDbSpline
 70
8
 71
3
 72
8
 73
4
 74
0
 40
0
 40
0
 40
0
 40
0
 40
1
 40
1
 40
1
 40
1
 10
4.382500
 20
2.668120
 30
0.0
 10
4.382500
 20
2.848467
 30
0.0
 10
4.310857
 20
3.021428
 30
0.0
 10
4.183333
 20
3.148953
 30
0.0
  0
SPLINE
  5
117
100
AcDbEntity
  8
0
 62
7
100
AcDbSpline
 70
8
 71
3
 72
8
 73
4
 74
0
 40
0
 40
0
 40
0
 40
0
 40
1
 40
1
 40
1
 40
1
 10
4.183333
 20
3.148953
 30
0.0
 10
4.055808
 20
3.276477
 30
0.0
 10
3.882847
 20
3.348120
 30
0.0
 10
3.702500
 20
3.348120
 30
0.0
  0
LWPOLYLINE
  5
118
100
AcDbEntity
  8
0
 62
7
100
AcDbPolyline
 90
1
 70
1
 10
0.972500
 20
3.358120
 30
0.0
  0
LWPOLYLINE
  5
119
100
AcDbEntity
  8
0
 62
7
100
AcDbPolyline
 90
1
 70
1
 10
3.702500
 20
3.348120
 30
0.0
  0
SPLINE
  5
11a
100
AcDbEntity
  8
0
 62
7
100
AcDbSpline
 70
8
 71
3
 72
8
 73
4
 74
0
 40
0
 40
0
 40
0
 40
0
 40
1
 40
1
 40
1
 40
1
 10
9.162500
 20
7.693120
 30
0.0
 10
9.160478
 20
7.693120
 30
0.0
 10
9.158654
 20
7.691902
 30
0.0
 10
9.157881
 20
7.690033
 30
0.0
  0
SPLINE
  5
11b
100
AcDbEntity
  8
0
 62
7
100
AcDbSpline
 70
8
 71
3
 72
8
 73
4
 74
0
 40
0
 40
0
 40
0
 40
0
 40
1
 40
1
 40
1
 40
1
 10
9.157881
 20
7.690033
 30
0.0
 10
9.157107
 20
7.688165
 30
0.0
 10
9.157534
 20
7.686014
 30
0.0
 10
9.158964
 20
7.684584
 30
0.0
  0
SPLINE
  5
11c
100
AcDbEntity
  8
0
 62
7
100
AcDbSpline
 70
8
 71
3
 72
8
 73
4
 74
0
 40
0
 40
0
 40
0
 40
0
 40
1
 40
1
 40
1
 40
1
 10
9.158964
 20
7.684584
 30
0.0
 10
9.160394
 20
7.683154
 30
0.0
 10
9.162545
 20
7.682727
 30
0.0
 10
9.164413
 20
7.683501
 30
0.0
  0
SPLINE
  5
11d
100
AcDbEntity
  8
0
 62
7
100
AcDbSpline
 70
8
 71
3
 72
8
 73
4
 74
0
 40
0
 40
0
 40
0
 40
0
 40
1
 40
1
 40
1
 40
1
 10
9.164413
 20
7.683501
 30
0.0
 10
9.166282
 20
7.684274
 30
0.0
 10
9.167500
 20
7.686098
 30
0.0
 10
9.167500
 20
7.688120
 30
0.0
  0
SPLINE
  5
11e
100
AcDbEntity
  8
0
 62
7
100
AcDbSpline
 70
8
 71
3
 72
8
 73
4
 74
0
 40
0
 40
0
 40
0
 40
0
 40
1
 40
1
 40
1
 40
1
 10
9.167500
 20
7.688120
 30
0.0
 10
9.167500
 20
7.689446
 30
0.0
 10
9.166973
 20
7.690718
 30
0.0
 10
9.166036
 20
7.691656
 30
0.0
  0
SPLINE
  5
11f
100
AcDbEntity
  8
0
 62
7
100
AcDbSpline
 70
8
 71
3
 72
8
 73
4
 74
0
 40
0
 40
0
 40
0
 40
0
 40
1
 40
1
 40
1
 40
1
 10
9.166036
 20
7.691656
 30
0.0
 10
9.165098
 20
7.692593
 30
0.0
 10
9.163826
 20
7.693120
 30
0.0
 10
9.162500
 20
7.693120
 30
0.0
  0
LWPOLYLINE
  5
120
100
AcDbEntity
  8
0
 62
7
100
AcDbPolyline
 90
2
 70
0
 10
10.007500
 20
0.033120
 30
0.0
 10
0.007500
 20
0.033120
 30
0.0
  0
SPLINE
  5
121
100
AcDbEntity
  8
0
 62
7
100
AcDbSpline
 70
8
 71
3
 72
8
 73
4
 74
0
 40
0
 40
0
 40
0
 40
0
 40
1
 40
1
 40
1
 40
1
 10
8.072500
 20
1.898120
 30
0.0
 10
7.797466
 20
1.898120
 30
0.0
 10
7.549513
 20
1.732443
 30
0.0
 10
7.444262
 20
1.478345
 30
0.0
  0
SPLINE
  5
122
100
AcDbEntity
  8
0
 62
7
100
AcDbSpline
 70
8
 71
3
 72
8
 73
4
 74
0
 40
0
 40
0
 40
0
 40
0
 40
1
 40
1
 40
1
 40
1
 10
7.444262
 20
1.478345
 30
0.0
 10
7.339011
 20
1.224246
 30
0.0
 10
7.397189
 20
0.931766
 30
0.0
 10
7.591667
 20
0.737287
 30
0.0
  0
SPLINE
  5
123
100
AcDbEntity
  8
0
 62
7
100
AcDbSpline
 70
8
 71
3
 72
8
 73
4
 74
0
 40
0
 40
0
 40
0
 40
0
 40
1
 40
1
 40
1
 40
1
 10
7.591667
 20
0.737287
 30
0.0
 10
7.786146
 20
0.542809
 30
0.0
 10
8.078626
 20
0.484631
 30
0.0
 10
8.332725
 20
0.589882
 30
0.0
  0
SPLINE
  5
124
100
AcDbEntity
  8
0
 62
7
100
AcDbSpline
 70
8
 71
3
 72
8
 73
4
 74
0
 40
0
 40
0
 40
0
 40
0
 40
1
 40
1
 40
1
 40
1
 10
8.332725
 20
0.589882
 30
0.0
 10
8.586823
 20
0.695133
 30
0.0
 10
8.752500
 20
0.943086
 30
0.0
 10
8.752500
 20
1.218120
 30
0.0
  0
SPLINE
  5
125
100
AcDbEntity
  8
0
 62
7
100
AcDbSpline
 70
8
 71
3
 72
8
 73
4
 74
0
 40
0
 40
0
 40
0
 40
0
 40
1
 40
1
 40
1
 40
1
 10
8.752500
 20
1.218120
 30
0.0
 10
8.752500
 20
1.398467
 30
0.0
 10
8.680857
 20
1.571428
 30
0.0
 10
8.553333
 20
1.698953
 30
0.0
  0
SPLINE
  5
126
100
AcDbEntity
  8
0
 62
7
100
AcDbSpline
 70
8
 71
3
 72
8
 73
4
 74
0
 40
0
 40
0
 40
0
 40
0
 40
1
 40
1
 40
1
 40
1
 10
8.553333
 20
1.698953
 30
0.0
 10
8.425808
 20
1.826477
 30
0.0
 10
8.252847
 20
1.898120
 30
0.0
 10
8.072500
 20
1.898120
 30
0.0
  0
LWPOLYLINE
  5
127
100
AcDbEntity
  8
0
 62
7
100
AcDbPolyline
 90
1
 70
1
 10
9.162500
 20
7.693120
 30
0.0
  0
SPLINE
  5
128
100
AcDbEntity
  8
0
 62
7
100
AcDbSpline
 70
8
 71
3
 72
8
 73
4
 74
0
 40
0
 40
0
 40
0
 40
0
 40
1
 40
1
 40
1
 40
1
 10
1.442500
 20
8.963120
 30
0.0
 10
1.440478
 20
8.963120
 30
0.0
 10
1.438654
 20
8.961902
 30
0.0
 10
1.437881
 20
8.960033
 30
0.0
  0
SPLINE
  5
129
100
AcDbEntity
  8
0
 62
7
100
AcDbSpline
 70
8
 71
3
 72
8
 73
4
 74
0
 40
0
 40
0
 40
0
 40
0
 40
1
 40
1
 40
1
 40
1
 10
1.437881
 20
8.960033
 30
0.0
 10
1.437107
 20
8.958165
 30
0.0
 10
1.437534
 20
8.956014
 30
0.0
 10
1.438964
 20
8.954584
 30
0.0
  0
SPLINE
  5
12a
100
AcDbEntity
  8
0
 62
7
100
AcDbSpline
 70
8
 71
3
 72
8
 73
4
 74
0
 40
0
 40
0
 40
0
 40
0
 40
1
 40
1
 40
1
 40
1
 10
1.438964
 20
8.954584
 30
0.0
 10
1.440394
 20
8.953154
 30
0.0
 10
1.442545
 20
8.952727
 30
0.0
 10
1.444413
 20
8.953501
 30
0.0
  0
SPLINE
  5
12b
100
AcDbEntity
  8
0
 62
7
100
AcDbSpline
 70
8
 71
3
 72
8
 73
4
 74
0
 40
0
 40
0
 40
0
 40
0
 40
1
 40
1
 40
1
 40
1
 10
1.444413
 20
8.953501
 30
0.0
 10
1.446282
 20
8.954274
 30
0.0
 10
1.447500
 20
8.956098
 30
0.0
 10
1.447500
 20
8.958120
 30
0.0
  0
SPLINE
  5
12c
100
AcDbEntity
  8
0
 62
7
100
AcDbSpline
 70
8
 71
3
 72
8
 73
4
 74
0
 40
0
 40
0
 40
0
 40
0
 40
1
 40
1
 40
1
 40
1
 10
1.447500
 20
8.958120
 30
0.0
 10
1.447500
 20
8.959446
 30
0.0
 10
1.446973
 20
8.960718
 30
0.0
 10
1.446036
 20
8.961656
 30
0.0
  0
SPLINE
  5
12d
100
AcDbEntity
  8
0
 62
7
100
AcDbSpline
 70
8
 71
3
 72
8
 73
4
 74
0
 40
0
 40
0
 40
0
 40
0
 40
1
 40
1
 40
1
 40
1
 10
1.446036
 20
8.961656
 30
0.0
 10
1.445098
 20
8.962593
 30
0.0
 10
1.443826
 20
8.963120
 30
0.0
 10
1.442500
 20
8.963120
 30
0.0
  0
LWPOLYLINE
  5
12e
100
AcDbEntity
  8
0
 62
7
100
AcDbPolyline
 90
1
 70
1
 10
8.072500
 20
1.898120
 30
0.0
  0
SPLINE
  5
12f
100
AcDbEntity
  8
0
 62
7
100
AcDbSpline
 70
8
 71
3
 72
8
 73
4
 74
0
 40
0
 40
0
 40
0
 40
0
 40
1
 40
1
 40
1
 40
1
 10
9.656328
 20
9.855465
 30
0.0
 10
9.587095
 20
9.855465
 30
0.0
 10
9.524679
 20
9.813760
 30
0.0
 10
9.498185
 20
9.749797
 30
0.0
  0
SPLINE
  5
130
100
AcDbEntity
  8
0
 62
7
100
AcDbSpline
 70
8
 71
3
 72
8
 73
4
 74
0
 40
0
 40
0
 40
0
 40
0
 40
1
 40
1
 40
1
 40
1
 10
9.498185
 20
9.749797
 30
0.0
 10
9.471691
 20
9.685834
 30
0.0
 10
9.486335
 20
9.612210
 30
0.0
 10
9.535290
 20
9.563255
 30
0.0
  0
SPLINE
  5
131
100
AcDbEntity
  8
0
 62
7
100
AcDbSpline
 70
8
 71
3
 72
8
 73
4
 74
0
 40
0
 40
0
 40
0
 40
0
 40
1
 40
1
 40
1
 40
1
 10
9.535290
 20
9.563255
 30
0.0
 10
9.584245
 20
9.514300
 30
0.0
 10
9.657870
 20
9.499655
 30
0.0
 10
9.721832
 20
9.526150
 30
0.0
  0
SPLINE
  5
132
100
AcDbEntity
  8
0
 62
7
100
AcDbSpline
 70
8
 71
3
 72
8
 73
4
 74
0
 40
0
 40
0
 40
0
 40
0
 40
1
 40
1
 40
1
 40
1
 10
9.721832
 20
9.526150
 30
0.0
 10
9.785795
 20
9.552644
 30
0.0
 10
9.827500
 20
9.615060
 30
0.0
 10
9.827500
 20
9.684292
 30
0.0
  0
SPLINE
  5
133
100
AcDbEntity
  8
0
 62
7
100
AcDbSpline
 70
8
 71
3
 72
8
 73
4
 74
0
 40
0
 40
0
 40
0
 40
0
 40
1
 40
1
 40
1
 40
1
 10
9.827500
 20
9.684292
 30
0.0
 10
9.827500
 20
9.778828
 30
0.0
 10
9.750864
 20
9.855465
 30
0.0
 10
9.656328
 20
9.855465
 30
0.0
  0
LWPOLYLINE
  5
134
100
AcDbEntity
  8
0
 62
7
100
AcDbPolyline
 90
1
 70
1
 10
1.442500
 20
8.963120
 30
0.0
  0
SPLINE
  5
135
100
AcDbEntity
  8
0
 62
7
100
AcDbSpline
 70
8
 71
3
 72
8
 73
4
 74
0
 40
0
 40
0
 40
0
 40
0
 40
1
 40
1
 40
1
 40
1
 10
0.862500
 20
6.038120
 30
0.0
 10
0.700715
 20
6.038120
 30
0.0
 10
0.554861
 20
5.940663
 30
0.0
 10
0.492948
 20
5.791193
 30
0.0
  0
SPLINE
  5
136
100
AcDbEntity
  8
0
 62
7
100
AcDbSpline
 70
8
 71
3
 72
8
 73
4
 74
0
 40
0
 40
0
 40
0
 40
0
 40
1
 40
1
 40
1
 40
1
 10
0.492948
 20
5.791193
 30
0.0
 10
0.431036
 20
5.641724
 30
0.0
 10
0.465258
 20
5.469676
 30
0.0
 10
0.579657
 20
5.355277
 30
0.0
  0
SPLINE
  5
137
100
AcDbEntity
  8
0
 62
7
100
AcDbSpline
 70
8
 71
3
 72
8
 73
4
 74
0
 40
0
 40
0
 40
0
 40
0
 40
1
 40
1
 40
1
 40
1
 10
0.579657
 20
5.355277
 30
0.0
 10
0.694056
 20
5.240878
 30
0.0
 10
0.866104
 20
5.206656
 30
0.0
 10
1.015573
 20
5.268568
 30
0.0
  0
SPLINE
  5
138
100
AcDbEntity
  8
0
 62
7
100
AcDbSpline
 70
8
 71
3
 72
8
 73
4
 74
0
 40
0
 40
0
 40
0
 40
0
 40
1
 40
1
 40
1
 40
1
 10
1.015573
 20
5.268568
 30
0.0
 10
1.165043
 20
5.330481
 30
0.0
 10
1.262500
 20
5.476335
 30
0.0
 10
1.262500
 20
5.638120
 30
0.0
  0
SPLINE
  5
139
100
AcDbEntity
  8
0
 62
7
100
AcDbSpline
 70
8
 71
3
 72
8
 73
4
 74
0
 40
0
 40
0
 40
0
 40
0
 40
1
 40
1
 40
1
 40
1
 10
1.262500
 20
5.638120
 30
0.0
 10
1.262500
 20
5.744207
 30
0.0
 10
1.220357
 20
5.845948
 30
0.0
 10
1.145343
 20
5.920963
 30
0.0
  0
SPLINE
  5
13a
100
AcDbEntity
  8
0
 62
7
100
AcDbSpline
 70
8
 71
3
 72
8
 73
4
 74
0
 40
0
 40
0
 40
0
 40
0
 40
1
 40
1
 40
1
 40
1
 10
1.145343
 20
5.920963
 30
0.0
 10
1.070328
 20
5.995977
 30
0.0
 10
0.968587
 20
6.038120
 30
0.0
 10
0.862500
 20
6.038120
 30
0.0
  0
LWPOLYLINE
  5
13b
100
AcDbEntity
  8
0
 62
7
100
AcDbPolyline
 90
1
 70
1
 10
9.656328
 20
9.855465
 30
0.0
  0
SPLINE
  5
13c
100
AcDbEntity
  8
0
 62
7
100
AcDbSpline
 70
8
 71
3
 72
8
 73
4
 74
0
 40
0
 40
0
 40
0
 40
0
 40
1
 40
1
 40
1
 40
1
 10
1.072500
 20
9.438120
 30
0.0
 10
0.930938
 20
9.438120
 30
0.0
 10
0.803316
 20
9.352845
 30
0.0
 10
0.749142
 20
9.222059
 30
0.0
  0
SPLINE
  5
13d
100
AcDbEntity
  8
0
 62
7
100
AcDbSpline
 70
8
 71
3
 72
8
 73
4
 74
0
 40
0
 40
0
 40
0
 40
0
 40
1
 40
1
 40
1
 40
1
 10
0.749142
 20
9.222059
 30
0.0
 10
0.694969
 20
9.091273
 30
0.0
 10
0.724913
 20
8.940732
 30
0.0
 10
0.825013
 20
8.840633
 30
0.0
  0
SPLINE
  5
13e
100
AcDbEntity
  8
0
 62
7
100
AcDbSpline
 70
8
 71
3
 72
8
 73
4
 74
0
 40
0
 40
0
 40
0
 40
0
 40
1
 40
1
 40
1
 40
1
 10
0.825013
 20
8.840633
 30
0.0
 10
0.925112
 20
8.740533
 30
0.0
 10
1.075653
 20
8.710589
 30
0.0
 10
1.206439
 20
8.764762
 30
0.0
  0
SPLINE
  5
13f
100
AcDbEntity
  8
0
 62
7
100
AcDbSpline
 70
8
 71
3
 72
8
 73
4
 74
0
 40
0
 40
0
 40
0
 40
0
 40
1
 40
1
 40
1
 40
1
 10
1.206439
 20
8.764762
 30
0.0
 10
1.337225
 20
8.818936
 30
0.0
 10
1.422500
 20
8.946558
 30
0.0
 10
1.422500
 20
9.088120
 30
0.0
  0
SPLINE
  5
140
100
AcDbEntity
  8
0
 62
7
100
AcDbSpline
 70
8
 71
3
 72
8
 73
4
 74
0
 40
0
 40
0
 40
0
 40
0
 40
1
 40
1
 40
1
 40
1
 10
1.422500
 20
9.088120
 30
0.0
 10
1.422500
 20
9.180946
 30
0.0
 10
1.385625
 20
9.269970
 30
0.0
 10
1.319987
 20
9.335607
 30
0.0
  0
SPLINE
  5
141
100
AcDbEntity
  8
0
 62
7
100
AcDbSpline
 70
8
 71
3
 72
8
 73
4
 74
0
 40
0
 40
0
 40
0
 40
0
 40
1
 40
1
 40
1
 40
1
 10
1.319987
 20
9.335607
 30
0.0
 10
1.254350
 20
9.401245
 30
0.0
 10
1.165326
 20
9.438120
 30
0.0
 10
1.072500
 20
9.438120
 30
0.0
  0
LWPOLYLINE
  5
142
100
AcDbEntity
  8
0
 62
7
100
AcDbPolyline
 90
1
 70
1
 10
0.862500
 20
6.038120
 30
0.0
  0
SPLINE
  5
143
100
AcDbEntity
  8
0
 62
7
100
AcDbSpline
 70
8
 71
3
 72
8
 73
4
 74
0
 40
0
 40
0
 40
0
 40
0
 40
1
 40
1
 40
1
 40
1
 10
8.931475
 20
9.398120
 30
0.0
 10
8.789913
 20
9.398120
 30
0.0
 10
8.662291
 20
9.312845
 30
0.0
 10
8.608117
 20
9.182059
 30
0.0
  0
SPLINE
  5
144
100
AcDbEntity
  8
0
 62
7
100
AcDbSpline
 70
8
 71
3
 72
8
 73
4
 74
0
 40
0
 40
0
 40
0
 40
0
 40
1
 40
1
 40
1
 40
1
 10
8.608117
 20
9.182059
 30
0.0
 10
8.553944
 20
9.051273
 30
0.0
 10
8.583889
 20
8.900732
 30
0.0
 10
8.683988
 20
8.800633
 30
0.0
  0
SPLINE
  5
145
100
AcDbEntity
  8
0
 62
7
100
AcDbSpline
 70
8
 71
3
 72
8
 73
4
 74
0
 40
0
 40
0
 40
0
 40
0
 40
1
 40
1
 40
1
 40
1
 10
8.683988
 20
8.800633
 30
0.0
 10
8.784087
 20
8.700533
 30
0.0
 10
8.934628
 20
8.670589
 30
0.0
 10
9.065414
 20
8.724762
 30
0.0
  0
SPLINE
  5
146
100
AcDbEntity
  8
0
 62
7
100
AcDbSpline
 70
8
 71
3
 72
8
 73
4
 74
0
 40
0
 40
0
 40
0
 40
0
 40
1
 40
1
 40
1
 40
1
 10
9.065414
 20
8.724762
 30
0.0
 10
9.196200
 20
8.778936
 30
0.0
 10
9.281475
 20
8.906558
 30
0.0
 10
9.281475
 20
9.048120
 30
0.0
  0
SPLINE
  5
147
100
AcDbEntity
  8
0
 62
7
100
AcDbSpline
 70
8
 71
3
 72
8
 73
4
 74
0
 40
0
 40
0
 40
0
 40
0
 40
1
 40
1
 40
1
 40
1
 10
9.281475
 20
9.048120
 30
0.0
 10
9.281475
 20
9.140946
 30
0.0
 10
9.244600
 20
9.229970
 30
0.0
 10
9.178963
 20
9.295607
 30
0.0
  0
SPLINE
  5
148
100
AcDbEntity
  8
0
 62
7
100
AcDbSpline
 70
8
 71
3
 72
8
 73
4
 74
0
 40
0
 40
0
 40
0
 40
0
 40
1
 40
1
 40
1
 40
1
 10
9.178963
 20
9.295607
 30
0.0
 10
9.113325
 20
9.361245
 30
0.0
 10
9.024301
 20
9.398120
 30
0.0
 10
8.931475
 20
9.398120
 30
0.0
  0
LWPOLYLINE
  5
149
100
AcDbEntity
  8
0
 62
7
100
AcDbPolyline
 90
1
 70
1
 10
1.072500
 20
9.438120
 30
0.0
  0
SPLINE
  5
14a
100
AcDbEntity
  8
0
 62
7
100
AcDbSpline
 70
8
 71
3
 72
8
 73
4
 74
0
 40
0
 40
0
 40
0
 40
0
 40
1
 40
1
 40
1
 40
1
 10
0.842500
 20
7.718120
 30
0.0
 10
0.680715
 20
7.718120
 30
0.0
 10
0.534861
 20
7.620663
 30
0.0
 10
0.472948
 20
7.471193
 30
0.0
  0
SPLINE
  5
14b
100
AcDbEntity
  8
0
 62
7
100
AcDbSpline
 70
8
 71
3
 72
8
 73
4
 74
0
 40
0
 40
0
 40
0
 40
0
 40
1
 40
1
 40
1
 40
1
 10
0.472948
 20
7.471193
 30
0.0
 10
0.411036
 20
7.321724
 30
0.0
 10
0.445258
 20
7.149676
 30
0.0
 10
0.559657
 20
7.035277
 30
0.0
  0
SPLINE
  5
14c
100
AcDbEntity
  8
0
 62
7
100
AcDbSpline
 70
8
 71
3
 72
8
 73
4
 74
0
 40
0
 40
0
 40
0
 40
0
 40
1
 40
1
 40
1
 40
1
 10
0.559657
 20
7.035277
 30
0.0
 10
0.674056
 20
6.920878
 30
0.0
 10
0.846104
 20
6.886656
 30
0.0
 10
0.995573
 20
6.948568
 30
0.0
  0
SPLINE
  5
14d
100
AcDbEntity
  8
0
 62
7
100
AcDbSpline
 70
8
 71
3
 72
8
 73
4
 74
0
 40
0
 40
0
 40
0
 40
0
 40
1
 40
1
 40
1
 40
1
 10
0.995573
 20
6.948568
 30
0.0
 10
1.145043
 20
7.010481
 30
0.0
 10
1.242500
 20
7.156335
 30
0.0
 10
1.242500
 20
7.318120
 30
0.0
  0
SPLINE
  5
14e
100
AcDbEntity
  8
0
 62
7
100
AcDbSpline
 70
8
 71
3
 72
8
 73
4
 74
0
 40
0
 40
0
 40
0
 40
0
 40
1
 40
1
 40
1
 40
1
 10
1.242500
 20
7.318120
 30
0.0
 10
1.242500
 20
7.539034
 30
0.0
 10
1.063414
 20
7.718120
 30
0.0
 10
0.842500
 20
7.718120
 30
0.0
  0
LWPOLYLINE
  5
14f
100
AcDbEntity
  8
0
 62
7
100
AcDbPolyline
 90
1
 70
1
 10
8.931475
 20
9.398120
 30
0.0
  0
SPLINE
  5
150
100
AcDbEntity
  8
0
 62
7
100
AcDbSpline
 70
8
 71
3
 72
8
 73
4
 74
0
 40
0
 40
0
 40
0
 40
0
 40
1
 40
1
 40
1
 40
1
 10
3.201988
 20
9.428120
 30
0.0
 10
3.060426
 20
9.428120
 30
0.0
 10
2.932803
 20
9.342845
 30
0.0
 10
2.878630
 20
9.212059
 30
0.0
  0
SPLINE
  5
151
100
AcDbEntity
  8
0
 62
7
100
AcDbSpline
 70
8
 71
3
 72
8
 73
4
 74
0
 40
0
 40
0
 40
0
 40
0
 40
1
 40
1
 40
1
 40
1
 10
2.878630
 20
9.212059
 30
0.0
 10
2.824456
 20
9.081273
 30
0.0
 10
2.854401
 20
8.930732
 30
0.0
 10
2.954500
 20
8.830633
 30
0.0
  0
SPLINE
  5
152
100
AcDbEntity
  8
0
 62
7
100
AcDbSpline
 70
8
 71
3
 72
8
 73
4
 74
0
 40
0
 40
0
 40
0
 40
0
 40
1
 40
1
 40
1
 40
1
 10
2.954500
 20
8.830633
 30
0.0
 10
3.054600
 20
8.730533
 30
0.0
 10
3.205141
 20
8.700589
 30
0.0
 10
3.335927
 20
8.754762
 30
0.0
  0
SPLINE
  5
153
100
AcDbEntity
  8
0
 62
7
100
AcDbSpline
 70
8
 71
3
 72
8
 73
4
 74
0
 40
0
 40
0
 40
0
 40
0
 40
1
 40
1
 40
1
 40
1
 10
3.335927
 20
8.754762
 30
0.0
 10
3.466713
 20
8.808936
 30
0.0
 10
3.551988
 20
8.936558
 30
0.0
 10
3.551988
 20
9.078120
 30
0.0
  0
SPLINE
  5
154
100
AcDbEntity
  8
0
 62
7
100
AcDbSpline
 70
8
 71
3
 72
8
 73
4
 74
0
 40
0
 40
0
 40
0
 40
0
 40
1
 40
1
 40
1
 40
1
 10
3.551988
 20
9.078120
 30
0.0
 10
3.551988
 20
9.170946
 30
0.0
 10
3.515113
 20
9.259970
 30
0.0
 10
3.449475
 20
9.325607
 30
0.0
  0
SPLINE
  5
155
100
AcDbEntity
  8
0
 62
7
100
AcDbSpline
 70
8
 71
3
 72
8
 73
4
 74
0
 40
0
 40
0
 40
0
 40
0
 40
1
 40
1
 40
1
 40
1
 10
3.449475
 20
9.325607
 30
0.0
 10
3.383837
 20
9.391245
 30
0.0
 10
3.294813
 20
9.428120
 30
0.0
 10
3.201988
 20
9.428120
 30
0.0
  0
LWPOLYLINE
  5
156
100
AcDbEntity
  8
0
 62
7
100
AcDbPolyline
 90
1
 70
1
 10
0.842500
 20
7.718120
 30
0.0
  0
SPLINE
  5
157
100
AcDbEntity
  8
0
 62
7
100
AcDbSpline
 70
8
 71
3
 72
8
 73
4
 74
0
 40
0
 40
0
 40
0
 40
0
 40
1
 40
1
 40
1
 40
1
 10
0.357500
 20
0.553120
 30
0.0
 10
0.288267
 20
0.553120
 30
0.0
 10
0.225852
 20
0.511415
 30
0.0
 10
0.199357
 20
0.447452
 30
0.0
  0
SPLINE
  5
158
100
AcDbEntity
  8
0
 62
7
100
AcDbSpline
 70
8
 71
3
 72
8
 73
4
 74
0
 40
0
 40
0
 40
0
 40
0
 40
1
 40
1
 40
1
 40
1
 10
0.199357
 20
0.447452
 30
0.0
 10
0.172863
 20
0.383490
 30
0.0
 10
0.187508
 20
0.309865
 30
0.0
 10
0.236463
 20
0.260910
 30
0.0
  0
SPLINE
  5
159
100
AcDbEntity
  8
0
 62
7
100
AcDbSpline
 70
8
 71
3
 72
8
 73
4
 74
0
 40
0
 40
0
 40
0
 40
0
 40
1
 40
1
 40
1
 40
1
 10
0.236463
 20
0.260910
 30
0.0
 10
0.285418
 20
0.211955
 30
0.0
 10
0.359042
 20
0.197311
 30
0.0
 10
0.423005
 20
0.223805
 30
0.0
  0
SPLINE
  5
15a
100
AcDbEntity
  8
0
 62
7
100
AcDbSpline
 70
8
 71
3
 72
8
 73
4
 74
0
 40
0
 40
0
 40
0
 40
0
 40
1
 40
1
 40
1
 40
1
 10
0.423005
 20
0.223805
 30
0.0
 10
0.486968
 20
0.250299
 30
0.0
 10
0.528672
 20
0.312715
 30
0.0
 10
0.528672
 20
0.381948
 30
0.0
  0
SPLINE
  5
15b
100
AcDbEntity
  8
0
 62
7
100
AcDbSpline
 70
8
 71
3
 72
8
 73
4
 74
0
 40
0
 40
0
 40
0
 40
0
 40
1
 40
1
 40
1
 40
1
 10
0.528672
 20
0.381948
 30
0.0
 10
0.528672
 20
0.476484
 30
0.0
 10
0.452036
 20
0.553120
 30
0.0
 10
0.357500
 20
0.553120
 30
0.0
  0
LWPOLYLINE
  5
15c
100
AcDbEntity
  8
0
 62
7
100
AcDbPolyline
 90
1
 70
1
 10
3.201988
 20
9.428120
 30
0.0
  0
SPLINE
  5
15d
100
AcDbEntity
  8
0
 62
7
100
AcDbSpline
 70
8
 71
3
 72
8
 73
4
 74
0
 40
0
 40
0
 40
0
 40
0
 40
1
 40
1
 40
1
 40
1
 10
6.801988
 20
9.408120
 30
0.0
 10
6.660426
 20
9.408120
 30
0.0
 10
6.532803
 20
9.322845
 30
0.0
 10
6.478630
 20
9.192059
 30
0.0
  0
SPLINE
  5
15e
100
AcDbEntity
  8
0
 62
7
100
AcDbSpline
 70
8
 71
3
 72
8
 73
4
 74
0
 40
0
 40
0
 40
0
 40
0
 40
1
 40
1
 40
1
 40
1
 10
6.478630
 20
9.192059
 30
0.0
 10
6.424456
 20
9.061273
 30
0.0
 10
6.454401
 20
8.910732
 30
0.0
 10
6.554500
 20
8.810633
 30
0.0
  0
SPLINE
  5
15f
100
AcDbEntity
  8
0
 62
7
100
AcDbSpline
 70
8
 71
3
 72
8
 73
4
 74
0
 40
0
 40
0
 40
0
 40
0
 40
1
 40
1
 40
1
 40
1
 10
6.554500
 20
8.810633
 30
0.0
 10
6.654600
 20
8.710533
 30
0.0
 10
6.805141
 20
8.680589
 30
0.0
 10
6.935927
 20
8.734762
 30
0.0
  0
SPLINE
  5
160
100
AcDbEntity
  8
0
 62
7
100
AcDbSpline
 70
8
 71
3
 72
8
 73
4
 74
0
 40
0
 40
0
 40
0
 40
0
 40
1
 40
1
 40
1
 40
1
 10
6.935927
 20
8.734762
 30
0.0
 10
7.066713
 20
8.788936
 30
0.0
 10
7.151988
 20
8.916558
 30
0.0
 10
7.151988
 20
9.058120
 30
0.0
  0
SPLINE
  5
161
100
AcDbEntity
  8
0
 62
7
100
AcDbSpline
 70
8
 71
3
 72
8
 73
4
 74
0
 40
0
 40
0
 40
0
 40
0
 40
1
 40
1
 40
1
 40
1
 10
7.151988
 20
9.058120
 30
0.0
 10
7.151988
 20
9.150946
 30
0.0
 10
7.115113
 20
9.239970
 30
0.0
 10
7.049475
 20
9.305607
 30
0.0
  0
SPLINE
  5
162
100
AcDbEntity
  8
0
 62
7
100
AcDbSpline
 70
8
 71
3
 72
8
 73
4
 74
0
 40
0
 40
0
 40
0
 40
0
 40
1
 40
1
 40
1
 40
1
 10
7.049475
 20
9.305607
 30
0.0
 10
6.983837
 20
9.371245
 30
0.0
 10
6.894813
 20
9.408120
 30
0.0
 10
6.801988
 20
9.408120
 30
0.0
  0
LWPOLYLINE
  5
163
100
AcDbEntity
  8
0
 62
7
100
AcDbPolyline
 90
1
 70
1
 10
0.357500
 20
0.553120
 30
0.0
  0
LWPOLYLINE
  5
164
100
AcDbEntity
  8
0
 62
7
100
AcDbPolyline
 90
1
 70
1
 10
6.801988
 20
9.408120
 30
0.0
  0
LWPOLYLINE
  5
165
100
AcDbEntity
  8
0
 62
7
100
AcDbPolyline
 90
2
 70
0
 10
0.007500
 20
10.033120
 30
0.0
 10
10.007500
 20
10.033120
 30
0.0
  0
SPLINE
  5
166
100
AcDbEntity
  8
0
 62
7
100
AcDbSpline
 70
8
 71
3
 72
8
 73
4
 74
0
 40
0
 40
0
 40
0
 40
0
 40
1
 40
1
 40
1
 40
1
 10
7.232500
 20
3.448120
 30
0.0
 10
6.981733
 20
3.448120
 30
0.0
 10
6.755659
 20
3.297062
 30
0.0
 10
6.659695
 20
3.065384
 30
0.0
  0
SPLINE
  5
167
100
AcDbEntity
  8
0
 62
7
100
AcDbSpline
 70
8
 71
3
 72
8
 73
4
 74
0
 40
0
 40
0
 40
0
 40
0
 40
1
 40
1
 40
1
 40
1
 10
6.659695
 20
3.065384
 30
0.0
 10
6.563730
 20
2.833706
 30
0.0
 10
6.616775
 20
2.567033
 30
0.0
 10
6.794094
 20
2.389714
 30
0.0
  0
SPLINE
  5
168
100
AcDbEntity
  8
0
 62
7
100
AcDbSpline
 70
8
 71
3
 72
8
 73
4
 74
0
 40
0
 40
0
 40
0
 40
0
 40
1
 40
1
 40
1
 40
1
 10
6.794094
 20
2.389714
 30
0.0
 10
6.971413
 20
2.212395
 30
0.0
 10
7.238086
 20
2.159350
 30
0.0
 10
7.469764
 20
2.255315
 30
0.0
  0
SPLINE
  5
169
100
AcDbEntity
  8
0
 62
7
100
AcDbSpline
 70
8
 71
3
 72
8
 73
4
 74
0
 40
0
 40
0
 40
0
 40
0
 40
1
 40
1
 40
1
 40
1
 10
7.469764
 20
2.255315
 30
0.0
 10
7.701442
 20
2.351279
 30
0.0
 10
7.852500
 20
2.577353
 30
0.0
 10
7.852500
 20
2.828120
 30
0.0
  0
SPLINE
  5
16a
100
AcDbEntity
  8
0
 62
7
100
AcDbSpline
 70
8
 71
3
 72
8
 73
4
 74
0
 40
0
 40
0
 40
0
 40
0
 40
1
 40
1
 40
1
 40
1
 10
7.852500
 20
2.828120
 30
0.0
 10
7.852500
 20
2.992554
 30
0.0
 10
7.787179
 20
3.150254
 30
0.0
 10
7.670906
 20
3.266526
 30
0.0
  0
SPLINE
  5
16b
100
AcDbEntity
  8
0
 62
7
100
AcDbSpline
 70
8
 71
3
 72
8
 73
4
 74
0
 40
0
 40
0
 40
0
 40
0
 40
1
 40
1
 40
1
 40
1
 10
7.670906
 20
3.266526
 30
0.0
 10
7.554634
 20
3.382799
 30
0.0
 10
7.396934
 20
3.448120
 30
0.0
 10
7.232500
 20
3.448120
 30
0.0
  0
LWPOLYLINE
  5
16c
100
AcDbEntity
  8
0
 62
7
100
AcDbPolyline
 90
4
 70
1
 10
2.212500
 20
8.248120
 30
0.0
 10
7.802500
 20
8.248120
 30
0.0
 10
7.802500
 20
4.738120
 30
0.0
 10
2.212500
 20
4.738120
 30
0.0
  0
SPLINE
  5
16d
100
AcDbEntity
  8
0
 62
7
100
AcDbSpline
 70
8
 71
3
 72
8
 73
4
 74
0
 40
0
 40
0
 40
0
 40
0
 40
1
 40
1
 40
1
 40
1
 10
9.232500
 20
6.038120
 30
0.0
 10
9.070715
 20
6.038120
 30
0.0
 10
8.924861
 20
5.940663
 30
0.0
 10
8.862948
 20
5.791193
 30
0.0
  0
SPLINE
  5
16e
100
AcDbEntity
  8
0
 62
7
100
AcDbSpline
 70
8
 71
3
 72
8
 73
4
 74
0
 40
0
 40
0
 40
0
 40
0
 40
1
 40
1
 40
1
 40
1
 10
8.862948
 20
5.791193
 30
0.0
 10
8.801036
 20
5.641724
 30
0.0
 10
8.835258
 20
5.469676
 30
0.0
 10
8.949657
 20
5.355277
 30
0.0
  0
SPLINE
  5
16f
100
AcDbEntity
  8
0
 62
7
100
AcDbSpline
 70
8
 71
3
 72
8
 73
4
 74
0
 40
0
 40
0
 40
0
 40
0
 40
1
 40
1
 40
1
 40
1
 10
8.949657
 20
5.355277
 30
0.0
 10
9.064056
 20
5.240878
 30
0.0
 10
9.236104
 20
5.206656
 30
0.0
 10
9.385573
 20
5.268568
 30
0.0
  0
SPLINE
  5
170
100
AcDbEntity
  8
0
 62
7
100
AcDbSpline
 70
8
 71
3
 72
8
 73
4
 74
0
 40
0
 40
0
 40
0
 40
0
 40
1
 40
1
 40
1
 40
1
 10
9.385573
 20
5.268568
 30
0.0
 10
9.535043
 20
5.330481
 30
0.0
 10
9.632500
 20
5.476335
 30
0.0
 10
9.632500
 20
5.638120
 30
0.0
  0
SPLINE
  5
171
100
AcDbEntity
  8
0
 62
7
100
AcDbSpline
 70
8
 71
3
 72
8
 73
4
 74
0
 40
0
 40
0
 40
0
 40
0
 40
1
 40
1
 40
1
 40
1
 10
9.632500
 20
5.638120
 30
0.0
 10
9.632500
 20
5.859034
 30
0.0
 10
9.453414
 20
6.038120
 30
0.0
 10
9.232500
 20
6.038120
 30
0.0
  0
LWPOLYLINE
  5
172
100
AcDbEntity
  8
0
 62
7
100
AcDbPolyline
 90
1
 70
1
 10
7.232500
 20
3.448120
 30
0.0
  0
SPLINE
  5
173
100
AcDbEntity
  8
0
 62
7
100
AcDbSpline
 70
8
 71
3
 72
8
 73
4
 74
0
 40
0
 40
0
 40
0
 40
0
 40
1
 40
1
 40
1
 40
1
 10
5.072500
 20
1.898120
 30
0.0
 10
4.797466
 20
1.898120
 30
0.0
 10
4.549513
 20
1.732443
 30
0.0
 10
4.444262
 20
1.478345
 30
0.0
  0
SPLINE
  5
174
100
AcDbEntity
  8
0
 62
7
100
AcDbSpline
 70
8
 71
3
 72
8
 73
4
 74
0
 40
0
 40
0
 40
0
 40
0
 40
1
 40
1
 40
1
 40
1
 10
4.444262
 20
1.478345
 30
0.0
 10
4.339011
 20
1.224246
 30
0.0
 10
4.397189
 20
0.931766
 30
0.0
 10
4.591667
 20
0.737287
 30
0.0
  0
SPLINE
  5
175
100
AcDbEntity
  8
0
 62
7
100
AcDbSpline
 70
8
 71
3
 72
8
 73
4
 74
0
 40
0
 40
0
 40
0
 40
0
 40
1
 40
1
 40
1
 40
1
 10
4.591667
 20
0.737287
 30
0.0
 10
4.786146
 20
0.542809
 30
0.0
 10
5.078626
 20
0.484631
 30
0.0
 10
5.332725
 20
0.589882
 30
0.0
  0
SPLINE
  5
176
100
AcDbEntity
  8
0
 62
7
100
AcDbSpline
 70
8
 71
3
 72
8
 73
4
 74
0
 40
0
 40
0
 40
0
 40
0
 40
1
 40
1
 40
1
 40
1
 10
5.332725
 20
0.589882
 30
0.0
 10
5.586823
 20
0.695133
 30
0.0
 10
5.752500
 20
0.943086
 30
0.0
 10
5.752500
 20
1.218120
 30
0.0
  0
SPLINE
  5
177
100
AcDbEntity
  8
0
 62
7
100
AcDbSpline
 70
8
 71
3
 72
8
 73
4
 74
0
 40
0
 40
0
 40
0
 40
0
 40
1
 40
1
 40
1
 40
1
 10
5.752500
 20
1.218120
 30
0.0
 10
5.752500
 20
1.398467
 30
0.0
 10
5.680857
 20
1.571428
 30
0.0
 10
5.553333
 20
1.698953
 30
0.0
  0
SPLINE
  5
178
100
AcDbEntity
  8
0
 62
7
100
AcDbSpline
 70
8
 71
3
 72
8
 73
4
 74
0
 40
0
 40
0
 40
0
 40
0
 40
1
 40
1
 40
1
 40
1
 10
5.553333
 20
1.698953
 30
0.0
 10
5.425808
 20
1.826477
 30
0.0
 10
5.252847
 20
1.898120
 30
0.0
 10
5.072500
 20
1.898120
 30
0.0
  0
LWPOLYLINE
  5
179
100
AcDbEntity
  8
0
 62
7
100
AcDbPolyline
 90
1
 70
1
 10
9.232500
 20
6.038120
 30
0.0
  0
SPLINE
  5
17a
100
AcDbEntity
  8
0
 62
7
100
AcDbSpline
 70
8
 71
3
 72
8
 73
4
 74
0
 40
0
 40
0
 40
0
 40
0
 40
1
 40
1
 40
1
 40
1
 10
9.232500
 20
7.698120
 30
0.0
 10
9.070715
 20
7.698120
 30
0.0
 10
8.924861
 20
7.600663
 30
0.0
 10
8.862948
 20
7.451193
 30
0.0
  0
SPLINE
  5
17b
100
AcDbEntity
  8
0
 62
7
100
AcDbSpline
 70
8
 71
3
 72
8
 73
4
 74
0
 40
0
 40
0
 40
0
 40
0
 40
1
 40
1
 40
1
 40
1
 10
8.862948
 20
7.451193
 30
0.0
 10
8.801036
 20
7.301724
 30
0.0
 10
8.835258
 20
7.129676
 30
0.0
 10
8.949657
 20
7.015277
 30
0.0
  0
SPLINE
  5
17c
100
AcDbEntity
  8
0
 62
7
100
AcDbSpline
 70
8
 71
3
 72
8
 73
4
 74
0
 40
0
 40
0
 40
0
 40
0
 40
1
 40
1
 40
1
 40
1
 10
8.949657
 20
7.015277
 30
0.0
 10
9.064056
 20
6.900878
 30
0.0
 10
9.236104
 20
6.866656
 30
0.0
 10
9.385573
 20
6.928568
 30
0.0
  0
SPLINE
  5
17d
100
AcDbEntity
  8
0
 62
7
100
AcDbSpline
 70
8
 71
3
 72
8
 73
4
 74
0
 40
0
 40
0
 40
0
 40
0
 40
1
 40
1
 40
1
 40
1
 10
9.385573
 20
6.928568
 30
0.0
 10
9.535043
 20
6.990481
 30
0.0
 10
9.632500
 20
7.136335
 30
0.0
 10
9.632500
 20
7.298120
 30
0.0
  0
SPLINE
  5
17e
100
AcDbEntity
  8
0
 62
7
100
AcDbSpline
 70
8
 71
3
 72
8
 73
4
 74
0
 40
0
 40
0
 40
0
 40
0
 40
1
 40
1
 40
1
 40
1
 10
9.632500
 20
7.298120
 30
0.0
 10
9.632500
 20
7.519034
 30
0.0
 10
9.453414
 20
7.698120
 30
0.0
 10
9.232500
 20
7.698120
 30
0.0
  0
LWPOLYLINE
  5
17f
100
AcDbEntity
  8
0
 62
7
100
AcDbPolyline
 90
1
 70
1
 10
5.072500
 20
1.898120
 30
0.0
  0
SPLINE
  5
180
100
AcDbEntity
  8
0
 62
7
100
AcDbSpline
 70
8
 71
3
 72
8
 73
4
 74
0
 40
0
 40
0
 40
0
 40
0
 40
1
 40
1
 40
1
 40
1
 10
0.357500
 20
9.854292
 30
0.0
 10
0.288267
 20
9.854292
 30
0.0
 10
0.225852
 20
9.812588
 30
0.0
 10
0.199357
 20
9.748625
 30
0.0
  0
SPLINE
  5
181
100
AcDbEntity
  8
0
 62
7
100
AcDbSpline
 70
8
 71
3
 72
8
 73
4
 74
0
 40
0
 40
0
 40
0
 40
0
 40
1
 40
1
 40
1
 40
1
 10
0.199357
 20
9.748625
 30
0.0
 10
0.172863
 20
9.684662
 30
0.0
 10
0.187508
 20
9.611038
 30
0.0
 10
0.236463
 20
9.562083
 30
0.0
  0
SPLINE
  5
182
100
AcDbEntity
  8
0
 62
7
100
AcDbSpline
 70
8
 71
3
 72
8
 73
4
 74
0
 40
0
 40
0
 40
0
 40
0
 40
1
 40
1
 40
1
 40
1
 10
0.236463
 20
9.562083
 30
0.0
 10
0.285418
 20
9.513128
 30
0.0
 10
0.359042
 20
9.498483
 30
0.0
 10
0.423005
 20
9.524977
 30
0.0
  0
SPLINE
  5
183
100
AcDbEntity
  8
0
 62
7
100
AcDbSpline
 70
8
 71
3
 72
8
 73
4
 74
0
 40
0
 40
0
 40
0
 40
0
 40
1
 40
1
 40
1
 40
1
 10
0.423005
 20
9.524977
 30
0.0
 10
0.486968
 20
9.551472
 30
0.0
 10
0.528672
 20
9.613887
 30
0.0
 10
0.528672
 20
9.683120
 30
0.0
  0
SPLINE
  5
184
100
AcDbEntity
  8
0
 62
7
100
AcDbSpline
 70
8
 71
3
 72
8
 73
4
 74
0
 40
0
 40
0
 40
0
 40
0
 40
1
 40
1
 40
1
 40
1
 10
0.528672
 20
9.683120
 30
0.0
 10
0.528672
 20
9.777656
 30
0.0
 10
0.452036
 20
9.854292
 30
0.0
 10
0.357500
 20
9.854292
 30
0.0
  0
LWPOLYLINE
  5
185
100
AcDbEntity
  8
0
 62
7
100
AcDbPolyline
 90
1
 70
1
 10
9.232500
 20
7.698120
 30
0.0
  0
LWPOLYLINE
  5
186
100
AcDbEntity
  8
0
 62
7
100
AcDbPolyline
 90
1
 70
1
 10
0.357500
 20
9.854292
 30
0.0
  0
SPLINE
  5
187
100
AcDbEntity
  8
0
 62
7
100
AcDbSpline
 70
8
 71
3
 72
8
 73
4
 74
0
 40
0
 40
0
 40
0
 40
0
 40
1
 40
1
 40
1
 40
1
 10
9.656328
 20
0.554292
 30
0.0
 10
9.587095
 20
0.554292
 30
0.0
 10
9.524679
 20
0.512588
 30
0.0
 10
9.498185
 20
0.448625
 30
0.0
  0
SPLINE
  5
188
100
AcDbEntity
  8
0
 62
7
100
AcDbSpline
 70
8
 71
3
 72
8
 73
4
 74
0
 40
0
 40
0
 40
0
 40
0
 40
1
 40
1
 40
1
 40
1
 10
9.498185
 20
0.448625
 30
0.0
 10
9.471691
 20
0.384662
 30
0.0
 10
9.486335
 20
0.311038
 30
0.0
 10
9.535290
 20
0.262083
 30
0.0
  0
SPLINE
  5
189
100
AcDbEntity
  8
0
 62
7
100
AcDbSpline
 70
8
 71
3
 72
8
 73
4
 74
0
 40
0
 40
0
 40
0
 40
0
 40
1
 40
1
 40
1
 40
1
 10
9.535290
 20
0.262083
 30
0.0
 10
9.584245
 20
0.213128
 30
0.0
 10
9.657870
 20
0.198483
 30
0.0
 10
9.721832
 20
0.224977
 30
0.0
  0
SPLINE
  5
18a
100
AcDbEntity
  8
0
 62
7
100
AcDbSpline
 70
8
 71
3
 72
8
 73
4
 74
0
 40
0
 40
0
 40
0
 40
0
 40
1
 40
1
 40
1
 40
1
 10
9.721832
 20
0.224977
 30
0.0
 10
9.785795
 20
0.251472
 30
0.0
 10
9.827500
 20
0.313887
 30
0.0
 10
9.827500
 20
0.383120
 30
0.0
  0
SPLINE
  5
18b
100
AcDbEntity
  8
0
 62
7
100
AcDbSpline
 70
8
 71
3
 72
8
 73
4
 74
0
 40
0
 40
0
 40
0
 40
0
 40
1
 40
1
 40
1
 40
1
 10
9.827500
 20
0.383120
 30
0.0
 10
9.827500
 20
0.477656
 30
0.0
 10
9.750864
 20
0.554292
 30
0.0
 10
9.656328
 20
0.554292
 30
0.0
  0
LWPOLYLINE
  5
18c
100
AcDbEntity
  8
0
 62
7
100
AcDbPolyline
 90
2
 70
0
 10
10.007500
 20
10.033120
 30
0.0
 10
10.007500
 20
0.033120
 30
0.0
  0
LWPOLYLINE
  5
18d
100
AcDbEntity
  8
0
 62
7
100
AcDbPolyline
 90
1
 70
1
 10
9.656328
 20
0.554292
 30
0.0
  0
LWPOLYLINE
  5
18e
100
AcDbEntity
  8
0
 62
7
100
AcDbPolyline
 90
2
 70
0
 10
0.007500
 20
0.033120
 30
0.0
 10
0.007500
 20
10.033120
 30
0.0
  0
ENDSEC
  0
SECTION
  2
OBJECTS
  0
DICTIONARY
  5
C
330
0
100
AcDbDictionary
  3
ACAD_GROUP
350
D
  3
ACAD_MLINESTYLE
350
17
  0
DICTIONARY
  5
D
330
C
100
AcDbDictionary
  0
DICTIONARY
  5
1A
330
C
100
AcDbDictionary
  0
DICTIONARY
  5
17
330
C
100
AcDbDictionary
  3
STANDARD
350
18
  0
DICTIONARY
  5
19
330
C
100
AcDbDictionary
  0
ENDSEC
  0
EOF
