  0
SECTION
  2
HEADER
  9
$ACADVER
  1
AC1014
  9
$HANDSEED
  5
FFFF
  9
$INSUNITS
 70
     5
  9
$MEASUREMENT
 70
     1
  0
ENDSEC
  0
SECTION
  2
TABLES
  0
TABLE
  2
VPORT
  5
8
330
0
100
AcDbSymbolTable
 70
     4
  0
VPORT
  5
2E
330
8
100
AcDbSymbolTableRecord
100
AcDbViewportTableRecord
  2
*ACTIVE
 70
     0
 10
0.0
 20
0.0
 11
1.0
 21
1.0
 12
210.0
 22
148.5
 13
0.0
 23
0.0
 14
10.0
 24
10.0
 15
10.0
 25
10.0
 16
0.0
 26
0.0
 36
1.0
 17
0.0
 27
0.0
 37
0.0
 40
341.0
 41
1.24
 42
50.0
 43
0.0
 44
0.0
 50
0.0
 51
0.0
 71
     0
 72
   100
 73
     1
 74
     3
 75
     0
 76
     0
 77
     0
 78
     0
  0
ENDTAB
  0
TABLE
  2
LTYPE
  5
5
330
0
100
AcDbSymbolTable
 70
     1
  0
LTYPE
  5
14
330
5
100
AcDbSymbolTableRecord
100
AcDbLinetypeTableRecord
  2
BYBLOCK
 70
     0
  3

 72
    65
 73
     0
 40
0.0
  0
LTYPE
  5
15
330
5
100
AcDbSymbolTableRecord
100
AcDbLinetypeTableRecord
  2
BYLAYER
 70
     0
  3

 72
    65
 73
     0
 40
0.0
  0
LTYPE
  5
16
330
5
100
AcDbSymbolTableRecord
100
AcDbLinetypeTableRecord
  2
CONTINUOUS
 70
     0
  3
Solid line
 72
    65
 73
     0
 40
0.0
  0
ENDTAB
  0
TABLE
  2
LAYER
  5
2
100
AcDbSymbolTable
 70
1
  0
LAYER
  5
50
100
AcDbSymbolTableRecord
100
AcDbLayerTableRecord
  2
0
 70
0
  6
CONTINUOUS
  0
ENDTAB
  0
TABLE
  2
STYLE
  5
3
330
0
100
AcDbSymbolTable
 70
     1
  0
STYLE
  5
11
330
3
100
AcDbSymbolTableRecord
100
AcDbTextStyleTableRecord
  2
STANDARD
 70
     0
 40
0.0
 41
1.0
 50
0.0
 71
     0
 42
2.5
  3
txt
  4

  0
ENDTAB
  0
TABLE
  2
VIEW
  5
6
330
0
100
AcDbSymbolTable
 70
     0
  0
ENDTAB
  0
TABLE
  2
UCS
  5
7
330
0
100
AcDbSymbolTable
 70
     0
  0
ENDTAB
  0
TABLE
  2
APPID
  5
9
330
0
100
AcDbSymbolTable
 70
     2
  0
APPID
  5
12
330
9
100
AcDbSymbolTableRecord
100
AcDbRegAppTableRecord
  2
ACAD
 70
     0
  0
ENDTAB
  0
TABLE
  2
DIMSTYLE
  5
A
330
0
100
AcDbSymbolTable
 70
     1
  0
DIMSTYLE
105
27
330
A
100
AcDbSymbolTableRecord
100
AcDbDimStyleTableRecord
  2
ISO-25
 70
     0
  3

  4

  5

  6

  7

 40
1.0
 41
2.5
 42
0.625
 43
3.75
 44
1.25
 45
0.0
 46
0.0
 47
0.0
 48
0.0
140
2.5
141
2.5
142
0.0
143
0.03937007874016
144
1.0
145
0.0
146
1.0
147
0.625
 71
     0
 72
     0
 73
     0
 74
     0
 75
     0
 76
     0
 77
     1
 78
     8
170
     0
171
     3
172
     1
173
     0
174
     0
175
     0
176
     0
177
     0
178
     0
270
     2
271
     2
272
     2
273
     2
274
     3
340
11
275
     0
280
     0
281
     0
282
     0
283
     0
284
     8
285
     0
286
     0
287
     3
288
     0
  0
ENDTAB
  0
TABLE
  2
BLOCK_RECORD
  5
1
330
0
100
AcDbSymbolTable
 70
     1
  0
BLOCK_RECORD
  5
1F
330
1
100
AcDbSymbolTableRecord
100
AcDbBlockTableRecord
  2
*MODEL_SPACE
  0
BLOCK_RECORD
  5
1B
330
1
100
AcDbSymbolTableRecord
100
AcDbBlockTableRecord
  2
*PAPER_SPACE
  0
ENDTAB
  0
ENDSEC
  0
SECTION
  2
BLOCKS
  0
BLOCK
  5
20
330
1F
100
AcDbEntity
  8
0
100
AcDbBlockBegin
  2
*MODEL_SPACE
 70
     0
 10
0.0
 20
0.0
 30
0.0
  3
*MODEL_SPACE
  1

  0
ENDBLK
  5
21
330
1F
100
AcDbEntity
  8
0
100
AcDbBlockEnd
  0
BLOCK
  5
1C
330
1B
100
AcDbEntity
 67
     1
  8
0
100
AcDbBlockBegin
  2
*PAPER_SPACE
  1

  0
ENDBLK
  5
1D
330
1B
100
AcDbEntity
 67
     1
  8
0
100
AcDbBlockEnd
  0
ENDSEC
  0
SECTION
  2
ENTITIES
  0
LWPOLYLINE
  5
100
100
AcDbEntity
  8
0
 62
7
100
AcDbPolyline
 90
2
 70
0
 10
1.317500
 20
1.883120
 30
0.0
 10
1.317500
 20
1.613120
 30
0.0
  0
LWPOLYLINE
  5
101
100
AcDbEntity
  8
0
 62
7
100
AcDbPolyline
 90
2
 70
0
 10
1.137500
 20
1.883120
 30
0.0
 10
1.137500
 20
1.613120
 30
0.0
  0
LWPOLYLINE
  5
102
100
AcDbEntity
  8
0
 62
7
100
AcDbPolyline
 90
3
 70
0
 10
7.980119
 20
2.958834
 30
0.0
 10
8.284881
 20
2.844549
 30
0.0
 10
7.980119
 20
2.730263
 30
0.0
  0
LWPOLYLINE
  5
103
100
AcDbEntity
  8
0
 62
7
100
AcDbPolyline
 90
2
 70
0
 10
0.647500
 20
1.855977
 30
0.0
 10
0.647500
 20
1.627406
 30
0.0
  0
LWPOLYLINE
  5
104
100
AcDbEntity
  8
0
 62
7
100
AcDbPolyline
 90
2
 70
0
 10
0.661786
 20
1.841691
 30
0.0
 10
0.661786
 20
1.641692
 30
0.0
  0
LWPOLYLINE
  5
105
100
AcDbEntity
  8
0
 62
7
100
AcDbPolyline
 90
2
 70
0
 10
0.676071
 20
1.841691
 30
0.0
 10
0.676071
 20
1.641692
 30
0.0
  0
LWPOLYLINE
  5
106
100
AcDbEntity
  8
0
 62
7
100
AcDbPolyline
 90
2
 70
0
 10
0.690357
 20
1.827406
 30
0.0
 10
0.690357
 20
1.655977
 30
0.0
  0
LWPOLYLINE
  5
107
100
AcDbEntity
  8
0
 62
7
100
AcDbPolyline
 90
2
 70
0
 10
0.704643
 20
1.827406
 30
0.0
 10
0.704643
 20
1.655977
 30
0.0
  0
LWPOLYLINE
  5
108
100
AcDbEntity
  8
0
 62
7
100
AcDbPolyline
 90
2
 70
0
 10
0.718929
 20
1.813120
 30
0.0
 10
0.718929
 20
1.670263
 30
0.0
  0
LWPOLYLINE
  5
109
100
AcDbEntity
  8
0
 62
7
100
AcDbPolyline
 90
2
 70
0
 10
0.733214
 20
1.813120
 30
0.0
 10
0.733214
 20
1.670263
 30
0.0
  0
LWPOLYLINE
  5
10a
100
AcDbEntity
  8
0
 62
7
100
AcDbPolyline
 90
2
 70
0
 10
0.747500
 20
1.798834
 30
0.0
 10
0.747500
 20
1.684549
 30
0.0
  0
LWPOLYLINE
  5
10b
100
AcDbEntity
  8
0
 62
7
100
AcDbPolyline
 90
2
 70
0
 10
0.761786
 20
1.784549
 30
0.0
 10
0.761786
 20
1.698834
 30
0.0
  0
LWPOLYLINE
  5
10c
100
AcDbEntity
  8
0
 62
7
100
AcDbPolyline
 90
2
 70
0
 10
0.776071
 20
1.784549
 30
0.0
 10
0.776071
 20
1.698834
 30
0.0
  0
LWPOLYLINE
  5
10d
100
AcDbEntity
  8
0
 62
7
100
AcDbPolyline
 90
2
 70
0
 10
0.790357
 20
1.770263
 30
0.0
 10
0.790357
 20
1.713120
 30
0.0
  0
LWPOLYLINE
  5
10e
100
AcDbEntity
  8
0
 62
7
100
AcDbPolyline
 90
2
 70
0
 10
0.804643
 20
1.770263
 30
0.0
 10
0.804643
 20
1.713120
 30
0.0
  0
LWPOLYLINE
  5
10f
100
AcDbEntity
  8
0
 62
7
100
AcDbPolyline
 90
2
 70
0
 10
0.818929
 20
1.741691
 30
0.0
 10
0.833214
 20
1.741691
 30
0.0
  0
LWPOLYLINE
  5
110
100
AcDbEntity
  8
0
 62
7
100
AcDbPolyline
 90
2
 70
0
 10
0.818929
 20
1.755977
 30
0.0
 10
0.818929
 20
1.727406
 30
0.0
  0
LWPOLYLINE
  5
111
100
AcDbEntity
  8
0
 62
7
100
AcDbPolyline
 90
3
 70
0
 10
0.633214
 20
1.855977
 30
0.0
 10
0.847500
 20
1.741691
 30
0.0
 10
0.633214
 20
1.627406
 30
0.0
  0
LWPOLYLINE
  5
112
100
AcDbEntity
  8
0
 62
7
100
AcDbPolyline
 90
3
 70
1
 10
0.861786
 20
1.741691
 30
0.0
 10
0.633214
 20
1.613120
 30
0.0
 10
0.633214
 20
1.870263
 30
0.0
  0
LWPOLYLINE
  5
113
100
AcDbEntity
  8
0
 62
7
100
AcDbPolyline
 90
5
 70
0
 10
1.729643
 20
0.202406
 30
0.0
 10
1.729643
 20
0.502406
 30
0.0
 10
1.829643
 20
0.288120
 30
0.0
 10
1.929643
 20
0.502406
 30
0.0
 10
1.929643
 20
0.202406
 30
0.0
  0
LWPOLYLINE
  5
114
100
AcDbEntity
  8
0
 62
7
100
AcDbPolyline
 90
16
 70
1
 10
2.129643
 20
0.502406
 30
0.0
 10
2.186786
 20
0.502406
 30
0.0
 10
2.215357
 20
0.488120
 30
0.0
 10
2.243928
 20
0.459549
 30
0.0
 10
2.258214
 20
0.402406
 30
0.0
 10
2.258214
 20
0.302406
 30
0.0
 10
2.243928
 20
0.245263
 30
0.0
 10
2.215357
 20
0.216691
 30
0.0
 10
2.186786
 20
0.202406
 30
0.0
 10
2.129643
 20
0.202406
 30
0.0
 10
2.101071
 20
0.216691
 30
0.0
 10
2.072500
 20
0.245263
 30
0.0
 10
2.058214
 20
0.302406
 30
0.0
 10
2.058214
 20
0.402406
 30
0.0
 10
2.072500
 20
0.459549
 30
0.0
 10
2.101071
 20
0.488120
 30
0.0
  0
LWPOLYLINE
  5
115
100
AcDbEntity
  8
0
 62
7
100
AcDbPolyline
 90
12
 70
1
 10
2.386786
 20
0.202406
 30
0.0
 10
2.386786
 20
0.502406
 30
0.0
 10
2.458214
 20
0.502406
 30
0.0
 10
2.501071
 20
0.488120
 30
0.0
 10
2.529643
 20
0.459549
 30
0.0
 10
2.543929
 20
0.430977
 30
0.0
 10
2.558214
 20
0.373834
 30
0.0
 10
2.558214
 20
0.330977
 30
0.0
 10
2.543929
 20
0.273834
 30
0.0
 10
2.529643
 20
0.245263
 30
0.0
 10
2.501071
 20
0.216691
 30
0.0
 10
2.458214
 20
0.202406
 30
0.0
  0
LWPOLYLINE
  5
116
100
AcDbEntity
  8
0
 62
7
100
AcDbPolyline
 90
2
 70
0
 10
2.686786
 20
0.359549
 30
0.0
 10
2.786786
 20
0.359549
 30
0.0
  0
LWPOLYLINE
  5
117
100
AcDbEntity
  8
0
 62
7
100
AcDbPolyline
 90
4
 70
0
 10
2.829643
 20
0.202406
 30
0.0
 10
2.686786
 20
0.202406
 30
0.0
 10
2.686786
 20
0.502406
 30
0.0
 10
2.829643
 20
0.502406
 30
0.0
  0
LWPOLYLINE
  5
118
100
AcDbEntity
  8
0
 62
7
100
AcDbPolyline
 90
3
 70
0
 10
7.096786
 20
3.460739
 30
0.0
 10
7.211071
 20
3.765501
 30
0.0
 10
7.325357
 20
3.460739
 30
0.0
  0
LWPOLYLINE
  5
119
100
AcDbEntity
  8
0
 62
7
100
AcDbPolyline
 90
20
 70
0
 10
7.309643
 20
0.156691
 30
0.0
 10
7.352500
 20
0.142406
 30
0.0
 10
7.423929
 20
0.142406
 30
0.0
 10
7.452500
 20
0.156691
 30
0.0
 10
7.466786
 20
0.170977
 30
0.0
 10
7.481071
 20
0.199549
 30
0.0
 10
7.481071
 20
0.228120
 30
0.0
 10
7.466786
 20
0.256692
 30
0.0
 10
7.452500
 20
0.270977
 30
0.0
 10
7.423929
 20
0.285263
 30
0.0
 10
7.366786
 20
0.299549
 30
0.0
 10
7.338214
 20
0.313834
 30
0.0
 10
7.323929
 20
0.328120
 30
0.0
 10
7.309643
 20
0.356692
 30
0.0
 10
7.309643
 20
0.385263
 30
0.0
 10
7.323929
 20
0.413834
 30
0.0
 10
7.338214
 20
0.428120
 30
0.0
 10
7.366786
 20
0.442406
 30
0.0
 10
7.438214
 20
0.442406
 30
0.0
 10
7.481071
 20
0.428120
 30
0.0
  0
LWPOLYLINE
  5
11a
100
AcDbEntity
  8
0
 62
7
100
AcDbPolyline
 90
2
 70
0
 10
7.609643
 20
0.299549
 30
0.0
 10
7.709643
 20
0.299549
 30
0.0
  0
LWPOLYLINE
  5
11b
100
AcDbEntity
  8
0
 62
7
100
AcDbPolyline
 90
4
 70
0
 10
7.752500
 20
0.142406
 30
0.0
 10
7.609643
 20
0.142406
 30
0.0
 10
7.609643
 20
0.442406
 30
0.0
 10
7.752500
 20
0.442406
 30
0.0
  0
LWPOLYLINE
  5
11c
100
AcDbEntity
  8
0
 62
7
100
AcDbPolyline
 90
3
 70
0
 10
8.023929
 20
0.142406
 30
0.0
 10
7.881071
 20
0.142406
 30
0.0
 10
7.881071
 20
0.442406
 30
0.0
  0
LWPOLYLINE
  5
11d
100
AcDbEntity
  8
0
 62
7
100
AcDbPolyline
 90
2
 70
0
 10
8.123928
 20
0.299549
 30
0.0
 10
8.223929
 20
0.299549
 30
0.0
  0
LWPOLYLINE
  5
11e
100
AcDbEntity
  8
0
 62
7
100
AcDbPolyline
 90
4
 70
0
 10
8.266786
 20
0.142406
 30
0.0
 10
8.123928
 20
0.142406
 30
0.0
 10
8.123928
 20
0.442406
 30
0.0
 10
8.266786
 20
0.442406
 30
0.0
  0
LWPOLYLINE
  5
11f
100
AcDbEntity
  8
0
 62
7
100
AcDbPolyline
 90
16
 70
0
 10
8.566786
 20
0.170977
 30
0.0
 10
8.552500
 20
0.156691
 30
0.0
 10
8.509643
 20
0.142406
 30
0.0
 10
8.481071
 20
0.142406
 30
0.0
 10
8.438214
 20
0.156691
 30
0.0
 10
8.409643
 20
0.185263
 30
0.0
 10
8.395357
 20
0.213834
 30
0.0
 10
8.381071
 20
0.270977
 30
0.0
 10
8.381071
 20
0.313834
 30
0.0
 10
8.395357
 20
0.370977
 30
0.0
 10
8.409643
 20
0.399549
 30
0.0
 10
8.438214
 20
0.428120
 30
0.0
 10
8.481071
 20
0.442406
 30
0.0
 10
8.509643
 20
0.442406
 30
0.0
 10
8.552500
 20
0.428120
 30
0.0
 10
8.566786
 20
0.413834
 30
0.0
  0
LWPOLYLINE
  5
120
100
AcDbEntity
  8
0
 62
7
100
AcDbPolyline
 90
2
 70
0
 10
8.652500
 20
0.442406
 30
0.0
 10
8.823929
 20
0.442406
 30
0.0
  0
LWPOLYLINE
  5
121
100
AcDbEntity
  8
0
 62
7
100
AcDbPolyline
 90
2
 70
0
 10
8.738214
 20
0.142406
 30
0.0
 10
8.738214
 20
0.442406
 30
0.0
  0
LWPOLYLINE
  5
122
100
AcDbEntity
  8
0
 62
7
100
AcDbPolyline
 90
2
 70
0
 10
4.837500
 20
0.344549
 30
0.0
 10
4.737500
 20
0.344549
 30
0.0
  0
LWPOLYLINE
  5
123
100
AcDbEntity
  8
0
 62
7
100
AcDbPolyline
 90
3
 70
0
 10
4.737500
 20
0.187406
 30
0.0
 10
4.737500
 20
0.487406
 30
0.0
 10
4.880357
 20
0.487406
 30
0.0
  0
LWPOLYLINE
  5
124
100
AcDbEntity
  8
0
 62
7
100
AcDbPolyline
 90
2
 70
0
 10
4.966071
 20
0.487406
 30
0.0
 10
5.166071
 20
0.187406
 30
0.0
  0
LWPOLYLINE
  5
125
100
AcDbEntity
  8
0
 62
7
100
AcDbPolyline
 90
2
 70
0
 10
5.166071
 20
0.487406
 30
0.0
 10
4.966071
 20
0.187406
 30
0.0
  0
LWPOLYLINE
  5
126
100
AcDbEntity
  8
0
 62
7
100
AcDbPolyline
 90
3
 70
0
 10
7.338214
 20
2.185501
 30
0.0
 10
7.223929
 20
1.880739
 30
0.0
 10
7.109643
 20
2.185501
 30
0.0
  0
LWPOLYLINE
  5
127
100
AcDbEntity
  8
0
 62
7
100
AcDbPolyline
 90
3
 70
0
 10
6.464881
 20
2.727406
 30
0.0
 10
6.160119
 20
2.841691
 30
0.0
 10
6.464881
 20
2.955977
 30
0.0
  0
LWPOLYLINE
  5
128
100
AcDbEntity
  8
0
 62
7
100
AcDbPolyline
 90
10
 70
1
 10
1.482466
 20
4.009262
 30
0.0
 10
1.508917
 20
3.994620
 30
0.0
 10
1.499974
 20
3.980217
 30
0.0
 10
1.456853
 20
3.973610
 30
0.0
 10
1.446666
 20
3.973453
 30
0.0
 10
1.397205
 20
3.978688
 30
0.0
 10
1.372111
 20
3.991585
 30
0.0
 10
1.371333
 20
3.994620
 30
0.0
 10
1.389698
 20
4.009595
 30
0.0
 10
1.433584
 20
4.015787
 30
0.0
  0
LWPOLYLINE
  5
129
100
AcDbEntity
  8
0
 62
7
100
AcDbPolyline
 90
26
 70
1
 10
1.276801
 20
3.944212
 30
0.0
 10
1.354557
 20
3.939429
 30
0.0
 10
1.429508
 20
3.931600
 30
0.0
 10
1.490475
 20
3.921451
 30
0.0
 10
1.526280
 20
3.909710
 30
0.0
 10
1.529025
 20
3.907641
 30
0.0
 10
1.527531
 20
3.893767
 30
0.0
 10
1.491983
 20
3.888787
 30
0.0
 10
1.450223
 20
3.882033
 30
0.0
 10
1.434833
 20
3.867620
 30
0.0
 10
1.415659
 20
3.856206
 30
0.0
 10
1.366039
 20
3.848521
 30
0.0
 10
1.314183
 20
3.846453
 30
0.0
 10
1.247591
 20
3.849384
 30
0.0
 10
1.214275
 20
3.857504
 30
0.0
 10
1.213642
 20
3.865828
 30
0.0
 10
1.248844
 20
3.884371
 30
0.0
 10
1.286667
 20
3.894695
 30
0.0
 10
1.299918
 20
3.900526
 30
0.0
 10
1.275214
 20
3.905171
 30
0.0
 10
1.239042
 20
3.907071
 30
0.0
 10
1.179056
 20
3.913184
 30
0.0
 10
1.143428
 20
3.925549
 30
0.0
 10
1.138500
 20
3.933020
 30
0.0
 10
1.157593
 20
3.941734
 30
0.0
 10
1.207420
 20
3.945223
 30
0.0
  0
LWPOLYLINE
  5
12a
100
AcDbEntity
  8
0
 62
7
100
AcDbPolyline
 90
29
 70
1
 10
1.617251
 20
3.914812
 30
0.0
 10
1.611122
 20
3.915799
 30
0.0
 10
1.605231
 20
3.919596
 30
0.0
 10
1.635809
 20
3.922895
 30
0.0
 10
1.696990
 20
3.925291
 30
0.0
 10
1.762917
 20
3.926278
 30
0.0
 10
1.847585
 20
3.925810
 30
0.0
 10
1.909757
 20
3.923365
 30
0.0
 10
1.942184
 20
3.919370
 30
0.0
 10
1.942833
 20
3.915692
 30
0.0
 10
1.905945
 20
3.892315
 30
0.0
 10
1.897157
 20
3.882224
 30
0.0
 10
1.869867
 20
3.868852
 30
0.0
 10
1.814176
 20
3.856887
 30
0.0
 10
1.764512
 20
3.850998
 30
0.0
 10
1.697300
 20
3.847006
 30
0.0
 10
1.663755
 20
3.850622
 30
0.0
 10
1.655614
 20
3.863636
 30
0.0
 10
1.658394
 20
3.873987
 30
0.0
 10
1.657578
 20
3.881731
 30
0.0
 10
1.717056
 20
3.881731
 30
0.0
 10
1.719961
 20
3.869148
 30
0.0
 10
1.731167
 20
3.867620
 30
0.0
 10
1.748589
 20
3.875365
 30
0.0
 10
1.745278
 20
3.881731
 30
0.0
 10
1.720158
 20
3.884264
 30
0.0
 10
1.717056
 20
3.881731
 30
0.0
 10
1.657578
 20
3.881731
 30
0.0
 10
1.655607
 20
3.900429
 30
0.0
  0
LWPOLYLINE
  5
12b
100
AcDbEntity
  8
0
 62
7
100
AcDbPolyline
 90
10
 70
1
 10
0.843397
 20
4.200554
 30
0.0
 10
0.853168
 20
4.185846
 30
0.0
 10
0.852750
 20
4.185120
 30
0.0
 10
0.823573
 20
4.168735
 30
0.0
 10
0.788001
 20
4.163953
 30
0.0
 10
0.748824
 20
4.171358
 30
0.0
 10
0.736333
 20
4.185120
 30
0.0
 10
0.754755
 20
4.199871
 30
0.0
 10
0.799259
 20
4.206278
 30
0.0
 10
0.801083
 20
4.206287
 30
0.0
  0
LWPOLYLINE
  5
12c
100
AcDbEntity
  8
0
 62
7
100
AcDbPolyline
 90
28
 70
1
 10
2.067387
 20
4.036952
 30
0.0
 10
2.066264
 20
4.036953
 30
0.0
 10
2.016596
 20
4.040327
 30
0.0
 10
1.994846
 20
4.048850
 30
0.0
 10
1.996808
 20
4.053727
 30
0.0
 10
2.030005
 20
4.063822
 30
0.0
 10
2.087293
 20
4.066696
 30
0.0
 10
2.155896
 20
4.063505
 30
0.0
 10
2.223040
 20
4.055406
 30
0.0
 10
2.275950
 20
4.043555
 30
0.0
 10
2.301852
 20
4.029108
 30
0.0
 10
2.302667
 20
4.026036
 30
0.0
 10
2.320655
 20
4.000325
 30
0.0
 10
2.350292
 20
3.988391
 30
0.0
 10
2.358615
 20
3.982959
 30
0.0
 10
2.330722
 20
3.978431
 30
0.0
 10
2.289056
 20
3.976336
 30
0.0
 10
2.216682
 20
3.978672
 30
0.0
 10
2.178051
 20
3.991755
 30
0.0
 10
2.168012
 20
4.005203
 30
0.0
 10
2.140319
 20
4.026370
 30
0.0
 10
2.196833
 20
4.026370
 30
0.0
 10
2.207417
 20
4.015787
 30
0.0
 10
2.218000
 20
4.026370
 30
0.0
 10
2.207417
 20
4.036953
 30
0.0
 10
2.196833
 20
4.026370
 30
0.0
 10
2.140319
 20
4.026370
 30
0.0
 10
2.136922
 20
4.028967
 30
0.0
  0
LWPOLYLINE
  5
12d
100
AcDbEntity
  8
0
 62
7
100
AcDbPolyline
 90
8
 70
1
 10
2.361122
 20
3.860997
 30
0.0
 10
2.366070
 20
3.855275
 30
0.0
 10
2.335673
 20
3.852065
 30
0.0
 10
2.313250
 20
3.851791
 30
0.0
 10
2.272259
 20
3.853875
 30
0.0
 10
2.266040
 20
3.858656
 30
0.0
 10
2.276455
 20
3.861424
 30
0.0
 10
2.331608
 20
3.864832
 30
0.0
  0
LWPOLYLINE
  5
12e
100
AcDbEntity
  8
0
 62
7
100
AcDbPolyline
 90
24
 70
1
 10
2.579666
 20
4.000772
 30
0.0
 10
2.612898
 20
4.046948
 30
0.0
 10
2.657631
 20
4.055199
 30
0.0
 10
2.706225
 20
4.036209
 30
0.0
 10
2.741189
 20
3.997550
 30
0.0
 10
2.742450
 20
3.947453
 30
0.0
 10
2.721767
 20
3.914187
 30
0.0
 10
2.671032
 20
3.890303
 30
0.0
 10
2.610953
 20
3.903595
 30
0.0
 10
2.590897
 20
3.916106
 30
0.0
 10
2.566645
 20
3.941747
 30
0.0
 10
2.567333
 20
3.951430
 30
0.0
 10
2.600692
 20
3.951430
 30
0.0
 10
2.618073
 20
3.934513
 30
0.0
 10
2.657208
 20
3.935006
 30
0.0
 10
2.701708
 20
3.950337
 30
0.0
 10
2.715417
 20
3.973164
 30
0.0
 10
2.698876
 20
4.002090
 30
0.0
 10
2.662595
 20
4.012720
 30
0.0
 10
2.626583
 20
4.001316
 30
0.0
 10
2.617736
 20
3.991411
 30
0.0
 10
2.600692
 20
3.951430
 30
0.0
 10
2.567333
 20
3.951430
 30
0.0
 10
2.569002
 20
3.974933
 30
0.0
  0
LWPOLYLINE
  5
12f
100
AcDbEntity
  8
0
 62
7
100
AcDbPolyline
 90
25
 70
1
 10
0.547304
 20
4.055904
 30
0.0
 10
0.600032
 20
4.050033
 30
0.0
 10
0.621839
 20
4.041669
 30
0.0
 10
0.621557
 20
4.039608
 30
0.0
 10
0.595350
 20
4.029626
 30
0.0
 10
0.542454
 20
4.025916
 30
0.0
 10
0.514475
 20
4.026760
 30
0.0
 10
0.451490
 20
4.026559
 30
0.0
 10
0.422676
 20
4.015021
 30
0.0
 10
0.418833
 20
4.002939
 30
0.0
 10
0.399604
 20
3.980642
 30
0.0
 10
0.350042
 20
3.975563
 30
0.0
 10
0.305975
 20
3.977804
 30
0.0
 10
0.301324
 20
3.982884
 30
0.0
 10
0.333175
 20
3.994302
 30
0.0
 10
0.334167
 20
3.994620
 30
0.0
 10
0.364276
 20
4.007506
 30
0.0
 10
0.352615
 20
4.013504
 30
0.0
 10
0.350042
 20
4.013677
 30
0.0
 10
0.318576
 20
4.025502
 30
0.0
 10
0.313000
 20
4.036953
 30
0.0
 10
0.332711
 20
4.047597
 30
0.0
 10
0.386126
 20
4.055022
 30
0.0
 10
0.464665
 20
4.058096
 30
0.0
 10
0.472999
 20
4.058120
 30
0.0
  0
LWPOLYLINE
  5
130
100
AcDbEntity
  8
0
 62
7
100
AcDbPolyline
 90
15
 70
1
 10
0.531668
 20
4.132885
 30
0.0
 10
0.601164
 20
4.127907
 30
0.0
 10
0.650662
 20
4.120313
 30
0.0
 10
0.666572
 20
4.113770
 30
0.0
 10
0.653003
 20
4.108011
 30
0.0
 10
0.605604
 20
4.103505
 30
0.0
 10
0.532873
 20
4.100875
 30
0.0
 10
0.484612
 20
4.100453
 30
0.0
 10
0.387624
 20
4.102555
 30
0.0
 10
0.325618
 20
4.108615
 30
0.0
 10
0.301783
 20
4.118267
 30
0.0
 10
0.302294
 20
4.121421
 30
0.0
 10
0.327485
 20
4.129516
 30
0.0
 10
0.382398
 20
4.133950
 30
0.0
 10
0.454602
 20
4.134987
 30
0.0
  0
LWPOLYLINE
  5
131
100
AcDbEntity
  8
0
 62
7
100
AcDbPolyline
 90
9
 70
1
 10
3.569153
 20
3.914526
 30
0.0
 10
3.571584
 20
3.878853
 30
0.0
 10
3.561235
 20
3.845267
 30
0.0
 10
3.552963
 20
3.836774
 30
0.0
 10
3.525613
 20
3.838947
 30
0.0
 10
3.521144
 20
3.844198
 30
0.0
 10
3.517284
 20
3.878346
 30
0.0
 10
3.531325
 20
3.914908
 30
0.0
 10
3.553765
 20
3.931120
 30
0.0
  0
LWPOLYLINE
  5
132
100
AcDbEntity
  8
0
 62
7
100
AcDbPolyline
 90
17
 70
1
 10
1.914644
 20
4.191386
 30
0.0
 10
1.937690
 20
4.179215
 30
0.0
 10
1.924361
 20
4.168985
 30
0.0
 10
1.900500
 20
4.161746
 30
0.0
 10
1.865052
 20
4.150895
 30
0.0
 10
1.869187
 20
4.146484
 30
0.0
 10
1.895208
 20
4.144897
 30
0.0
 10
1.932425
 20
4.135251
 30
0.0
 10
1.942833
 20
4.121620
 30
0.0
 10
1.930945
 20
4.103292
 30
0.0
 10
1.926958
 20
4.103336
 30
0.0
 10
1.895285
 20
4.109297
 30
0.0
 10
1.863458
 20
4.115391
 30
0.0
 10
1.823713
 20
4.138878
 30
0.0
 10
1.815833
 20
4.165426
 30
0.0
 10
1.830570
 20
4.199603
 30
0.0
 10
1.874775
 20
4.203393
 30
0.0
  0
LWPOLYLINE
  5
133
100
AcDbEntity
  8
0
 62
7
100
AcDbPolyline
 90
12
 70
1
 10
1.492668
 20
4.179601
 30
0.0
 10
1.510278
 20
4.167682
 30
0.0
 10
1.508917
 20
4.163953
 30
0.0
 10
1.493820
 20
4.145631
 30
0.0
 10
1.491793
 20
4.145291
 30
0.0
 10
1.470798
 20
4.151664
 30
0.0
 10
1.425720
 20
4.163579
 30
0.0
 10
1.424250
 20
4.163953
 30
0.0
 10
1.385376
 20
4.174506
 30
0.0
 10
1.382648
 20
4.179531
 30
0.0
 10
1.418685
 20
4.181883
 30
0.0
 10
1.441374
 20
4.182616
 30
0.0
  0
LWPOLYLINE
  5
134
100
AcDbEntity
  8
0
 62
7
100
AcDbPolyline
 90
12
 70
1
 10
0.399919
 20
3.924989
 30
0.0
 10
0.418829
 20
3.910217
 30
0.0
 10
0.418833
 20
3.909953
 30
0.0
 10
0.400440
 20
3.895092
 30
0.0
 10
0.356123
 20
3.888788
 30
0.0
 10
0.355333
 20
3.888787
 30
0.0
 10
0.310748
 20
3.894918
 30
0.0
 10
0.291838
 20
3.909690
 30
0.0
 10
0.291833
 20
3.909953
 30
0.0
 10
0.310227
 20
3.924815
 30
0.0
 10
0.354543
 20
3.931118
 30
0.0
 10
0.355333
 20
3.931120
 30
0.0
  0
LWPOLYLINE
  5
135
100
AcDbEntity
  8
0
 62
7
100
AcDbPolyline
 90
10
 70
1
 10
1.679486
 20
4.071482
 30
0.0
 10
1.699417
 20
4.058120
 30
0.0
 10
1.691146
 20
4.043129
 30
0.0
 10
1.649964
 20
4.036964
 30
0.0
 10
1.647749
 20
4.036953
 30
0.0
 10
1.602627
 20
4.042975
 30
0.0
 10
1.583026
 20
4.057524
 30
0.0
 10
1.583000
 20
4.058120
 30
0.0
 10
1.601075
 20
4.074170
 30
0.0
 10
1.634668
 20
4.079287
 30
0.0
  0
LWPOLYLINE
  5
136
100
AcDbEntity
  8
0
 62
7
100
AcDbPolyline
 90
17
 70
1
 10
1.264270
 20
4.181539
 30
0.0
 10
1.281333
 20
4.167921
 30
0.0
 10
1.278348
 20
4.151639
 30
0.0
 10
1.267141
 20
4.117897
 30
0.0
 10
1.265500
 20
4.109305
 30
0.0
 10
1.247972
 20
4.100716
 30
0.0
 10
1.207601
 20
4.100380
 30
0.0
 10
1.162703
 20
4.106657
 30
0.0
 10
1.131596
 20
4.117908
 30
0.0
 10
1.127917
 20
4.121620
 30
0.0
 10
1.130297
 20
4.141093
 30
0.0
 10
1.138500
 20
4.142787
 30
0.0
 10
1.152303
 20
4.155680
 30
0.0
 10
1.149083
 20
4.163953
 30
0.0
 10
1.158158
 20
4.178242
 30
0.0
 10
1.201646
 20
4.184918
 30
0.0
 10
1.213599
 20
4.185120
 30
0.0
  0
LWPOLYLINE
  5
137
100
AcDbEntity
  8
0
 62
7
100
AcDbPolyline
 90
8
 70
1
 10
2.337122
 20
3.927706
 30
0.0
 10
2.345000
 20
3.923005
 30
0.0
 10
2.327548
 20
3.911887
 30
0.0
 10
2.302667
 20
3.903820
 30
0.0
 10
2.268915
 20
3.902633
 30
0.0
 10
2.260333
 20
3.911935
 30
0.0
 10
2.278079
 20
3.927528
 30
0.0
 10
2.302667
 20
3.931120
 30
0.0
  0
LWPOLYLINE
  5
138
100
AcDbEntity
  8
0
 62
7
100
AcDbPolyline
 90
10
 70
1
 10
1.256152
 20
4.007982
 30
0.0
 10
1.276083
 20
3.994620
 30
0.0
 10
1.267812
 20
3.979629
 30
0.0
 10
1.226631
 20
3.973464
 30
0.0
 10
1.224416
 20
3.973453
 30
0.0
 10
1.179293
 20
3.979475
 30
0.0
 10
1.159692
 20
3.994024
 30
0.0
 10
1.159667
 20
3.994620
 30
0.0
 10
1.177742
 20
4.010670
 30
0.0
 10
1.211334
 20
4.015787
 30
0.0
  0
LWPOLYLINE
  5
139
100
AcDbEntity
  8
0
 62
7
100
AcDbPolyline
 90
15
 70
1
 10
1.034481
 20
4.327647
 30
0.0
 10
1.090602
 20
4.321482
 30
0.0
 10
1.116640
 20
4.312511
 30
0.0
 10
1.117333
 20
4.310670
 30
0.0
 10
1.098374
 20
4.300632
 30
0.0
 10
1.050014
 20
4.294222
 30
0.0
 10
0.985036
 20
4.291466
 30
0.0
 10
0.916219
 20
4.292391
 30
0.0
 10
0.856343
 20
4.297021
 30
0.0
 10
0.818190
 20
4.305385
 30
0.0
 10
0.811698
 20
4.310047
 30
0.0
 10
0.825160
 20
4.319333
 30
0.0
 10
0.872115
 20
4.326253
 30
0.0
 10
0.943739
 20
4.329625
 30
0.0
 10
0.958615
 20
4.329764
 30
0.0
  0
LWPOLYLINE
  5
13a
100
AcDbEntity
  8
0
 62
7
100
AcDbPolyline
 90
28
 70
1
 10
2.360358
 20
4.179142
 30
0.0
 10
2.359295
 20
4.171193
 30
0.0
 10
2.358701
 20
4.145741
 30
0.0
 10
2.368942
 20
4.128859
 30
0.0
 10
2.373479
 20
4.115302
 30
0.0
 10
2.355792
 20
4.106743
 30
0.0
 10
2.309766
 20
4.102159
 30
0.0
 10
2.229285
 20
4.100523
 30
0.0
 10
2.199425
 20
4.100453
 30
0.0
 10
2.108187
 20
4.101143
 30
0.0
 10
2.051269
 20
4.104382
 30
0.0
 10
2.020665
 20
4.111926
 30
0.0
 10
2.008370
 20
4.125529
 30
0.0
 10
2.006333
 20
4.142787
 30
0.0
 10
2.017300
 20
4.174727
 30
0.0
 10
2.056931
 20
4.184727
 30
0.0
 10
2.064542
 20
4.184796
 30
0.0
 10
2.101042
 20
4.180572
 30
0.0
 10
2.096887
 20
4.168138
 30
0.0
 10
2.094623
 20
4.166640
 30
0.0
 10
2.092105
 20
4.152561
 30
0.0
 10
2.131845
 20
4.140284
 30
0.0
 10
2.158123
 20
4.136076
 30
0.0
 10
2.225822
 20
4.132152
 30
0.0
 10
2.264581
 20
4.145295
 30
0.0
 10
2.273250
 20
4.154231
 30
0.0
 10
2.313134
 20
4.181103
 30
0.0
 10
2.334986
 20
4.185120
 30
0.0
  0
LWPOLYLINE
  5
13b
100
AcDbEntity
  8
0
 62
7
100
AcDbPolyline
 90
10
 70
1
 10
1.945792
 20
4.073042
 30
0.0
 10
1.964000
 20
4.058120
 30
0.0
 10
1.945371
 20
4.044223
 30
0.0
 10
1.899468
 20
4.037172
 30
0.0
 10
1.888668
 20
4.036953
 30
0.0
 10
1.840505
 20
4.041967
 30
0.0
 10
1.825187
 20
4.055231
 30
0.0
 10
1.826417
 20
4.058120
 30
0.0
 10
1.855031
 20
4.073370
 30
0.0
 10
1.901749
 20
4.079287
 30
0.0
  0
LWPOLYLINE
  5
13c
100
AcDbEntity
  8
0
 62
7
100
AcDbPolyline
 90
16
 70
1
 10
0.929816
 20
3.937956
 30
0.0
 10
1.002368
 20
3.935285
 30
0.0
 10
1.059341
 20
3.930517
 30
0.0
 10
1.089169
 20
3.923743
 30
0.0
 10
1.090318
 20
3.922858
 30
0.0
 10
1.076586
 20
3.917259
 30
0.0
 10
1.029071
 20
3.912886
 30
0.0
 10
0.956318
 20
3.910347
 30
0.0
 10
0.909195
 20
3.909953
 30
0.0
 10
0.824457
 20
3.911557
 30
0.0
 10
0.758481
 20
3.915859
 30
0.0
 10
0.720626
 20
3.922092
 30
0.0
 10
0.715161
 20
3.925828
 30
0.0
 10
0.734358
 20
3.932465
 30
0.0
 10
0.784244
 20
3.936637
 30
0.0
 10
0.853253
 20
3.938437
 30
0.0
  0
LWPOLYLINE
  5
13d
100
AcDbEntity
  8
0
 62
7
100
AcDbPolyline
 90
8
 70
1
 10
2.099029
 20
4.008541
 30
0.0
 10
2.112167
 20
3.994620
 30
0.0
 10
2.094053
 20
3.978709
 30
0.0
 10
2.059250
 20
3.973453
 30
0.0
 10
2.019471
 20
3.980699
 30
0.0
 10
2.006333
 20
3.994620
 30
0.0
 10
2.024447
 20
4.010531
 30
0.0
 10
2.059250
 20
4.015787
 30
0.0
  0
LWPOLYLINE
  5
13e
100
AcDbEntity
  8
0
 62
7
100
AcDbPolyline
 90
21
 70
1
 10
1.710552
 20
4.315045
 30
0.0
 10
1.697022
 20
4.296095
 30
0.0
 10
1.688220
 20
4.290127
 30
0.0
 10
1.670201
 20
4.273988
 30
0.0
 10
1.684791
 20
4.270111
 30
0.0
 10
1.702327
 20
4.258008
 30
0.0
 10
1.699417
 20
4.248620
 30
0.0
 10
1.670803
 20
4.233370
 30
0.0
 10
1.624084
 20
4.227453
 30
0.0
 10
1.580042
 20
4.233698
 30
0.0
 10
1.561833
 20
4.248620
 30
0.0
 10
1.579827
 20
4.265958
 30
0.0
 10
1.609458
 20
4.271897
 30
0.0
 10
1.640783
 20
4.274384
 30
0.0
 10
1.633612
 20
4.280391
 30
0.0
 10
1.604167
 20
4.289315
 30
0.0
 10
1.572497
 20
4.299921
 30
0.0
 10
1.575393
 20
4.307013
 30
0.0
 10
1.616289
 20
4.314993
 30
0.0
 10
1.625333
 20
4.316446
 30
0.0
 10
1.685902
 20
4.322144
 30
0.0
  0
LWPOLYLINE
  5
13f
100
AcDbEntity
  8
0
 62
7
100
AcDbPolyline
 90
12
 70
1
 10
1.403337
 20
4.329807
 30
0.0
 10
1.445623
 20
4.320831
 30
0.0
 10
1.456000
 20
4.312120
 30
0.0
 10
1.436862
 20
4.300529
 30
0.0
 10
1.387494
 20
4.292840
 30
0.0
 10
1.339583
 20
4.290953
 30
0.0
 10
1.275830
 20
4.294433
 30
0.0
 10
1.233544
 20
4.303409
 30
0.0
 10
1.223167
 20
4.312120
 30
0.0
 10
1.242305
 20
4.323712
 30
0.0
 10
1.291673
 20
4.331400
 30
0.0
 10
1.339583
 20
4.333287
 30
0.0
  0
LWPOLYLINE
  5
140
100
AcDbEntity
  8
0
 62
7
100
AcDbPolyline
 90
13
 70
1
 10
2.240254
 20
4.318252
 30
0.0
 10
2.269858
 20
4.308955
 30
0.0
 10
2.265456
 20
4.297229
 30
0.0
 10
2.227334
 20
4.291237
 30
0.0
 10
2.213381
 20
4.290953
 30
0.0
 10
2.152352
 20
4.287509
 30
0.0
 10
2.106179
 20
4.279114
 30
0.0
 10
2.103315
 20
4.278105
 30
0.0
 10
2.075034
 20
4.277144
 30
0.0
 10
2.069833
 20
4.286466
 30
0.0
 10
2.088356
 20
4.301596
 30
0.0
 10
2.133429
 20
4.313117
 30
0.0
 10
2.189310
 20
4.319259
 30
0.0
  0
LWPOLYLINE
  5
141
100
AcDbEntity
  8
0
 62
7
100
AcDbPolyline
 90
8
 70
1
 10
0.636083
 20
3.988353
 30
0.0
 10
0.644600
 20
3.983396
 30
0.0
 10
0.616868
 20
3.980200
 30
0.0
 10
0.577583
 20
3.979507
 30
0.0
 10
0.529558
 20
3.981091
 30
0.0
 10
0.515511
 20
3.984884
 30
0.0
 10
0.530249
 20
3.988642
 30
0.0
 10
0.592848
 20
3.992124
 30
0.0
  0
LWPOLYLINE
  5
142
100
AcDbEntity
  8
0
 62
7
100
AcDbPolyline
 90
33
 70
1
 10
2.995300
 20
4.149945
 30
0.0
 10
2.998620
 20
4.162600
 30
0.0
 10
3.028850
 20
4.207579
 30
0.0
 10
3.078666
 20
4.232334
 30
0.0
 10
3.131383
 20
4.231410
 30
0.0
 10
3.158782
 20
4.214981
 30
0.0
 10
3.196743
 20
4.155972
 30
0.0
 10
3.201262
 20
4.083217
 30
0.0
 10
3.186831
 20
4.024137
 30
0.0
 10
3.163425
 20
3.968883
 30
0.0
 10
3.133156
 20
3.943117
 30
0.0
 10
3.096313
 20
3.935458
 30
0.0
 10
3.042142
 20
3.939133
 30
0.0
 10
3.006354
 20
3.955566
 30
0.0
 10
2.987195
 20
3.999661
 30
0.0
 10
2.983402
 20
4.067959
 30
0.0
 10
3.022333
 20
4.067959
 30
0.0
 10
3.024598
 20
4.009445
 30
0.0
 10
3.035573
 20
3.981834
 30
0.0
 10
3.061531
 20
3.973764
 30
0.0
 10
3.074505
 20
3.973453
 30
0.0
 10
3.125295
 20
3.989564
 30
0.0
 10
3.148589
 20
4.014395
 30
0.0
 10
3.169897
 20
4.079498
 30
0.0
 10
3.166612
 20
4.137597
 30
0.0
 10
3.143155
 20
4.179509
 30
0.0
 10
3.103949
 20
4.196055
 30
0.0
 10
3.066020
 20
4.185844
 30
0.0
 10
3.036955
 20
4.159570
 30
0.0
 10
3.024205
 20
4.113487
 30
0.0
 10
3.022333
 20
4.067959
 30
0.0
 10
2.983402
 20
4.067959
 30
0.0
 10
2.983333
 20
4.069198
 30
0.0
  0
LWPOLYLINE
  5
143
100
AcDbEntity
  8
0
 62
7
100
AcDbPolyline
 90
8
 70
1
 10
0.667789
 20
3.860997
 30
0.0
 10
0.672736
 20
3.855275
 30
0.0
 10
0.642340
 20
3.852065
 30
0.0
 10
0.619917
 20
3.851791
 30
0.0
 10
0.578926
 20
3.853875
 30
0.0
 10
0.572707
 20
3.858656
 30
0.0
 10
0.583122
 20
3.861424
 30
0.0
 10
0.638274
 20
3.864832
 30
0.0
  0
LWPOLYLINE
  5
144
100
AcDbEntity
  8
0
 62
7
100
AcDbPolyline
 90
10
 70
1
 10
0.427634
 20
4.195277
 30
0.0
 10
0.440000
 20
4.185534
 30
0.0
 10
0.421531
 20
4.170696
 30
0.0
 10
0.376701
 20
4.163987
 30
0.0
 10
0.372972
 20
4.163953
 30
0.0
 10
0.330596
 20
4.167023
 30
0.0
 10
0.316732
 20
4.174509
 30
0.0
 10
0.317459
 20
4.175467
 30
0.0
 10
0.347901
 20
4.190135
 30
0.0
 10
0.390874
 20
4.197252
 30
0.0
  0
LWPOLYLINE
  5
145
100
AcDbEntity
  8
0
 62
7
100
AcDbPolyline
 90
10
 70
1
 10
1.668359
 20
4.010150
 30
0.0
 10
1.678812
 20
3.995628
 30
0.0
 10
1.678250
 20
3.994620
 30
0.0
 10
1.648307
 20
3.976654
 30
0.0
 10
1.625333
 20
3.973453
 30
0.0
 10
1.585335
 20
3.983464
 30
0.0
 10
1.572417
 20
3.994620
 30
0.0
 10
1.580772
 20
4.009536
 30
0.0
 10
1.622204
 20
4.015767
 30
0.0
 10
1.625333
 20
4.015787
 30
0.0
  0
LWPOLYLINE
  5
146
100
AcDbEntity
  8
0
 62
7
100
AcDbPolyline
 90
25
 70
1
 10
0.763059
 20
4.262968
 30
0.0
 10
0.867737
 20
4.260328
 30
0.0
 10
0.961789
 20
4.256065
 30
0.0
 10
1.036179
 20
4.250368
 30
0.0
 10
1.081870
 20
4.243425
 30
0.0
 10
1.091190
 20
4.239486
 30
0.0
 10
1.093449
 20
4.217757
 30
0.0
 10
1.092639
 20
4.216870
 30
0.0
 10
1.071015
 20
4.217402
 30
0.0
 10
1.069966
 20
4.218376
 30
0.0
 10
1.045887
 20
4.222353
 30
0.0
 10
0.986472
 20
4.225963
 30
0.0
 10
0.898719
 20
4.228960
 30
0.0
 10
0.789625
 20
4.231098
 30
0.0
 10
0.680146
 20
4.232079
 30
0.0
 10
0.548513
 20
4.232991
 30
0.0
 10
0.456095
 20
4.234598
 30
0.0
 10
0.399777
 20
4.237155
 30
0.0
 10
0.376444
 20
4.240918
 30
0.0
 10
0.382980
 20
4.246143
 30
0.0
 10
0.416269
 20
4.253084
 30
0.0
 10
0.418833
 20
4.253524
 30
0.0
 10
0.475643
 20
4.259263
 30
0.0
 10
0.557975
 20
4.262625
 30
0.0
 10
0.656793
 20
4.263797
 30
0.0
  0
LWPOLYLINE
  5
147
100
AcDbEntity
  8
0
 62
7
100
AcDbPolyline
 90
9
 70
1
 10
0.606420
 20
4.201889
 30
0.0
 10
0.662250
 20
4.185120
 30
0.0
 10
0.682122
 20
4.173299
 30
0.0
 10
0.667014
 20
4.167383
 30
0.0
 10
0.625208
 20
4.165441
 30
0.0
 10
0.574206
 20
4.169465
 30
0.0
 10
0.547149
 20
4.181308
 30
0.0
 10
0.545833
 20
4.185120
 30
0.0
 10
0.563098
 20
4.202011
 30
0.0
  0
LWPOLYLINE
  5
148
100
AcDbEntity
  8
0
 62
7
100
AcDbPolyline
 90
18
 70
1
 10
1.604527
 20
4.177624
 30
0.0
 10
1.646783
 20
4.185120
 30
0.0
 10
1.688333
 20
4.179855
 30
0.0
 10
1.697987
 20
4.158356
 30
0.0
 10
1.694966
 20
4.142787
 30
0.0
 10
1.680570
 20
4.109875
 30
0.0
 10
1.670490
 20
4.103336
 30
0.0
 10
1.640957
 20
4.109294
 30
0.0
 10
1.610629
 20
4.115238
 30
0.0
 10
1.577303
 20
4.132339
 30
0.0
 10
1.577101
 20
4.153370
 30
0.0
 10
1.646500
 20
4.153370
 30
0.0
 10
1.657083
 20
4.142787
 30
0.0
 10
1.667667
 20
4.153370
 30
0.0
 10
1.657083
 20
4.163953
 30
0.0
 10
1.646500
 20
4.153370
 30
0.0
 10
1.577101
 20
4.153370
 30
0.0
 10
1.577070
 20
4.156614
 30
0.0
  0
LWPOLYLINE
  5
149
100
AcDbEntity
  8
0
 62
7
100
AcDbPolyline
 90
10
 70
1
 10
1.027375
 20
3.861873
 30
0.0
 10
1.045992
 20
3.858087
 30
0.0
 10
1.026695
 20
3.855206
 30
0.0
 10
0.973901
 20
3.853691
 30
0.0
 10
0.948000
 20
3.853570
 30
0.0
 10
0.884401
 20
3.854489
 30
0.0
 10
0.852735
 20
3.856939
 30
0.0
 10
0.857418
 20
3.860457
 30
0.0
 10
0.868625
 20
3.861873
 30
0.0
 10
0.948104
 20
3.865298
 30
0.0
  0
LWPOLYLINE
  5
14a
100
AcDbEntity
  8
0
 62
7
100
AcDbPolyline
 90
8
 70
1
 10
0.408691
 20
3.860046
 30
0.0
 10
0.429330
 20
3.846594
 30
0.0
 10
0.421985
 20
3.832429
 30
0.0
 10
0.386555
 20
3.830184
 30
0.0
 10
0.341299
 20
3.839223
 30
0.0
 10
0.320644
 20
3.851210
 30
0.0
 10
0.330592
 20
3.863365
 30
0.0
 10
0.363418
 20
3.867620
 30
0.0
  0
LWPOLYLINE
  5
14b
100
AcDbEntity
  8
0
 62
7
100
AcDbPolyline
 90
12
 70
1
 10
1.923919
 20
4.009656
 30
0.0
 10
1.942829
 20
3.994883
 30
0.0
 10
1.942833
 20
3.994620
 30
0.0
 10
1.924440
 20
3.979758
 30
0.0
 10
1.880123
 20
3.973455
 30
0.0
 10
1.879333
 20
3.973453
 30
0.0
 10
1.834748
 20
3.979584
 30
0.0
 10
1.815838
 20
3.994357
 30
0.0
 10
1.815833
 20
3.994620
 30
0.0
 10
1.834227
 20
4.009482
 30
0.0
 10
1.878543
 20
4.015785
 30
0.0
 10
1.879333
 20
4.015787
 30
0.0
  0
LWPOLYLINE
  5
14c
100
AcDbEntity
  8
0
 62
7
100
AcDbPolyline
 90
13
 70
1
 10
2.086243
 20
3.912846
 30
0.0
 10
2.110781
 20
3.869337
 30
0.0
 10
2.112167
 20
3.855306
 30
0.0
 10
2.093680
 20
3.849181
 30
0.0
 10
2.048906
 20
3.846462
 30
0.0
 10
2.046075
 20
3.846453
 30
0.0
 10
2.003007
 20
3.849849
 30
0.0
 10
1.995532
 20
3.862886
 30
0.0
 10
2.003558
 20
3.874859
 30
0.0
 10
2.016985
 20
3.905724
 30
0.0
 10
2.013205
 20
3.917193
 30
0.0
 10
2.019009
 20
3.928149
 30
0.0
 10
2.042874
 20
3.931120
 30
0.0
  0
LWPOLYLINE
  5
14d
100
AcDbEntity
  8
0
 62
7
100
AcDbPolyline
 90
30
 70
1
 10
0.733358
 20
4.048139
 30
0.0
 10
0.768442
 20
4.054294
 30
0.0
 10
0.843517
 20
4.055727
 30
0.0
 10
0.852750
 20
4.055629
 30
0.0
 10
0.925747
 20
4.054036
 30
0.0
 10
0.960098
 20
4.050953
 30
0.0
 10
0.959489
 20
4.045437
 30
0.0
 10
0.927604
 20
4.036542
 30
0.0
 10
0.927403
 20
4.036494
 30
0.0
 10
0.876496
 20
4.019131
 30
0.0
 10
0.847666
 20
3.999131
 30
0.0
 10
0.846264
 20
3.996327
 30
0.0
 10
0.823633
 20
3.980461
 30
0.0
 10
0.781902
 20
3.974040
 30
0.0
 10
0.739801
 20
3.977308
 30
0.0
 10
0.716065
 20
3.990510
 30
0.0
 10
0.715167
 20
3.994620
 30
0.0
 10
0.731910
 20
4.014505
 30
0.0
 10
0.741625
 20
4.016111
 30
0.0
 10
0.752644
 20
4.023428
 30
0.0
 10
0.744842
 20
4.029898
 30
0.0
 10
0.785722
 20
4.029898
 30
0.0
 10
0.788628
 20
4.017314
 30
0.0
 10
0.799833
 20
4.015787
 30
0.0
 10
0.817256
 20
4.023531
 30
0.0
 10
0.813945
 20
4.029898
 30
0.0
 10
0.788825
 20
4.032431
 30
0.0
 10
0.785722
 20
4.029898
 30
0.0
 10
0.744842
 20
4.029898
 30
0.0
 10
0.736333
 20
4.036953
 30
0.0
  0
LWPOLYLINE
  5
14e
100
AcDbEntity
  8
0
 62
7
100
AcDbPolyline
 90
10
 70
1
 10
1.926966
 20
4.263262
 30
0.0
 10
1.953417
 20
4.248620
 30
0.0
 10
1.944474
 20
4.234217
 30
0.0
 10
1.901353
 20
4.227610
 30
0.0
 10
1.891166
 20
4.227453
 30
0.0
 10
1.841705
 20
4.232688
 30
0.0
 10
1.816611
 20
4.245585
 30
0.0
 10
1.815833
 20
4.248620
 30
0.0
 10
1.834198
 20
4.263596
 30
0.0
 10
1.878084
 20
4.269787
 30
0.0
  0
LWPOLYLINE
  5
14f
100
AcDbEntity
  8
0
 62
7
100
AcDbPolyline
 90
12
 70
1
 10
0.933988
 20
4.140279
 30
0.0
 10
0.971294
 20
4.133888
 30
0.0
 10
0.970982
 20
4.122866
 30
0.0
 10
0.969167
 20
4.121620
 30
0.0
 10
0.928457
 20
4.108464
 30
0.0
 10
0.867944
 20
4.102032
 30
0.0
 10
0.803371
 20
4.102326
 30
0.0
 10
0.750482
 20
4.109344
 30
0.0
 10
0.725750
 20
4.121620
 30
0.0
 10
0.737489
 20
4.133502
 30
0.0
 10
0.787571
 20
4.140615
 30
0.0
 10
0.856793
 20
4.142463
 30
0.0
  0
LWPOLYLINE
  5
150
100
AcDbEntity
  8
0
 62
7
100
AcDbPolyline
 90
8
 70
1
 10
0.657179
 20
3.924401
 30
0.0
 10
0.662250
 20
3.909953
 30
0.0
 10
0.632395
 20
3.892172
 30
0.0
 10
0.608084
 20
3.888787
 30
0.0
 10
0.574373
 20
3.897892
 30
0.0
 10
0.567000
 20
3.909953
 30
0.0
 10
0.585152
 20
3.925730
 30
0.0
 10
0.621166
 20
3.931120
 30
0.0
  0
LWPOLYLINE
  5
151
100
AcDbEntity
  8
0
 62
7
100
AcDbPolyline
 90
10
 70
1
 10
1.912319
 20
4.325482
 30
0.0
 10
1.932250
 20
4.312120
 30
0.0
 10
1.923979
 20
4.297129
 30
0.0
 10
1.882798
 20
4.290964
 30
0.0
 10
1.880583
 20
4.290953
 30
0.0
 10
1.835460
 20
4.296975
 30
0.0
 10
1.815859
 20
4.311524
 30
0.0
 10
1.815833
 20
4.312120
 30
0.0
 10
1.833909
 20
4.328170
 30
0.0
 10
1.867501
 20
4.333287
 30
0.0
  0
LWPOLYLINE
  5
152
100
AcDbEntity
  8
0
 62
7
100
AcDbPolyline
 90
10
 70
1
 10
1.257614
 20
4.062430
 30
0.0
 10
1.296195
 20
4.054867
 30
0.0
 10
1.307833
 20
4.045069
 30
0.0
 10
1.288970
 20
4.040423
 30
0.0
 10
1.241533
 20
4.038336
 30
0.0
 10
1.217875
 20
4.038441
 30
0.0
 10
1.166529
 20
4.041490
 30
0.0
 10
1.155431
 20
4.048712
 30
0.0
 10
1.168795
 20
4.055939
 30
0.0
 10
1.209143
 20
4.063256
 30
0.0
  0
LWPOLYLINE
  5
153
100
AcDbEntity
  8
0
 62
7
100
AcDbPolyline
 90
13
 70
1
 10
0.607570
 20
4.320043
 30
0.0
 10
0.610567
 20
4.308395
 30
0.0
 10
0.586590
 20
4.298406
 30
0.0
 10
0.529779
 20
4.288344
 30
0.0
 10
0.477042
 20
4.281497
 30
0.0
 10
0.406217
 20
4.276114
 30
0.0
 10
0.363868
 20
4.279728
 30
0.0
 10
0.355333
 20
4.286809
 30
0.0
 10
0.374123
 20
4.297498
 30
0.0
 10
0.421092
 20
4.308448
 30
0.0
 10
0.482139
 20
4.317801
 30
0.0
 10
0.543162
 20
4.323700
 30
0.0
 10
0.590060
 20
4.324286
 30
0.0
  0
LWPOLYLINE
  5
154
100
AcDbEntity
  8
0
 62
7
100
AcDbPolyline
 90
14
 70
1
 10
1.328948
 20
4.264646
 30
0.0
 10
1.425657
 20
4.258969
 30
0.0
 10
1.480434
 20
4.250707
 30
0.0
 10
1.493278
 20
4.241665
 30
0.0
 10
1.464186
 20
4.233648
 30
0.0
 10
1.393155
 20
4.228459
 30
0.0
 10
1.329000
 20
4.227453
 30
0.0
 10
1.244381
 20
4.229953
 30
0.0
 10
1.185523
 20
4.236806
 30
0.0
 10
1.160117
 20
4.247043
 30
0.0
 10
1.159667
 20
4.248771
 30
0.0
 10
1.179716
 20
4.259209
 30
0.0
 10
1.235834
 20
4.264760
 30
0.0
 10
1.321978
 20
4.264857
 30
0.0
  0
LWPOLYLINE
  5
155
100
AcDbEntity
  8
0
 62
7
100
AcDbPolyline
 90
117
 70
1
 10
2.894159
 20
4.110697
 30
0.0
 10
2.915403
 20
4.202186
 30
0.0
 10
2.958257
 20
4.277092
 30
0.0
 10
3.015671
 20
4.330312
 30
0.0
 10
3.080595
 20
4.356747
 30
0.0
 10
3.145981
 20
4.351297
 30
0.0
 10
3.189678
 20
4.324503
 30
0.0
 10
3.219393
 20
4.301578
 30
0.0
 10
3.233339
 20
4.310863
 30
0.0
 10
3.236847
 20
4.322379
 30
0.0
 10
3.280017
 20
4.322379
 30
0.0
 10
3.287761
 20
4.296022
 30
0.0
 10
3.313897
 20
4.244422
 30
0.0
 10
3.330882
 20
4.212698
 30
0.0
 10
3.364295
 20
4.140900
 30
0.0
 10
3.376536
 20
4.080245
 30
0.0
 10
3.372395
 20
4.009802
 30
0.0
 10
3.366456
 20
3.931677
 30
0.0
 10
3.375068
 20
3.887054
 30
0.0
 10
3.400323
 20
3.868977
 30
0.0
 10
3.415166
 20
3.867620
 30
0.0
 10
3.439338
 20
3.886104
 30
0.0
 10
3.445667
 20
3.921217
 30
0.0
 10
3.460204
 20
4.001872
 30
0.0
 10
3.498859
 20
4.093622
 30
0.0
 10
3.554193
 20
4.179340
 30
0.0
 10
3.561794
 20
4.188636
 30
0.0
 10
3.596324
 20
4.240939
 30
0.0
 10
3.613698
 20
4.289872
 30
0.0
 10
3.611333
 20
4.324094
 30
0.0
 10
3.594736
 20
4.333287
 30
0.0
 10
3.570329
 20
4.318072
 30
0.0
 10
3.532526
 20
4.279720
 30
0.0
 10
3.515361
 20
4.259204
 30
0.0
 10
3.477534
 20
4.214608
 30
0.0
 10
3.450807
 20
4.188209
 30
0.0
 10
3.445188
 20
4.185121
 30
0.0
 10
3.429173
 20
4.201883
 30
0.0
 10
3.402850
 20
4.243656
 30
0.0
 10
3.394230
 20
4.259203
 30
0.0
 10
3.357243
 20
4.309969
 30
0.0
 10
3.319805
 20
4.332920
 30
0.0
 10
3.315334
 20
4.333287
 30
0.0
 10
3.289572
 20
4.331973
 30
0.0
 10
3.280017
 20
4.322379
 30
0.0
 10
3.236847
 20
4.322379
 30
0.0
 10
3.239912
 20
4.332440
 30
0.0
 10
3.265606
 20
4.367631
 30
0.0
 10
3.290809
 20
4.375620
 30
0.0
 10
3.341380
 20
4.362739
 30
0.0
 10
3.390078
 20
4.331834
 30
0.0
 10
3.420813
 20
4.294512
 30
0.0
 10
3.424500
 20
4.279170
 30
0.0
 10
3.430922
 20
4.253263
 30
0.0
 10
3.453162
 20
4.256176
 30
0.0
 10
3.495687
 20
4.289534
 30
0.0
 10
3.522639
 20
4.314920
 30
0.0
 10
3.580091
 20
4.358065
 30
0.0
 10
3.624793
 20
4.367214
 30
0.0
 10
3.651709
 20
4.342645
 30
0.0
 10
3.657283
 20
4.307493
 30
0.0
 10
3.645718
 20
4.266236
 30
0.0
 10
3.615436
 20
4.204345
 30
0.0
 10
3.572971
 20
4.135161
 30
0.0
 10
3.572616
 20
4.134638
 30
0.0
 10
3.529679
 20
4.065980
 30
0.0
 10
3.498151
 20
4.005270
 30
0.0
 10
3.484795
 20
3.965549
 30
0.0
 10
3.484776
 20
3.965305
 30
0.0
 10
3.481062
 20
3.914046
 30
0.0
 10
3.479377
 20
3.891026
 30
0.0
 10
3.461240
 20
3.856175
 30
0.0
 10
3.440664
 20
3.838468
 30
0.0
 10
3.404005
 20
3.828049
 30
0.0
 10
3.367018
 20
3.852531
 30
0.0
 10
3.344486
 20
3.887668
 30
0.0
 10
3.335183
 20
3.941397
 30
0.0
 10
3.335864
 20
4.010922
 30
0.0
 10
3.333457
 20
4.106094
 30
0.0
 10
3.315848
 20
4.167060
 30
0.0
 10
3.312264
 20
4.172513
 30
0.0
 10
3.292728
 20
4.196033
 30
0.0
 10
3.287598
 20
4.187147
 30
0.0
 10
3.292485
 20
4.146194
 30
0.0
 10
3.293048
 20
4.039470
 30
0.0
 10
3.265734
 20
3.944211
 30
0.0
 10
3.215424
 20
3.868141
 30
0.0
 10
3.146995
 20
3.818984
 30
0.0
 10
3.076379
 20
3.804120
 30
0.0
 10
2.996014
 20
3.820620
 30
0.0
 10
2.947288
 20
3.856075
 30
0.0
 10
2.911091
 20
3.907429
 30
0.0
 10
2.893181
 20
3.975999
 30
0.0
 10
2.892606
 20
4.008787
 30
0.0
 10
2.924794
 20
4.008787
 30
0.0
 10
2.941981
 20
3.927330
 30
0.0
 10
2.972188
 20
3.878456
 30
0.0
 10
3.026280
 20
3.850891
 30
0.0
 10
3.095376
 20
3.848497
 30
0.0
 10
3.161378
 20
3.870060
 30
0.0
 10
3.191206
 20
3.893169
 30
0.0
 10
3.226125
 20
3.945605
 30
0.0
 10
3.254030
 20
4.012137
 30
0.0
 10
3.256413
 20
4.020414
 30
0.0
 10
3.266962
 20
4.081668
 30
0.0
 10
3.258611
 20
4.138047
 30
0.0
 10
3.236873
 20
4.194139
 30
0.0
 10
3.186160
 20
4.277769
 30
0.0
 10
3.128921
 20
4.320461
 30
0.0
 10
3.069354
 20
4.322229
 30
0.0
 10
3.011659
 20
4.283086
 30
0.0
 10
2.960033
 20
4.203047
 30
0.0
 10
2.955549
 20
4.193207
 30
0.0
 10
2.929072
 20
4.102039
 30
0.0
 10
2.924794
 20
4.008787
 30
0.0
 10
2.892606
 20
4.008787
 30
0.0
 10
2.891506
 20
4.071618
 30
0.0
  0
LWPOLYLINE
  5
156
100
AcDbEntity
  8
0
 62
7
100
AcDbPolyline
 90
16
 70
1
 10
2.219196
 20
4.251559
 30
0.0
 10
2.290078
 20
4.247289
 30
0.0
 10
2.344575
 20
4.240962
 30
0.0
 10
2.345000
 20
4.240888
 30
0.0
 10
2.356401
 20
4.235324
 30
0.0
 10
2.334805
 20
4.229901
 30
0.0
 10
2.289545
 20
4.225343
 30
0.0
 10
2.229955
 20
4.222372
 30
0.0
 10
2.165367
 20
4.221711
 30
0.0
 10
2.117458
 20
4.223268
 30
0.0
 10
2.055360
 20
4.229500
 30
0.0
 10
2.015027
 20
4.238648
 30
0.0
 10
2.006333
 20
4.245127
 30
0.0
 10
2.025500
 20
4.250555
 30
0.0
 10
2.075182
 20
4.253338
 30
0.0
 10
2.143656
 20
4.253624
 30
0.0
  0
LWPOLYLINE
  5
157
100
AcDbEntity
  8
0
 62
7
100
AcDbPolyline
 90
66
 70
1
 10
2.453958
 20
3.947236
 30
0.0
 10
2.460100
 20
3.962984
 30
0.0
 10
2.481866
 20
4.028301
 30
0.0
 10
2.492847
 20
4.087146
 30
0.0
 10
2.493167
 20
4.095291
 30
0.0
 10
2.499927
 20
4.155589
 30
0.0
 10
2.516879
 20
4.229744
 30
0.0
 10
2.539031
 20
4.299595
 30
0.0
 10
2.561388
 20
4.346979
 30
0.0
 10
2.562964
 20
4.349162
 30
0.0
 10
2.594793
 20
4.365005
 30
0.0
 10
2.651901
 20
4.374308
 30
0.0
 10
2.680967
 20
4.375358
 30
0.0
 10
2.744477
 20
4.371651
 30
0.0
 10
2.783833
 20
4.354885
 30
0.0
 10
2.817034
 20
4.315937
 30
0.0
 10
2.826542
 20
4.301572
 30
0.0
 10
2.864619
 20
4.229141
 30
0.0
 10
2.870446
 20
4.173371
 30
0.0
 10
2.844750
 20
4.124382
 30
0.0
 10
2.840010
 20
4.118960
 30
0.0
 10
2.817904
 20
4.080913
 30
0.0
 10
2.822818
 20
4.033526
 30
0.0
 10
2.827595
 20
4.018847
 30
0.0
 10
2.831904
 20
3.947043
 30
0.0
 10
2.799332
 20
3.879060
 30
0.0
 10
2.758977
 20
3.841486
 30
0.0
 10
2.721408
 20
3.830031
 30
0.0
 10
2.659883
 20
3.824739
 30
0.0
 10
2.587608
 20
3.825070
 30
0.0
 10
2.517787
 20
3.830487
 30
0.0
 10
2.463625
 20
3.840449
 30
0.0
 10
2.438327
 20
3.854419
 30
0.0
 10
2.438269
 20
3.854566
 30
0.0
 10
2.438643
 20
3.882618
 30
0.0
 10
2.478572
 20
3.882618
 30
0.0
 10
2.504485
 20
3.866321
 30
0.0
 10
2.528159
 20
3.861812
 30
0.0
 10
2.619123
 20
3.851604
 30
0.0
 10
2.682129
 20
3.854916
 30
0.0
 10
2.729923
 20
3.873640
 30
0.0
 10
2.760413
 20
3.896291
 30
0.0
 10
2.797808
 20
3.932823
 30
0.0
 10
2.806614
 20
3.963927
 30
0.0
 10
2.792013
 20
4.009706
 30
0.0
 10
2.790552
 20
4.013248
 30
0.0
 10
2.774246
 20
4.063242
 30
0.0
 10
2.780113
 20
4.096090
 30
0.0
 10
2.797292
 20
4.118535
 30
0.0
 10
2.826974
 20
4.176560
 30
0.0
 10
2.821125
 20
4.235790
 30
0.0
 10
2.785352
 20
4.287439
 30
0.0
 10
2.725262
 20
4.322723
 30
0.0
 10
2.660237
 20
4.333287
 30
0.0
 10
2.621961
 20
4.332633
 30
0.0
 10
2.595615
 20
4.325832
 30
0.0
 10
2.576811
 20
4.305625
 30
0.0
 10
2.561161
 20
4.264754
 30
0.0
 10
2.544277
 20
4.195959
 30
0.0
 10
2.525876
 20
4.111037
 30
0.0
 10
2.508020
 20
4.030054
 30
0.0
 10
2.491873
 20
3.960267
 30
0.0
 10
2.480949
 20
3.916849
 30
0.0
 10
2.478572
 20
3.882618
 30
0.0
 10
2.438643
 20
3.882618
 30
0.0
 10
2.438762
 20
3.891609
 30
0.0
  0
LWPOLYLINE
  5
158
100
AcDbEntity
  8
0
 62
7
100
AcDbPolyline
 90
23
 70
1
 10
2.610006
 20
4.238181
 30
0.0
 10
2.649703
 20
4.248436
 30
0.0
 10
2.659908
 20
4.248620
 30
0.0
 10
2.719660
 20
4.237895
 30
0.0
 10
2.751485
 20
4.210507
 30
0.0
 10
2.749524
 20
4.173639
 30
0.0
 10
2.735802
 20
4.155613
 30
0.0
 10
2.700307
 20
4.127120
 30
0.0
 10
2.667527
 20
4.128251
 30
0.0
 10
2.636042
 20
4.144482
 30
0.0
 10
2.605077
 20
4.181212
 30
0.0
 10
2.604168
 20
4.185120
 30
0.0
 10
2.651917
 20
4.185120
 30
0.0
 10
2.678004
 20
4.164778
 30
0.0
 10
2.683667
 20
4.163953
 30
0.0
 10
2.711078
 20
4.179278
 30
0.0
 10
2.715417
 20
4.185120
 30
0.0
 10
2.708769
 20
4.201627
 30
0.0
 10
2.683667
 20
4.206287
 30
0.0
 10
2.653621
 20
4.198331
 30
0.0
 10
2.651917
 20
4.185120
 30
0.0
 10
2.604168
 20
4.185120
 30
0.0
 10
2.599000
 20
4.207338
 30
0.0
  0
ENDSEC
  0
SECTION
  2
OBJECTS
  0
DICTIONARY
  5
C
330
0
100
AcDbDictionary
  3
ACAD_GROUP
350
D
  3
ACAD_MLINESTYLE
350
17
  0
DICTIONARY
  5
D
330
C
100
AcDbDictionary
  0
DICTIONARY
  5
1A
330
C
100
AcDbDictionary
  0
DICTIONARY
  5
17
330
C
100
AcDbDictionary
  3
STANDARD
350
18
  0
DICTIONARY
  5
19
330
C
100
AcDbDictionary
  0
ENDSEC
  0
EOF
