<?xml version="1.0" standalone="no"?>
 <!DOCTYPE svg PUBLIC "-//W3C//DTD SVG 1.1//EN" 
 "http://www.w3.org/Graphics/SVG/1.1/DTD/svg11.dtd"> 
<svg
  xmlns:svg="http://www.w3.org/2000/svg"
  xmlns="http://www.w3.org/2000/svg"
  xmlns:xlink="http://www.w3.org/1999/xlink"
  version="1.1"
  width="10.053320cm" height="10.040620cm" viewBox="0 0 100533200 100406200">
<title>SVG Picture created as default_panel-F_Silkscreen.svg date 2023/07/12 16:29:50 </title>
  <desc>Picture generated by PCBNEW </desc>
<g style="fill:#000000; fill-opacity:1.000000;stroke:#000000; stroke-opacity:1.000000;
stroke-linecap:round; stroke-linejoin:round;"
 transform="translate(0 0) scale(1 1)">
</g>
<g style="fill:#000000; fill-opacity:0.0; 
stroke:#000000; stroke-width:0.000000; stroke-opacity:1; 
stroke-linecap:round; stroke-linejoin:round;">
</g>
<g style="fill:#000000; fill-opacity:0.0; 
stroke:#000000; stroke-width:600000.000000; stroke-opacity:1; 
stroke-linecap:round; stroke-linejoin:round;">
<path d="M13175000 81575000
L13175000 84275000
" />
<path d="M11375000 81575000
L11375000 84275000
" />
</g>
<g style="fill:#000000; fill-opacity:0.0; 
stroke:#000000; stroke-width:800000.000000; stroke-opacity:1; 
stroke-linecap:round; stroke-linejoin:round;">
<text x="81325000.000000" y="73675000.000000"
textLength="5342381.000000" font-size="5333333.000000" lengthAdjust="spacingAndGlyphs"
text-anchor="middle" opacity="0">&gt;</text>
<g class="stroked-text"><desc>&gt;</desc>
<path d="M79801190 70817857
L82848809 71960714
L79801190 73103571
" />
</g></g>
<g style="fill:#000000; fill-opacity:0.0; 
stroke:#000000; stroke-width:500000.000000; stroke-opacity:1; 
stroke-linecap:round; stroke-linejoin:round;">
<text x="7475000.000000" y="84275000.000000"
textLength="9325714.000000" font-size="4000000.000000" lengthAdjust="spacingAndGlyphs"
text-anchor="middle" opacity="0"> ▶ </text>
<g class="stroked-text"><desc> ▶ </desc>
<path d="M6475000 81846428
L6475000 84132142
" />
<path d="M6617857 81989285
L6617857 83989285
" />
<path d="M6760714 81989285
L6760714 83989285
" />
<path d="M6903571 82132142
L6903571 83846428
" />
<path d="M7046428 82132142
L7046428 83846428
" />
<path d="M7189285 82275000
L7189285 83703571
" />
<path d="M7332142 82275000
L7332142 83703571
" />
<path d="M7475000 82417857
L7475000 83560714
" />
<path d="M7617857 82560714
L7617857 83417857
" />
<path d="M7760714 82560714
L7760714 83417857
" />
<path d="M7903571 82703571
L7903571 83275000
" />
<path d="M8046428 82703571
L8046428 83275000
" />
<path d="M8189285 82989285
L8332142 82989285
" />
<path d="M8189285 82846428
L8189285 83132142
" />
<path d="M6332142 81846428
L8475000 82989285
L6332142 84132142
" />
<path d="M8617857 82989285
L6332142 84275000
L6332142 81703571
L8617857 82989285
" />
</g><text x="22725000.000000" y="98525000.000000"
textLength="12935714.000000" font-size="4000000.000000" lengthAdjust="spacingAndGlyphs"
text-anchor="middle" opacity="0">MODE</text>
<g class="stroked-text"><desc>MODE</desc>
<path d="M17296428 98382142
L17296428 95382142
L18296428 97525000
L19296428 95382142
L19296428 98382142
" />
<path d="M21296428 95382142
L21867857 95382142
L22153571 95525000
L22439285 95810714
L22582142 96382142
L22582142 97382142
L22439285 97953571
L22153571 98239285
L21867857 98382142
L21296428 98382142
L21010714 98239285
L20725000 97953571
L20582142 97382142
L20582142 96382142
L20725000 95810714
L21010714 95525000
L21296428 95382142
" />
<path d="M23867857 98382142
L23867857 95382142
L24582142 95382142
L25010714 95525000
L25296428 95810714
L25439285 96096428
L25582142 96667857
L25582142 97096428
L25439285 97667857
L25296428 97953571
L25010714 98239285
L24582142 98382142
L23867857 98382142
" />
<path d="M26867857 96810714
L27867857 96810714
" />
<path d="M28296428 98382142
L26867857 98382142
L26867857 95382142
L28296428 95382142
" />
</g></g>
<g style="fill:#000000; fill-opacity:0.0; 
stroke:#000000; stroke-width:800000.000000; stroke-opacity:1; 
stroke-linecap:round; stroke-linejoin:round;">
<g transform="rotate(-90.000000 71825000.000000 64275000.000000)">
<text x="71825000.000000" y="66275000.000000"
textLength="5602381.000000" font-size="5333333.000000" lengthAdjust="spacingAndGlyphs"
text-anchor="middle" opacity="0">&gt;</text>
</g>
<g class="stroked-text"><desc>&gt;</desc>
<path d="M70967857 65798809
L72110714 62751190
L73253571 65798809
" />
</g></g>
<g style="fill:#000000; fill-opacity:0.0; 
stroke:#000000; stroke-width:500000.000000; stroke-opacity:1; 
stroke-linecap:round; stroke-linejoin:round;">
<text x="80525000.000000" y="99125000.000000"
textLength="17040000.000000" font-size="4000000.000000" lengthAdjust="spacingAndGlyphs"
text-anchor="middle" opacity="0">SELECT</text>
<g class="stroked-text"><desc>SELECT</desc>
<path d="M73096428 98839285
L73525000 98982142
L74239285 98982142
L74525000 98839285
L74667857 98696428
L74810714 98410714
L74810714 98125000
L74667857 97839285
L74525000 97696428
L74239285 97553571
L73667857 97410714
L73382142 97267857
L73239285 97125000
L73096428 96839285
L73096428 96553571
L73239285 96267857
L73382142 96125000
L73667857 95982142
L74382142 95982142
L74810714 96125000
" />
<path d="M76096428 97410714
L77096428 97410714
" />
<path d="M77525000 98982142
L76096428 98982142
L76096428 95982142
L77525000 95982142
" />
<path d="M80239285 98982142
L78810714 98982142
L78810714 95982142
" />
<path d="M81239285 97410714
L82239285 97410714
" />
<path d="M82667857 98982142
L81239285 98982142
L81239285 95982142
L82667857 95982142
" />
<path d="M85667857 98696428
L85525000 98839285
L85096428 98982142
L84810714 98982142
L84382142 98839285
L84096428 98553571
L83953571 98267857
L83810714 97696428
L83810714 97267857
L83953571 96696428
L84096428 96410714
L84382142 96125000
L84810714 95982142
L85096428 95982142
L85525000 96125000
L85667857 96267857
" />
<path d="M86525000 95982142
L88239285 95982142
" />
<path d="M87382142 98982142
L87382142 95982142
" />
</g><text x="49375000.000000" y="98675000.000000"
textLength="6078571.000000" font-size="4000000.000000" lengthAdjust="spacingAndGlyphs"
text-anchor="middle" opacity="0">FX</text>
<g class="stroked-text"><desc>FX</desc>
<path d="M48375000 96960714
L47375000 96960714
" />
<path d="M47375000 98532142
L47375000 95532142
L48803571 95532142
" />
<path d="M49660714 95532142
L51660714 98532142
" />
<path d="M51660714 95532142
L49660714 98532142
" />
</g></g>
<g style="fill:#000000; fill-opacity:0.0; 
stroke:#000000; stroke-width:800000.000000; stroke-opacity:1; 
stroke-linecap:round; stroke-linejoin:round;">
<g transform="rotate(-270.000000 72525000.000000 80075000.000000)">
<text x="72525000.000000" y="82075000.000000"
textLength="5602381.000000" font-size="5333333.000000" lengthAdjust="spacingAndGlyphs"
text-anchor="middle" opacity="0">&gt;</text>
</g>
<g class="stroked-text"><desc>&gt;</desc>
<path d="M73382142 78551190
L72239285 81598809
L71096428 78551190
" />
</g><g transform="rotate(-180.000000 63125000.000000 72275000.000000)">
<text x="63125000.000000" y="74275000.000000"
textLength="5992381.000000" font-size="5333333.000000" lengthAdjust="spacingAndGlyphs"
text-anchor="middle" opacity="0">&gt;</text>
</g>
<g class="stroked-text"><desc>&gt;</desc>
<path d="M64648809 73132142
L61601190 71989285
L64648809 70846428
" />
</g></g>
<g style="fill:#000000; fill-opacity:1.0; 
stroke:#000000; stroke-width:10000.000000; stroke-opacity:1; 
stroke-linecap:round; stroke-linejoin:round;">
<path style="fill:#000000; fill-opacity:1.0; 
stroke:#000000; stroke-width:10000.000000; stroke-opacity:1; 
stroke-linecap:round; stroke-linejoin:round;fill-rule:evenodd;"
d="M 14824663.000000,60313580.000000
15089167.000000,60460000.000000
14999742.000000,60604030.000000
14568525.000000,60670104.000000
14466659.000000,60671666.000000
13972051.000000,60619322.000000
13721109.000000,60490346.000000
13713334.000000,60460000.000000
13896975.000000,60310245.000000
14335842.000000,60248333.000000
Z" /> 
<path style="fill:#000000; fill-opacity:1.0; 
stroke:#000000; stroke-width:10000.000000; stroke-opacity:1; 
stroke-linecap:round; stroke-linejoin:round;fill-rule:evenodd;"
d="M 12768008.000000,60964078.000000
13545565.000000,61011909.000000
14295078.000000,61090199.000000
14904753.000000,61191685.000000
15262798.000000,61309100.000000
15290250.000000,61329794.000000
15275312.000000,61468532.000000
14919833.000000,61518333.000000
14502229.000000,61585872.000000
14348334.000000,61730000.000000
14156588.000000,61844141.000000
13660390.000000,61920991.000000
13141833.000000,61941666.000000
12475913.000000,61912361.000000
12142748.000000,61831157.000000
12136417.000000,61747923.000000
12488437.000000,61562489.000000
12866667.000000,61459248.000000
12999182.000000,61400944.000000
12752144.000000,61354488.000000
12390417.000000,61335491.000000
11790555.000000,61274359.000000
11434278.000000,61150706.000000
11385000.000000,61075998.000000
11575932.000000,60988858.000000
12074199.000000,60953972.000000
Z" /> 
<path style="fill:#000000; fill-opacity:1.0; 
stroke:#000000; stroke-width:10000.000000; stroke-opacity:1; 
stroke-linecap:round; stroke-linejoin:round;fill-rule:evenodd;"
d="M 16172514.000000,61258076.000000
16111218.000000,61248212.000000
16052313.000000,61210243.000000
16358092.000000,61177254.000000
16969904.000000,61153294.000000
17629167.000000,61143424.000000
18475848.000000,61148103.000000
19097571.000000,61172549.000000
19421840.000000,61212497.000000
19428334.000000,61249282.000000
19059447.000000,61483052.000000
18971565.000000,61583958.000000
18698674.000000,61717676.000000
18141755.000000,61837327.000000
17645121.000000,61896223.000000
16972997.000000,61936136.000000
16637549.000000,61899977.000000
16556135.000000,61769841.000000
16583941.000000,61666334.000000
16575778.000000,61588888.000000
17170556.000000,61588888.000000
17199611.000000,61714724.000000
17311667.000000,61730000.000000
17485892.000000,61652554.000000
17452778.000000,61588888.000000
17201579.000000,61563556.000000
17170556.000000,61588888.000000
16575778.000000,61588888.000000
16556069.000000,61401908.000000
Z" /> 
<path style="fill:#000000; fill-opacity:1.0; 
stroke:#000000; stroke-width:10000.000000; stroke-opacity:1; 
stroke-linecap:round; stroke-linejoin:round;fill-rule:evenodd;"
d="M 8433967.000000,58400658.000000
8531675.000000,58547738.000000
8527500.000000,58555000.000000
8235732.000000,58718847.000000
7880008.000000,58766666.000000
7488237.000000,58692617.000000
7363334.000000,58555000.000000
7547546.000000,58407493.000000
7992594.000000,58343416.000000
8010825.000000,58343333.000000
Z" /> 
<path style="fill:#000000; fill-opacity:1.0; 
stroke:#000000; stroke-width:10000.000000; stroke-opacity:1; 
stroke-linecap:round; stroke-linejoin:round;fill-rule:evenodd;"
d="M 20673871.000000,60036678.000000
20662643.000000,60036666.000000
20165961.000000,60002932.000000
19948459.000000,59917699.000000
19968084.000000,59868934.000000
20300054.000000,59767980.000000
20872928.000000,59739239.000000
21558957.000000,59771149.000000
22230396.000000,59852142.000000
22759498.000000,59970653.000000
23018515.000000,60115118.000000
23026667.000000,60145839.000000
23206554.000000,60402953.000000
23502917.000000,60522286.000000
23586151.000000,60576611.000000
23307217.000000,60621888.000000
22890563.000000,60642841.000000
22166822.000000,60619482.000000
21780514.000000,60488648.000000
21680123.000000,60354166.000000
21403194.000000,60142500.000000
21968334.000000,60142500.000000
22074167.000000,60248333.000000
22180000.000000,60142500.000000
22074167.000000,60036666.000000
21968334.000000,60142500.000000
21403194.000000,60142500.000000
21369217.000000,60116531.000000
Z" /> 
<path style="fill:#000000; fill-opacity:1.0; 
stroke:#000000; stroke-width:10000.000000; stroke-opacity:1; 
stroke-linecap:round; stroke-linejoin:round;fill-rule:evenodd;"
d="M 23611218.000000,61796234.000000
23660697.000000,61853449.000000
23356732.000000,61885553.000000
23132500.000000,61888287.000000
22722590.000000,61867447.000000
22660400.000000,61819640.000000
22764551.000000,61791963.000000
23316077.000000,61757884.000000
Z" /> 
<path style="fill:#000000; fill-opacity:1.0; 
stroke:#000000; stroke-width:10000.000000; stroke-opacity:1; 
stroke-linecap:round; stroke-linejoin:round;fill-rule:evenodd;"
d="M 25796657.000000,60398478.000000
26128981.000000,59936720.000000
26576309.000000,59854214.000000
27062249.000000,60044113.000000
27411889.000000,60430698.000000
27424496.000000,60931673.000000
27217667.000000,61264333.000000
26710322.000000,61503166.000000
26109534.000000,61370247.000000
25908971.000000,61245144.000000
25666451.000000,60988733.000000
25673328.000000,60891904.000000
26006922.000000,60891904.000000
26180726.000000,61061073.000000
26572084.000000,61056142.000000
27017075.000000,60902834.000000
27154167.000000,60674565.000000
26988761.000000,60385300.000000
26625947.000000,60278997.000000
26265831.000000,60393035.000000
26177355.000000,60492090.000000
26006922.000000,60891904.000000
25673328.000000,60891904.000000
25690023.000000,60656865.000000
Z" /> 
<path style="fill:#000000; fill-opacity:1.0; 
stroke:#000000; stroke-width:10000.000000; stroke-opacity:1; 
stroke-linecap:round; stroke-linejoin:round;fill-rule:evenodd;"
d="M 5473044.000000,59847159.000000
6000315.000000,59905875.000000
6218385.000000,59989508.000000
6215573.000000,60010121.000000
5953495.000000,60109937.000000
5424544.000000,60147040.000000
5144747.000000,60138601.000000
4514901.000000,60140609.000000
4226764.000000,60255992.000000
4188334.000000,60376813.000000
3996044.000000,60599783.000000
3500417.000000,60650567.000000
3059752.000000,60628164.000000
3013239.000000,60577357.000000
3331749.000000,60463178.000000
3341667.000000,60460000.000000
3642756.000000,60331135.000000
3526154.000000,60271161.000000
3500417.000000,60269432.000000
3185758.000000,60151179.000000
3130000.000000,60036666.000000
3327113.000000,59930234.000000
3861258.000000,59855976.000000
4646649.000000,59825243.000000
4729992.000000,59825000.000000
Z" /> 
<path style="fill:#000000; fill-opacity:1.0; 
stroke:#000000; stroke-width:10000.000000; stroke-opacity:1; 
stroke-linecap:round; stroke-linejoin:round;fill-rule:evenodd;"
d="M 5316676.000000,59077351.000000
6011641.000000,59127134.000000
6506619.000000,59203073.000000
6665721.000000,59268498.000000
6530033.000000,59326094.000000
6056041.000000,59371151.000000
5328726.000000,59397450.000000
4846119.000000,59401666.000000
3876242.000000,59380650.000000
3256180.000000,59320047.000000
3017834.000000,59223526.000000
3022935.000000,59191992.000000
3274851.000000,59111045.000000
3823980.000000,59066696.000000
4546022.000000,59056335.000000
Z" /> 
<path style="fill:#000000; fill-opacity:1.0; 
stroke:#000000; stroke-width:10000.000000; stroke-opacity:1; 
stroke-linecap:round; stroke-linejoin:round;fill-rule:evenodd;"
d="M 35691534.000000,61260940.000000
35715837.000000,61617666.000000
35612354.000000,61953532.000000
35529626.000000,62038460.000000
35256129.000000,62016733.000000
35211439.000000,61964220.000000
35172837.000000,61622744.000000
35313245.000000,61257120.000000
35537646.000000,61095000.000000
Z" /> 
<path style="fill:#000000; fill-opacity:1.0; 
stroke:#000000; stroke-width:10000.000000; stroke-opacity:1; 
stroke-linecap:round; stroke-linejoin:round;fill-rule:evenodd;"
d="M 19146438.000000,58492338.000000
19376900.000000,58614048.000000
19243614.000000,58716349.000000
19005000.000000,58788739.000000
18650522.000000,58897248.000000
18691872.000000,58941365.000000
18952084.000000,58957234.000000
19324245.000000,59053693.000000
19428334.000000,59190000.000000
19309448.000000,59373278.000000
19269584.000000,59372841.000000
18952849.000000,59313233.000000
18634584.000000,59252286.000000
18237134.000000,59017418.000000
18158334.000000,58751945.000000
18305703.000000,58410172.000000
18747745.000000,58372270.000000
Z" /> 
<path style="fill:#000000; fill-opacity:1.0; 
stroke:#000000; stroke-width:10000.000000; stroke-opacity:1; 
stroke-linecap:round; stroke-linejoin:round;fill-rule:evenodd;"
d="M 14926677.000000,58610190.000000
15102784.000000,58729375.000000
15089167.000000,58766666.000000
14938195.000000,58949886.000000
14917925.000000,58953290.000000
14707980.000000,58889559.000000
14257196.000000,58770409.000000
14242500.000000,58766666.000000
13853763.000000,58661137.000000
13826482.000000,58610888.000000
14186847.000000,58587374.000000
14413742.000000,58580043.000000
Z" /> 
<path style="fill:#000000; fill-opacity:1.0; 
stroke:#000000; stroke-width:10000.000000; stroke-opacity:1; 
stroke-linecap:round; stroke-linejoin:round;fill-rule:evenodd;"
d="M 3999188.000000,61156310.000000
4188285.000000,61304033.000000
4188334.000000,61306666.000000
4004402.000000,61455284.000000
3561234.000000,61518317.000000
3553334.000000,61518333.000000
3107479.000000,61457022.000000
2918382.000000,61309300.000000
2918334.000000,61306666.000000
3102265.000000,61158048.000000
3545433.000000,61095016.000000
3553334.000000,61095000.000000
Z" /> 
<path style="fill:#000000; fill-opacity:1.0; 
stroke:#000000; stroke-width:10000.000000; stroke-opacity:1; 
stroke-linecap:round; stroke-linejoin:round;fill-rule:evenodd;"
d="M 16794857.000000,59691377.000000
16994167.000000,59825000.000000
16911455.000000,59974907.000000
16499643.000000,60036564.000000
16477492.000000,60036666.000000
16026267.000000,59976447.000000
15830255.000000,59830960.000000
15830000.000000,59825000.000000
16010752.000000,59664502.000000
16346675.000000,59613333.000000
Z" /> 
<path style="fill:#000000; fill-opacity:1.0; 
stroke:#000000; stroke-width:10000.000000; stroke-opacity:1; 
stroke-linecap:round; stroke-linejoin:round;fill-rule:evenodd;"
d="M 12642699.000000,58590814.000000
12813329.000000,58726995.000000
12783479.000000,58889811.000000
12671409.000000,59227231.000000
12655000.000000,59313145.000000
12479723.000000,59399035.000000
12076007.000000,59402399.000000
11627029.000000,59339630.000000
11315962.000000,59227124.000000
11279167.000000,59190000.000000
11302972.000000,58995266.000000
11385000.000000,58978333.000000
11523031.000000,58849395.000000
11490834.000000,58766666.000000
11581576.000000,58623779.000000
12016459.000000,58557020.000000
12135988.000000,58555000.000000
Z" /> 
<path style="fill:#000000; fill-opacity:1.0; 
stroke:#000000; stroke-width:10000.000000; stroke-opacity:1; 
stroke-linecap:round; stroke-linejoin:round;fill-rule:evenodd;"
d="M 23371222.000000,61129143.000000
23450000.000000,61176146.000000
23275475.000000,61287333.000000
23026667.000000,61367996.000000
22689147.000000,61379867.000000
22603334.000000,61286850.000000
22780790.000000,61130918.000000
23026667.000000,61095000.000000
Z" /> 
<path style="fill:#000000; fill-opacity:1.0; 
stroke:#000000; stroke-width:10000.000000; stroke-opacity:1; 
stroke-linecap:round; stroke-linejoin:round;fill-rule:evenodd;"
d="M 12561524.000000,60326377.000000
12760834.000000,60460000.000000
12678122.000000,60609907.000000
12266310.000000,60671564.000000
12244159.000000,60671666.000000
11792934.000000,60611447.000000
11596922.000000,60465960.000000
11596667.000000,60460000.000000
11777418.000000,60299502.000000
12113342.000000,60248333.000000
Z" /> 
<path style="fill:#000000; fill-opacity:1.0; 
stroke:#000000; stroke-width:10000.000000; stroke-opacity:1; 
stroke-linecap:round; stroke-linejoin:round;fill-rule:evenodd;"
d="M 10344807.000000,57129727.000000
10906024.000000,57191382.000000
11166396.000000,57281086.000000
11173334.000000,57299502.000000
10983735.000000,57399883.000000
10500142.000000,57463983.000000
9850358.000000,57491539.000000
9162187.000000,57482294.000000
8563432.000000,57435985.000000
8181896.000000,57352353.000000
8116977.000000,57305727.000000
8251599.000000,57212872.000000
8721150.000000,57143666.000000
9437392.000000,57109951.000000
9586152.000000,57108563.000000
Z" /> 
<path style="fill:#000000; fill-opacity:1.0; 
stroke:#000000; stroke-width:10000.000000; stroke-opacity:1; 
stroke-linecap:round; stroke-linejoin:round;fill-rule:evenodd;"
d="M 23603581.000000,58614785.000000
23592948.000000,58694274.000000
23587012.000000,58948788.000000
23689421.000000,59117608.000000
23734786.000000,59253180.000000
23557920.000000,59338766.000000
23097662.000000,59384614.000000
22292848.000000,59400974.000000
21994251.000000,59401666.000000
21081869.000000,59394770.000000
20512688.000000,59362379.000000
20206649.000000,59286943.000000
20083696.000000,59150908.000000
20063334.000000,58978333.000000
20172998.000000,58658930.000000
20569306.000000,58558935.000000
20645417.000000,58558241.000000
21010420.000000,58600484.000000
20968869.000000,58724821.000000
20946225.000000,58739799.000000
20921053.000000,58880590.000000
21318454.000000,59003363.000000
21581225.000000,59045445.000000
22258218.000000,59084676.000000
22645813.000000,58953251.000000
22732502.000000,58863887.000000
23131340.000000,58595166.000000
23349863.000000,58555000.000000
Z" /> 
<path style="fill:#000000; fill-opacity:1.0; 
stroke:#000000; stroke-width:10000.000000; stroke-opacity:1; 
stroke-linecap:round; stroke-linejoin:round;fill-rule:evenodd;"
d="M 19457917.000000,59675775.000000
19640000.000000,59825000.000000
19453707.000000,59963973.000000
18994679.000000,60034481.000000
18886675.000000,60036666.000000
18405054.000000,59986529.000000
18251868.000000,59853893.000000
18264167.000000,59825000.000000
18550307.000000,59672501.000000
19017492.000000,59613333.000000
Z" /> 
<path style="fill:#000000; fill-opacity:1.0; 
stroke:#000000; stroke-width:10000.000000; stroke-opacity:1; 
stroke-linecap:round; stroke-linejoin:round;fill-rule:evenodd;"
d="M 9298162.000000,61026644.000000
10023682.000000,61053347.000000
10593414.000000,61101027.000000
10891689.000000,61168768.000000
10903178.000000,61177621.000000
10765858.000000,61233606.000000
10290707.000000,61277337.000000
9563183.000000,61302726.000000
9091945.000000,61306666.000000
8244565.000000,61290627.000000
7584810.000000,61247613.000000
7206257.000000,61185280.000000
7151605.000000,61147916.000000
7343577.000000,61081553.000000
7842440.000000,61039831.000000
8532525.000000,61021833.000000
Z" /> 
<path style="fill:#000000; fill-opacity:1.0; 
stroke:#000000; stroke-width:10000.000000; stroke-opacity:1; 
stroke-linecap:round; stroke-linejoin:round;fill-rule:evenodd;"
d="M 20990288.000000,60320789.000000
21121667.000000,60460000.000000
20940527.000000,60619114.000000
20592500.000000,60671666.000000
20194713.000000,60599210.000000
20063334.000000,60460000.000000
20244474.000000,60300885.000000
20592500.000000,60248333.000000
Z" /> 
<path style="fill:#000000; fill-opacity:1.0; 
stroke:#000000; stroke-width:10000.000000; stroke-opacity:1; 
stroke-linecap:round; stroke-linejoin:round;fill-rule:evenodd;"
d="M 17105520.000000,57255746.000000
16970222.000000,57445251.000000
16882204.000000,57504934.000000
16702010.000000,57666317.000000
16847909.000000,57705092.000000
17023274.000000,57826124.000000
16994167.000000,57920000.000000
16708026.000000,58072498.000000
16240842.000000,58131666.000000
15800417.000000,58069224.000000
15618334.000000,57920000.000000
15798270.000000,57746623.000000
16094584.000000,57687234.000000
16407830.000000,57662357.000000
16336116.000000,57602293.000000
16041667.000000,57513054.000000
15724969.000000,57406991.000000
15753933.000000,57336067.000000
16162894.000000,57256271.000000
16253334.000000,57241741.000000
16859024.000000,57184756.000000
Z" /> 
<path style="fill:#000000; fill-opacity:1.0; 
stroke:#000000; stroke-width:10000.000000; stroke-opacity:1; 
stroke-linecap:round; stroke-linejoin:round;fill-rule:evenodd;"
d="M 14033371.000000,57108129.000000
14456225.000000,57197889.000000
14560000.000000,57285000.000000
14368620.000000,57400915.000000
13874939.000000,57477798.000000
13395834.000000,57496666.000000
12758296.000000,57461870.000000
12335442.000000,57372110.000000
12231667.000000,57285000.000000
12423047.000000,57169084.000000
12916728.000000,57092201.000000
13395834.000000,57073333.000000
Z" /> 
<path style="fill:#000000; fill-opacity:1.0; 
stroke:#000000; stroke-width:10000.000000; stroke-opacity:1; 
stroke-linecap:round; stroke-linejoin:round;fill-rule:evenodd;"
d="M 22402538.000000,57223682.000000
22698584.000000,57316648.000000
22654556.000000,57433912.000000
22273342.000000,57493826.000000
22133812.000000,57496666.000000
21523521.000000,57531113.000000
21061790.000000,57615057.000000
21033145.000000,57625145.000000
20750336.000000,57634758.000000
20698334.000000,57541545.000000
20883562.000000,57390238.000000
21334293.000000,57275025.000000
21893095.000000,57213606.000000
Z" /> 
<path style="fill:#000000; fill-opacity:1.0; 
stroke:#000000; stroke-width:10000.000000; stroke-opacity:1; 
stroke-linecap:round; stroke-linejoin:round;fill-rule:evenodd;"
d="M 6360827.000000,60522667.000000
6446000.000000,60572243.000000
6168676.000000,60604196.000000
5775834.000000,60611127.000000
5295577.000000,60595287.000000
5155105.000000,60557358.000000
5302494.000000,60519778.000000
5928475.000000,60484958.000000
Z" /> 
<path style="fill:#000000; fill-opacity:1.0; 
stroke:#000000; stroke-width:10000.000000; stroke-opacity:1; 
stroke-linecap:round; stroke-linejoin:round;fill-rule:evenodd;"
d="M 29952995.000000,58906755.000000
29986198.000000,58780197.000000
30288502.000000,58330411.000000
30786655.000000,58082857.000000
31313826.000000,58092097.000000
31587815.000000,58256386.000000
31967430.000000,58846479.000000
32012616.000000,59574027.000000
31868307.000000,60164831.000000
31634246.000000,60717371.000000
31331561.000000,60975030.000000
30963125.000000,61051625.000000
30421421.000000,61014868.000000
30063542.000000,60850541.000000
29871954.000000,60409590.000000
29834022.000000,59726613.000000
30223334.000000,59726613.000000
30245981.000000,60311746.000000
30355734.000000,60587857.000000
30615312.000000,60668555.000000
30745053.000000,60671666.000000
31252947.000000,60510556.000000
31485886.000000,60262248.000000
31698967.000000,59611218.000000
31666116.000000,59030232.000000
31431551.000000,58611105.000000
31039489.000000,58445651.000000
30660197.000000,58547758.000000
30369551.000000,58810504.000000
30242052.000000,59271331.000000
30223334.000000,59726613.000000
29834022.000000,59726613.000000
29833333.000000,59714217.000000
Z" /> 
<path style="fill:#000000; fill-opacity:1.0; 
stroke:#000000; stroke-width:10000.000000; stroke-opacity:1; 
stroke-linecap:round; stroke-linejoin:round;fill-rule:evenodd;"
d="M 6677885.000000,61796234.000000
6727364.000000,61853449.000000
6423398.000000,61885553.000000
6199167.000000,61888287.000000
5789257.000000,61867447.000000
5727067.000000,61819640.000000
5831218.000000,61791963.000000
6382743.000000,61757884.000000
Z" /> 
<path style="fill:#000000; fill-opacity:1.0; 
stroke:#000000; stroke-width:10000.000000; stroke-opacity:1; 
stroke-linecap:round; stroke-linejoin:round;fill-rule:evenodd;"
d="M 4276341.000000,58453432.000000
4400000.000000,58550860.000000
4215313.000000,58699240.000000
3767009.000000,58766334.000000
3729722.000000,58766666.000000
3305964.000000,58735972.000000
3167317.000000,58661114.000000
3174585.000000,58651525.000000
3479014.000000,58504846.000000
3908741.000000,58433683.000000
Z" /> 
<path style="fill:#000000; fill-opacity:1.0; 
stroke:#000000; stroke-width:10000.000000; stroke-opacity:1; 
stroke-linecap:round; stroke-linejoin:round;fill-rule:evenodd;"
d="M 16683592.000000,60304696.000000
16788116.000000,60449925.000000
16782500.000000,60460000.000000
16483073.000000,60639663.000000
16253334.000000,60671666.000000
15853347.000000,60571564.000000
15724167.000000,60460000.000000
15807722.000000,60310837.000000
16222042.000000,60248529.000000
16253334.000000,60248333.000000
Z" /> 
<path style="fill:#000000; fill-opacity:1.0; 
stroke:#000000; stroke-width:10000.000000; stroke-opacity:1; 
stroke-linecap:round; stroke-linejoin:round;fill-rule:evenodd;"
d="M 7630589.000000,57776516.000000
8677368.000000,57802916.000000
9617893.000000,57845546.000000
10361793.000000,57902519.000000
10818699.000000,57971948.000000
10911899.000000,58011343.000000
10934488.000000,58228628.000000
10926389.000000,58237500.000000
10710147.000000,58232184.000000
10699658.000000,58222436.000000
10458868.000000,58182665.000000
9864720.000000,58146566.000000
8987189.000000,58116598.000000
7896248.000000,58095222.000000
6801464.000000,58085411.000000
5485128.000000,58076288.000000
4560948.000000,58060220.000000
3997769.000000,58034650.000000
3764436.000000,57997021.000000
3829795.000000,57944775.000000
4162690.000000,57875357.000000
4188334.000000,57870958.000000
4756428.000000,57813567.000000
5579749.000000,57779955.000000
6567926.000000,57768234.000000
Z" /> 
<path style="fill:#000000; fill-opacity:1.0; 
stroke:#000000; stroke-width:10000.000000; stroke-opacity:1; 
stroke-linecap:round; stroke-linejoin:round;fill-rule:evenodd;"
d="M 6064198.000000,58387306.000000
6622500.000000,58555000.000000
6821221.000000,58673215.000000
6670140.000000,58732367.000000
6252084.000000,58751789.000000
5742056.000000,58711549.000000
5471490.000000,58593120.000000
5458334.000000,58555000.000000
5630979.000000,58386095.000000
Z" /> 
<path style="fill:#000000; fill-opacity:1.0; 
stroke:#000000; stroke-width:10000.000000; stroke-opacity:1; 
stroke-linecap:round; stroke-linejoin:round;fill-rule:evenodd;"
d="M 16045266.000000,58629962.000000
16467830.000000,58555000.000000
16883330.000000,58607654.000000
16979873.000000,58822638.000000
16949664.000000,58978333.000000
16805696.000000,59307455.000000
16704897.000000,59372841.000000
16409571.000000,59313259.000000
16106287.000000,59253820.000000
15773033.000000,59082814.000000
15771011.000000,58872500.000000
16465000.000000,58872500.000000
16570834.000000,58978333.000000
16676667.000000,58872500.000000
16570834.000000,58766666.000000
16465000.000000,58872500.000000
15771011.000000,58872500.000000
15770699.000000,58840057.000000
Z" /> 
<path style="fill:#000000; fill-opacity:1.0; 
stroke:#000000; stroke-width:10000.000000; stroke-opacity:1; 
stroke-linecap:round; stroke-linejoin:round;fill-rule:evenodd;"
d="M 10273750.000000,61787474.000000
10459920.000000,61825333.000000
10266950.000000,61854145.000000
9739013.000000,61869287.000000
9480000.000000,61870503.000000
8844012.000000,61861310.000000
8527347.000000,61836811.000000
8574176.000000,61801628.000000
8686250.000000,61787474.000000
9481044.000000,61753224.000000
Z" /> 
<path style="fill:#000000; fill-opacity:1.0; 
stroke:#000000; stroke-width:10000.000000; stroke-opacity:1; 
stroke-linecap:round; stroke-linejoin:round;fill-rule:evenodd;"
d="M 4086909.000000,61805744.000000
4293296.000000,61940257.000000
4219853.000000,62081906.000000
3865549.000000,62104358.000000
3412988.000000,62013968.000000
3206437.000000,61894101.000000
3305922.000000,61772547.000000
3634183.000000,61730000.000000
Z" /> 
<path style="fill:#000000; fill-opacity:1.0; 
stroke:#000000; stroke-width:10000.000000; stroke-opacity:1; 
stroke-linecap:round; stroke-linejoin:round;fill-rule:evenodd;"
d="M 19239188.000000,60309643.000000
19428285.000000,60457366.000000
19428334.000000,60460000.000000
19244402.000000,60608618.000000
18801234.000000,60671650.000000
18793334.000000,60671666.000000
18347479.000000,60610356.000000
18158382.000000,60462633.000000
18158334.000000,60460000.000000
18342265.000000,60311381.000000
18785433.000000,60248349.000000
18793334.000000,60248333.000000
Z" /> 
<path style="fill:#000000; fill-opacity:1.0; 
stroke:#000000; stroke-width:10000.000000; stroke-opacity:1; 
stroke-linecap:round; stroke-linejoin:round;fill-rule:evenodd;"
d="M 20862431.000000,61277735.000000
21107814.000000,61712827.000000
21121667.000000,61853145.000000
20936804.000000,61914395.000000
20489060.000000,61941585.000000
20460749.000000,61941666.000000
20030069.000000,61907709.000000
19955322.000000,61777337.000000
20035580.000000,61657608.000000
20169853.000000,61348963.000000
20132053.000000,61234274.000000
20190094.000000,61124707.000000
20428743.000000,61095000.000000
Z" /> 
<path style="fill:#000000; fill-opacity:1.0; 
stroke:#000000; stroke-width:10000.000000; stroke-opacity:1; 
stroke-linecap:round; stroke-linejoin:round;fill-rule:evenodd;"
d="M 7333579.000000,59924809.000000
7684419.000000,59863264.000000
8435174.000000,59848932.000000
8527500.000000,59849907.000000
9257465.000000,59865839.000000
9600979.000000,59896666.000000
9594890.000000,59951832.000000
9276044.000000,60040783.000000
9274025.000000,60041258.000000
8764964.000000,60214886.000000
8476656.000000,60414885.000000
8462636.000000,60442925.000000
8236330.000000,60601590.000000
7819015.000000,60665801.000000
7398013.000000,60633119.000000
7160651.000000,60501103.000000
7151667.000000,60460000.000000
7319096.000000,60261148.000000
7416250.000000,60245092.000000
7526437.000000,60171915.000000
7448421.000000,60107222.000000
7857222.000000,60107222.000000
7886278.000000,60233057.000000
7998334.000000,60248333.000000
8172559.000000,60170887.000000
8139445.000000,60107222.000000
7888246.000000,60081889.000000
7857222.000000,60107222.000000
7448421.000000,60107222.000000
7363334.000000,60036666.000000
Z" /> 
<path style="fill:#000000; fill-opacity:1.0; 
stroke:#000000; stroke-width:10000.000000; stroke-opacity:1; 
stroke-linecap:round; stroke-linejoin:round;fill-rule:evenodd;"
d="M 19269663.000000,57773580.000000
19534167.000000,57920000.000000
19444742.000000,58064030.000000
19013525.000000,58130104.000000
18911659.000000,58131666.000000
18417051.000000,58079322.000000
18166109.000000,57950346.000000
18158334.000000,57920000.000000
18341975.000000,57770245.000000
18780842.000000,57708333.000000
Z" /> 
<path style="fill:#000000; fill-opacity:1.0; 
stroke:#000000; stroke-width:10000.000000; stroke-opacity:1; 
stroke-linecap:round; stroke-linejoin:round;fill-rule:evenodd;"
d="M 9339882.000000,59003410.000000
9712937.000000,59067324.000000
9709824.000000,59177535.000000
9691667.000000,59190000.000000
9284567.000000,59321562.000000
8679439.000000,59385876.000000
8033714.000000,59382941.000000
7504824.000000,59312758.000000
7257500.000000,59190000.000000
7374894.000000,59071176.000000
7875713.000000,59000049.000000
8567925.000000,58981574.000000
Z" /> 
<path style="fill:#000000; fill-opacity:1.0; 
stroke:#000000; stroke-width:10000.000000; stroke-opacity:1; 
stroke-linecap:round; stroke-linejoin:round;fill-rule:evenodd;"
d="M 6571786.000000,61162190.000000
6622500.000000,61306666.000000
6323951.000000,61484480.000000
6080842.000000,61518333.000000
5743731.000000,61427285.000000
5670000.000000,61306666.000000
5851515.000000,61148901.000000
6211659.000000,61095000.000000
Z" /> 
<path style="fill:#000000; fill-opacity:1.0; 
stroke:#000000; stroke-width:10000.000000; stroke-opacity:1; 
stroke-linecap:round; stroke-linejoin:round;fill-rule:evenodd;"
d="M 19123190.000000,57151377.000000
19322500.000000,57285000.000000
19239789.000000,57434907.000000
18827977.000000,57496564.000000
18805825.000000,57496666.000000
18354601.000000,57436447.000000
18158589.000000,57290960.000000
18158334.000000,57285000.000000
18339085.000000,57124502.000000
18675008.000000,57073333.000000
Z" /> 
<path style="fill:#000000; fill-opacity:1.0; 
stroke:#000000; stroke-width:10000.000000; stroke-opacity:1; 
stroke-linecap:round; stroke-linejoin:round;fill-rule:evenodd;"
d="M 12576142.000000,59781904.000000
12961947.000000,59857530.000000
13078334.000000,59955508.000000
12889695.000000,60001970.000000
12415329.000000,60022836.000000
12178750.000000,60021789.000000
11665290.000000,59991303.000000
11554308.000000,59919082.000000
11687954.000000,59846810.000000
12091425.000000,59773635.000000
Z" /> 
<path style="fill:#000000; fill-opacity:1.0; 
stroke:#000000; stroke-width:10000.000000; stroke-opacity:1; 
stroke-linecap:round; stroke-linejoin:round;fill-rule:evenodd;"
d="M 6075695.000000,57205768.000000
6105665.000000,57322246.000000
5865896.000000,57422142.000000
5297787.000000,57522762.000000
4770417.000000,57591230.000000
4062174.000000,57645057.000000
3638678.000000,57608917.000000
3553334.000000,57538108.000000
3741233.000000,57431218.000000
4210921.000000,57321717.000000
4821387.000000,57228185.000000
5431616.000000,57169199.000000
5900595.000000,57163341.000000
Z" /> 
<path style="fill:#000000; fill-opacity:1.0; 
stroke:#000000; stroke-width:10000.000000; stroke-opacity:1; 
stroke-linecap:round; stroke-linejoin:round;fill-rule:evenodd;"
d="M 13289479.000000,57759743.000000
14256565.000000,57816513.000000
14804341.000000,57899129.000000
14932780.000000,57989547.000000
14641858.000000,58069723.000000
13931549.000000,58121612.000000
13290000.000000,58131666.000000
12443811.000000,58106672.000000
11855228.000000,58038145.000000
11601171.000000,57935768.000000
11596667.000000,57918493.000000
11797156.000000,57814107.000000
12358338.000000,57758597.000000
13219782.000000,57757631.000000
Z" /> 
<path style="fill:#000000; fill-opacity:1.0; 
stroke:#000000; stroke-width:10000.000000; stroke-opacity:1; 
stroke-linecap:round; stroke-linejoin:round;fill-rule:evenodd;"
d="M 28941586.000000,59299230.000000
29154026.000000,58384335.000000
29582565.000000,57635284.000000
30156705.000000,57103080.000000
30805952.000000,56838726.000000
31459808.000000,56893227.000000
31896781.000000,57161170.000000
32193926.000000,57390419.000000
32333387.000000,57297567.000000
32368466.000000,57182413.000000
32800168.000000,57182413.000000
32877606.000000,57445980.000000
33138974.000000,57961981.000000
33308823.000000,58279216.000000
33642949.000000,58997196.000000
33765358.000000,59603751.000000
33723947.000000,60308179.000000
33664560.000000,61089429.000000
33750677.000000,61535657.000000
34003226.000000,61716429.000000
34151659.000000,61730000.000000
34393384.000000,61545164.000000
34456667.000000,61194034.000000
34602043.000000,60387477.000000
34988590.000000,59469977.000000
35541932.000000,58612805.000000
35617938.000000,58519839.000000
35963235.000000,57996812.000000
36136976.000000,57507480.000000
36113333.000000,57165256.000000
35947357.000000,57073333.000000
35703294.000000,57225482.000000
35325259.000000,57608999.000000
35153607.000000,57814160.000000
34775339.000000,58260121.000000
34508065.000000,58524115.000000
34451884.000000,58554993.000000
34291733.000000,58387370.000000
34028496.000000,57969636.000000
33942303.000000,57814166.000000
33572427.000000,57306507.000000
33198046.000000,57076999.000000
33153336.000000,57073333.000000
32895723.000000,57086468.000000
32800168.000000,57182413.000000
32368466.000000,57182413.000000
32399118.000000,57081795.000000
32656061.000000,56729893.000000
32908087.000000,56650000.000000
33413804.000000,56778810.000000
33900781.000000,57087861.000000
34208127.000000,57461080.000000
34245000.000000,57614502.000000
34309215.000000,57873568.000000
34531623.000000,57844441.000000
34956871.000000,57510857.000000
35226388.000000,57257000.000000
35800906.000000,56825551.000000
36247930.000000,56734059.000000
36517086.000000,56979746.000000
36572829.000000,57331273.000000
36457181.000000,57743836.000000
36154359.000000,58362747.000000
35729712.000000,59054588.000000
35726162.000000,59059818.000000
35296793.000000,59746404.000000
34981505.000000,60353504.000000
34847947.000000,60750708.000000
34847760.000000,60753152.000000
34810615.000000,61265739.000000
34793766.000000,61495944.000000
34612400.000000,61844448.000000
34406644.000000,62021523.000000
34040047.000000,62125713.000000
33670177.000000,61880891.000000
33444864.000000,61529520.000000
33351832.000000,60992233.000000
33358644.000000,60296979.000000
33334572.000000,59345257.000000
33158481.000000,58735604.000000
33122635.000000,58681074.000000
32927277.000000,58445871.000000
32875979.000000,58534729.000000
32924849.000000,58944259.000000
32930476.000000,60011505.000000
32657340.000000,60964094.000000
32154235.000000,61724791.000000
31469954.000000,62216361.000000
30763790.000000,62365000.000000
29960143.000000,62199996.000000
29472879.000000,61845454.000000
29110910.000000,61331911.000000
28931808.000000,60646211.000000
28926064.000000,60318335.000000
29247940.000000,60318335.000000
29419811.000000,61132904.000000
29721876.000000,61621637.000000
30262795.000000,61897293.000000
30953756.000000,61921227.000000
31613776.000000,61705596.000000
31912062.000000,61474512.000000
32261248.000000,60950146.000000
32540296.000000,60284828.000000
32564127.000000,60202058.000000
32669615.000000,59589524.000000
32586111.000000,59025727.000000
32368729.000000,58464815.000000
31861599.000000,57628509.000000
31289208.000000,57201586.000000
30693541.000000,57183909.000000
30116586.000000,57575336.000000
29600331.000000,58375731.000000
29555485.000000,58474128.000000
29290719.000000,59385810.000000
29247940.000000,60318335.000000
28926064.000000,60318335.000000
28915056.000000,59690020.000000
Z" /> 
<path style="fill:#000000; fill-opacity:1.0; 
stroke:#000000; stroke-width:10000.000000; stroke-opacity:1; 
stroke-linecap:round; stroke-linejoin:round;fill-rule:evenodd;"
d="M 22191963.000000,57890611.000000
22900776.000000,57933307.000000
23445750.000000,57996579.000000
23450000.000000,57997315.000000
23564007.000000,58052962.000000
23348049.000000,58107190.000000
22895454.000000,58152772.000000
22299551.000000,58182480.000000
21653668.000000,58189089.000000
21174584.000000,58173521.000000
20553598.000000,58111197.000000
20150265.000000,58019724.000000
20063334.000000,57954935.000000
20254998.000000,57900653.000000
20751824.000000,57872817.000000
21436563.000000,57869958.000000
Z" /> 
<path style="fill:#000000; fill-opacity:1.0; 
stroke:#000000; stroke-width:10000.000000; stroke-opacity:1; 
stroke-linecap:round; stroke-linejoin:round;fill-rule:evenodd;"
d="M 24539577.000000,60933842.000000
24601002.000000,60776358.000000
24818655.000000,60123190.000000
24928469.000000,59534744.000000
24931667.000000,59453291.000000
24999270.000000,58850305.000000
25168794.000000,58108755.000000
25390306.000000,57410252.000000
25613876.000000,56936409.000000
25629644.000000,56914583.000000
25947931.000000,56756148.000000
26519008.000000,56663121.000000
26809668.000000,56652620.000000
27444767.000000,56689691.000000
27838334.000000,56857354.000000
28170336.000000,57246826.000000
28265417.000000,57390484.000000
28646192.000000,58114793.000000
28704456.000000,58672491.000000
28447496.000000,59162382.000000
28400096.000000,59216598.000000
28179036.000000,59597074.000000
28228178.000000,60070938.000000
28275948.000000,60217731.000000
28319044.000000,60935773.000000
27993316.000000,61615601.000000
27589769.000000,61991342.000000
27214079.000000,62105885.000000
26598833.000000,62158808.000000
25876081.000000,62155496.000000
25177872.000000,62101335.000000
24636254.000000,62001711.000000
24383274.000000,61862009.000000
24382693.000000,61860541.000000
24386426.000000,61580017.000000
24785716.000000,61580017.000000
25044852.000000,61742987.000000
25281590.000000,61788081.000000
26191232.000000,61890161.000000
26821288.000000,61857043.000000
27299226.000000,61669804.000000
27604128.000000,61443286.000000
27978075.000000,61077973.000000
28066141.000000,60766935.000000
27920132.000000,60309141.000000
27905515.000000,60273717.000000
27742455.000000,59773784.000000
27801132.000000,59445296.000000
27972916.000000,59220847.000000
28269736.000000,58640599.000000
28211248.000000,58048300.000000
27853521.000000,57531806.000000
27252624.000000,57178969.000000
26602367.000000,57073333.000000
26219606.000000,57079871.000000
25956148.000000,57147880.000000
25768111.000000,57349947.000000
25611611.000000,57758660.000000
25442766.000000,58446610.000000
25258764.000000,59295833.000000
25080202.000000,60105661.000000
24918734.000000,60803529.000000
24809487.000000,61237713.000000
24785716.000000,61580017.000000
24386426.000000,61580017.000000
24387623.000000,61490115.000000
Z" /> 
<path style="fill:#000000; fill-opacity:1.0; 
stroke:#000000; stroke-width:10000.000000; stroke-opacity:1; 
stroke-linecap:round; stroke-linejoin:round;fill-rule:evenodd;"
d="M 26100055.000000,58024387.000000
26497026.000000,57921843.000000
26599083.000000,57920000.000000
27196599.000000,58027251.000000
27514851.000000,58301129.000000
27495237.000000,58669814.000000
27358021.000000,58850074.000000
27003073.000000,59135003.000000
26675265.000000,59123692.000000
26360417.000000,58961379.000000
26050772.000000,58594078.000000
26041683.000000,58555000.000000
26519167.000000,58555000.000000
26780040.000000,58758415.000000
26836667.000000,58766666.000000
27110782.000000,58613422.000000
27154167.000000,58555000.000000
27087688.000000,58389929.000000
26836667.000000,58343333.000000
26536209.000000,58422887.000000
26519167.000000,58555000.000000
26041683.000000,58555000.000000
25990000.000000,58332815.000000
Z" /> 
<g >
</g>
<g >
</g>
<g >
</g>
<g >
</g>
</g> 
</svg>
